%TF.GenerationSoftware,Altium Limited,Altium Designer,23.11.1 (41)*%
G04 Layer_Color=128*
%FSLAX45Y45*%
%MOMM*%
%TF.SameCoordinates,93787688-83E1-42C5-93B8-12A4BFDEF0D2*%
%TF.FilePolarity,Positive*%
%TF.FileFunction,Paste,Bot*%
%TF.Part,Single*%
G01*
G75*
%TA.AperFunction,SMDPad,CuDef*%
G04:AMPARAMS|DCode=11|XSize=1.05mm|YSize=1.6mm|CornerRadius=0.2625mm|HoleSize=0mm|Usage=FLASHONLY|Rotation=180.000|XOffset=0mm|YOffset=0mm|HoleType=Round|Shape=RoundedRectangle|*
%AMROUNDEDRECTD11*
21,1,1.05000,1.07500,0,0,180.0*
21,1,0.52500,1.60000,0,0,180.0*
1,1,0.52500,-0.26250,0.53750*
1,1,0.52500,0.26250,0.53750*
1,1,0.52500,0.26250,-0.53750*
1,1,0.52500,-0.26250,-0.53750*
%
%ADD11ROUNDEDRECTD11*%
G04:AMPARAMS|DCode=12|XSize=1.05mm|YSize=1.6mm|CornerRadius=0.2625mm|HoleSize=0mm|Usage=FLASHONLY|Rotation=270.000|XOffset=0mm|YOffset=0mm|HoleType=Round|Shape=RoundedRectangle|*
%AMROUNDEDRECTD12*
21,1,1.05000,1.07500,0,0,270.0*
21,1,0.52500,1.60000,0,0,270.0*
1,1,0.52500,-0.53750,-0.26250*
1,1,0.52500,-0.53750,0.26250*
1,1,0.52500,0.53750,0.26250*
1,1,0.52500,0.53750,-0.26250*
%
%ADD12ROUNDEDRECTD12*%
G04:AMPARAMS|DCode=17|XSize=2mm|YSize=2mm|CornerRadius=0.5mm|HoleSize=0mm|Usage=FLASHONLY|Rotation=90.000|XOffset=0mm|YOffset=0mm|HoleType=Round|Shape=RoundedRectangle|*
%AMROUNDEDRECTD17*
21,1,2.00000,1.00000,0,0,90.0*
21,1,1.00000,2.00000,0,0,90.0*
1,1,1.00000,0.50000,0.50000*
1,1,1.00000,0.50000,-0.50000*
1,1,1.00000,-0.50000,-0.50000*
1,1,1.00000,-0.50000,0.50000*
%
%ADD17ROUNDEDRECTD17*%
%ADD53O,0.30000X2.80000*%
%ADD54O,2.80000X0.30000*%
G04:AMPARAMS|DCode=55|XSize=1.5mm|YSize=1.8mm|CornerRadius=0.375mm|HoleSize=0mm|Usage=FLASHONLY|Rotation=0.000|XOffset=0mm|YOffset=0mm|HoleType=Round|Shape=RoundedRectangle|*
%AMROUNDEDRECTD55*
21,1,1.50000,1.05000,0,0,0.0*
21,1,0.75000,1.80000,0,0,0.0*
1,1,0.75000,0.37500,-0.52500*
1,1,0.75000,-0.37500,-0.52500*
1,1,0.75000,-0.37500,0.52500*
1,1,0.75000,0.37500,0.52500*
%
%ADD55ROUNDEDRECTD55*%
G04:AMPARAMS|DCode=56|XSize=1.5mm|YSize=0.5mm|CornerRadius=0.125mm|HoleSize=0mm|Usage=FLASHONLY|Rotation=180.000|XOffset=0mm|YOffset=0mm|HoleType=Round|Shape=RoundedRectangle|*
%AMROUNDEDRECTD56*
21,1,1.50000,0.25000,0,0,180.0*
21,1,1.25000,0.50000,0,0,180.0*
1,1,0.25000,-0.62500,0.12500*
1,1,0.25000,0.62500,0.12500*
1,1,0.25000,0.62500,-0.12500*
1,1,0.25000,-0.62500,-0.12500*
%
%ADD56ROUNDEDRECTD56*%
G04:AMPARAMS|DCode=57|XSize=1.5mm|YSize=0.5mm|CornerRadius=0.0625mm|HoleSize=0mm|Usage=FLASHONLY|Rotation=180.000|XOffset=0mm|YOffset=0mm|HoleType=Round|Shape=RoundedRectangle|*
%AMROUNDEDRECTD57*
21,1,1.50000,0.37500,0,0,180.0*
21,1,1.37500,0.50000,0,0,180.0*
1,1,0.12500,-0.68750,0.18750*
1,1,0.12500,0.68750,0.18750*
1,1,0.12500,0.68750,-0.18750*
1,1,0.12500,-0.68750,-0.18750*
%
%ADD57ROUNDEDRECTD57*%
G04:AMPARAMS|DCode=58|XSize=0.8mm|YSize=1.1mm|CornerRadius=0.2mm|HoleSize=0mm|Usage=FLASHONLY|Rotation=0.000|XOffset=0mm|YOffset=0mm|HoleType=Round|Shape=RoundedRectangle|*
%AMROUNDEDRECTD58*
21,1,0.80000,0.70000,0,0,0.0*
21,1,0.40000,1.10000,0,0,0.0*
1,1,0.40000,0.20000,-0.35000*
1,1,0.40000,-0.20000,-0.35000*
1,1,0.40000,-0.20000,0.35000*
1,1,0.40000,0.20000,0.35000*
%
%ADD58ROUNDEDRECTD58*%
G04:AMPARAMS|DCode=59|XSize=3mm|YSize=3mm|CornerRadius=0.75mm|HoleSize=0mm|Usage=FLASHONLY|Rotation=0.000|XOffset=0mm|YOffset=0mm|HoleType=Round|Shape=RoundedRectangle|*
%AMROUNDEDRECTD59*
21,1,3.00000,1.50000,0,0,0.0*
21,1,1.50000,3.00000,0,0,0.0*
1,1,1.50000,0.75000,-0.75000*
1,1,1.50000,-0.75000,-0.75000*
1,1,1.50000,-0.75000,0.75000*
1,1,1.50000,0.75000,0.75000*
%
%ADD59ROUNDEDRECTD59*%
G04:AMPARAMS|DCode=60|XSize=1.21mm|YSize=0.58mm|CornerRadius=0.0725mm|HoleSize=0mm|Usage=FLASHONLY|Rotation=90.000|XOffset=0mm|YOffset=0mm|HoleType=Round|Shape=RoundedRectangle|*
%AMROUNDEDRECTD60*
21,1,1.21000,0.43500,0,0,90.0*
21,1,1.06500,0.58000,0,0,90.0*
1,1,0.14500,0.21750,0.53250*
1,1,0.14500,0.21750,-0.53250*
1,1,0.14500,-0.21750,-0.53250*
1,1,0.14500,-0.21750,0.53250*
%
%ADD60ROUNDEDRECTD60*%
G04:AMPARAMS|DCode=61|XSize=1.45mm|YSize=2.1mm|CornerRadius=0.3625mm|HoleSize=0mm|Usage=FLASHONLY|Rotation=270.000|XOffset=0mm|YOffset=0mm|HoleType=Round|Shape=RoundedRectangle|*
%AMROUNDEDRECTD61*
21,1,1.45000,1.37500,0,0,270.0*
21,1,0.72500,2.10000,0,0,270.0*
1,1,0.72500,-0.68750,-0.36250*
1,1,0.72500,-0.68750,0.36250*
1,1,0.72500,0.68750,0.36250*
1,1,0.72500,0.68750,-0.36250*
%
%ADD61ROUNDEDRECTD61*%
%ADD62C,1.50000*%
D11*
X8500000Y4190000D02*
D03*
X8695000D02*
D03*
X8500000Y3710000D02*
D03*
X8695000D02*
D03*
X8500000Y3310000D02*
D03*
X8695000D02*
D03*
X6495000Y3070000D02*
D03*
X6690000D02*
D03*
Y3470000D02*
D03*
X6495000D02*
D03*
X6690000Y3950000D02*
D03*
X6495000D02*
D03*
D12*
X7060000Y4600000D02*
D03*
Y4795000D02*
D03*
X7310000Y4600000D02*
D03*
Y4795000D02*
D03*
X7560000Y4600000D02*
D03*
Y4795000D02*
D03*
X7810000Y4600000D02*
D03*
Y4795000D02*
D03*
X8450000Y2270000D02*
D03*
Y2075000D02*
D03*
X8110000Y1985000D02*
D03*
Y1790000D02*
D03*
X7860000Y1985000D02*
D03*
Y1790000D02*
D03*
X7610000D02*
D03*
Y1985000D02*
D03*
D17*
X8440000Y1620000D02*
D03*
Y1200000D02*
D03*
D53*
X4935000Y2805000D02*
D03*
X4885000D02*
D03*
X4835000D02*
D03*
X4785000D02*
D03*
X4735000D02*
D03*
X4685000D02*
D03*
X4635000D02*
D03*
X4585000D02*
D03*
X4535000D02*
D03*
X4485000D02*
D03*
X4435000D02*
D03*
X4385000D02*
D03*
X4335000D02*
D03*
X4285000D02*
D03*
X4235000D02*
D03*
X4185000D02*
D03*
X4135000D02*
D03*
X4085000D02*
D03*
X4035000D02*
D03*
X3985000D02*
D03*
X3935000D02*
D03*
X3885000D02*
D03*
X3835000D02*
D03*
X3785000D02*
D03*
X3735000D02*
D03*
X3685000D02*
D03*
X3635000D02*
D03*
X3585000D02*
D03*
X3535000D02*
D03*
X3485000D02*
D03*
X3435000D02*
D03*
X3385000D02*
D03*
X3335000D02*
D03*
X3285000D02*
D03*
X3235000D02*
D03*
X3185000D02*
D03*
Y5015000D02*
D03*
X3235000D02*
D03*
X3285000D02*
D03*
X3335000D02*
D03*
X3385000D02*
D03*
X3435000D02*
D03*
X3485000D02*
D03*
X3535000D02*
D03*
X3585000D02*
D03*
X3635000D02*
D03*
X3685000D02*
D03*
X3735000D02*
D03*
X3785000D02*
D03*
X3835000D02*
D03*
X3885000D02*
D03*
X3935000D02*
D03*
X3985000D02*
D03*
X4035000D02*
D03*
X4085000D02*
D03*
X4135000D02*
D03*
X4185000D02*
D03*
X4235000D02*
D03*
X4285000D02*
D03*
X4335000D02*
D03*
X4385000D02*
D03*
X4435000D02*
D03*
X4485000D02*
D03*
X4535000D02*
D03*
X4585000D02*
D03*
X4635000D02*
D03*
X4685000D02*
D03*
X4735000D02*
D03*
X4785000D02*
D03*
X4835000D02*
D03*
X4885000D02*
D03*
X4935000D02*
D03*
D54*
X2955000Y3035000D02*
D03*
Y3085000D02*
D03*
Y3135000D02*
D03*
Y3185000D02*
D03*
Y3235000D02*
D03*
Y3285000D02*
D03*
Y3335000D02*
D03*
Y3385000D02*
D03*
Y3435000D02*
D03*
Y3485000D02*
D03*
Y3535000D02*
D03*
Y3585000D02*
D03*
Y3635000D02*
D03*
Y3685000D02*
D03*
Y3735000D02*
D03*
Y3785000D02*
D03*
Y3835000D02*
D03*
Y3885000D02*
D03*
Y3935000D02*
D03*
Y3985000D02*
D03*
Y4035000D02*
D03*
Y4085000D02*
D03*
Y4135000D02*
D03*
Y4185000D02*
D03*
Y4235000D02*
D03*
Y4285000D02*
D03*
Y4335000D02*
D03*
Y4385000D02*
D03*
Y4435000D02*
D03*
Y4485000D02*
D03*
Y4535000D02*
D03*
Y4585000D02*
D03*
Y4635000D02*
D03*
Y4685000D02*
D03*
Y4735000D02*
D03*
Y4785000D02*
D03*
X5165000D02*
D03*
Y4735000D02*
D03*
Y4685000D02*
D03*
Y4635000D02*
D03*
Y4585000D02*
D03*
Y4535000D02*
D03*
Y4485000D02*
D03*
Y4435000D02*
D03*
Y4385000D02*
D03*
Y4335000D02*
D03*
Y4285000D02*
D03*
Y4235000D02*
D03*
Y4185000D02*
D03*
Y4135000D02*
D03*
Y4085000D02*
D03*
Y4035000D02*
D03*
Y3985000D02*
D03*
Y3935000D02*
D03*
Y3885000D02*
D03*
Y3835000D02*
D03*
Y3785000D02*
D03*
Y3735000D02*
D03*
Y3685000D02*
D03*
Y3635000D02*
D03*
Y3585000D02*
D03*
Y3535000D02*
D03*
Y3485000D02*
D03*
Y3435000D02*
D03*
Y3385000D02*
D03*
Y3335000D02*
D03*
Y3285000D02*
D03*
Y3235000D02*
D03*
Y3185000D02*
D03*
Y3135000D02*
D03*
Y3085000D02*
D03*
Y3035000D02*
D03*
D55*
X5610000Y5710000D02*
D03*
X5330000D02*
D03*
X1960000Y5220000D02*
D03*
X2240000D02*
D03*
D56*
X8165000Y2270000D02*
D03*
X7000000D02*
D03*
Y2350000D02*
D03*
Y2430000D02*
D03*
Y2510000D02*
D03*
Y2590000D02*
D03*
Y2670000D02*
D03*
Y2750000D02*
D03*
Y2830000D02*
D03*
Y2910000D02*
D03*
Y2990000D02*
D03*
Y3070000D02*
D03*
Y3150000D02*
D03*
Y3230000D02*
D03*
Y3310000D02*
D03*
Y3390000D02*
D03*
Y3470000D02*
D03*
Y3550000D02*
D03*
Y3630000D02*
D03*
Y3710000D02*
D03*
Y3790000D02*
D03*
Y3870000D02*
D03*
Y3950000D02*
D03*
Y4030000D02*
D03*
Y4110000D02*
D03*
Y4190000D02*
D03*
Y4270000D02*
D03*
Y4350000D02*
D03*
X8165000Y4270000D02*
D03*
Y4190000D02*
D03*
Y4110000D02*
D03*
Y4030000D02*
D03*
Y3950000D02*
D03*
Y3870000D02*
D03*
Y3790000D02*
D03*
Y3710000D02*
D03*
Y3630000D02*
D03*
Y3550000D02*
D03*
Y3470000D02*
D03*
Y3390000D02*
D03*
Y3310000D02*
D03*
Y3230000D02*
D03*
Y3150000D02*
D03*
Y3070000D02*
D03*
Y2990000D02*
D03*
Y2910000D02*
D03*
Y2830000D02*
D03*
Y2750000D02*
D03*
Y2670000D02*
D03*
Y2590000D02*
D03*
Y2510000D02*
D03*
Y2430000D02*
D03*
Y2350000D02*
D03*
D57*
Y4350000D02*
D03*
D58*
X8450000Y1880000D02*
D03*
X8300000D02*
D03*
D59*
X9300000Y2109320D02*
D03*
Y1200000D02*
D03*
D60*
X7950000Y1451000D02*
D03*
X8045000D02*
D03*
X8140000D02*
D03*
X7950000Y1200000D02*
D03*
X8045000D02*
D03*
X8140000D02*
D03*
D61*
X7700000Y905000D02*
D03*
Y1200000D02*
D03*
X7400000Y905000D02*
D03*
Y1200000D02*
D03*
D62*
X3915000Y147500D02*
D03*
X3682500D02*
D03*
X3450000D02*
D03*
X3217500D02*
D03*
X2985000D02*
D03*
X1400000Y130000D02*
D03*
%TF.MD5,bfeeab0875d29d4f1a20de626536e9ca*%
M02*
