%TF.GenerationSoftware,Altium Limited,Altium Designer,23.11.1 (41)*%
G04 Layer_Color=16711935*
%FSLAX45Y45*%
%MOMM*%
%TF.SameCoordinates,93787688-83E1-42C5-93B8-12A4BFDEF0D2*%
%TF.FilePolarity,Positive*%
%TF.FileFunction,Other,Mechanical_1*%
%TF.Part,Single*%
G01*
G75*
%TA.AperFunction,NonConductor*%
%ADD69C,0.25400*%
%ADD149C,0.15240*%
D69*
X-490800Y152400D02*
X-440000Y0D01*
X-389200Y152400D01*
X-440000Y8000000D02*
X-389200Y7847600D01*
X-490800D02*
X-440000Y8000000D01*
Y0D02*
Y3575931D01*
Y4342789D02*
Y8000000D01*
X-465400Y0D02*
X-35400D01*
X-465400Y8000000D02*
X-35400D01*
X0Y-320000D02*
X152400Y-269200D01*
X0Y-320000D02*
X152400Y-370800D01*
X9847600D02*
X10000000Y-320000D01*
X9847600Y-269200D02*
X10000000Y-320000D01*
X0D02*
X4512451D01*
X5406269D02*
X10000000D01*
X0Y-345400D02*
Y-35400D01*
X10000000Y-345400D02*
Y-35400D01*
D149*
X-475543Y3616571D02*
X-500935Y3641963D01*
Y3692746D01*
X-475543Y3718138D01*
X-450152D01*
X-424760Y3692746D01*
X-399368Y3718138D01*
X-373976D01*
X-348585Y3692746D01*
Y3641963D01*
X-373976Y3616571D01*
X-399368D01*
X-424760Y3641963D01*
X-450152Y3616571D01*
X-475543D01*
X-424760Y3641963D02*
Y3692746D01*
X-348585Y3768922D02*
X-373976D01*
Y3794313D01*
X-348585D01*
Y3768922D01*
X-475543Y3895880D02*
X-500935Y3921272D01*
Y3972056D01*
X-475543Y3997448D01*
X-373976D01*
X-348585Y3972056D01*
Y3921272D01*
X-373976Y3895880D01*
X-475543D01*
X-450152Y4149798D02*
Y4073623D01*
X-424760Y4048231D01*
X-373976D01*
X-348585Y4073623D01*
Y4149798D01*
Y4200582D02*
X-450152D01*
Y4225974D01*
X-424760Y4251365D01*
X-348585D01*
X-424760D01*
X-450152Y4276757D01*
X-424760Y4302149D01*
X-348585D01*
X4553091Y-411415D02*
X4603875D01*
X4578483D01*
Y-259065D01*
X4553091Y-284457D01*
X4680050D02*
X4705442Y-259065D01*
X4756226D01*
X4781618Y-284457D01*
Y-386024D01*
X4756226Y-411415D01*
X4705442D01*
X4680050Y-386024D01*
Y-284457D01*
X4832401Y-411415D02*
Y-386024D01*
X4857793D01*
Y-411415D01*
X4832401D01*
X4959360Y-284457D02*
X4984752Y-259065D01*
X5035535D01*
X5060927Y-284457D01*
Y-386024D01*
X5035535Y-411415D01*
X4984752D01*
X4959360Y-386024D01*
Y-284457D01*
X5213278Y-309848D02*
X5137103D01*
X5111711Y-335240D01*
Y-386024D01*
X5137103Y-411415D01*
X5213278D01*
X5264061D02*
Y-309848D01*
X5289453D01*
X5314845Y-335240D01*
Y-411415D01*
Y-335240D01*
X5340237Y-309848D01*
X5365629Y-335240D01*
Y-411415D01*
%TF.MD5,fef78406e4640f7f8c6d804ce85641ef*%
M02*
