%TF.GenerationSoftware,Altium Limited,Altium Designer,23.11.1 (41)*%
G04 Layer_Physical_Order=4*
G04 Layer_Color=16711680*
%FSLAX45Y45*%
%MOMM*%
%TF.SameCoordinates,93787688-83E1-42C5-93B8-12A4BFDEF0D2*%
%TF.FilePolarity,Positive*%
%TF.FileFunction,Copper,L4,Bot,Signal*%
%TF.Part,Single*%
G01*
G75*
%TA.AperFunction,SMDPad,CuDef*%
G04:AMPARAMS|DCode=11|XSize=1.05mm|YSize=1.6mm|CornerRadius=0.2625mm|HoleSize=0mm|Usage=FLASHONLY|Rotation=180.000|XOffset=0mm|YOffset=0mm|HoleType=Round|Shape=RoundedRectangle|*
%AMROUNDEDRECTD11*
21,1,1.05000,1.07500,0,0,180.0*
21,1,0.52500,1.60000,0,0,180.0*
1,1,0.52500,-0.26250,0.53750*
1,1,0.52500,0.26250,0.53750*
1,1,0.52500,0.26250,-0.53750*
1,1,0.52500,-0.26250,-0.53750*
%
%ADD11ROUNDEDRECTD11*%
G04:AMPARAMS|DCode=12|XSize=1.05mm|YSize=1.6mm|CornerRadius=0.2625mm|HoleSize=0mm|Usage=FLASHONLY|Rotation=270.000|XOffset=0mm|YOffset=0mm|HoleType=Round|Shape=RoundedRectangle|*
%AMROUNDEDRECTD12*
21,1,1.05000,1.07500,0,0,270.0*
21,1,0.52500,1.60000,0,0,270.0*
1,1,0.52500,-0.53750,-0.26250*
1,1,0.52500,-0.53750,0.26250*
1,1,0.52500,0.53750,0.26250*
1,1,0.52500,0.53750,-0.26250*
%
%ADD12ROUNDEDRECTD12*%
G04:AMPARAMS|DCode=17|XSize=2mm|YSize=2mm|CornerRadius=0.5mm|HoleSize=0mm|Usage=FLASHONLY|Rotation=90.000|XOffset=0mm|YOffset=0mm|HoleType=Round|Shape=RoundedRectangle|*
%AMROUNDEDRECTD17*
21,1,2.00000,1.00000,0,0,90.0*
21,1,1.00000,2.00000,0,0,90.0*
1,1,1.00000,0.50000,0.50000*
1,1,1.00000,0.50000,-0.50000*
1,1,1.00000,-0.50000,-0.50000*
1,1,1.00000,-0.50000,0.50000*
%
%ADD17ROUNDEDRECTD17*%
%TA.AperFunction,Conductor*%
%ADD32C,0.30000*%
%ADD33C,1.00000*%
%ADD34C,0.50000*%
%ADD35C,2.00000*%
%TA.AperFunction,ComponentPad*%
%ADD36C,1.80000*%
G04:AMPARAMS|DCode=37|XSize=1.8mm|YSize=1.8mm|CornerRadius=0.45mm|HoleSize=0mm|Usage=FLASHONLY|Rotation=90.000|XOffset=0mm|YOffset=0mm|HoleType=Round|Shape=RoundedRectangle|*
%AMROUNDEDRECTD37*
21,1,1.80000,0.90000,0,0,90.0*
21,1,0.90000,1.80000,0,0,90.0*
1,1,0.90000,0.45000,0.45000*
1,1,0.90000,0.45000,-0.45000*
1,1,0.90000,-0.45000,-0.45000*
1,1,0.90000,-0.45000,0.45000*
%
%ADD37ROUNDEDRECTD37*%
G04:AMPARAMS|DCode=38|XSize=1.8mm|YSize=1.8mm|CornerRadius=0.45mm|HoleSize=0mm|Usage=FLASHONLY|Rotation=0.000|XOffset=0mm|YOffset=0mm|HoleType=Round|Shape=RoundedRectangle|*
%AMROUNDEDRECTD38*
21,1,1.80000,0.90000,0,0,0.0*
21,1,0.90000,1.80000,0,0,0.0*
1,1,0.90000,0.45000,-0.45000*
1,1,0.90000,-0.45000,-0.45000*
1,1,0.90000,-0.45000,0.45000*
1,1,0.90000,0.45000,0.45000*
%
%ADD38ROUNDEDRECTD38*%
%ADD39C,7.00000*%
%ADD40O,2.60000X3.30000*%
G04:AMPARAMS|DCode=41|XSize=2.6mm|YSize=3.3mm|CornerRadius=0.325mm|HoleSize=0mm|Usage=FLASHONLY|Rotation=0.000|XOffset=0mm|YOffset=0mm|HoleType=Round|Shape=RoundedRectangle|*
%AMROUNDEDRECTD41*
21,1,2.60000,2.65000,0,0,0.0*
21,1,1.95000,3.30000,0,0,0.0*
1,1,0.65000,0.97500,-1.32500*
1,1,0.65000,-0.97500,-1.32500*
1,1,0.65000,-0.97500,1.32500*
1,1,0.65000,0.97500,1.32500*
%
%ADD41ROUNDEDRECTD41*%
%ADD42O,2.50000X2.00000*%
G04:AMPARAMS|DCode=43|XSize=1.7mm|YSize=2mm|CornerRadius=0.2125mm|HoleSize=0mm|Usage=FLASHONLY|Rotation=270.000|XOffset=0mm|YOffset=0mm|HoleType=Round|Shape=RoundedRectangle|*
%AMROUNDEDRECTD43*
21,1,1.70000,1.57500,0,0,270.0*
21,1,1.27500,2.00000,0,0,270.0*
1,1,0.42500,-0.78750,-0.63750*
1,1,0.42500,-0.78750,0.63750*
1,1,0.42500,0.78750,0.63750*
1,1,0.42500,0.78750,-0.63750*
%
%ADD43ROUNDEDRECTD43*%
%ADD44O,2.00000X1.70000*%
%ADD45C,1.60000*%
%ADD46C,2.00000*%
%ADD47C,3.00000*%
G04:AMPARAMS|DCode=48|XSize=1.8mm|YSize=2.5mm|CornerRadius=0.45mm|HoleSize=0mm|Usage=FLASHONLY|Rotation=180.000|XOffset=0mm|YOffset=0mm|HoleType=Round|Shape=RoundedRectangle|*
%AMROUNDEDRECTD48*
21,1,1.80000,1.60000,0,0,180.0*
21,1,0.90000,2.50000,0,0,180.0*
1,1,0.90000,-0.45000,0.80000*
1,1,0.90000,0.45000,0.80000*
1,1,0.90000,0.45000,-0.80000*
1,1,0.90000,-0.45000,-0.80000*
%
%ADD48ROUNDEDRECTD48*%
%ADD49O,1.80000X2.50000*%
%ADD50O,2.50000X1.80000*%
G04:AMPARAMS|DCode=51|XSize=1.8mm|YSize=2.5mm|CornerRadius=0.45mm|HoleSize=0mm|Usage=FLASHONLY|Rotation=90.000|XOffset=0mm|YOffset=0mm|HoleType=Round|Shape=RoundedRectangle|*
%AMROUNDEDRECTD51*
21,1,1.80000,1.60000,0,0,90.0*
21,1,0.90000,2.50000,0,0,90.0*
1,1,0.90000,0.80000,0.45000*
1,1,0.90000,0.80000,-0.45000*
1,1,0.90000,-0.80000,-0.45000*
1,1,0.90000,-0.80000,0.45000*
%
%ADD51ROUNDEDRECTD51*%
%TA.AperFunction,ViaPad*%
%ADD52C,1.00000*%
%TA.AperFunction,SMDPad,CuDef*%
%ADD53O,0.30000X2.80000*%
%ADD54O,2.80000X0.30000*%
G04:AMPARAMS|DCode=55|XSize=1.5mm|YSize=1.8mm|CornerRadius=0.375mm|HoleSize=0mm|Usage=FLASHONLY|Rotation=0.000|XOffset=0mm|YOffset=0mm|HoleType=Round|Shape=RoundedRectangle|*
%AMROUNDEDRECTD55*
21,1,1.50000,1.05000,0,0,0.0*
21,1,0.75000,1.80000,0,0,0.0*
1,1,0.75000,0.37500,-0.52500*
1,1,0.75000,-0.37500,-0.52500*
1,1,0.75000,-0.37500,0.52500*
1,1,0.75000,0.37500,0.52500*
%
%ADD55ROUNDEDRECTD55*%
G04:AMPARAMS|DCode=56|XSize=1.5mm|YSize=0.5mm|CornerRadius=0.125mm|HoleSize=0mm|Usage=FLASHONLY|Rotation=180.000|XOffset=0mm|YOffset=0mm|HoleType=Round|Shape=RoundedRectangle|*
%AMROUNDEDRECTD56*
21,1,1.50000,0.25000,0,0,180.0*
21,1,1.25000,0.50000,0,0,180.0*
1,1,0.25000,-0.62500,0.12500*
1,1,0.25000,0.62500,0.12500*
1,1,0.25000,0.62500,-0.12500*
1,1,0.25000,-0.62500,-0.12500*
%
%ADD56ROUNDEDRECTD56*%
G04:AMPARAMS|DCode=57|XSize=1.5mm|YSize=0.5mm|CornerRadius=0.0625mm|HoleSize=0mm|Usage=FLASHONLY|Rotation=180.000|XOffset=0mm|YOffset=0mm|HoleType=Round|Shape=RoundedRectangle|*
%AMROUNDEDRECTD57*
21,1,1.50000,0.37500,0,0,180.0*
21,1,1.37500,0.50000,0,0,180.0*
1,1,0.12500,-0.68750,0.18750*
1,1,0.12500,0.68750,0.18750*
1,1,0.12500,0.68750,-0.18750*
1,1,0.12500,-0.68750,-0.18750*
%
%ADD57ROUNDEDRECTD57*%
G04:AMPARAMS|DCode=58|XSize=0.8mm|YSize=1.1mm|CornerRadius=0.2mm|HoleSize=0mm|Usage=FLASHONLY|Rotation=0.000|XOffset=0mm|YOffset=0mm|HoleType=Round|Shape=RoundedRectangle|*
%AMROUNDEDRECTD58*
21,1,0.80000,0.70000,0,0,0.0*
21,1,0.40000,1.10000,0,0,0.0*
1,1,0.40000,0.20000,-0.35000*
1,1,0.40000,-0.20000,-0.35000*
1,1,0.40000,-0.20000,0.35000*
1,1,0.40000,0.20000,0.35000*
%
%ADD58ROUNDEDRECTD58*%
G04:AMPARAMS|DCode=59|XSize=3mm|YSize=3mm|CornerRadius=0.75mm|HoleSize=0mm|Usage=FLASHONLY|Rotation=0.000|XOffset=0mm|YOffset=0mm|HoleType=Round|Shape=RoundedRectangle|*
%AMROUNDEDRECTD59*
21,1,3.00000,1.50000,0,0,0.0*
21,1,1.50000,3.00000,0,0,0.0*
1,1,1.50000,0.75000,-0.75000*
1,1,1.50000,-0.75000,-0.75000*
1,1,1.50000,-0.75000,0.75000*
1,1,1.50000,0.75000,0.75000*
%
%ADD59ROUNDEDRECTD59*%
G04:AMPARAMS|DCode=60|XSize=1.21mm|YSize=0.58mm|CornerRadius=0.0725mm|HoleSize=0mm|Usage=FLASHONLY|Rotation=90.000|XOffset=0mm|YOffset=0mm|HoleType=Round|Shape=RoundedRectangle|*
%AMROUNDEDRECTD60*
21,1,1.21000,0.43500,0,0,90.0*
21,1,1.06500,0.58000,0,0,90.0*
1,1,0.14500,0.21750,0.53250*
1,1,0.14500,0.21750,-0.53250*
1,1,0.14500,-0.21750,-0.53250*
1,1,0.14500,-0.21750,0.53250*
%
%ADD60ROUNDEDRECTD60*%
G04:AMPARAMS|DCode=61|XSize=1.45mm|YSize=2.1mm|CornerRadius=0.3625mm|HoleSize=0mm|Usage=FLASHONLY|Rotation=270.000|XOffset=0mm|YOffset=0mm|HoleType=Round|Shape=RoundedRectangle|*
%AMROUNDEDRECTD61*
21,1,1.45000,1.37500,0,0,270.0*
21,1,0.72500,2.10000,0,0,270.0*
1,1,0.72500,-0.68750,-0.36250*
1,1,0.72500,-0.68750,0.36250*
1,1,0.72500,0.68750,0.36250*
1,1,0.72500,0.68750,-0.36250*
%
%ADD61ROUNDEDRECTD61*%
%ADD62C,1.50000*%
%TA.AperFunction,Conductor*%
%ADD63C,0.40000*%
%TA.AperFunction,NonConductor*%
%ADD64R,1.60000X1.10000*%
%TA.AperFunction,Conductor*%
%ADD65R,1.57500X1.07714*%
G36*
X9969412Y30588D02*
X3982502D01*
X3971784Y70588D01*
X3973331Y71481D01*
X3991019Y89169D01*
X4003526Y110831D01*
X4010000Y134993D01*
Y160007D01*
X4003526Y184168D01*
X3991019Y205831D01*
X3973331Y223518D01*
X3951668Y236025D01*
X3950686Y236289D01*
Y296058D01*
X3947969Y309714D01*
X3942391Y318064D01*
X3945230Y322981D01*
X3950000Y340784D01*
Y359216D01*
X3945230Y377019D01*
X3936014Y392981D01*
X3922981Y406014D01*
X3907019Y415230D01*
X3889216Y420000D01*
X3870784D01*
X3852981Y415230D01*
X3837019Y406014D01*
X3823986Y392981D01*
X3814771Y377019D01*
X3810000Y359216D01*
Y340784D01*
X3814771Y322981D01*
X3823986Y307019D01*
X3837019Y293986D01*
X3852981Y284771D01*
X3870784Y280000D01*
X3879314D01*
Y236289D01*
X3878332Y236025D01*
X3856669Y223518D01*
X3838981Y205831D01*
X3826474Y184168D01*
X3820000Y160007D01*
Y134993D01*
X3826474Y110831D01*
X3838981Y89169D01*
X3856669Y71481D01*
X3858217Y70588D01*
X3847499Y30588D01*
X3750001D01*
X3739283Y70588D01*
X3740831Y71481D01*
X3758519Y89169D01*
X3771025Y110831D01*
X3777500Y134993D01*
Y160007D01*
X3771025Y184168D01*
X3758519Y205831D01*
X3740831Y223518D01*
X3719168Y236025D01*
X3702639Y240455D01*
X3688831Y256840D01*
X3677780Y282500D01*
X3680000Y290784D01*
Y309216D01*
X3675229Y327019D01*
X3666014Y342981D01*
X3652981Y356014D01*
X3637019Y365229D01*
X3619216Y370000D01*
X3600784D01*
X3582981Y365229D01*
X3567019Y356014D01*
X3560000Y348994D01*
X3541997Y349094D01*
X3538666Y349829D01*
X3517273Y359392D01*
X3515229Y367019D01*
X3506014Y382981D01*
X3499680Y389315D01*
X3506240Y417011D01*
X3514009Y429315D01*
X3678760D01*
X3692416Y432031D01*
X3695833Y434314D01*
X3786582D01*
X3800238Y437031D01*
X3811816Y444766D01*
X4973100Y1606051D01*
X5003115Y1592356D01*
X5010000Y1586382D01*
Y1570784D01*
X5014771Y1552981D01*
X5023986Y1537019D01*
X5037019Y1523986D01*
X5052981Y1514770D01*
X5070784Y1510000D01*
X5089216D01*
X5107019Y1514770D01*
X5122981Y1523986D01*
X5143750Y1533482D01*
X5164520Y1523986D01*
X5180481Y1514770D01*
X5198284Y1510000D01*
X5216716D01*
X5234519Y1514770D01*
X5250481Y1523986D01*
X5263514Y1537019D01*
X5267726Y1544314D01*
X5560000D01*
X5573656Y1547031D01*
X5585233Y1554766D01*
X6222648Y2192181D01*
X6230784Y2190000D01*
X6249216D01*
X6257352Y2192181D01*
X6534766Y1914766D01*
X6546344Y1907031D01*
X6560000Y1904314D01*
X6945219D01*
X7128847Y1720686D01*
X7112279Y1680686D01*
X7045000D01*
X7031344Y1677969D01*
X7019766Y1670234D01*
X6637352Y1287820D01*
X6629216Y1290000D01*
X6610784D01*
X6592981Y1285230D01*
X6577019Y1276014D01*
X6563986Y1262981D01*
X6554770Y1247019D01*
X6550000Y1229216D01*
Y1210784D01*
X6554770Y1192981D01*
X6563986Y1177019D01*
X6577019Y1163986D01*
X6592981Y1154771D01*
X6610784Y1150000D01*
X6629216D01*
X6647019Y1154771D01*
X6662981Y1163986D01*
X6676014Y1177019D01*
X6685229Y1192981D01*
X6690000Y1210784D01*
Y1229216D01*
X6687819Y1237352D01*
X6991434Y1540966D01*
X7031157Y1533647D01*
X7036691Y1529655D01*
X7043986Y1517019D01*
X7057019Y1503986D01*
X7064314Y1499774D01*
Y790000D01*
X7067031Y776344D01*
X7074766Y764766D01*
X7209766Y629766D01*
X7221344Y622031D01*
X7235000Y619314D01*
X8193126D01*
X8202469Y609789D01*
X8216793Y579314D01*
X8210332Y563716D01*
X8206551Y535000D01*
Y465000D01*
X8210332Y436284D01*
X8221415Y409525D01*
X8239047Y386547D01*
X8262026Y368915D01*
X8288784Y357831D01*
X8317500Y354051D01*
X8346216Y357831D01*
X8372974Y368915D01*
X8395953Y386547D01*
X8413585Y409525D01*
X8417431Y418812D01*
X8436898Y419397D01*
X8457972Y412160D01*
X8459173Y403031D01*
X8465723Y387219D01*
X8476142Y373642D01*
X8489720Y363223D01*
X8505532Y356673D01*
X8522500Y354439D01*
X8612500D01*
X8629468Y356673D01*
X8645280Y363223D01*
X8658858Y373642D01*
X8669277Y387219D01*
X8675827Y403031D01*
X8678061Y420000D01*
Y580000D01*
X8675827Y596969D01*
X8669277Y612781D01*
X8658858Y626358D01*
X8661394Y670718D01*
X8874990Y884314D01*
X9356435D01*
X9364391Y844314D01*
X9336002Y832555D01*
X9293998Y808304D01*
X9255518Y778778D01*
X9221222Y744482D01*
X9191696Y706002D01*
X9167445Y663998D01*
X9148884Y619188D01*
X9136331Y572338D01*
X9130000Y524251D01*
Y475749D01*
X9136331Y427662D01*
X9148884Y380812D01*
X9167445Y336002D01*
X9191696Y293998D01*
X9221222Y255518D01*
X9255518Y221222D01*
X9293998Y191696D01*
X9336002Y167445D01*
X9380812Y148884D01*
X9427662Y136331D01*
X9475749Y130000D01*
X9524251D01*
X9572338Y136331D01*
X9619188Y148884D01*
X9663998Y167445D01*
X9706002Y191696D01*
X9744482Y221222D01*
X9778778Y255518D01*
X9808304Y293998D01*
X9832555Y336002D01*
X9851116Y380812D01*
X9863669Y427662D01*
X9870000Y475749D01*
Y524251D01*
X9863669Y572338D01*
X9851116Y619188D01*
X9832555Y663998D01*
X9808304Y706002D01*
X9778778Y744482D01*
X9744482Y778778D01*
X9706002Y808304D01*
X9663998Y832555D01*
X9635609Y844314D01*
X9643565Y884314D01*
X9739774D01*
X9743986Y877019D01*
X9757019Y863986D01*
X9772981Y854770D01*
X9790784Y850000D01*
X9809216D01*
X9827019Y854770D01*
X9842981Y863986D01*
X9856014Y877019D01*
X9865229Y892981D01*
X9870000Y910784D01*
Y929216D01*
X9865229Y947019D01*
X9856014Y962981D01*
X9842981Y976014D01*
X9827019Y985229D01*
X9809216Y990000D01*
X9790784D01*
X9772981Y985229D01*
X9757019Y976014D01*
X9743986Y962981D01*
X9739774Y955686D01*
X8860208D01*
X8846552Y952969D01*
X8834974Y945234D01*
X8585427Y695686D01*
X8265723D01*
X8252067Y692969D01*
X8248649Y690686D01*
X7249782D01*
X7135686Y804781D01*
Y1499774D01*
X7142981Y1503986D01*
X7156014Y1517019D01*
X7156065Y1517107D01*
X7196816Y1526721D01*
X7204553Y1525188D01*
X7238929Y1490812D01*
X7239766Y1489559D01*
X7239982Y1481184D01*
X7226566Y1446190D01*
X7222981Y1445230D01*
X7207019Y1436014D01*
X7193986Y1422981D01*
X7184770Y1407019D01*
X7180000Y1389216D01*
Y1370784D01*
X7184770Y1352981D01*
X7193986Y1337019D01*
X7207019Y1323986D01*
X7209911Y1322317D01*
Y1311708D01*
X7213403Y1294149D01*
X7223349Y1279264D01*
X7274515Y1228099D01*
Y1163750D01*
X7276448Y1149066D01*
X7282116Y1135382D01*
X7291132Y1123632D01*
X7302883Y1114616D01*
X7316566Y1108948D01*
X7331250Y1107015D01*
X7468750D01*
X7483435Y1108948D01*
X7497118Y1114616D01*
X7508868Y1123632D01*
X7517884Y1135382D01*
X7523552Y1149066D01*
X7524218Y1154118D01*
X7575783D01*
X7576448Y1149066D01*
X7582116Y1135382D01*
X7591132Y1123632D01*
X7602882Y1114616D01*
X7616566Y1108948D01*
X7631250Y1107015D01*
X7768750D01*
X7783435Y1108948D01*
X7797118Y1114616D01*
X7808868Y1123632D01*
X7817884Y1135382D01*
X7823552Y1149066D01*
X7824218Y1154118D01*
X7900466D01*
Y1146750D01*
X7902581Y1136117D01*
X7908604Y1127104D01*
X7917617Y1121081D01*
X7928250Y1118966D01*
X7971750D01*
X7999041Y1095647D01*
X8004216Y1087745D01*
Y1001893D01*
X7948106Y945783D01*
X7824889D01*
X7823552Y955934D01*
X7817884Y969618D01*
X7808868Y981368D01*
X7797118Y990384D01*
X7783435Y996052D01*
X7768750Y997985D01*
X7631250D01*
X7616566Y996052D01*
X7602882Y990384D01*
X7591132Y981368D01*
X7582116Y969618D01*
X7576448Y955934D01*
X7575112Y945783D01*
X7524889D01*
X7523552Y955934D01*
X7517884Y969618D01*
X7508868Y981368D01*
X7497118Y990384D01*
X7483435Y996052D01*
X7468750Y997985D01*
X7331250D01*
X7316566Y996052D01*
X7302883Y990384D01*
X7291132Y981368D01*
X7282116Y969618D01*
X7276448Y955934D01*
X7274515Y941250D01*
Y868750D01*
X7276448Y854065D01*
X7282116Y840382D01*
X7291132Y828632D01*
X7302883Y819616D01*
X7316566Y813948D01*
X7331250Y812014D01*
X7468750D01*
X7483435Y813948D01*
X7497118Y819616D01*
X7508868Y828632D01*
X7517884Y840382D01*
X7523552Y854065D01*
X7524889Y864216D01*
X7575112D01*
X7576448Y854065D01*
X7582116Y840382D01*
X7591132Y828632D01*
X7602882Y819616D01*
X7616566Y813948D01*
X7631250Y812014D01*
X7768750D01*
X7783435Y813948D01*
X7797118Y819616D01*
X7808868Y828632D01*
X7817884Y840382D01*
X7823552Y854065D01*
X7824889Y864216D01*
X7964998D01*
X7965000Y864216D01*
X7980607Y867321D01*
X7993838Y876161D01*
X8073838Y956161D01*
X8073838Y956162D01*
X8082679Y969393D01*
X8085784Y985000D01*
X8085783Y985001D01*
Y1087745D01*
X8090959Y1095647D01*
X8118250Y1118966D01*
X8161750D01*
X8172382Y1121081D01*
X8181396Y1127104D01*
X8185010Y1132513D01*
X8186727Y1131802D01*
X8205000Y1129396D01*
X8322767D01*
X8328855Y1114698D01*
X8340075Y1100075D01*
X8354698Y1088855D01*
X8371726Y1081802D01*
X8390000Y1079396D01*
X8490000D01*
X8508274Y1081802D01*
X8525302Y1088855D01*
X8539924Y1100075D01*
X8551145Y1114698D01*
X8557233Y1129396D01*
X9129180D01*
Y1125000D01*
X9132445Y1100200D01*
X9142018Y1077090D01*
X9157245Y1057245D01*
X9177090Y1042018D01*
X9200200Y1032445D01*
X9225000Y1029180D01*
X9375000D01*
X9399800Y1032445D01*
X9422910Y1042018D01*
X9442755Y1057245D01*
X9457982Y1077090D01*
X9467555Y1100200D01*
X9470820Y1125000D01*
Y1275000D01*
X9467555Y1299800D01*
X9457982Y1322910D01*
X9442755Y1342754D01*
X9422910Y1357982D01*
X9399800Y1367555D01*
X9375000Y1370819D01*
X9225000D01*
X9200200Y1367555D01*
X9177090Y1357982D01*
X9157245Y1342754D01*
X9142018Y1322910D01*
X9132445Y1299800D01*
X9129180Y1275000D01*
Y1270604D01*
X8557233D01*
X8551145Y1285302D01*
X8539924Y1299925D01*
X8525302Y1311145D01*
X8508274Y1318198D01*
X8490000Y1320604D01*
X8465194D01*
X8443814Y1360604D01*
X8447062Y1365466D01*
X8536248D01*
X8536249Y1365466D01*
X8551857Y1368570D01*
X8565088Y1377411D01*
X8628838Y1441161D01*
X8628838Y1441162D01*
X8637679Y1454393D01*
X8640784Y1470000D01*
Y1705000D01*
X8637679Y1720607D01*
X8628838Y1733839D01*
X8563845Y1798832D01*
X8550614Y1807672D01*
X8546699Y1808451D01*
X8531736Y1816757D01*
X8516290Y1845000D01*
Y1915000D01*
X8512766Y1932714D01*
X8502732Y1947732D01*
X8489378Y1956654D01*
X8488798Y1959650D01*
X8500147Y1996654D01*
X8503750D01*
X8517233Y1998430D01*
X8529798Y2003634D01*
X8540587Y2011913D01*
X8548866Y2022702D01*
X8554071Y2035267D01*
X8555846Y2048750D01*
Y2050000D01*
X8344155D01*
Y2048750D01*
X8345930Y2035267D01*
X8351134Y2022702D01*
X8359413Y2011913D01*
X8363578Y2008717D01*
X8372580Y1988475D01*
X8376375Y1964284D01*
X8375558Y1959919D01*
X8371891Y1955385D01*
X8322005D01*
X8320000Y1955783D01*
X8280000D01*
X8264393Y1952679D01*
X8251162Y1943838D01*
X8247304Y1943546D01*
X8241055Y1946156D01*
X8210906Y1970705D01*
Y2011250D01*
X8207316Y2029296D01*
X8197094Y2044594D01*
X8181796Y2054816D01*
X8163750Y2058406D01*
X8056250D01*
X8038204Y2054816D01*
X8022906Y2044594D01*
X8012684Y2029296D01*
X8011985Y2025783D01*
X7958015D01*
X7957316Y2029296D01*
X7947094Y2044594D01*
X7931796Y2054816D01*
X7913750Y2058406D01*
X7806250D01*
X7788204Y2054816D01*
X7772906Y2044594D01*
X7762684Y2029296D01*
X7761985Y2025783D01*
X7708015D01*
X7707316Y2029296D01*
X7697094Y2044594D01*
X7681796Y2054816D01*
X7663750Y2058406D01*
X7556250D01*
X7538204Y2054816D01*
X7522906Y2044594D01*
X7512684Y2029296D01*
X7509094Y2011250D01*
Y1958750D01*
X7512684Y1940704D01*
X7522906Y1925406D01*
X7538204Y1915183D01*
X7556250Y1911594D01*
X7663750D01*
X7681796Y1915183D01*
X7697094Y1925406D01*
X7707316Y1940704D01*
X7708015Y1944216D01*
X7761985D01*
X7762684Y1940704D01*
X7772906Y1925406D01*
X7788204Y1915183D01*
X7806250Y1911594D01*
X7913750D01*
X7931796Y1915183D01*
X7947094Y1925406D01*
X7957316Y1940704D01*
X7958015Y1944216D01*
X8011985D01*
X8012684Y1940704D01*
X8022906Y1925406D01*
X8038204Y1915183D01*
X8056250Y1911594D01*
X8092235D01*
X8099226Y1903406D01*
X8081165Y1864238D01*
X8079657Y1863406D01*
X8056250D01*
X8038204Y1859816D01*
X8022906Y1849594D01*
X8012684Y1834296D01*
X8009094Y1816250D01*
Y1812600D01*
X7969094Y1789806D01*
X7961396Y1794367D01*
X7960906Y1795328D01*
Y1816250D01*
X7957316Y1834296D01*
X7947094Y1849594D01*
X7931796Y1859816D01*
X7913750Y1863406D01*
X7806250D01*
X7788204Y1859816D01*
X7772906Y1849594D01*
X7762684Y1834296D01*
X7759094Y1816250D01*
Y1763750D01*
X7762684Y1745704D01*
X7772906Y1730406D01*
X7788204Y1720184D01*
X7790000Y1679215D01*
Y1660784D01*
X7794771Y1642981D01*
X7803986Y1627019D01*
X7817019Y1613986D01*
X7832981Y1604770D01*
X7850784Y1600000D01*
X7869216D01*
X7887019Y1604770D01*
X7902981Y1613986D01*
X7916014Y1627019D01*
X7925230Y1642981D01*
X7925706Y1644758D01*
X7964195Y1658453D01*
X7968901Y1658132D01*
X8009314Y1617719D01*
Y1560031D01*
X8001527Y1551325D01*
X7971750Y1532034D01*
X7928250D01*
X7917617Y1529919D01*
X7908604Y1523896D01*
X7906415Y1520621D01*
X7873787Y1510384D01*
X7861935Y1508533D01*
X7689529Y1680938D01*
X7688016Y1688616D01*
X7696816Y1730220D01*
X7697094Y1730406D01*
X7707316Y1745704D01*
X7710906Y1763750D01*
Y1816250D01*
X7707316Y1834296D01*
X7697094Y1849594D01*
X7681796Y1859816D01*
X7663750Y1863406D01*
X7556250D01*
X7538204Y1859816D01*
X7522906Y1849594D01*
X7512684Y1834296D01*
X7509094Y1816250D01*
Y1763750D01*
X7512684Y1745704D01*
X7522906Y1730406D01*
X7538204Y1720184D01*
X7556250Y1716594D01*
X7574314D01*
Y1710000D01*
X7577031Y1696344D01*
X7584766Y1684767D01*
X7810966Y1458567D01*
X7803647Y1418844D01*
X7799655Y1413309D01*
X7787019Y1406014D01*
X7773986Y1392981D01*
X7764771Y1377019D01*
X7760000Y1359216D01*
Y1340784D01*
X7762090Y1332985D01*
X7747496Y1305033D01*
X7735901Y1292985D01*
X7670229D01*
X7653660Y1332985D01*
X7675234Y1354558D01*
X7682969Y1366136D01*
X7685686Y1379792D01*
Y1452500D01*
X7682969Y1466156D01*
X7675234Y1477734D01*
X7087734Y2065234D01*
X7076156Y2072969D01*
X7062500Y2075686D01*
X6984782D01*
X6948109Y2112359D01*
X6963416Y2149314D01*
X7455000D01*
X7468656Y2152031D01*
X7480233Y2159766D01*
X7610234Y2289767D01*
X7617969Y2301344D01*
X7620686Y2315000D01*
Y2393751D01*
X7645616Y2407635D01*
X7660686Y2411869D01*
X7672981Y2404770D01*
X7690784Y2400000D01*
X7709215D01*
X7730000Y2390784D01*
X7734770Y2372981D01*
X7743986Y2357019D01*
X7757019Y2343986D01*
X7772981Y2334771D01*
X7790784Y2330000D01*
X7809216D01*
X7815049Y2331563D01*
X7825451Y2321162D01*
X7825451Y2321161D01*
X7838682Y2312321D01*
X7854290Y2309216D01*
X8036819D01*
X8069364Y2282500D01*
Y2257500D01*
X8071886Y2244819D01*
X8079069Y2234069D01*
X8089820Y2226886D01*
X8102500Y2224363D01*
X8163770D01*
X8165000Y2224118D01*
X8353744D01*
X8362906Y2210406D01*
X8378204Y2200184D01*
X8396250Y2196594D01*
X8503750D01*
X8521796Y2200184D01*
X8537094Y2210406D01*
X8547316Y2225704D01*
X8550906Y2243750D01*
Y2296250D01*
X8547316Y2314296D01*
X8537094Y2329594D01*
X8521796Y2339817D01*
X8503750Y2343406D01*
X8495882D01*
Y2620995D01*
X8582443Y2707557D01*
X8592389Y2722442D01*
X8595881Y2740000D01*
Y3200662D01*
X8619340Y3212870D01*
X8635881Y3216367D01*
X8642702Y3211134D01*
X8655266Y3205930D01*
X8668750Y3204154D01*
X8670000D01*
Y3310000D01*
Y3415846D01*
X8668750D01*
X8655266Y3414070D01*
X8642702Y3408866D01*
X8631913Y3400587D01*
X8623634Y3389798D01*
X8618429Y3377233D01*
X8616654Y3363750D01*
Y3321189D01*
X8600893Y3307575D01*
X8576654Y3301451D01*
X8573406Y3305823D01*
Y3363750D01*
X8569816Y3381796D01*
X8559594Y3397094D01*
X8545882Y3406257D01*
Y3613743D01*
X8559594Y3622906D01*
X8569816Y3638204D01*
X8573406Y3656250D01*
Y3763750D01*
X8569816Y3781796D01*
X8559594Y3797094D01*
X8545882Y3806257D01*
Y4093743D01*
X8559594Y4102906D01*
X8569816Y4118204D01*
X8573406Y4136250D01*
Y4243750D01*
X8569816Y4261796D01*
X8561447Y4274320D01*
X8559982Y4279668D01*
X8562331Y4295255D01*
X8583125Y4307558D01*
X8605412Y4314729D01*
X8608846Y4313306D01*
X8614772Y4304900D01*
X8619925Y4290659D01*
X8623634Y4269798D01*
X8618429Y4257233D01*
X8616654Y4243750D01*
Y4215000D01*
X8695000D01*
Y4190001D01*
X8720000D01*
Y4084154D01*
X8721250D01*
X8734733Y4085930D01*
X8747298Y4091134D01*
X8758087Y4099413D01*
X8759396Y4101119D01*
X8799396Y4090688D01*
Y3809312D01*
X8759396Y3798881D01*
X8758087Y3800587D01*
X8747298Y3808866D01*
X8734733Y3814070D01*
X8721250Y3815846D01*
X8720000D01*
Y3710000D01*
Y3604154D01*
X8721250D01*
X8734733Y3605930D01*
X8747298Y3611134D01*
X8758087Y3619413D01*
X8759396Y3621119D01*
X8799396Y3610688D01*
Y3409312D01*
X8759396Y3398881D01*
X8758087Y3400587D01*
X8747298Y3408866D01*
X8734733Y3414070D01*
X8721250Y3415846D01*
X8720000D01*
Y3310000D01*
Y3204154D01*
X8721250D01*
X8734733Y3205930D01*
X8747298Y3211134D01*
X8758087Y3219413D01*
X8759396Y3221119D01*
X8799396Y3210688D01*
Y2539320D01*
X8801802Y2521046D01*
X8808855Y2504018D01*
X8820076Y2489395D01*
X9129180Y2180291D01*
Y2034320D01*
X9132445Y2009520D01*
X9142018Y1986410D01*
X9157245Y1966565D01*
X9177090Y1951338D01*
X9200200Y1941765D01*
X9225000Y1938500D01*
X9375000D01*
X9399800Y1941765D01*
X9422910Y1951338D01*
X9442755Y1966565D01*
X9457982Y1986410D01*
X9467555Y2009520D01*
X9470820Y2034320D01*
Y2184320D01*
X9467555Y2209120D01*
X9457982Y2232230D01*
X9442755Y2252074D01*
X9422910Y2267302D01*
X9399800Y2276875D01*
X9375000Y2280139D01*
X9229029D01*
X8940604Y2568565D01*
Y4231118D01*
X8938198Y4249392D01*
X8931145Y4266420D01*
X8919925Y4281042D01*
X8772692Y4428275D01*
X8758069Y4439496D01*
X8751596Y4442177D01*
X8750108Y4481657D01*
X8750631Y4483684D01*
X8753644Y4484598D01*
X8774491Y4495741D01*
X8792763Y4510736D01*
X8807759Y4529009D01*
X8818902Y4549856D01*
X8825764Y4572476D01*
X8828081Y4596000D01*
X8825764Y4619524D01*
X8818902Y4642144D01*
X8807759Y4662991D01*
X8792763Y4681263D01*
X8774491Y4696259D01*
X8771268Y4697982D01*
X8772617Y4742616D01*
X8777506Y4745229D01*
X8796600Y4760900D01*
X8812271Y4779994D01*
X8823915Y4801779D01*
X8830959Y4825000D01*
X8534041D01*
X8541085Y4801779D01*
X8552729Y4779994D01*
X8568400Y4760900D01*
X8587494Y4745229D01*
X8592383Y4742616D01*
X8593732Y4697982D01*
X8590509Y4696259D01*
X8572237Y4681263D01*
X8557241Y4662991D01*
X8546098Y4642144D01*
X8544759Y4637730D01*
X8504915Y4624591D01*
X8480604Y4646710D01*
Y5250755D01*
X8589245Y5359396D01*
X8720255D01*
X9017298Y5062353D01*
X9016594Y5057000D01*
X9020202Y5029590D01*
X9030783Y5004047D01*
X9047613Y4982113D01*
X9069547Y4965283D01*
X9095089Y4954703D01*
X9098045Y4954314D01*
X9095423Y4914314D01*
X9058750D01*
X9040548Y4910693D01*
X9025117Y4900383D01*
X9014806Y4884952D01*
X9011186Y4866750D01*
Y4827999D01*
X9263814D01*
Y4866750D01*
X9260193Y4884952D01*
X9249883Y4900383D01*
X9234452Y4910693D01*
X9216250Y4914314D01*
X9179577D01*
X9176955Y4954314D01*
X9179911Y4954703D01*
X9205453Y4965283D01*
X9227387Y4982113D01*
X9244217Y5004047D01*
X9254797Y5029590D01*
X9258406Y5057000D01*
X9254797Y5084410D01*
X9244217Y5109953D01*
X9227387Y5131887D01*
X9205453Y5148717D01*
X9179911Y5159297D01*
X9152500Y5162906D01*
X9122500D01*
X9117148Y5162201D01*
X8799424Y5479925D01*
X8784802Y5491145D01*
X8767773Y5498198D01*
X8749500Y5500604D01*
X8560000D01*
X8541726Y5498198D01*
X8524698Y5491145D01*
X8510075Y5479925D01*
X8360075Y5329925D01*
X8348855Y5315302D01*
X8341802Y5298274D01*
X8339396Y5280000D01*
Y4603084D01*
X8341802Y4584810D01*
X8348855Y4567782D01*
X8354150Y4560881D01*
X8346286Y4534835D01*
X8335785Y4520881D01*
X8184005D01*
X8072443Y4632443D01*
X8057558Y4642389D01*
X8040000Y4645881D01*
X7906256D01*
X7897094Y4659594D01*
X7881796Y4669816D01*
X7863750Y4673406D01*
X7756250D01*
X7738204Y4669816D01*
X7722906Y4659594D01*
X7713743Y4645881D01*
X7656257D01*
X7647094Y4659594D01*
X7631796Y4669816D01*
X7613750Y4673406D01*
X7506250D01*
X7488204Y4669816D01*
X7472906Y4659594D01*
X7463744Y4645881D01*
X7406257D01*
X7397094Y4659594D01*
X7381796Y4669816D01*
X7363750Y4673406D01*
X7256250D01*
X7238204Y4669816D01*
X7222906Y4659594D01*
X7213744Y4645881D01*
X7156257D01*
X7147094Y4659594D01*
X7131796Y4669816D01*
X7113750Y4673406D01*
X7006250D01*
X6988204Y4669816D01*
X6972906Y4659594D01*
X6962684Y4644296D01*
X6959094Y4626250D01*
Y4573750D01*
X6962684Y4555704D01*
X6972906Y4540406D01*
X6988204Y4530183D01*
X7006250Y4526594D01*
X7113750D01*
X7131796Y4530183D01*
X7147094Y4540406D01*
X7156257Y4554118D01*
X7213744D01*
X7222906Y4540406D01*
X7238204Y4530183D01*
X7256250Y4526594D01*
X7363750D01*
X7381796Y4530183D01*
X7397094Y4540406D01*
X7406257Y4554118D01*
X7463744D01*
X7472906Y4540406D01*
X7488204Y4530183D01*
X7506250Y4526594D01*
X7613750D01*
X7644119Y4493972D01*
Y4109005D01*
X7524163Y3989050D01*
X7491591Y3995026D01*
X7469978Y4030704D01*
X7470000Y4030784D01*
Y4044158D01*
X7476673Y4055665D01*
X7501850Y4080000D01*
X7509216D01*
X7527019Y4084771D01*
X7542981Y4093986D01*
X7556014Y4107019D01*
X7565229Y4122981D01*
X7570000Y4140784D01*
Y4159216D01*
X7565229Y4177019D01*
X7556014Y4192981D01*
X7542981Y4206014D01*
X7527019Y4215230D01*
X7509216Y4220000D01*
X7505842D01*
X7483156Y4233155D01*
X7470000Y4255842D01*
Y4259216D01*
X7465229Y4277019D01*
X7456014Y4292981D01*
X7442981Y4306014D01*
X7427019Y4315229D01*
X7409216Y4320000D01*
X7390784D01*
X7372981Y4315229D01*
X7370766Y4313950D01*
X7361058Y4315881D01*
X7137626D01*
X7122237Y4325000D01*
X6901344D01*
X6901799Y4322712D01*
X6910176Y4310176D01*
X6906886Y4295181D01*
X6904363Y4282500D01*
Y4257500D01*
X6906886Y4244819D01*
X6910176Y4229824D01*
X6901799Y4217288D01*
X6901344Y4215000D01*
X7000000D01*
Y4165001D01*
X6901344D01*
X6901799Y4162712D01*
X6910176Y4150176D01*
X6906886Y4135181D01*
X6904363Y4122500D01*
Y4097500D01*
X6906886Y4084819D01*
X6912521Y4070000D01*
X6906886Y4055180D01*
X6904363Y4042500D01*
Y4017500D01*
X6868412Y3995882D01*
X6763406D01*
Y4003750D01*
X6759816Y4021796D01*
X6749594Y4037094D01*
X6734296Y4047316D01*
X6716250Y4050906D01*
X6663750D01*
X6645704Y4047316D01*
X6630406Y4037094D01*
X6620183Y4021796D01*
X6616594Y4003750D01*
Y3934966D01*
X6593731Y3921846D01*
X6588299Y3925000D01*
X6495000D01*
Y3950000D01*
X6470000D01*
Y4055846D01*
X6468750D01*
X6455266Y4054070D01*
X6442702Y4048866D01*
X6431913Y4040587D01*
X6423634Y4029798D01*
X6418429Y4017233D01*
X6416654Y4003750D01*
Y3966076D01*
X6379699Y3950768D01*
X6355234Y3975234D01*
X6343657Y3982969D01*
X6333590Y3993597D01*
X6322440Y4012290D01*
X6318634Y4025686D01*
X6320000Y4030784D01*
Y4049216D01*
X6315229Y4067019D01*
X6306014Y4082981D01*
X6292981Y4096014D01*
X6277019Y4105230D01*
X6259216Y4110000D01*
X6233805Y4142526D01*
X6235548Y4153954D01*
X6244305Y4173310D01*
X6255842Y4180000D01*
X6259216D01*
X6277019Y4184770D01*
X6292981Y4193986D01*
X6306014Y4207019D01*
X6315229Y4222981D01*
X6320000Y4240784D01*
Y4259216D01*
X6315229Y4277019D01*
X6306014Y4292981D01*
X6292981Y4306014D01*
X6277019Y4315229D01*
X6259216Y4320000D01*
X6255842D01*
X6249673Y4323577D01*
X6241471Y4345062D01*
X6263141Y4381052D01*
X6277019Y4384771D01*
X6292981Y4393986D01*
X6306014Y4407019D01*
X6315229Y4422981D01*
X6320000Y4440784D01*
Y4459216D01*
X6315229Y4477019D01*
X6306014Y4492981D01*
X6292981Y4506014D01*
X6277019Y4515229D01*
X6259216Y4520000D01*
X6255842D01*
X6238194Y4530234D01*
Y4547310D01*
X6259216Y4580000D01*
X6277019Y4584771D01*
X6292981Y4593986D01*
X6306014Y4607019D01*
X6315229Y4622981D01*
X6320000Y4640784D01*
Y4659216D01*
X6315229Y4677019D01*
X6306014Y4692981D01*
X6292981Y4706014D01*
X6277019Y4715230D01*
X6259216Y4720000D01*
X6255842D01*
X6233156Y4733155D01*
X6220000Y4755842D01*
Y4759216D01*
X6215229Y4777019D01*
X6206014Y4792981D01*
X6192981Y4806014D01*
X6192893Y4806065D01*
X6183278Y4846816D01*
X6184812Y4854552D01*
X6219574Y4889314D01*
X6905000D01*
X6918656Y4892031D01*
X6930234Y4899766D01*
X8099781Y6069314D01*
X8204666D01*
X8204821Y6069136D01*
X8219760Y6029314D01*
X7700076Y5509630D01*
X7688855Y5495008D01*
X7681802Y5477979D01*
X7679396Y5459706D01*
Y5450000D01*
X7680000Y5445412D01*
Y5440784D01*
X7681198Y5436313D01*
X7681802Y5431726D01*
X7683572Y5427452D01*
X7684771Y5422981D01*
X7687085Y5418973D01*
X7688855Y5414698D01*
X7691672Y5411027D01*
X7693986Y5407019D01*
X7697259Y5403747D01*
X7700076Y5400076D01*
X7703747Y5397259D01*
X7707019Y5393986D01*
X7711027Y5391672D01*
X7714698Y5388855D01*
X7718973Y5387085D01*
X7722981Y5384771D01*
X7727452Y5383572D01*
X7731726Y5381802D01*
X7736313Y5381198D01*
X7740784Y5380000D01*
X7745412D01*
X7750000Y5379396D01*
X7754588Y5380000D01*
X7759216D01*
X7763687Y5381198D01*
X7768274Y5381802D01*
X7772548Y5383572D01*
X7777019Y5384771D01*
X7781027Y5387085D01*
X7785302Y5388855D01*
X7788973Y5391672D01*
X7792981Y5393986D01*
X7796253Y5397259D01*
X7799924Y5400076D01*
X7802741Y5403747D01*
X7806014Y5407019D01*
X7807913Y5410309D01*
X7816497Y5413260D01*
X7818676Y5413667D01*
X7830000Y5414054D01*
X7841324Y5413667D01*
X7843285Y5413301D01*
X7853893Y5407181D01*
X7853986Y5407019D01*
X7857259Y5403747D01*
X7860075Y5400076D01*
X7863747Y5397259D01*
X7867019Y5393986D01*
X7871027Y5391672D01*
X7874698Y5388855D01*
X7878973Y5387085D01*
X7882981Y5384771D01*
X7887452Y5383572D01*
X7891726Y5381802D01*
X7896313Y5381198D01*
X7900784Y5380000D01*
X7905412D01*
X7910000Y5379396D01*
X8132500D01*
X8150773Y5381802D01*
X8167802Y5388855D01*
X8182424Y5400076D01*
X8451745Y5669396D01*
X9380525D01*
X9386547Y5661547D01*
X9409526Y5643915D01*
X9420464Y5639384D01*
X9420015Y5596275D01*
X9406802Y5590801D01*
X9382696Y5572304D01*
X9364198Y5548198D01*
X9352570Y5520125D01*
X9351895Y5515000D01*
X9648105D01*
X9647430Y5520125D01*
X9635802Y5548198D01*
X9617304Y5572304D01*
X9593198Y5590801D01*
X9579985Y5596275D01*
X9579536Y5639384D01*
X9590475Y5643915D01*
X9613453Y5661547D01*
X9631085Y5684526D01*
X9642169Y5711284D01*
X9645949Y5740000D01*
X9642169Y5768716D01*
X9631085Y5795474D01*
X9613453Y5818453D01*
X9590475Y5836085D01*
X9570785Y5844241D01*
X9566982Y5865000D01*
X9570785Y5885759D01*
X9590475Y5893915D01*
X9613453Y5911547D01*
X9631085Y5934526D01*
X9642169Y5961284D01*
X9645949Y5990000D01*
X9642169Y6018716D01*
X9631085Y6045474D01*
X9613453Y6068453D01*
X9590475Y6086085D01*
X9570785Y6094241D01*
X9566982Y6115000D01*
X9570785Y6135759D01*
X9590475Y6143915D01*
X9613453Y6161547D01*
X9631085Y6184526D01*
X9642169Y6211284D01*
X9645949Y6240000D01*
X9642169Y6268716D01*
X9631085Y6295474D01*
X9613453Y6318453D01*
X9590475Y6336085D01*
X9570785Y6344241D01*
X9566982Y6365000D01*
X9570785Y6385759D01*
X9590475Y6393915D01*
X9613453Y6411547D01*
X9631085Y6434526D01*
X9642169Y6461284D01*
X9645949Y6490000D01*
X9642169Y6518716D01*
X9631085Y6545474D01*
X9613453Y6568453D01*
X9590475Y6586085D01*
X9581188Y6589931D01*
X9580603Y6609399D01*
X9587840Y6630472D01*
X9596969Y6631673D01*
X9612780Y6638223D01*
X9626358Y6648642D01*
X9636777Y6662220D01*
X9643327Y6678032D01*
X9645561Y6695000D01*
Y6785000D01*
X9643327Y6801968D01*
X9636777Y6817780D01*
X9626358Y6831358D01*
X9612780Y6841777D01*
X9596969Y6848327D01*
X9580000Y6850561D01*
X9420000D01*
X9403031Y6848327D01*
X9387220Y6841777D01*
X9373642Y6831358D01*
X9363223Y6817780D01*
X9356673Y6801968D01*
X9354439Y6785000D01*
Y6695000D01*
X9356673Y6678032D01*
X9363223Y6662220D01*
X9373642Y6648642D01*
X9387220Y6638223D01*
X9403031Y6631673D01*
X9412160Y6630472D01*
X9419397Y6609399D01*
X9418812Y6589931D01*
X9409526Y6586085D01*
X9386547Y6568453D01*
X9368915Y6545474D01*
X9357831Y6518716D01*
X9354051Y6490000D01*
X9357831Y6461284D01*
X9368915Y6434526D01*
X9386547Y6411547D01*
X9409526Y6393915D01*
X9429215Y6385759D01*
X9433018Y6365000D01*
X9429215Y6344241D01*
X9409526Y6336085D01*
X9386547Y6318453D01*
X9368915Y6295474D01*
X9357831Y6268716D01*
X9354051Y6240000D01*
X9357831Y6211284D01*
X9368915Y6184526D01*
X9386547Y6161547D01*
X9409526Y6143915D01*
X9429215Y6135759D01*
X9433018Y6115000D01*
X9429215Y6094241D01*
X9409526Y6086085D01*
X9386547Y6068453D01*
X9380525Y6060604D01*
X8377640D01*
X8361071Y6100604D01*
X8392648Y6132181D01*
X8400784Y6130000D01*
X8419216D01*
X8437019Y6134771D01*
X8452981Y6143986D01*
X8466014Y6157019D01*
X8475229Y6172981D01*
X8480000Y6190784D01*
Y6209216D01*
X8475229Y6227019D01*
X8466014Y6242981D01*
X8452981Y6256014D01*
X8437019Y6265230D01*
X8419216Y6270000D01*
X8400784D01*
X8382981Y6265230D01*
X8367019Y6256014D01*
X8353986Y6242981D01*
X8344770Y6227019D01*
X8340000Y6209216D01*
Y6190784D01*
X8342180Y6182648D01*
X8300218Y6140686D01*
X8258545D01*
X8251991Y6145072D01*
X8229973Y6180686D01*
X8230000Y6180784D01*
Y6199216D01*
X8225229Y6217019D01*
X8216014Y6232981D01*
X8202981Y6246014D01*
X8187019Y6255230D01*
X8169216Y6260000D01*
X8150784D01*
X8132981Y6255230D01*
X8117019Y6246014D01*
X8103986Y6232981D01*
X8094770Y6217019D01*
X8093504Y6212292D01*
X8085896D01*
X8072240Y6209576D01*
X8060662Y6201840D01*
X6869508Y5010686D01*
X6598545D01*
X6591991Y5015072D01*
X6569973Y5050686D01*
X6570000Y5050784D01*
Y5069216D01*
X6565229Y5087019D01*
X6556014Y5102981D01*
X6542981Y5116014D01*
X6527019Y5125230D01*
X6509216Y5130000D01*
X6490784D01*
X6485664Y5128628D01*
X6464958Y5164491D01*
X6770234Y5469766D01*
X6777969Y5481344D01*
X6780686Y5495000D01*
Y5797718D01*
X7535234Y6552267D01*
X7542969Y6563844D01*
X7545686Y6577500D01*
Y6604774D01*
X7552981Y6608986D01*
X7566014Y6622019D01*
X7575230Y6637981D01*
X7580000Y6655784D01*
Y6674216D01*
X7575230Y6692019D01*
X7566014Y6707981D01*
X7552981Y6721014D01*
X7537019Y6730229D01*
X7519216Y6735000D01*
X7500785D01*
X7482981Y6730229D01*
X7467019Y6721014D01*
X7453986Y6707981D01*
X7444771Y6692019D01*
X7440000Y6674216D01*
Y6655784D01*
X7444771Y6637981D01*
X7453986Y6622019D01*
X7467019Y6608986D01*
X7452952Y6570920D01*
X7040000Y6157967D01*
X7027785Y6158348D01*
X6996762Y6171298D01*
X6995230Y6177019D01*
X6986014Y6192981D01*
X6972981Y6206014D01*
X6957019Y6215229D01*
X6939216Y6220000D01*
X6920784D01*
X6902981Y6215229D01*
X6887019Y6206014D01*
X6873986Y6192981D01*
X6864771Y6177019D01*
X6863641Y6172803D01*
X6854065Y6170898D01*
X6842487Y6163162D01*
X6776544Y6097219D01*
X6744536Y6121780D01*
X6745230Y6122981D01*
X6750000Y6140784D01*
Y6159216D01*
X6745230Y6177019D01*
X6736014Y6192981D01*
X6722981Y6206014D01*
X6707019Y6215229D01*
X6689216Y6220000D01*
X6670784D01*
X6652981Y6215229D01*
X6637019Y6206014D01*
X6623986Y6192981D01*
X6614771Y6177019D01*
X6610000Y6159216D01*
Y6140784D01*
X6614771Y6122981D01*
X6623986Y6107019D01*
X6637019Y6093986D01*
X6644314Y6089774D01*
Y6035700D01*
X5955686Y5347071D01*
X5915686Y5363640D01*
Y5692008D01*
X6025180Y5801502D01*
X6030784Y5800000D01*
X6049216D01*
X6067019Y5804770D01*
X6082981Y5813986D01*
X6096014Y5827019D01*
X6105230Y5842981D01*
X6110000Y5860784D01*
Y5879216D01*
X6105230Y5897019D01*
X6096014Y5912981D01*
X6082981Y5926014D01*
X6067019Y5935229D01*
X6049216Y5940000D01*
X6030784D01*
X6012981Y5935229D01*
X5997019Y5926014D01*
X5985686Y5914680D01*
X5977912Y5915147D01*
X5945686Y5926643D01*
Y6604774D01*
X5952981Y6608986D01*
X5966014Y6622019D01*
X5975230Y6637981D01*
X5980000Y6655784D01*
Y6674216D01*
X5975230Y6692019D01*
X5966014Y6707981D01*
X5952981Y6721014D01*
X5937019Y6730229D01*
X5919216Y6735000D01*
X5900784D01*
X5882981Y6730229D01*
X5867019Y6721014D01*
X5853986Y6707981D01*
X5844771Y6692019D01*
X5840000Y6674216D01*
Y6655784D01*
X5844771Y6637981D01*
X5853986Y6622019D01*
X5867019Y6608986D01*
X5874314Y6604774D01*
Y5822281D01*
X5747898Y5695865D01*
X5710943Y5711172D01*
Y5762500D01*
X5708781Y5778920D01*
X5702443Y5794221D01*
X5692361Y5807361D01*
X5679221Y5817443D01*
X5663920Y5823781D01*
X5647500Y5825943D01*
X5635000D01*
Y5710000D01*
X5585000D01*
Y5825943D01*
X5572500D01*
X5556080Y5823781D01*
X5540779Y5817443D01*
X5527639Y5807361D01*
X5486639Y5802349D01*
X5478513Y5804485D01*
X5392764Y5890233D01*
X5385041Y5911660D01*
X5391717Y5935379D01*
X5397536Y5945457D01*
X5402772Y5965000D01*
X5290000D01*
Y5990000D01*
X5265000D01*
Y6104023D01*
X5259045Y6112127D01*
X5248850Y6139856D01*
X5256014Y6147019D01*
X5265229Y6162981D01*
X5270000Y6180784D01*
Y6199216D01*
X5265229Y6217019D01*
X5256014Y6232981D01*
X5242981Y6246014D01*
X5227019Y6255230D01*
X5209216Y6260000D01*
X5190784D01*
X5172981Y6255230D01*
X5157019Y6246014D01*
X5143986Y6232981D01*
X5134771Y6217019D01*
X5130000Y6199216D01*
Y6180784D01*
X5130067Y6180535D01*
X5100218Y6150686D01*
X5068545D01*
X5061991Y6155072D01*
X5039973Y6190686D01*
X5040000Y6190784D01*
Y6209216D01*
X5035229Y6227019D01*
X5026014Y6242981D01*
X5012981Y6256014D01*
X4997019Y6265230D01*
X4979216Y6270000D01*
X4960784D01*
X4942981Y6265230D01*
X4941654Y6264463D01*
X4920883Y6285234D01*
X4909306Y6292969D01*
X4895650Y6295686D01*
X4028415D01*
X4013108Y6332641D01*
X4281242Y6600775D01*
X4282981Y6599770D01*
X4300785Y6595000D01*
X4319216D01*
X4337019Y6599770D01*
X4352981Y6608986D01*
X4366014Y6622019D01*
X4375230Y6637981D01*
X4380000Y6655784D01*
Y6674216D01*
X4375230Y6692019D01*
X4366014Y6707981D01*
X4352981Y6721014D01*
X4337019Y6730229D01*
X4319216Y6735000D01*
X4300785D01*
X4282981Y6730229D01*
X4267019Y6721014D01*
X4253986Y6707981D01*
X4244771Y6692019D01*
X4240000Y6674216D01*
Y6660468D01*
X3756622Y6177089D01*
X3741128Y6177063D01*
X3709649Y6186685D01*
X3706014Y6192981D01*
X3692981Y6206014D01*
X3677019Y6215229D01*
X3659216Y6220000D01*
X3640784D01*
X3622981Y6215229D01*
X3607019Y6206014D01*
X3593986Y6192981D01*
X3584771Y6177019D01*
X3580000Y6159216D01*
Y6140784D01*
X3582181Y6132648D01*
X3350141Y5900608D01*
X3313186Y5915915D01*
Y6042718D01*
X3392648Y6122181D01*
X3400784Y6120000D01*
X3419216D01*
X3437019Y6124771D01*
X3452981Y6133986D01*
X3466014Y6147019D01*
X3475230Y6162981D01*
X3480000Y6180784D01*
Y6199216D01*
X3475230Y6217019D01*
X3466014Y6232981D01*
X3452981Y6246014D01*
X3437019Y6255230D01*
X3419216Y6260000D01*
X3400784D01*
X3382981Y6255230D01*
X3367019Y6246014D01*
X3353986Y6232981D01*
X3344771Y6217019D01*
X3340000Y6199216D01*
Y6180784D01*
X3342181Y6172648D01*
X3252266Y6082734D01*
X3244531Y6071156D01*
X3241814Y6057500D01*
Y5663749D01*
X3202981Y5646014D01*
X3187019Y5655229D01*
X3180400Y5657003D01*
X3167400Y5662909D01*
X3150143Y5690555D01*
X3150000Y5697377D01*
Y5709216D01*
X3145229Y5727019D01*
X3136014Y5742981D01*
X3122981Y5756014D01*
X3107019Y5765230D01*
X3089216Y5770000D01*
X3070784D01*
X3052981Y5765230D01*
X3037019Y5756014D01*
X3023986Y5742981D01*
X3014770Y5727019D01*
X3010000Y5709216D01*
Y5698521D01*
X3006928Y5687547D01*
X2981030Y5660259D01*
X2980529Y5660070D01*
X2945072Y5681991D01*
X2940686Y5688545D01*
Y5705000D01*
X2937969Y5718656D01*
X2930234Y5730234D01*
X2745686Y5914781D01*
Y6604774D01*
X2752981Y6608986D01*
X2766014Y6622019D01*
X2775230Y6637981D01*
X2780000Y6655784D01*
Y6674216D01*
X2775230Y6692019D01*
X2766014Y6707981D01*
X2752981Y6721014D01*
X2737019Y6730229D01*
X2719216Y6735000D01*
X2700785D01*
X2682981Y6730229D01*
X2667020Y6721014D01*
X2653987Y6707981D01*
X2644771Y6692019D01*
X2640001Y6674216D01*
Y6655784D01*
X2644771Y6637981D01*
X2653987Y6622019D01*
X2667020Y6608986D01*
X2674315Y6604774D01*
Y5900000D01*
X2677031Y5886343D01*
X2684767Y5874766D01*
X2843662Y5715871D01*
X2841491Y5697211D01*
X2829215Y5660000D01*
X2810784D01*
X2792981Y5655229D01*
X2777019Y5646014D01*
X2763986Y5632981D01*
X2754770Y5617019D01*
X2750000Y5599216D01*
Y5598149D01*
X2744274Y5589948D01*
X2719584Y5571712D01*
X2711654Y5569346D01*
X2709216Y5570000D01*
X2690784D01*
X2672981Y5565229D01*
X2657019Y5556014D01*
X2643986Y5542981D01*
X2634770Y5527019D01*
X2630000Y5509216D01*
Y5490784D01*
X2634770Y5472981D01*
X2636032Y5470796D01*
X2611904Y5451664D01*
X2604062Y5446405D01*
X2525234Y5525234D01*
X1360234Y6690234D01*
X1348656Y6697969D01*
X1335000Y6700686D01*
X1170226D01*
X1166014Y6707981D01*
X1152981Y6721014D01*
X1137019Y6730229D01*
X1119216Y6735000D01*
X1100785D01*
X1082981Y6730229D01*
X1067019Y6721014D01*
X1053986Y6707981D01*
X1044771Y6692019D01*
X1040000Y6674216D01*
Y6655784D01*
X1044771Y6637981D01*
X1053986Y6622019D01*
X1067019Y6608986D01*
X1082981Y6599770D01*
X1100785Y6595000D01*
X1119216D01*
X1137019Y6599770D01*
X1152981Y6608986D01*
X1166014Y6622019D01*
X1170226Y6629314D01*
X1320219D01*
X2474766Y5474766D01*
X2489900Y5459633D01*
X2490095Y5450865D01*
X2476730Y5416234D01*
X2472981Y5415229D01*
X2457019Y5406014D01*
X2443986Y5392981D01*
X2434771Y5377019D01*
X2430000Y5359216D01*
Y5340784D01*
X2434771Y5322981D01*
X2441869Y5310686D01*
X2437635Y5295616D01*
X2423751Y5270686D01*
X2335496D01*
Y5272500D01*
X2333520Y5287510D01*
X2327726Y5301498D01*
X2318509Y5313509D01*
X2306498Y5322726D01*
X2292510Y5328520D01*
X2277500Y5330496D01*
X2202500D01*
X2187490Y5328520D01*
X2173502Y5322726D01*
X2161491Y5313509D01*
X2152274Y5301498D01*
X2146480Y5287510D01*
X2144504Y5272500D01*
Y5167500D01*
X2146480Y5152490D01*
X2152274Y5138503D01*
X2155659Y5115327D01*
X2143986Y5092981D01*
X2134770Y5077019D01*
X2130000Y5059216D01*
Y5055842D01*
X2121249Y5040751D01*
X2091794Y5031541D01*
X2056232Y5053278D01*
X2055230Y5057019D01*
X2046014Y5072981D01*
X2043726Y5075269D01*
X2041466Y5081079D01*
X2041886Y5118481D01*
X2044566Y5125513D01*
X2052443Y5135779D01*
X2058781Y5151080D01*
X2060943Y5167500D01*
Y5195000D01*
X1960000D01*
Y5244999D01*
X2060943D01*
Y5272500D01*
X2058781Y5288920D01*
X2052443Y5304221D01*
X2042361Y5317361D01*
X2029221Y5327443D01*
X2013920Y5333781D01*
X1997500Y5335943D01*
X1987309D01*
X1968269Y5373286D01*
X1968381Y5375943D01*
X1970686Y5387530D01*
Y5465208D01*
X1967969Y5478864D01*
X1960234Y5490442D01*
X1917864Y5532812D01*
X1920000Y5540784D01*
Y5559216D01*
X1919974Y5559314D01*
X1941991Y5594928D01*
X1948546Y5599314D01*
X2050218D01*
X2182181Y5467352D01*
X2180000Y5459216D01*
Y5440784D01*
X2184771Y5422981D01*
X2193986Y5407019D01*
X2207019Y5393986D01*
X2222981Y5384771D01*
X2240784Y5380000D01*
X2259216D01*
X2277019Y5384771D01*
X2292981Y5393986D01*
X2306014Y5407019D01*
X2315230Y5422981D01*
X2320000Y5440784D01*
Y5459216D01*
X2315230Y5477019D01*
X2306014Y5492981D01*
X2292981Y5506014D01*
X2277019Y5515230D01*
X2259216Y5520000D01*
X2240784D01*
X2232648Y5517820D01*
X2090234Y5660234D01*
X2078656Y5667969D01*
X2065000Y5670686D01*
X1765000D01*
X1751344Y5667969D01*
X1739766Y5660234D01*
X1214766Y5135234D01*
X1207031Y5123657D01*
X1204314Y5110000D01*
Y3027500D01*
X1207031Y3013844D01*
X1214766Y3002266D01*
X1551814Y2665218D01*
Y863749D01*
X1512981Y846014D01*
X1497019Y855229D01*
X1479216Y860000D01*
X1460784D01*
X1442981Y855229D01*
X1427019Y846014D01*
X1413986Y832981D01*
X1404771Y817019D01*
X1400000Y799216D01*
Y780784D01*
X1404771Y762981D01*
X1413986Y747019D01*
X1427019Y733986D01*
X1442981Y724770D01*
X1460784Y720000D01*
X1479216D01*
X1497019Y724770D01*
X1512981Y733986D01*
X1551814Y716251D01*
Y322490D01*
X1539766Y310442D01*
X1532031Y298864D01*
X1529314Y285208D01*
Y168992D01*
X1489314Y163725D01*
X1488526Y166668D01*
X1476019Y188331D01*
X1467116Y197234D01*
X1458475Y207707D01*
X1462087Y250038D01*
X1465229Y255481D01*
X1470000Y273284D01*
Y291716D01*
X1465229Y309519D01*
X1456014Y325481D01*
X1442981Y338514D01*
X1427019Y347730D01*
X1409216Y352500D01*
X1390784D01*
X1372981Y347730D01*
X1358527Y339385D01*
X1341801Y342248D01*
X1318861Y365081D01*
X1319253Y367997D01*
X1319999Y370782D01*
X1320000Y370784D01*
X1320000Y371793D01*
Y389216D01*
X1315230Y407019D01*
X1306014Y422981D01*
X1292981Y436014D01*
X1277019Y445229D01*
X1259216Y450000D01*
X1240784D01*
X1222981Y445229D01*
X1207019Y436014D01*
X1193986Y422981D01*
X1184771Y407019D01*
X1180000Y389216D01*
Y370784D01*
X1184771Y352981D01*
X1193986Y337019D01*
X1207019Y323986D01*
X1222981Y314771D01*
X1240784Y310000D01*
X1259216D01*
X1277019Y314771D01*
X1291473Y323115D01*
X1308199Y320252D01*
X1331139Y297419D01*
X1330747Y294503D01*
X1330001Y291718D01*
X1330000Y291716D01*
X1330000Y290708D01*
Y273284D01*
X1334771Y255481D01*
X1337913Y250038D01*
X1341525Y207707D01*
X1332884Y197234D01*
X1323981Y188331D01*
X1311474Y166668D01*
X1305000Y142507D01*
Y117493D01*
X1311474Y93332D01*
X1323981Y71669D01*
X1325063Y70588D01*
X1308494Y30588D01*
X30588D01*
Y7969412D01*
X9969412D01*
X9969412Y30588D01*
D02*
G37*
G36*
X5104384Y5167635D02*
X5129314Y5153751D01*
Y4820686D01*
X5040000D01*
X5026344Y4817969D01*
X5015056Y4810427D01*
X5014766Y4810234D01*
X5014765Y4810232D01*
X5007031Y4798656D01*
X5004314Y4785000D01*
X5007031Y4771346D01*
X5007030Y4771344D01*
X5007212Y4771073D01*
X5014610Y4760000D01*
X5007031Y4748656D01*
X5004314Y4735000D01*
X5007031Y4721344D01*
X5014610Y4710000D01*
X5007031Y4698656D01*
X5004314Y4685000D01*
X5007031Y4671344D01*
X5014610Y4660000D01*
X5007031Y4648656D01*
X5004314Y4635000D01*
X5007031Y4621344D01*
X5014610Y4610000D01*
X5007031Y4598657D01*
X5004314Y4585000D01*
X5007031Y4571344D01*
X5014610Y4560000D01*
X5007031Y4548656D01*
X5004314Y4535000D01*
X5007031Y4521344D01*
X5014610Y4510000D01*
X5007031Y4498656D01*
X5004314Y4485000D01*
X5007031Y4471344D01*
X5014610Y4460000D01*
X5007031Y4448656D01*
X5004314Y4435000D01*
X5007031Y4421344D01*
X5014610Y4410000D01*
X5007031Y4398656D01*
X5004314Y4385000D01*
X5007031Y4371344D01*
X5014610Y4360000D01*
X5007031Y4348657D01*
X5004314Y4335000D01*
X5007031Y4321344D01*
X5014610Y4310000D01*
X5007031Y4298656D01*
X5004314Y4285000D01*
X5007031Y4271344D01*
X5011551Y4264579D01*
X5010873Y4264127D01*
X5008116Y4260000D01*
X5014604D01*
X5014763Y4259763D01*
X5026341Y4252026D01*
X5040000Y4249309D01*
X5165000D01*
Y4220691D01*
X5040000D01*
X5026341Y4217974D01*
X5014763Y4210237D01*
X5014604Y4210000D01*
X5008116D01*
X5010873Y4205873D01*
X5011551Y4205421D01*
X5007031Y4198656D01*
X5004314Y4185000D01*
X5007031Y4171344D01*
X5014610Y4160000D01*
X5007031Y4148656D01*
X5004314Y4135000D01*
X5007031Y4121344D01*
X5014610Y4110000D01*
X5007031Y4098657D01*
X5004314Y4085000D01*
X5007031Y4071344D01*
X5014610Y4060000D01*
X5007031Y4048656D01*
X5004314Y4035000D01*
X5007031Y4021344D01*
X5014610Y4010000D01*
X5007031Y3998656D01*
X5004314Y3985000D01*
X5007031Y3971344D01*
X5014610Y3960000D01*
X5007031Y3948657D01*
X5004314Y3935000D01*
X5007031Y3921344D01*
X5014610Y3910000D01*
X5007031Y3898656D01*
X5004314Y3885000D01*
X5007031Y3871344D01*
X5014610Y3860000D01*
X5007031Y3848657D01*
X5004314Y3835000D01*
X5007031Y3821344D01*
X5014610Y3810000D01*
X5007031Y3798656D01*
X5004314Y3785000D01*
X5007031Y3771344D01*
X5011551Y3764579D01*
X5010873Y3764127D01*
X5008116Y3760000D01*
X5014604D01*
X5014763Y3759763D01*
X5026341Y3752026D01*
X5040000Y3749309D01*
X5165000D01*
Y3720691D01*
X5040000D01*
X5026341Y3717974D01*
X5014763Y3710237D01*
X5014604Y3710000D01*
X5008116D01*
X5010873Y3705873D01*
X5011551Y3705421D01*
X5007031Y3698657D01*
X5004314Y3685000D01*
X5007031Y3671344D01*
X5014610Y3660000D01*
X5007031Y3648656D01*
X5004314Y3635000D01*
X5007031Y3621344D01*
X5014610Y3610000D01*
X5007031Y3598657D01*
X5004314Y3585000D01*
X5007031Y3571344D01*
X5014610Y3560000D01*
X5007031Y3548656D01*
X5004314Y3535000D01*
X5007031Y3521344D01*
X5014610Y3510000D01*
X5007031Y3498656D01*
X5004314Y3485000D01*
X5007031Y3471344D01*
X5014610Y3460000D01*
X5007031Y3448657D01*
X5004314Y3435000D01*
X5007031Y3421344D01*
X5014610Y3410000D01*
X5007031Y3398656D01*
X5004314Y3385000D01*
X5007031Y3371344D01*
X5014610Y3360000D01*
X5007031Y3348656D01*
X5004314Y3335000D01*
X5007031Y3321344D01*
X5014610Y3310000D01*
X5007031Y3298656D01*
X5004314Y3285000D01*
X5007031Y3271344D01*
X5014610Y3260000D01*
X5007031Y3248656D01*
X5004314Y3235000D01*
X5007031Y3221344D01*
X5014610Y3210000D01*
X5007031Y3198657D01*
X5004314Y3185000D01*
X5007031Y3171344D01*
X5014610Y3160000D01*
X5007031Y3148656D01*
X5004314Y3135000D01*
X5007031Y3121344D01*
X5014610Y3110000D01*
X5007031Y3098656D01*
X5004314Y3085000D01*
X5007031Y3071344D01*
X4993764Y3029484D01*
X4967373Y3015686D01*
X4764290D01*
X4750633Y3012969D01*
X4739056Y3005234D01*
X4709767Y2975944D01*
X4699989Y2964525D01*
X4685000Y2965686D01*
X4671344Y2962969D01*
X4660000Y2955390D01*
X4648656Y2962969D01*
X4635000Y2965686D01*
X4621344Y2962969D01*
X4610000Y2955390D01*
X4598657Y2962969D01*
X4585000Y2965686D01*
X4571344Y2962969D01*
X4560000Y2955390D01*
X4548656Y2962969D01*
X4535000Y2965686D01*
X4521344Y2962969D01*
X4510000Y2955390D01*
X4498656Y2962969D01*
X4485000Y2965686D01*
X4471344Y2962969D01*
X4460000Y2955390D01*
X4448657Y2962969D01*
X4435000Y2965686D01*
X4421344Y2962969D01*
X4410000Y2955390D01*
X4398656Y2962969D01*
X4385000Y2965686D01*
X4371344Y2962969D01*
X4360000Y2955390D01*
X4348657Y2962969D01*
X4335000Y2965686D01*
X4321344Y2962969D01*
X4310000Y2955390D01*
X4298656Y2962969D01*
X4285000Y2965686D01*
X4271344Y2962969D01*
X4260000Y2955390D01*
X4248656Y2962969D01*
X4235000Y2965686D01*
X4221344Y2962969D01*
X4214580Y2958450D01*
X4214127Y2959127D01*
X4210000Y2961884D01*
Y2955396D01*
X4209763Y2955237D01*
X4202026Y2943658D01*
X4199309Y2930000D01*
Y2805000D01*
X4170691D01*
Y2930000D01*
X4167974Y2943658D01*
X4160237Y2955237D01*
X4160000Y2955395D01*
Y2961884D01*
X4155874Y2959127D01*
X4155421Y2958449D01*
X4148656Y2962969D01*
X4135000Y2965686D01*
X4121344Y2962969D01*
X4110000Y2955390D01*
X4098657Y2962969D01*
X4085000Y2965686D01*
X4071344Y2962969D01*
X4060000Y2955390D01*
X4048656Y2962969D01*
X4035000Y2965686D01*
X4021344Y2962969D01*
X4010000Y2955390D01*
X3998656Y2962969D01*
X3985000Y2965686D01*
X3971344Y2962969D01*
X3960000Y2955390D01*
X3948657Y2962969D01*
X3935000Y2965686D01*
X3921344Y2962969D01*
X3910000Y2955390D01*
X3898656Y2962969D01*
X3885000Y2965686D01*
X3871344Y2962969D01*
X3860000Y2955390D01*
X3848657Y2962969D01*
X3835000Y2965686D01*
X3821344Y2962969D01*
X3810000Y2955390D01*
X3798657Y2962969D01*
X3785000Y2965686D01*
X3771344Y2962969D01*
X3760000Y2955390D01*
X3748656Y2962969D01*
X3735000Y2965686D01*
X3721344Y2962969D01*
X3710000Y2955390D01*
X3698657Y2962969D01*
X3685000Y2965686D01*
X3671344Y2962969D01*
X3660000Y2955390D01*
X3648656Y2962969D01*
X3635000Y2965686D01*
X3621344Y2962969D01*
X3610000Y2955390D01*
X3598657Y2962969D01*
X3585000Y2965686D01*
X3571344Y2962969D01*
X3560000Y2955390D01*
X3548657Y2962969D01*
X3535000Y2965686D01*
X3521344Y2962969D01*
X3510000Y2955390D01*
X3498656Y2962969D01*
X3485000Y2965686D01*
X3471344Y2962969D01*
X3464580Y2958450D01*
X3464127Y2959127D01*
X3460000Y2961884D01*
Y2955396D01*
X3459763Y2955237D01*
X3452026Y2943658D01*
X3449309Y2930000D01*
Y2805000D01*
X3420691D01*
Y2930000D01*
X3417974Y2943658D01*
X3410237Y2955237D01*
X3410000Y2955395D01*
Y2961884D01*
X3405874Y2959127D01*
X3405421Y2958449D01*
X3398656Y2962969D01*
X3385000Y2965686D01*
X3371344Y2962969D01*
X3360000Y2955390D01*
X3348656Y2962969D01*
X3335000Y2965686D01*
X3321344Y2962969D01*
X3310000Y2955390D01*
X3298657Y2962969D01*
X3285000Y2965686D01*
X3271344Y2962969D01*
X3260000Y2955390D01*
X3248656Y2962969D01*
X3235000Y2965686D01*
X3221344Y2962969D01*
X3210000Y2955390D01*
X3198946Y2962776D01*
X3198657Y2962970D01*
X3198655Y2962969D01*
X3185342Y2965618D01*
X3185000Y2965686D01*
X3184999Y2965685D01*
X3171344Y2962969D01*
X3159768Y2955235D01*
X3159766Y2955234D01*
X3159585Y2954963D01*
X3152032Y2943657D01*
X3152031Y2943657D01*
X3151964Y2943321D01*
X3149315Y2930000D01*
Y2805000D01*
Y2680000D01*
Y2579782D01*
X3089866Y2520333D01*
X3038610Y2524999D01*
X3032026Y2533482D01*
X3030686Y2538604D01*
Y2725918D01*
X3027969Y2739575D01*
X3020234Y2751152D01*
X2896152Y2875234D01*
X2884575Y2882969D01*
X2870919Y2885686D01*
X2760226D01*
X2756014Y2892981D01*
X2742981Y2906014D01*
X2742893Y2906065D01*
X2733279Y2946816D01*
X2734812Y2954552D01*
X2779574Y2999314D01*
X3080000D01*
X3093656Y3002031D01*
X3104944Y3009573D01*
X3105234Y3009766D01*
X3105235Y3009768D01*
X3112969Y3021344D01*
X3115686Y3035000D01*
X3112970Y3048655D01*
X3112970Y3048657D01*
X3112969Y3048658D01*
X3109127Y3055874D01*
X3111884Y3060000D01*
X3105396D01*
X3105238Y3060237D01*
X3093659Y3067974D01*
X3080000Y3070691D01*
X2955000D01*
Y3099309D01*
X3080000D01*
X3093659Y3102026D01*
X3105238Y3109763D01*
X3105396Y3110000D01*
X3111884D01*
X3109127Y3114127D01*
X3108450Y3114579D01*
X3112969Y3121344D01*
X3115686Y3135000D01*
X3112969Y3148656D01*
X3105390Y3160000D01*
X3112969Y3171344D01*
X3115686Y3185000D01*
X3112969Y3198657D01*
X3105390Y3210000D01*
X3112969Y3221344D01*
X3115686Y3235000D01*
X3112969Y3248656D01*
X3105390Y3260000D01*
X3112969Y3271344D01*
X3115686Y3285000D01*
X3112969Y3298656D01*
X3105390Y3310000D01*
X3112969Y3321344D01*
X3115686Y3335000D01*
X3112969Y3348656D01*
X3105390Y3360000D01*
X3112969Y3371344D01*
X3115686Y3385000D01*
X3112969Y3398656D01*
X3105390Y3410000D01*
X3112969Y3421344D01*
X3115686Y3435000D01*
X3112969Y3448657D01*
X3105390Y3460000D01*
X3112969Y3471344D01*
X3115686Y3485000D01*
X3112969Y3498656D01*
X3105390Y3510000D01*
X3112969Y3521344D01*
X3115686Y3535000D01*
X3112969Y3548656D01*
X3105390Y3560000D01*
X3112969Y3571344D01*
X3115686Y3585000D01*
X3112969Y3598657D01*
X3105390Y3610000D01*
X3112969Y3621344D01*
X3115686Y3635000D01*
X3112969Y3648656D01*
X3105390Y3660000D01*
X3112969Y3671344D01*
X3115686Y3685000D01*
X3112969Y3698657D01*
X3108450Y3705421D01*
X3109127Y3705873D01*
X3111884Y3710000D01*
X3105396D01*
X3105237Y3710237D01*
X3093659Y3717974D01*
X3080000Y3720691D01*
X2955000D01*
Y3749309D01*
X3080000D01*
X3093659Y3752026D01*
X3105237Y3759762D01*
X3105396Y3760000D01*
X3111885D01*
X3109127Y3764127D01*
X3108450Y3764579D01*
X3112969Y3771344D01*
X3115686Y3785000D01*
X3112969Y3798656D01*
X3105390Y3810000D01*
X3112969Y3821344D01*
X3115686Y3835000D01*
X3112969Y3848657D01*
X3105390Y3860000D01*
X3112969Y3871344D01*
X3115686Y3885000D01*
X3112969Y3898656D01*
X3105390Y3910000D01*
X3112969Y3921344D01*
X3115686Y3935000D01*
X3112969Y3948657D01*
X3105390Y3960000D01*
X3112969Y3971344D01*
X3115686Y3985000D01*
X3112969Y3998656D01*
X3105390Y4010000D01*
X3112969Y4021344D01*
X3115686Y4035000D01*
X3112969Y4048656D01*
X3105390Y4060000D01*
X3112969Y4071344D01*
X3115686Y4085000D01*
X3112969Y4098657D01*
X3105390Y4110000D01*
X3112969Y4121344D01*
X3115686Y4135000D01*
X3112969Y4148656D01*
X3105390Y4160000D01*
X3112969Y4171344D01*
X3115686Y4185000D01*
X3112969Y4198656D01*
X3108449Y4205421D01*
X3109127Y4205873D01*
X3111884Y4210000D01*
X3105396D01*
X3105237Y4210237D01*
X3093659Y4217974D01*
X3080000Y4220690D01*
X2955000D01*
Y4249309D01*
X3080000D01*
X3093659Y4252026D01*
X3105237Y4259762D01*
X3105396Y4260000D01*
X3111885D01*
X3109127Y4264127D01*
X3108450Y4264579D01*
X3112969Y4271344D01*
X3115686Y4285000D01*
X3112969Y4298656D01*
X3105390Y4310000D01*
X3112969Y4321344D01*
X3115686Y4335000D01*
X3112969Y4348657D01*
X3105390Y4360000D01*
X3112969Y4371344D01*
X3115686Y4385000D01*
X3112969Y4398656D01*
X3105390Y4410000D01*
X3112969Y4421344D01*
X3115686Y4435000D01*
X3112969Y4448656D01*
X3105390Y4460000D01*
X3112969Y4471344D01*
X3115686Y4485000D01*
X3112969Y4498656D01*
X3105390Y4510000D01*
X3112969Y4521344D01*
X3115686Y4535000D01*
X3112969Y4548656D01*
X3105390Y4560000D01*
X3112969Y4571344D01*
X3115686Y4585000D01*
X3112969Y4598657D01*
X3105390Y4610000D01*
X3112969Y4621344D01*
X3115686Y4635000D01*
X3112969Y4648656D01*
X3105390Y4660000D01*
X3112969Y4671344D01*
X3115686Y4685000D01*
X3112969Y4698656D01*
X3105390Y4710000D01*
X3112969Y4721344D01*
X3115686Y4735000D01*
X3112969Y4748656D01*
X3105390Y4760000D01*
X3112776Y4771054D01*
X3112970Y4771344D01*
X3112970Y4771346D01*
X3115618Y4784658D01*
X3115686Y4785000D01*
X3115686Y4785001D01*
X3112969Y4798656D01*
X3105235Y4810232D01*
X3105234Y4810234D01*
X3104963Y4810415D01*
X3093658Y4817969D01*
X3093657Y4817970D01*
X3093321Y4818036D01*
X3080000Y4820686D01*
X2990686D01*
Y4974081D01*
X2994981Y4979314D01*
X3149315D01*
Y4890000D01*
X3151963Y4876685D01*
X3152031Y4876344D01*
X3152032Y4876343D01*
X3159573Y4865056D01*
X3159766Y4864766D01*
X3159768Y4864765D01*
X3171344Y4857031D01*
X3184999Y4854315D01*
X3185000Y4854314D01*
X3185336Y4854381D01*
X3198655Y4857031D01*
X3198657Y4857030D01*
X3198928Y4857212D01*
X3210000Y4864610D01*
X3221344Y4857031D01*
X3235000Y4854314D01*
X3248656Y4857031D01*
X3260000Y4864611D01*
X3271344Y4857031D01*
X3285000Y4854314D01*
X3298657Y4857031D01*
X3310000Y4864610D01*
X3321344Y4857031D01*
X3335000Y4854314D01*
X3348656Y4857031D01*
X3360000Y4864610D01*
X3371344Y4857031D01*
X3385000Y4854314D01*
X3398656Y4857031D01*
X3410000Y4864611D01*
X3421344Y4857031D01*
X3435000Y4854314D01*
X3448657Y4857031D01*
X3460000Y4864610D01*
X3471344Y4857031D01*
X3485000Y4854314D01*
X3498656Y4857031D01*
X3510000Y4864611D01*
X3521344Y4857031D01*
X3535000Y4854314D01*
X3548657Y4857031D01*
X3560000Y4864610D01*
X3571344Y4857031D01*
X3585000Y4854314D01*
X3598657Y4857031D01*
X3610000Y4864610D01*
X3621344Y4857031D01*
X3635000Y4854314D01*
X3648656Y4857031D01*
X3655421Y4861551D01*
X3655874Y4860873D01*
X3660000Y4858116D01*
Y4864605D01*
X3660237Y4864763D01*
X3667974Y4876342D01*
X3670691Y4890000D01*
Y5015000D01*
X3699309D01*
Y4890000D01*
X3702026Y4876342D01*
X3709763Y4864763D01*
X3710000Y4864604D01*
Y4858116D01*
X3714127Y4860873D01*
X3714580Y4861551D01*
X3721344Y4857031D01*
X3735000Y4854314D01*
X3748656Y4857031D01*
X3760000Y4864611D01*
X3771344Y4857031D01*
X3785000Y4854314D01*
X3798657Y4857031D01*
X3810000Y4864610D01*
X3821344Y4857031D01*
X3835000Y4854314D01*
X3848657Y4857031D01*
X3860000Y4864610D01*
X3871344Y4857031D01*
X3885000Y4854314D01*
X3898656Y4857031D01*
X3910000Y4864611D01*
X3921344Y4857031D01*
X3935000Y4854314D01*
X3948657Y4857031D01*
X3960000Y4864610D01*
X3971344Y4857031D01*
X3985000Y4854314D01*
X3998656Y4857031D01*
X4010000Y4864610D01*
X4021344Y4857031D01*
X4035000Y4854314D01*
X4048656Y4857031D01*
X4060000Y4864611D01*
X4071344Y4857031D01*
X4085000Y4854314D01*
X4098657Y4857031D01*
X4110000Y4864610D01*
X4121344Y4857031D01*
X4135000Y4854314D01*
X4148656Y4857031D01*
X4160000Y4864611D01*
X4171344Y4857031D01*
X4185000Y4854314D01*
X4198657Y4857031D01*
X4205421Y4861551D01*
X4205873Y4860873D01*
X4210000Y4858116D01*
Y4864604D01*
X4210237Y4864763D01*
X4217974Y4876342D01*
X4220691Y4890000D01*
Y5015000D01*
X4249309D01*
Y4890000D01*
X4252026Y4876342D01*
X4259763Y4864763D01*
X4260000Y4864604D01*
Y4858116D01*
X4264127Y4860873D01*
X4264579Y4861551D01*
X4271344Y4857031D01*
X4285000Y4854314D01*
X4298656Y4857031D01*
X4310000Y4864611D01*
X4321344Y4857031D01*
X4335000Y4854314D01*
X4348657Y4857031D01*
X4360000Y4864610D01*
X4371344Y4857031D01*
X4385000Y4854314D01*
X4398656Y4857031D01*
X4410000Y4864611D01*
X4421344Y4857031D01*
X4435000Y4854314D01*
X4448657Y4857031D01*
X4460000Y4864610D01*
X4471344Y4857031D01*
X4485000Y4854314D01*
X4498656Y4857031D01*
X4510000Y4864610D01*
X4521344Y4857031D01*
X4535000Y4854314D01*
X4548656Y4857031D01*
X4560000Y4864611D01*
X4571344Y4857031D01*
X4585000Y4854314D01*
X4598657Y4857031D01*
X4610000Y4864610D01*
X4621344Y4857031D01*
X4635000Y4854314D01*
X4648656Y4857031D01*
X4660000Y4864611D01*
X4671344Y4857031D01*
X4685000Y4854314D01*
X4698657Y4857031D01*
X4710000Y4864610D01*
X4721344Y4857031D01*
X4735000Y4854314D01*
X4748656Y4857031D01*
X4760000Y4864610D01*
X4771344Y4857031D01*
X4785000Y4854314D01*
X4798656Y4857031D01*
X4810000Y4864611D01*
X4821344Y4857031D01*
X4835000Y4854314D01*
X4848657Y4857031D01*
X4855421Y4861551D01*
X4855873Y4860873D01*
X4860000Y4858116D01*
Y4864604D01*
X4860237Y4864763D01*
X4867974Y4876342D01*
X4870691Y4890000D01*
Y5015000D01*
X4899309D01*
Y4890000D01*
X4902026Y4876342D01*
X4909763Y4864763D01*
X4910000Y4864605D01*
Y4858116D01*
X4914127Y4860873D01*
X4914579Y4861551D01*
X4921344Y4857031D01*
X4935000Y4854314D01*
X4948657Y4857031D01*
X4960234Y4864766D01*
X4967969Y4876344D01*
X4970686Y4890000D01*
Y5125219D01*
X5014902Y5169435D01*
X5022981Y5164770D01*
X5040784Y5160000D01*
X5059216D01*
X5077019Y5164770D01*
X5089314Y5171869D01*
X5104384Y5167635D01*
D02*
G37*
G36*
X8426594Y4136250D02*
X8430184Y4118204D01*
X8440406Y4102906D01*
X8454118Y4093743D01*
Y3806257D01*
X8440406Y3797094D01*
X8430184Y3781796D01*
X8426594Y3763750D01*
Y3755881D01*
X8296588D01*
X8260637Y3777500D01*
Y3802500D01*
X8258115Y3815181D01*
X8250931Y3825931D01*
Y3834069D01*
X8258115Y3844819D01*
X8260637Y3857500D01*
Y3882500D01*
X8258115Y3895180D01*
X8254825Y3910176D01*
X8263201Y3922712D01*
X8263656Y3925000D01*
X8165001D01*
Y3974999D01*
X8263656D01*
X8263201Y3977288D01*
X8254825Y3989824D01*
X8258115Y4004819D01*
X8260637Y4017500D01*
Y4042500D01*
X8258115Y4055181D01*
X8252479Y4070000D01*
X8258115Y4084819D01*
X8260637Y4097500D01*
Y4122500D01*
X8296588Y4144118D01*
X8426594D01*
Y4136250D01*
D02*
G37*
G36*
X7790784Y4180000D02*
X7794158D01*
X7816844Y4166845D01*
X7830000Y4144158D01*
Y4140784D01*
X7834770Y4122981D01*
X7843986Y4107019D01*
X7857019Y4093986D01*
X7872981Y4084771D01*
X7890784Y4080000D01*
X7905113D01*
X7987557Y3997557D01*
X8002442Y3987611D01*
X8020000Y3984118D01*
X8027375D01*
X8047097Y3972432D01*
Y3947712D01*
X8011937Y3915881D01*
X7870000D01*
X7852441Y3912389D01*
X7837557Y3902443D01*
X7805113Y3870000D01*
X7790784D01*
X7772981Y3865230D01*
X7757019Y3856014D01*
X7743986Y3842981D01*
X7734770Y3827019D01*
X7730000Y3809216D01*
Y3790784D01*
X7734770Y3772981D01*
X7743986Y3757019D01*
X7757019Y3743986D01*
X7772981Y3734771D01*
X7790784Y3730000D01*
X7794158D01*
X7800327Y3726423D01*
X7808529Y3704938D01*
X7786859Y3668948D01*
X7772981Y3665229D01*
X7757019Y3656014D01*
X7743986Y3642981D01*
X7734770Y3627019D01*
X7730000Y3609216D01*
Y3590784D01*
X7734770Y3572981D01*
X7743986Y3557019D01*
X7757019Y3543986D01*
X7772981Y3534770D01*
X7790784Y3530000D01*
X7794158D01*
X7812062Y3519618D01*
X7816195Y3492526D01*
X7790784Y3460000D01*
X7772981Y3455230D01*
X7757019Y3446014D01*
X7743986Y3432981D01*
X7734771Y3417019D01*
X7730000Y3399216D01*
Y3380784D01*
X7734771Y3362981D01*
X7743986Y3347019D01*
X7733184Y3303859D01*
X7589070Y3159745D01*
X7542981Y3156014D01*
X7527019Y3165229D01*
X7509216Y3170000D01*
X7490784D01*
X7472981Y3165229D01*
X7457019Y3156014D01*
X7446887Y3145881D01*
X7395772D01*
X7386349Y3154242D01*
X7368686Y3185882D01*
X7370000Y3190784D01*
Y3209216D01*
X7365229Y3227019D01*
X7356014Y3242981D01*
X7342981Y3256014D01*
X7327019Y3265229D01*
X7309216Y3270000D01*
X7290784D01*
X7272981Y3265229D01*
X7257019Y3256014D01*
X7243986Y3242981D01*
X7234770Y3227019D01*
X7231688Y3215517D01*
X7212053Y3195882D01*
X7131588D01*
X7095637Y3217500D01*
Y3242500D01*
X7093114Y3255180D01*
X7089824Y3270176D01*
X7098201Y3282712D01*
X7098656Y3285000D01*
X6901344D01*
X6901799Y3282712D01*
X6910176Y3270176D01*
X6906886Y3255181D01*
X6904363Y3242500D01*
Y3217500D01*
X6906886Y3204819D01*
X6914069Y3194069D01*
Y3185931D01*
X6906886Y3175181D01*
X6904363Y3162500D01*
Y3137500D01*
X6868412Y3115881D01*
X6763406D01*
Y3123750D01*
X6759816Y3141796D01*
X6749594Y3157094D01*
X6734296Y3167316D01*
X6716515Y3170853D01*
X6716236Y3170913D01*
X6679658Y3190593D01*
Y3315147D01*
X6676941Y3328803D01*
X6676747Y3329094D01*
X6689725Y3361532D01*
X6697061Y3369094D01*
X6716250D01*
X6734296Y3372684D01*
X6749594Y3382906D01*
X6759816Y3398204D01*
X6763406Y3416250D01*
Y3424118D01*
X6868412D01*
X6904363Y3402500D01*
Y3377500D01*
X6906886Y3364819D01*
X6910176Y3349824D01*
X6901799Y3337288D01*
X6901344Y3335000D01*
X7122237D01*
X7137626Y3344119D01*
X7496887D01*
X7507019Y3333986D01*
X7522981Y3324771D01*
X7540784Y3320000D01*
X7559216D01*
X7577019Y3324771D01*
X7592981Y3333986D01*
X7606014Y3347019D01*
X7615229Y3362981D01*
X7620000Y3380784D01*
Y3399216D01*
X7615229Y3417019D01*
X7606014Y3432981D01*
X7592981Y3446014D01*
X7565230Y3472981D01*
X7570000Y3490785D01*
Y3509216D01*
X7565229Y3527019D01*
X7556014Y3542981D01*
X7542981Y3556014D01*
X7527019Y3565230D01*
X7509216Y3570000D01*
X7490784D01*
X7477380Y3566408D01*
X7458281Y3577865D01*
X7442500Y3593819D01*
Y3609216D01*
X7437730Y3627019D01*
X7428514Y3642981D01*
X7415481Y3656014D01*
X7399519Y3665229D01*
X7381716Y3670000D01*
X7363284D01*
X7345481Y3665229D01*
X7329519Y3656014D01*
X7319387Y3645881D01*
X7311504D01*
X7294943Y3662443D01*
X7280058Y3672389D01*
X7262500Y3675881D01*
X7137626D01*
X7117904Y3687568D01*
Y3712287D01*
X7153063Y3744118D01*
X7425996D01*
X7507990Y3662124D01*
X7522875Y3652178D01*
X7523153Y3652123D01*
X7528986Y3642019D01*
X7542019Y3628986D01*
X7557981Y3619771D01*
X7575784Y3615000D01*
X7594216D01*
X7612019Y3619771D01*
X7627981Y3628986D01*
X7641014Y3642019D01*
X7650230Y3657981D01*
X7655000Y3675784D01*
Y3694216D01*
X7650230Y3712019D01*
X7641014Y3727981D01*
X7628066Y3741227D01*
X7642729Y3777981D01*
X7647500Y3795784D01*
Y3814216D01*
X7642729Y3832019D01*
X7633514Y3847981D01*
X7620481Y3861014D01*
X7604519Y3870229D01*
X7593140Y3873279D01*
X7584593Y3887435D01*
X7579886Y3915000D01*
X7722443Y4057557D01*
X7732389Y4072442D01*
X7735882Y4090000D01*
Y4160827D01*
X7771687Y4183935D01*
X7775882Y4183993D01*
X7790784Y4180000D01*
D02*
G37*
G36*
X6657728Y3657033D02*
X6655102Y3652190D01*
X6588572Y3585659D01*
X6571332Y3571481D01*
X6547298Y3568866D01*
X6534733Y3574070D01*
X6521250Y3575846D01*
X6520000D01*
Y3470000D01*
X6495000D01*
Y3445000D01*
X6416654D01*
Y3416250D01*
X6418429Y3402767D01*
X6423634Y3390202D01*
X6431913Y3379413D01*
X6442702Y3371134D01*
X6455266Y3365930D01*
X6468750Y3364154D01*
X6504943D01*
X6508461Y3357855D01*
X6513713Y3344177D01*
X6514657Y3324154D01*
X6512718Y3322216D01*
X6509048Y3319399D01*
X6445076Y3255427D01*
X6433855Y3240804D01*
X6426802Y3223776D01*
X6424396Y3205502D01*
Y3137837D01*
X6421594Y3123750D01*
Y3016250D01*
X6425183Y2998204D01*
X6435406Y2982906D01*
X6450704Y2972684D01*
X6468750Y2969094D01*
X6521250D01*
X6546814Y2933395D01*
Y2760430D01*
X6506814Y2743861D01*
X6305686Y2944990D01*
Y3410000D01*
X6302969Y3423656D01*
X6295234Y3435234D01*
X6236234Y3494233D01*
X6224517Y3508412D01*
X6223767Y3542930D01*
X6227535Y3549457D01*
X6232772Y3569000D01*
X6120000D01*
Y3619000D01*
X6232772D01*
X6227535Y3638543D01*
X6218430Y3654314D01*
X6230878Y3684996D01*
X6239454Y3694314D01*
X6650137D01*
X6657728Y3657033D01*
D02*
G37*
G36*
X8426594Y3656250D02*
X8430184Y3638204D01*
X8440406Y3622906D01*
X8454118Y3613743D01*
Y3406257D01*
X8440406Y3397094D01*
X8430184Y3381796D01*
X8426594Y3363750D01*
Y3355882D01*
X8296588D01*
X8260637Y3377500D01*
Y3402500D01*
X8258115Y3415180D01*
X8254825Y3430176D01*
X8263201Y3442712D01*
X8263656Y3444999D01*
X8165001D01*
Y3494999D01*
X8263656D01*
X8263201Y3497288D01*
X8254825Y3509824D01*
X8258115Y3524819D01*
X8260637Y3537500D01*
Y3562500D01*
X8258115Y3575181D01*
X8250931Y3585931D01*
Y3594069D01*
X8258115Y3604819D01*
X8260637Y3617500D01*
Y3642500D01*
X8296588Y3664118D01*
X8426594D01*
Y3656250D01*
D02*
G37*
G36*
X2491892Y3512359D02*
X2141335Y3161802D01*
X2106014Y3142981D01*
X2092981Y3156014D01*
X2077019Y3165229D01*
X2059216Y3170000D01*
X2040784D01*
X2022981Y3165229D01*
X2007019Y3156014D01*
X1993986Y3142981D01*
X1984770Y3127019D01*
X1980000Y3109216D01*
Y3105842D01*
X1966844Y3083155D01*
X1944158Y3070000D01*
X1940784D01*
X1925686Y3065954D01*
X1921969Y3065872D01*
X1885686Y3088918D01*
Y3214528D01*
X1903253Y3225480D01*
X1925686Y3231266D01*
X1934496Y3224506D01*
X1951622Y3217412D01*
X1970000Y3214993D01*
X1990000D01*
Y3331000D01*
X2015000D01*
Y3356000D01*
X2131007D01*
Y3376000D01*
X2128588Y3394378D01*
X2121494Y3411504D01*
X2110210Y3426210D01*
X2095503Y3437494D01*
X2078378Y3444588D01*
X2070169Y3445668D01*
X2065047Y3460509D01*
X2064208Y3486394D01*
X2082541Y3496978D01*
X2103021Y3517459D01*
X2117503Y3542542D01*
X2119318Y3549314D01*
X2476585D01*
X2491892Y3512359D01*
D02*
G37*
G36*
X6904363Y3002500D02*
Y2977500D01*
X6906886Y2964819D01*
X6914069Y2954069D01*
Y2945931D01*
X6906886Y2935181D01*
X6904363Y2922500D01*
Y2897500D01*
X6906886Y2884819D01*
X6912521Y2870000D01*
X6906886Y2855180D01*
X6904363Y2842500D01*
Y2817500D01*
X6906886Y2804819D01*
X6912521Y2790000D01*
X6906886Y2775180D01*
X6904363Y2762500D01*
Y2737500D01*
X6906886Y2724819D01*
X6914069Y2714069D01*
Y2705931D01*
X6906886Y2695181D01*
X6904363Y2682500D01*
Y2657500D01*
X6906886Y2644819D01*
X6912521Y2630000D01*
X6906886Y2615180D01*
X6904363Y2602500D01*
Y2577500D01*
X6906886Y2564819D01*
X6914069Y2554069D01*
Y2545931D01*
X6906886Y2535181D01*
X6904363Y2522500D01*
Y2497500D01*
X6906886Y2484819D01*
X6912521Y2470000D01*
X6906886Y2455181D01*
X6904363Y2442500D01*
Y2417500D01*
X6906886Y2404819D01*
X6912521Y2390000D01*
X6906886Y2375180D01*
X6904363Y2362500D01*
Y2337500D01*
X6906886Y2324819D01*
X6910176Y2309824D01*
X6901799Y2297288D01*
X6899918Y2287829D01*
X6884723Y2278903D01*
X6858858Y2272320D01*
X6705686Y2425492D01*
Y2769774D01*
X6712981Y2773986D01*
X6726014Y2787019D01*
X6735230Y2802981D01*
X6740000Y2820784D01*
Y2839216D01*
X6735230Y2857019D01*
X6726014Y2872981D01*
X6712981Y2886014D01*
X6697019Y2895229D01*
X6679216Y2900000D01*
X6660784D01*
X6658186Y2899303D01*
X6637764Y2911292D01*
X6632376Y2928961D01*
X6632639Y2942825D01*
X6661902Y2969462D01*
X6663750Y2969094D01*
X6716250D01*
X6734296Y2972684D01*
X6749594Y2982906D01*
X6759816Y2998204D01*
X6763406Y3016250D01*
Y3024118D01*
X6868412D01*
X6904363Y3002500D01*
D02*
G37*
G36*
X6373986Y2607019D02*
X6387019Y2593986D01*
X6402981Y2584771D01*
X6420784Y2580000D01*
X6439216D01*
X6439314Y2580027D01*
X6474928Y2558009D01*
X6479314Y2551455D01*
Y2415686D01*
X6230710D01*
X6217054Y2412969D01*
X6205477Y2405234D01*
X5522535Y1722292D01*
X5306147D01*
X5293717Y1751563D01*
X5292759Y1762292D01*
X5332648Y1802181D01*
X5340784Y1800000D01*
X5359216D01*
X5377019Y1804771D01*
X5392981Y1813986D01*
X5406014Y1827019D01*
X5415229Y1842981D01*
X5420000Y1860784D01*
Y1879216D01*
X5415229Y1897019D01*
X5406014Y1912981D01*
X5392981Y1926014D01*
X5377019Y1935230D01*
X5362688Y1939070D01*
X5355900Y1950901D01*
X5354831Y1954415D01*
X5361706Y1992031D01*
X5373283Y1999767D01*
X5987831Y2614314D01*
X6369774D01*
X6373986Y2607019D01*
D02*
G37*
G36*
X3814922Y902359D02*
X3674517Y761954D01*
X3631721Y764070D01*
X3610000Y790785D01*
Y809216D01*
X3605230Y827019D01*
X3596014Y842981D01*
X3582981Y856014D01*
X3567019Y865229D01*
X3549216Y870000D01*
X3530784D01*
X3512981Y865229D01*
X3497019Y856014D01*
X3483986Y842981D01*
X3474771Y827019D01*
X3470000Y809216D01*
Y790785D01*
X3442595Y757080D01*
X3439773Y755685D01*
X3125658D01*
X3116100Y764259D01*
X3098634Y795685D01*
X3100000Y800785D01*
Y819216D01*
X3097820Y827352D01*
X3209781Y939314D01*
X3799615D01*
X3814922Y902359D01*
D02*
G37*
G36*
X2199314Y1066584D02*
Y935001D01*
X2202031Y921344D01*
X2209766Y909767D01*
X2292181Y827352D01*
X2290001Y819216D01*
Y800785D01*
X2291367Y795685D01*
X2273900Y764259D01*
X2264342Y755685D01*
X2260208D01*
X2246551Y752969D01*
X2234974Y745233D01*
X2220426Y730686D01*
X2159357D01*
X2134809Y755234D01*
X2123231Y762969D01*
X2109575Y765686D01*
X2060226D01*
X2056014Y772981D01*
X2042981Y786014D01*
X2027019Y795230D01*
X2009216Y800000D01*
X1990784D01*
X1975686Y795954D01*
X1971970Y795872D01*
X1939210Y816679D01*
X1936720Y856253D01*
X2162359Y1081892D01*
X2199314Y1066584D01*
D02*
G37*
G36*
X3400779Y401196D02*
X3400589Y389584D01*
X3393986Y382981D01*
X3384770Y367019D01*
X3382727Y359392D01*
X3361334Y349829D01*
X3358002Y349094D01*
X3340000Y348994D01*
X3332981Y356014D01*
X3317019Y365229D01*
X3299216Y370000D01*
X3280784D01*
X3262981Y365229D01*
X3247019Y356014D01*
X3233986Y342981D01*
X3224771Y327019D01*
X3220000Y309216D01*
Y290785D01*
X3195592Y277980D01*
X3170000Y279216D01*
X3165229Y297019D01*
X3156014Y312981D01*
X3142981Y326014D01*
X3127019Y335229D01*
X3109216Y340000D01*
X3090784D01*
X3072981Y335229D01*
X3057019Y326014D01*
X3043986Y312981D01*
X3034770Y297019D01*
X3030000Y279216D01*
Y275204D01*
X3001431Y246365D01*
X2993488Y242500D01*
X2972493D01*
X2948331Y236025D01*
X2926669Y223518D01*
X2910000Y206849D01*
X2888847Y207611D01*
X2868335Y215430D01*
X2865229Y227019D01*
X2856014Y242981D01*
X2842981Y256014D01*
X2827019Y265230D01*
X2809216Y270000D01*
X2805842D01*
X2783156Y283155D01*
X2770000Y305842D01*
Y309216D01*
X2765229Y327019D01*
X2756014Y342981D01*
X2742981Y356014D01*
X2727019Y365229D01*
X2709216Y370000D01*
X2690784D01*
X2672981Y365229D01*
X2657019Y356014D01*
X2643986Y342981D01*
X2634770Y327019D01*
X2630000Y309216D01*
Y290784D01*
X2634770Y272981D01*
X2643986Y257019D01*
X2657019Y243986D01*
X2672981Y234770D01*
X2690784Y230000D01*
X2694158D01*
X2716844Y216845D01*
X2730000Y194158D01*
Y190784D01*
X2734771Y172981D01*
X2743986Y157019D01*
X2757019Y143986D01*
X2772981Y134771D01*
X2790784Y130000D01*
X2809216D01*
X2827019Y134771D01*
X2842981Y143986D01*
X2850000Y151006D01*
X2874681Y145758D01*
X2890000Y136517D01*
Y134993D01*
X2896474Y110831D01*
X2908981Y89169D01*
X2926669Y71481D01*
X2928216Y70588D01*
X2917498Y30588D01*
X2392667D01*
X2372344Y70588D01*
X2379090Y79827D01*
X2380516Y80349D01*
X2397019Y84770D01*
X2412981Y93986D01*
X2430000Y104546D01*
X2447019Y93986D01*
X2462981Y84770D01*
X2480784Y80000D01*
X2499216D01*
X2517019Y84770D01*
X2532981Y93986D01*
X2546014Y107019D01*
X2555230Y122981D01*
X2560000Y140784D01*
Y159216D01*
X2555230Y177019D01*
X2546014Y192981D01*
X2532981Y206014D01*
X2517019Y215229D01*
X2499216Y220000D01*
X2480784D01*
X2462981Y215229D01*
X2447019Y206014D01*
X2430000Y195454D01*
X2412981Y206014D01*
X2397019Y215229D01*
X2379216Y220000D01*
X2375563D01*
X2358774Y251793D01*
X2356776Y258340D01*
X2365229Y272981D01*
X2370000Y290784D01*
Y309216D01*
X2367819Y317352D01*
X2484782Y434314D01*
X3382764D01*
X3400779Y401196D01*
D02*
G37*
%LPC*%
G36*
X7625000Y7651008D02*
X7605000D01*
X7586622Y7648588D01*
X7569497Y7641494D01*
X7554790Y7630210D01*
X7543506Y7615504D01*
X7536412Y7598378D01*
X7533993Y7580000D01*
Y7525000D01*
X7625000D01*
Y7651008D01*
D02*
G37*
G36*
X6025000D02*
X6005000D01*
X5986622Y7648588D01*
X5969496Y7641494D01*
X5954790Y7630210D01*
X5943506Y7615504D01*
X5936412Y7598378D01*
X5933993Y7580000D01*
Y7525000D01*
X6025000D01*
Y7651008D01*
D02*
G37*
G36*
X4425000D02*
X4405000D01*
X4386622Y7648588D01*
X4369496Y7641494D01*
X4354790Y7630210D01*
X4343506Y7615504D01*
X4336412Y7598378D01*
X4333993Y7580000D01*
Y7525000D01*
X4425000D01*
Y7651008D01*
D02*
G37*
G36*
X2825000D02*
X2805000D01*
X2786622Y7648588D01*
X2769497Y7641494D01*
X2754791Y7630210D01*
X2743506Y7615504D01*
X2736413Y7598378D01*
X2733993Y7580000D01*
Y7525000D01*
X2825000D01*
Y7651008D01*
D02*
G37*
G36*
X1225000D02*
X1205000D01*
X1186622Y7648588D01*
X1169497Y7641494D01*
X1154790Y7630210D01*
X1143506Y7615504D01*
X1136413Y7598378D01*
X1133993Y7580000D01*
Y7525000D01*
X1225000D01*
Y7651008D01*
D02*
G37*
G36*
X7695000D02*
X7675000D01*
Y7500000D01*
Y7348992D01*
X7695000D01*
X7713378Y7351412D01*
X7730504Y7358506D01*
X7745210Y7369790D01*
X7756494Y7384496D01*
X7763588Y7401622D01*
X7763662Y7402182D01*
X7799967Y7408805D01*
X7804819Y7408348D01*
X7821547Y7386547D01*
X7844526Y7368915D01*
X7871284Y7357831D01*
X7900000Y7354051D01*
X7928716Y7357831D01*
X7955475Y7368915D01*
X7978453Y7386547D01*
X7996085Y7409525D01*
X8004241Y7429215D01*
X8025000Y7433018D01*
X8045760Y7429215D01*
X8053916Y7409525D01*
X8071547Y7386547D01*
X8094526Y7368915D01*
X8121284Y7357831D01*
X8150000Y7354051D01*
X8178716Y7357831D01*
X8205475Y7368915D01*
X8228453Y7386547D01*
X8246085Y7409525D01*
X8254241Y7429215D01*
X8275000Y7433018D01*
X8295760Y7429215D01*
X8303916Y7409525D01*
X8321547Y7386547D01*
X8344526Y7368915D01*
X8371285Y7357831D01*
X8400000Y7354051D01*
X8428716Y7357831D01*
X8455475Y7368915D01*
X8478453Y7386547D01*
X8496085Y7409525D01*
X8504241Y7429215D01*
X8525000Y7433018D01*
X8545760Y7429215D01*
X8553916Y7409525D01*
X8571547Y7386547D01*
X8594526Y7368915D01*
X8621285Y7357831D01*
X8650000Y7354051D01*
X8678716Y7357831D01*
X8705475Y7368915D01*
X8728453Y7386547D01*
X8746085Y7409525D01*
X8757169Y7436284D01*
X8760949Y7465000D01*
Y7535000D01*
X8757169Y7563716D01*
X8746085Y7590475D01*
X8728453Y7613453D01*
X8705475Y7631085D01*
X8678716Y7642169D01*
X8650000Y7645949D01*
X8621285Y7642169D01*
X8594526Y7631085D01*
X8571547Y7613453D01*
X8553916Y7590475D01*
X8545760Y7570785D01*
X8525000Y7566982D01*
X8504241Y7570785D01*
X8496085Y7590475D01*
X8478453Y7613453D01*
X8455475Y7631085D01*
X8428716Y7642169D01*
X8400000Y7645949D01*
X8371285Y7642169D01*
X8344526Y7631085D01*
X8321547Y7613453D01*
X8303916Y7590475D01*
X8295760Y7570785D01*
X8275000Y7566982D01*
X8254241Y7570785D01*
X8246085Y7590475D01*
X8228453Y7613453D01*
X8205475Y7631085D01*
X8178716Y7642169D01*
X8150000Y7645949D01*
X8121284Y7642169D01*
X8094526Y7631085D01*
X8071547Y7613453D01*
X8053916Y7590475D01*
X8045760Y7570785D01*
X8025000Y7566982D01*
X8004241Y7570785D01*
X7996085Y7590475D01*
X7978453Y7613453D01*
X7955475Y7631085D01*
X7928716Y7642169D01*
X7900000Y7645949D01*
X7871284Y7642169D01*
X7844526Y7631085D01*
X7821547Y7613453D01*
X7804819Y7591652D01*
X7799967Y7591195D01*
X7763662Y7597818D01*
X7763588Y7598378D01*
X7756494Y7615504D01*
X7745210Y7630210D01*
X7730504Y7641494D01*
X7713378Y7648588D01*
X7695000Y7651008D01*
D02*
G37*
G36*
X6095000D02*
X6075000D01*
Y7500000D01*
Y7348992D01*
X6095000D01*
X6113378Y7351412D01*
X6130504Y7358506D01*
X6145210Y7369790D01*
X6156494Y7384496D01*
X6163588Y7401622D01*
X6163662Y7402182D01*
X6199967Y7408805D01*
X6204819Y7408348D01*
X6221547Y7386547D01*
X6244525Y7368915D01*
X6271284Y7357831D01*
X6300000Y7354051D01*
X6328716Y7357831D01*
X6355475Y7368915D01*
X6378453Y7386547D01*
X6396085Y7409525D01*
X6404241Y7429215D01*
X6425000Y7433018D01*
X6445760Y7429215D01*
X6453915Y7409525D01*
X6471547Y7386547D01*
X6494525Y7368915D01*
X6521284Y7357831D01*
X6550000Y7354051D01*
X6578716Y7357831D01*
X6605475Y7368915D01*
X6628453Y7386547D01*
X6646085Y7409525D01*
X6654241Y7429215D01*
X6675000Y7433018D01*
X6695760Y7429215D01*
X6703915Y7409525D01*
X6721547Y7386547D01*
X6744525Y7368915D01*
X6771284Y7357831D01*
X6800000Y7354051D01*
X6828716Y7357831D01*
X6855475Y7368915D01*
X6878453Y7386547D01*
X6896085Y7409525D01*
X6904241Y7429215D01*
X6925000Y7433018D01*
X6945760Y7429215D01*
X6953915Y7409525D01*
X6971547Y7386547D01*
X6994526Y7368915D01*
X7021284Y7357831D01*
X7050000Y7354051D01*
X7078716Y7357831D01*
X7105475Y7368915D01*
X7128453Y7386547D01*
X7146085Y7409525D01*
X7157169Y7436284D01*
X7160949Y7465000D01*
Y7535000D01*
X7157169Y7563716D01*
X7146085Y7590475D01*
X7128453Y7613453D01*
X7105475Y7631085D01*
X7078716Y7642169D01*
X7050000Y7645949D01*
X7021284Y7642169D01*
X6994526Y7631085D01*
X6971547Y7613453D01*
X6953915Y7590475D01*
X6945760Y7570785D01*
X6925000Y7566982D01*
X6904241Y7570785D01*
X6896085Y7590475D01*
X6878453Y7613453D01*
X6855475Y7631085D01*
X6828716Y7642169D01*
X6800000Y7645949D01*
X6771284Y7642169D01*
X6744525Y7631085D01*
X6721547Y7613453D01*
X6703915Y7590475D01*
X6695760Y7570785D01*
X6675000Y7566982D01*
X6654241Y7570785D01*
X6646085Y7590475D01*
X6628453Y7613453D01*
X6605475Y7631085D01*
X6578716Y7642169D01*
X6550000Y7645949D01*
X6521284Y7642169D01*
X6494525Y7631085D01*
X6471547Y7613453D01*
X6453915Y7590475D01*
X6445760Y7570785D01*
X6425000Y7566982D01*
X6404241Y7570785D01*
X6396085Y7590475D01*
X6378453Y7613453D01*
X6355475Y7631085D01*
X6328716Y7642169D01*
X6300000Y7645949D01*
X6271284Y7642169D01*
X6244525Y7631085D01*
X6221547Y7613453D01*
X6204819Y7591652D01*
X6199967Y7591195D01*
X6163662Y7597818D01*
X6163588Y7598378D01*
X6156494Y7615504D01*
X6145210Y7630210D01*
X6130504Y7641494D01*
X6113378Y7648588D01*
X6095000Y7651008D01*
D02*
G37*
G36*
X4495000D02*
X4475000D01*
Y7500000D01*
Y7348992D01*
X4495000D01*
X4513378Y7351412D01*
X4530504Y7358506D01*
X4545210Y7369790D01*
X4556494Y7384496D01*
X4563588Y7401622D01*
X4563662Y7402182D01*
X4599967Y7408805D01*
X4604819Y7408348D01*
X4621548Y7386547D01*
X4644526Y7368915D01*
X4671285Y7357831D01*
X4700000Y7354051D01*
X4728716Y7357831D01*
X4755475Y7368915D01*
X4778453Y7386547D01*
X4796085Y7409525D01*
X4804241Y7429215D01*
X4825000Y7433018D01*
X4845760Y7429215D01*
X4853916Y7409525D01*
X4871548Y7386547D01*
X4894526Y7368915D01*
X4921285Y7357831D01*
X4950000Y7354051D01*
X4978716Y7357831D01*
X5005475Y7368915D01*
X5028453Y7386547D01*
X5046085Y7409525D01*
X5054241Y7429215D01*
X5075000Y7433018D01*
X5095760Y7429215D01*
X5103916Y7409525D01*
X5121548Y7386547D01*
X5144526Y7368915D01*
X5171285Y7357831D01*
X5200000Y7354051D01*
X5228716Y7357831D01*
X5255475Y7368915D01*
X5278453Y7386547D01*
X5296085Y7409525D01*
X5304241Y7429215D01*
X5325000Y7433018D01*
X5345760Y7429215D01*
X5353916Y7409525D01*
X5371548Y7386547D01*
X5394526Y7368915D01*
X5421285Y7357831D01*
X5450000Y7354051D01*
X5478716Y7357831D01*
X5505475Y7368915D01*
X5528453Y7386547D01*
X5546085Y7409525D01*
X5557169Y7436284D01*
X5560949Y7465000D01*
Y7535000D01*
X5557169Y7563716D01*
X5546085Y7590475D01*
X5528453Y7613453D01*
X5505475Y7631085D01*
X5478716Y7642169D01*
X5450000Y7645949D01*
X5421285Y7642169D01*
X5394526Y7631085D01*
X5371548Y7613453D01*
X5353916Y7590475D01*
X5345760Y7570785D01*
X5325000Y7566982D01*
X5304241Y7570785D01*
X5296085Y7590475D01*
X5278453Y7613453D01*
X5255475Y7631085D01*
X5228716Y7642169D01*
X5200000Y7645949D01*
X5171285Y7642169D01*
X5144526Y7631085D01*
X5121548Y7613453D01*
X5103916Y7590475D01*
X5095760Y7570785D01*
X5075000Y7566982D01*
X5054241Y7570785D01*
X5046085Y7590475D01*
X5028453Y7613453D01*
X5005475Y7631085D01*
X4978716Y7642169D01*
X4950000Y7645949D01*
X4921285Y7642169D01*
X4894526Y7631085D01*
X4871548Y7613453D01*
X4853916Y7590475D01*
X4845760Y7570785D01*
X4825000Y7566982D01*
X4804241Y7570785D01*
X4796085Y7590475D01*
X4778453Y7613453D01*
X4755475Y7631085D01*
X4728716Y7642169D01*
X4700000Y7645949D01*
X4671285Y7642169D01*
X4644526Y7631085D01*
X4621548Y7613453D01*
X4604819Y7591652D01*
X4599967Y7591195D01*
X4563662Y7597818D01*
X4563588Y7598378D01*
X4556494Y7615504D01*
X4545210Y7630210D01*
X4530504Y7641494D01*
X4513378Y7648588D01*
X4495000Y7651008D01*
D02*
G37*
G36*
X2895000D02*
X2875000D01*
Y7500000D01*
Y7348992D01*
X2895000D01*
X2913378Y7351412D01*
X2930504Y7358506D01*
X2945210Y7369790D01*
X2956494Y7384496D01*
X2963588Y7401622D01*
X2963662Y7402182D01*
X2999967Y7408805D01*
X3004819Y7408348D01*
X3021548Y7386547D01*
X3044526Y7368915D01*
X3071285Y7357831D01*
X3100000Y7354051D01*
X3128716Y7357831D01*
X3155475Y7368915D01*
X3178453Y7386547D01*
X3196085Y7409525D01*
X3204241Y7429215D01*
X3225000Y7433018D01*
X3245760Y7429215D01*
X3253916Y7409525D01*
X3271548Y7386547D01*
X3294526Y7368915D01*
X3321285Y7357831D01*
X3350000Y7354051D01*
X3378716Y7357831D01*
X3405475Y7368915D01*
X3428453Y7386547D01*
X3446085Y7409525D01*
X3454241Y7429215D01*
X3475000Y7433018D01*
X3495760Y7429215D01*
X3503916Y7409525D01*
X3521548Y7386547D01*
X3544526Y7368915D01*
X3571285Y7357831D01*
X3600000Y7354051D01*
X3628716Y7357831D01*
X3655475Y7368915D01*
X3678453Y7386547D01*
X3696085Y7409525D01*
X3704241Y7429215D01*
X3725000Y7433018D01*
X3745760Y7429215D01*
X3753916Y7409525D01*
X3771548Y7386547D01*
X3794526Y7368915D01*
X3821285Y7357831D01*
X3850000Y7354051D01*
X3878716Y7357831D01*
X3905475Y7368915D01*
X3928453Y7386547D01*
X3946085Y7409525D01*
X3957169Y7436284D01*
X3960949Y7465000D01*
Y7535000D01*
X3957169Y7563716D01*
X3946085Y7590475D01*
X3928453Y7613453D01*
X3905475Y7631085D01*
X3878716Y7642169D01*
X3850000Y7645949D01*
X3821285Y7642169D01*
X3794526Y7631085D01*
X3771548Y7613453D01*
X3753916Y7590475D01*
X3745760Y7570785D01*
X3725000Y7566982D01*
X3704241Y7570785D01*
X3696085Y7590475D01*
X3678453Y7613453D01*
X3655475Y7631085D01*
X3628716Y7642169D01*
X3600000Y7645949D01*
X3571285Y7642169D01*
X3544526Y7631085D01*
X3521548Y7613453D01*
X3503916Y7590475D01*
X3495760Y7570785D01*
X3475000Y7566982D01*
X3454241Y7570785D01*
X3446085Y7590475D01*
X3428453Y7613453D01*
X3405475Y7631085D01*
X3378716Y7642169D01*
X3350000Y7645949D01*
X3321285Y7642169D01*
X3294526Y7631085D01*
X3271548Y7613453D01*
X3253916Y7590475D01*
X3245760Y7570785D01*
X3225000Y7566982D01*
X3204241Y7570785D01*
X3196085Y7590475D01*
X3178453Y7613453D01*
X3155475Y7631085D01*
X3128716Y7642169D01*
X3100000Y7645949D01*
X3071285Y7642169D01*
X3044526Y7631085D01*
X3021548Y7613453D01*
X3004819Y7591652D01*
X2999967Y7591195D01*
X2963662Y7597818D01*
X2963588Y7598378D01*
X2956494Y7615504D01*
X2945210Y7630210D01*
X2930504Y7641494D01*
X2913378Y7648588D01*
X2895000Y7651008D01*
D02*
G37*
G36*
X1295000D02*
X1275000D01*
Y7500000D01*
Y7348992D01*
X1295000D01*
X1313378Y7351412D01*
X1330504Y7358506D01*
X1345210Y7369790D01*
X1356494Y7384496D01*
X1363588Y7401622D01*
X1363662Y7402182D01*
X1399967Y7408805D01*
X1404819Y7408348D01*
X1421548Y7386547D01*
X1444526Y7368915D01*
X1471285Y7357831D01*
X1500000Y7354051D01*
X1528716Y7357831D01*
X1555475Y7368915D01*
X1578453Y7386547D01*
X1596085Y7409525D01*
X1604241Y7429215D01*
X1625000Y7433018D01*
X1645760Y7429215D01*
X1653916Y7409525D01*
X1671548Y7386547D01*
X1694526Y7368915D01*
X1721285Y7357831D01*
X1750000Y7354051D01*
X1778716Y7357831D01*
X1805475Y7368915D01*
X1828453Y7386547D01*
X1846085Y7409525D01*
X1854241Y7429215D01*
X1875000Y7433018D01*
X1895760Y7429215D01*
X1903916Y7409525D01*
X1921548Y7386547D01*
X1944526Y7368915D01*
X1971285Y7357831D01*
X2000000Y7354051D01*
X2028716Y7357831D01*
X2055475Y7368915D01*
X2078453Y7386547D01*
X2096085Y7409525D01*
X2104241Y7429215D01*
X2125000Y7433018D01*
X2145760Y7429215D01*
X2153916Y7409525D01*
X2171548Y7386547D01*
X2194526Y7368915D01*
X2221285Y7357831D01*
X2250000Y7354051D01*
X2278716Y7357831D01*
X2305475Y7368915D01*
X2328453Y7386547D01*
X2346085Y7409525D01*
X2357169Y7436284D01*
X2360949Y7465000D01*
Y7535000D01*
X2357169Y7563716D01*
X2346085Y7590475D01*
X2328453Y7613453D01*
X2305475Y7631085D01*
X2278716Y7642169D01*
X2250000Y7645949D01*
X2221285Y7642169D01*
X2194526Y7631085D01*
X2171548Y7613453D01*
X2153916Y7590475D01*
X2145760Y7570785D01*
X2125000Y7566982D01*
X2104241Y7570785D01*
X2096085Y7590475D01*
X2078453Y7613453D01*
X2055475Y7631085D01*
X2028716Y7642169D01*
X2000000Y7645949D01*
X1971285Y7642169D01*
X1944526Y7631085D01*
X1921548Y7613453D01*
X1903916Y7590475D01*
X1895760Y7570785D01*
X1875000Y7566982D01*
X1854241Y7570785D01*
X1846085Y7590475D01*
X1828453Y7613453D01*
X1805475Y7631085D01*
X1778716Y7642169D01*
X1750000Y7645949D01*
X1721285Y7642169D01*
X1694526Y7631085D01*
X1671548Y7613453D01*
X1653916Y7590475D01*
X1645760Y7570785D01*
X1625000Y7566982D01*
X1604241Y7570785D01*
X1596085Y7590475D01*
X1578453Y7613453D01*
X1555475Y7631085D01*
X1528716Y7642169D01*
X1500000Y7645949D01*
X1471285Y7642169D01*
X1444526Y7631085D01*
X1421548Y7613453D01*
X1404819Y7591652D01*
X1399967Y7591195D01*
X1363662Y7597818D01*
X1363588Y7598378D01*
X1356494Y7615504D01*
X1345210Y7630210D01*
X1330504Y7641494D01*
X1313378Y7648588D01*
X1295000Y7651008D01*
D02*
G37*
G36*
X7625000Y7475000D02*
X7533993D01*
Y7420000D01*
X7536412Y7401622D01*
X7543506Y7384496D01*
X7554790Y7369790D01*
X7569497Y7358506D01*
X7586622Y7351412D01*
X7605000Y7348992D01*
X7625000D01*
Y7475000D01*
D02*
G37*
G36*
X6025000D02*
X5933993D01*
Y7420000D01*
X5936412Y7401622D01*
X5943506Y7384496D01*
X5954790Y7369790D01*
X5969496Y7358506D01*
X5986622Y7351412D01*
X6005000Y7348992D01*
X6025000D01*
Y7475000D01*
D02*
G37*
G36*
X4425000D02*
X4333993D01*
Y7420000D01*
X4336412Y7401622D01*
X4343506Y7384496D01*
X4354790Y7369790D01*
X4369496Y7358506D01*
X4386622Y7351412D01*
X4405000Y7348992D01*
X4425000D01*
Y7475000D01*
D02*
G37*
G36*
X2825000D02*
X2733993D01*
Y7420000D01*
X2736413Y7401622D01*
X2743506Y7384496D01*
X2754791Y7369790D01*
X2769497Y7358506D01*
X2786622Y7351412D01*
X2805000Y7348992D01*
X2825000D01*
Y7475000D01*
D02*
G37*
G36*
X1225000D02*
X1133993D01*
Y7420000D01*
X1136413Y7401622D01*
X1143506Y7384496D01*
X1154790Y7369790D01*
X1169497Y7358506D01*
X1186622Y7351412D01*
X1205000Y7348992D01*
X1225000D01*
Y7475000D01*
D02*
G37*
G36*
X9524251Y7870000D02*
X9475749D01*
X9427662Y7863669D01*
X9380812Y7851116D01*
X9336002Y7832555D01*
X9293998Y7808304D01*
X9255518Y7778778D01*
X9221222Y7744482D01*
X9191696Y7706002D01*
X9167445Y7663998D01*
X9148884Y7619188D01*
X9136331Y7572338D01*
X9130000Y7524251D01*
Y7475749D01*
X9136331Y7427662D01*
X9148884Y7380812D01*
X9167445Y7336002D01*
X9191696Y7293998D01*
X9221222Y7255518D01*
X9255518Y7221222D01*
X9293998Y7191696D01*
X9336002Y7167445D01*
X9380812Y7148884D01*
X9427662Y7136331D01*
X9475749Y7130000D01*
X9524251D01*
X9572338Y7136331D01*
X9619188Y7148884D01*
X9663998Y7167445D01*
X9706002Y7191696D01*
X9744482Y7221222D01*
X9778778Y7255518D01*
X9808304Y7293998D01*
X9832555Y7336002D01*
X9851116Y7380812D01*
X9863669Y7427662D01*
X9870000Y7475749D01*
Y7524251D01*
X9863669Y7572338D01*
X9851116Y7619188D01*
X9832555Y7663998D01*
X9808304Y7706002D01*
X9778778Y7744482D01*
X9744482Y7778778D01*
X9706002Y7808304D01*
X9663998Y7832555D01*
X9619188Y7851116D01*
X9572338Y7863669D01*
X9524251Y7870000D01*
D02*
G37*
G36*
X504251Y7840000D02*
X455749D01*
X407661Y7833669D01*
X360812Y7821116D01*
X316002Y7802555D01*
X273998Y7778304D01*
X235518Y7748778D01*
X201222Y7714482D01*
X171696Y7676002D01*
X147445Y7633998D01*
X128884Y7589188D01*
X116330Y7542338D01*
X110000Y7494251D01*
Y7445749D01*
X116330Y7397662D01*
X128884Y7350812D01*
X147445Y7306002D01*
X171696Y7263998D01*
X201222Y7225518D01*
X235518Y7191222D01*
X273998Y7161696D01*
X316002Y7137445D01*
X359419Y7119461D01*
Y6870000D01*
X360000Y6864105D01*
Y6858181D01*
X361156Y6852371D01*
X361736Y6846476D01*
X363456Y6840806D01*
X364612Y6834997D01*
X366878Y6829526D01*
X368598Y6823856D01*
X371391Y6818631D01*
X373657Y6813159D01*
X376949Y6808233D01*
X379741Y6803009D01*
X383498Y6798430D01*
X386790Y6793504D01*
X390979Y6789316D01*
X394737Y6784736D01*
X399316Y6780979D01*
X403504Y6776790D01*
X408430Y6773498D01*
X413009Y6769741D01*
X418233Y6766949D01*
X423159Y6763657D01*
X428631Y6761391D01*
X433856Y6758598D01*
X439526Y6756878D01*
X444997Y6754612D01*
X450807Y6753456D01*
X456476Y6751736D01*
X462371Y6751156D01*
X468181Y6750000D01*
X474105D01*
X480000Y6749419D01*
X485895Y6750000D01*
X491819D01*
X497629Y6751156D01*
X503524Y6751736D01*
X509194Y6753456D01*
X515003Y6754612D01*
X520474Y6756878D01*
X526144Y6758598D01*
X531369Y6761391D01*
X536841Y6763657D01*
X541768Y6766949D01*
X546991Y6769741D01*
X551570Y6773498D01*
X556496Y6776790D01*
X560684Y6780979D01*
X565264Y6784736D01*
X569021Y6789316D01*
X573210Y6793504D01*
X576502Y6798430D01*
X580259Y6803009D01*
X583051Y6808233D01*
X586343Y6813159D01*
X588609Y6818631D01*
X591402Y6823856D01*
X593122Y6829526D01*
X595388Y6834997D01*
X596544Y6840806D01*
X598264Y6846476D01*
X598844Y6852371D01*
X600000Y6858181D01*
Y6864105D01*
X600581Y6870000D01*
Y7119461D01*
X643998Y7137445D01*
X686002Y7161696D01*
X724481Y7191222D01*
X758778Y7225518D01*
X788304Y7263998D01*
X812555Y7306002D01*
X831116Y7350812D01*
X843669Y7397662D01*
X850000Y7445749D01*
Y7494251D01*
X843669Y7542338D01*
X831116Y7589188D01*
X812555Y7633998D01*
X788304Y7676002D01*
X758778Y7714482D01*
X724481Y7748778D01*
X686002Y7778304D01*
X643998Y7802555D01*
X599188Y7821116D01*
X552338Y7833669D01*
X504251Y7840000D01*
D02*
G37*
G36*
X505000Y6492884D02*
Y6395000D01*
X602884D01*
X600581Y6406578D01*
X591128Y6429399D01*
X577405Y6449938D01*
X559938Y6467405D01*
X539399Y6481128D01*
X516578Y6490581D01*
X505000Y6492884D01*
D02*
G37*
G36*
X455000D02*
X443422Y6490581D01*
X420601Y6481128D01*
X400062Y6467405D01*
X382595Y6449938D01*
X368872Y6429399D01*
X359419Y6406578D01*
X357116Y6395000D01*
X455000D01*
Y6492884D01*
D02*
G37*
G36*
X602884Y6345000D02*
X505000D01*
Y6247116D01*
X516578Y6249419D01*
X539399Y6258872D01*
X559938Y6272595D01*
X577405Y6290062D01*
X591128Y6310601D01*
X600581Y6333422D01*
X602884Y6345000D01*
D02*
G37*
G36*
X455000D02*
X357116D01*
X359419Y6333422D01*
X368872Y6310601D01*
X382595Y6290062D01*
X400062Y6272595D01*
X420601Y6258872D01*
X443422Y6249419D01*
X455000Y6247116D01*
Y6345000D01*
D02*
G37*
G36*
X5315000Y6102772D02*
Y6015000D01*
X5402772D01*
X5397536Y6034543D01*
X5382343Y6060857D01*
X5360857Y6082343D01*
X5334543Y6097535D01*
X5315000Y6102772D01*
D02*
G37*
G36*
X9648105Y5465000D02*
X9525001D01*
Y5373604D01*
X9535000D01*
X9565126Y5377570D01*
X9593198Y5389199D01*
X9617304Y5407696D01*
X9635802Y5431802D01*
X9647430Y5459875D01*
X9648105Y5465000D01*
D02*
G37*
G36*
X9475001D02*
X9351895D01*
X9352570Y5459875D01*
X9364198Y5431802D01*
X9382696Y5407696D01*
X9406802Y5389199D01*
X9434874Y5377570D01*
X9465000Y5373604D01*
X9475001D01*
Y5465000D01*
D02*
G37*
G36*
X8707500Y5224581D02*
X8657500D01*
X8633976Y5222264D01*
X8611356Y5215402D01*
X8590509Y5204259D01*
X8572237Y5189263D01*
X8557241Y5170991D01*
X8546098Y5150144D01*
X8539236Y5127524D01*
X8536919Y5104000D01*
X8539236Y5080476D01*
X8546098Y5057856D01*
X8557241Y5037009D01*
X8572237Y5018736D01*
X8590509Y5003741D01*
X8593732Y5002018D01*
X8592383Y4957384D01*
X8587494Y4954771D01*
X8568400Y4939100D01*
X8552729Y4920006D01*
X8541085Y4898221D01*
X8534041Y4875000D01*
X8682500D01*
X8830959D01*
X8823915Y4898221D01*
X8812271Y4920006D01*
X8796600Y4939100D01*
X8777506Y4954771D01*
X8772617Y4957384D01*
X8771268Y5002018D01*
X8774491Y5003741D01*
X8792763Y5018736D01*
X8807759Y5037009D01*
X8818902Y5057856D01*
X8825764Y5080476D01*
X8828081Y5104000D01*
X8825764Y5127524D01*
X8818902Y5150144D01*
X8807759Y5170991D01*
X8792763Y5189263D01*
X8774491Y5204259D01*
X8753644Y5215402D01*
X8731024Y5222264D01*
X8707500Y5224581D01*
D02*
G37*
G36*
X8117500Y4957772D02*
Y4870000D01*
X8205272D01*
X8200035Y4889543D01*
X8184843Y4915857D01*
X8163357Y4937343D01*
X8137043Y4952535D01*
X8117500Y4957772D01*
D02*
G37*
G36*
X8067500D02*
X8047957Y4952535D01*
X8021643Y4937343D01*
X8000157Y4915857D01*
X7984964Y4889543D01*
X7979728Y4870000D01*
X8067500D01*
Y4957772D01*
D02*
G37*
G36*
X7419216Y5010000D02*
X7400784D01*
X7382981Y5005230D01*
X7367019Y4996014D01*
X7353986Y4982981D01*
X7344770Y4967019D01*
X7340000Y4949216D01*
Y4930784D01*
X7344770Y4912981D01*
X7347412Y4908406D01*
X7334008Y4876571D01*
X7326031Y4868406D01*
X7256250D01*
X7238204Y4864816D01*
X7222906Y4854594D01*
X7213172Y4840025D01*
X7156829D01*
X7147094Y4854594D01*
X7131796Y4864816D01*
X7113750Y4868406D01*
X7006250D01*
X6988204Y4864816D01*
X6972906Y4854594D01*
X6962684Y4839296D01*
X6959094Y4821250D01*
Y4768750D01*
X6962684Y4750704D01*
X6972906Y4735406D01*
X6988204Y4725183D01*
X7006250Y4721594D01*
X7113750D01*
X7131796Y4725183D01*
X7147094Y4735406D01*
X7155685Y4748262D01*
X7214315D01*
X7222906Y4735406D01*
X7238204Y4725183D01*
X7256250Y4721594D01*
X7363750D01*
X7381796Y4725183D01*
X7397094Y4735406D01*
X7407316Y4750704D01*
X7415458Y4756227D01*
X7425956Y4755978D01*
X7461134Y4742701D01*
X7469413Y4731913D01*
X7480202Y4723633D01*
X7492767Y4718429D01*
X7506250Y4716654D01*
X7535000D01*
Y4795000D01*
Y4873346D01*
X7506250D01*
X7495881Y4871980D01*
X7495542Y4872020D01*
X7488993Y4877565D01*
X7471148Y4905911D01*
X7475229Y4912981D01*
X7480000Y4930784D01*
Y4949216D01*
X7475229Y4967019D01*
X7466014Y4982981D01*
X7452981Y4996014D01*
X7437019Y5005230D01*
X7419216Y5010000D01*
D02*
G37*
G36*
X7785000Y4873346D02*
X7756250D01*
X7742767Y4871570D01*
X7730202Y4866366D01*
X7719413Y4858087D01*
X7711134Y4847298D01*
X7705929Y4834733D01*
X7705173Y4828984D01*
X7664827D01*
X7664071Y4834733D01*
X7658866Y4847298D01*
X7650587Y4858087D01*
X7639798Y4866366D01*
X7627233Y4871570D01*
X7613750Y4873346D01*
X7585000D01*
Y4795000D01*
Y4716654D01*
X7613750D01*
X7627233Y4718429D01*
X7639798Y4723633D01*
X7650587Y4731913D01*
X7658866Y4742702D01*
X7664071Y4755266D01*
X7664827Y4761015D01*
X7705173D01*
X7705929Y4755266D01*
X7711134Y4742702D01*
X7719413Y4731913D01*
X7730202Y4723633D01*
X7742767Y4718429D01*
X7756250Y4716654D01*
X7785000D01*
Y4795000D01*
Y4873346D01*
D02*
G37*
G36*
X535000Y5910949D02*
X465000D01*
X436284Y5907169D01*
X409525Y5896085D01*
X386547Y5878453D01*
X368915Y5855475D01*
X357831Y5828716D01*
X354051Y5800000D01*
X357831Y5771284D01*
X368915Y5744525D01*
X386547Y5721547D01*
X409525Y5703915D01*
X429215Y5695759D01*
X433018Y5675000D01*
X429215Y5654241D01*
X409525Y5646085D01*
X386547Y5628453D01*
X368915Y5605475D01*
X357831Y5578716D01*
X354051Y5550000D01*
X357831Y5521284D01*
X368915Y5494525D01*
X386547Y5471547D01*
X409525Y5453915D01*
X429215Y5445759D01*
X433018Y5425000D01*
X429215Y5404241D01*
X409525Y5396085D01*
X386547Y5378453D01*
X368915Y5355475D01*
X357831Y5328716D01*
X354051Y5300000D01*
X357831Y5271284D01*
X368915Y5244525D01*
X386547Y5221547D01*
X409525Y5203915D01*
X429215Y5195759D01*
X433018Y5175000D01*
X429215Y5154241D01*
X409525Y5146085D01*
X386547Y5128453D01*
X368915Y5105475D01*
X357831Y5078716D01*
X354051Y5050000D01*
X357831Y5021284D01*
X368915Y4994525D01*
X386547Y4971547D01*
X408348Y4954819D01*
X408805Y4949967D01*
X402182Y4913661D01*
X401622Y4913588D01*
X384496Y4906494D01*
X369790Y4895210D01*
X358506Y4880504D01*
X351412Y4863378D01*
X348992Y4845000D01*
Y4825000D01*
X500000D01*
X651008D01*
Y4845000D01*
X648588Y4863378D01*
X641494Y4880504D01*
X630210Y4895210D01*
X615504Y4906494D01*
X598378Y4913588D01*
X597818Y4913661D01*
X591195Y4949967D01*
X591652Y4954819D01*
X613453Y4971547D01*
X631085Y4994525D01*
X642169Y5021284D01*
X645949Y5050000D01*
X642169Y5078716D01*
X631085Y5105475D01*
X613453Y5128453D01*
X590475Y5146085D01*
X570785Y5154241D01*
X566982Y5175000D01*
X570785Y5195759D01*
X590475Y5203915D01*
X613453Y5221547D01*
X631085Y5244525D01*
X642169Y5271284D01*
X645949Y5300000D01*
X642169Y5328716D01*
X631085Y5355475D01*
X613453Y5378453D01*
X590475Y5396085D01*
X570785Y5404241D01*
X566982Y5425000D01*
X570785Y5445759D01*
X590475Y5453915D01*
X613453Y5471547D01*
X631085Y5494525D01*
X642169Y5521284D01*
X645949Y5550000D01*
X642169Y5578716D01*
X631085Y5605475D01*
X613453Y5628453D01*
X590475Y5646085D01*
X570785Y5654241D01*
X566982Y5675000D01*
X570785Y5695759D01*
X590475Y5703915D01*
X613453Y5721547D01*
X631085Y5744525D01*
X642169Y5771284D01*
X645949Y5800000D01*
X642169Y5828716D01*
X631085Y5855475D01*
X613453Y5878453D01*
X590475Y5896085D01*
X563716Y5907169D01*
X535000Y5910949D01*
D02*
G37*
G36*
X7863750Y4873346D02*
X7835000D01*
Y4820000D01*
X7915845D01*
Y4821250D01*
X7914070Y4834733D01*
X7908866Y4847298D01*
X7900587Y4858087D01*
X7889798Y4866366D01*
X7877233Y4871570D01*
X7863750Y4873346D01*
D02*
G37*
G36*
X8205272Y4820000D02*
X8117500D01*
Y4732228D01*
X8137043Y4737464D01*
X8163357Y4752657D01*
X8184843Y4774143D01*
X8200035Y4800457D01*
X8205272Y4820000D01*
D02*
G37*
G36*
X8067500D02*
X7979728D01*
X7984964Y4800457D01*
X8000157Y4774143D01*
X8021643Y4752657D01*
X8047957Y4737464D01*
X8067500Y4732228D01*
Y4820000D01*
D02*
G37*
G36*
X7915845Y4770000D02*
X7835000D01*
Y4716654D01*
X7863750D01*
X7877233Y4718429D01*
X7889798Y4723633D01*
X7900587Y4731913D01*
X7908866Y4742702D01*
X7914070Y4755266D01*
X7915845Y4768750D01*
Y4770000D01*
D02*
G37*
G36*
X9263814Y4778000D02*
X9162500D01*
Y4691686D01*
X9216250D01*
X9234452Y4695307D01*
X9249883Y4705617D01*
X9260193Y4721048D01*
X9263814Y4739250D01*
Y4778000D01*
D02*
G37*
G36*
X9112500D02*
X9011186D01*
Y4739250D01*
X9014806Y4721048D01*
X9025117Y4705617D01*
X9040548Y4695307D01*
X9058750Y4691686D01*
X9112500D01*
Y4778000D01*
D02*
G37*
G36*
X651008Y4775000D02*
X525000D01*
Y4683993D01*
X580000D01*
X598378Y4686412D01*
X615504Y4693506D01*
X630210Y4704790D01*
X641494Y4719496D01*
X648588Y4736622D01*
X651008Y4755000D01*
Y4775000D01*
D02*
G37*
G36*
X475000D02*
X348992D01*
Y4755000D01*
X351412Y4736622D01*
X358506Y4719496D01*
X369790Y4704790D01*
X384496Y4693506D01*
X401622Y4686412D01*
X420000Y4683993D01*
X475000D01*
Y4775000D01*
D02*
G37*
G36*
X7062500Y4401142D02*
X7025000D01*
Y4375000D01*
X7098656D01*
X7098201Y4377288D01*
X7089824Y4389824D01*
X7077288Y4398201D01*
X7062500Y4401142D01*
D02*
G37*
G36*
X6975001D02*
X6937500D01*
X6922712Y4398201D01*
X6910176Y4389824D01*
X6901799Y4377288D01*
X6901344Y4375000D01*
X6975001D01*
Y4401142D01*
D02*
G37*
G36*
X8670000Y4165001D02*
X8616654D01*
Y4136250D01*
X8618429Y4122767D01*
X8623634Y4110202D01*
X8631913Y4099413D01*
X8642702Y4091134D01*
X8655266Y4085930D01*
X8668750Y4084154D01*
X8670000D01*
Y4165001D01*
D02*
G37*
G36*
X9747500Y4230900D02*
X9675000D01*
Y4065000D01*
X9805900D01*
Y4172500D01*
X9803910Y4187615D01*
X9798076Y4201700D01*
X9788795Y4213795D01*
X9776700Y4223076D01*
X9762615Y4228910D01*
X9747500Y4230900D01*
D02*
G37*
G36*
X9625000D02*
X9552500D01*
X9537385Y4228910D01*
X9523300Y4223076D01*
X9511205Y4213795D01*
X9501924Y4201700D01*
X9496090Y4187615D01*
X9494100Y4172500D01*
Y4065000D01*
X9625000D01*
Y4230900D01*
D02*
G37*
G36*
X6521250Y4055846D02*
X6520000D01*
Y3975000D01*
X6573346D01*
Y4003750D01*
X6571571Y4017233D01*
X6566366Y4029798D01*
X6558087Y4040587D01*
X6547298Y4048866D01*
X6534733Y4054070D01*
X6521250Y4055846D01*
D02*
G37*
G36*
X9150000Y4225726D02*
X9120595Y4222830D01*
X9092320Y4214252D01*
X9066261Y4200324D01*
X9043421Y4181579D01*
X9024676Y4158739D01*
X9010748Y4132680D01*
X9002170Y4104405D01*
X8999274Y4075000D01*
Y4005000D01*
X9002170Y3975595D01*
X9010748Y3947320D01*
X9024676Y3921261D01*
X9043421Y3898421D01*
X9066261Y3879676D01*
X9092320Y3865748D01*
X9120595Y3857171D01*
X9150000Y3854274D01*
X9179405Y3857171D01*
X9207680Y3865748D01*
X9233739Y3879676D01*
X9256579Y3898421D01*
X9275324Y3921261D01*
X9289252Y3947320D01*
X9297830Y3975595D01*
X9300726Y4005000D01*
Y4075000D01*
X9297830Y4104405D01*
X9289252Y4132680D01*
X9275324Y4158739D01*
X9256579Y4181579D01*
X9233739Y4200324D01*
X9207680Y4214252D01*
X9179405Y4222830D01*
X9150000Y4225726D01*
D02*
G37*
G36*
X9805900Y4015000D02*
X9675000D01*
Y3849101D01*
X9747500D01*
X9762615Y3851090D01*
X9776700Y3856924D01*
X9788795Y3866205D01*
X9798076Y3878300D01*
X9803910Y3892385D01*
X9805900Y3907500D01*
Y4015000D01*
D02*
G37*
G36*
X9625000D02*
X9494100D01*
Y3907500D01*
X9496090Y3892385D01*
X9501924Y3878300D01*
X9511205Y3866205D01*
X9523300Y3856924D01*
X9537385Y3851090D01*
X9552500Y3849101D01*
X9625000D01*
Y4015000D01*
D02*
G37*
G36*
X8670000Y3815846D02*
X8668750D01*
X8655266Y3814070D01*
X8642702Y3808866D01*
X8631913Y3800587D01*
X8623634Y3789798D01*
X8618429Y3777233D01*
X8616654Y3763750D01*
Y3735000D01*
X8670000D01*
Y3815846D01*
D02*
G37*
G36*
Y3685001D02*
X8616654D01*
Y3656250D01*
X8618429Y3642767D01*
X8623634Y3630202D01*
X8631913Y3619413D01*
X8642702Y3611134D01*
X8655266Y3605930D01*
X8668750Y3604154D01*
X8670000D01*
Y3685001D01*
D02*
G37*
G36*
X535000Y4310949D02*
X465000D01*
X436284Y4307168D01*
X409525Y4296085D01*
X386547Y4278453D01*
X368915Y4255475D01*
X357831Y4228716D01*
X354051Y4200000D01*
X357831Y4171284D01*
X368915Y4144525D01*
X386547Y4121547D01*
X409525Y4103915D01*
X429215Y4095759D01*
X433018Y4075000D01*
X429215Y4054241D01*
X409525Y4046085D01*
X386547Y4028453D01*
X368915Y4005475D01*
X357831Y3978716D01*
X354051Y3950000D01*
X357831Y3921284D01*
X368915Y3894525D01*
X386547Y3871547D01*
X409525Y3853915D01*
X429215Y3845759D01*
X433018Y3825000D01*
X429215Y3804241D01*
X409525Y3796085D01*
X386547Y3778453D01*
X368915Y3755475D01*
X357831Y3728716D01*
X354051Y3700000D01*
X357831Y3671284D01*
X368915Y3644525D01*
X386547Y3621547D01*
X409525Y3603915D01*
X429215Y3595759D01*
X433018Y3575000D01*
X429215Y3554241D01*
X409525Y3546085D01*
X386547Y3528453D01*
X368915Y3505475D01*
X357831Y3478716D01*
X354051Y3450000D01*
X357831Y3421284D01*
X368915Y3394525D01*
X386547Y3371547D01*
X408348Y3354819D01*
X408805Y3349967D01*
X402182Y3313661D01*
X401622Y3313588D01*
X384496Y3306494D01*
X369790Y3295210D01*
X358506Y3280504D01*
X351412Y3263378D01*
X348992Y3245000D01*
Y3225000D01*
X500000D01*
X651008D01*
Y3245000D01*
X648588Y3263378D01*
X641494Y3280504D01*
X630210Y3295210D01*
X615504Y3306494D01*
X598378Y3313588D01*
X597818Y3313661D01*
X591195Y3349967D01*
X591652Y3354819D01*
X613453Y3371547D01*
X631085Y3394525D01*
X642169Y3421284D01*
X645949Y3450000D01*
X642169Y3478716D01*
X631085Y3505475D01*
X613453Y3528453D01*
X590475Y3546085D01*
X570785Y3554241D01*
X566982Y3575000D01*
X570785Y3595759D01*
X590475Y3603915D01*
X613453Y3621547D01*
X631085Y3644525D01*
X642169Y3671284D01*
X645949Y3700000D01*
X642169Y3728716D01*
X631085Y3755475D01*
X613453Y3778453D01*
X590475Y3796085D01*
X570785Y3804241D01*
X566982Y3825000D01*
X570785Y3845759D01*
X590475Y3853915D01*
X613453Y3871547D01*
X631085Y3894525D01*
X642169Y3921284D01*
X645949Y3950000D01*
X642169Y3978716D01*
X631085Y4005475D01*
X613453Y4028453D01*
X590475Y4046085D01*
X570785Y4054241D01*
X566982Y4075000D01*
X570785Y4095759D01*
X590475Y4103915D01*
X613453Y4121547D01*
X631085Y4144525D01*
X642169Y4171284D01*
X645949Y4200000D01*
X642169Y4228716D01*
X631085Y4255475D01*
X613453Y4278453D01*
X590475Y4296085D01*
X563716Y4307168D01*
X535000Y4310949D01*
D02*
G37*
G36*
X651008Y3175000D02*
X525000D01*
Y3083993D01*
X580000D01*
X598378Y3086412D01*
X615504Y3093506D01*
X630210Y3104790D01*
X641494Y3119496D01*
X648588Y3136622D01*
X651008Y3155000D01*
Y3175000D01*
D02*
G37*
G36*
X475000D02*
X348992D01*
Y3155000D01*
X351412Y3136622D01*
X358506Y3119496D01*
X369790Y3104790D01*
X384496Y3093506D01*
X401622Y3086412D01*
X420000Y3083993D01*
X475000D01*
Y3175000D01*
D02*
G37*
G36*
X9306743Y3370000D02*
X9273257D01*
X9240413Y3363467D01*
X9209475Y3350652D01*
X9181631Y3332047D01*
X9157952Y3308369D01*
X9139348Y3280525D01*
X9126533Y3249587D01*
X9120000Y3216743D01*
Y3183257D01*
X9126533Y3150413D01*
X9139348Y3119475D01*
X9157952Y3091631D01*
X9181631Y3067952D01*
X9209475Y3049348D01*
X9240413Y3036533D01*
X9273257Y3030000D01*
X9306743D01*
X9339587Y3036533D01*
X9370525Y3049348D01*
X9398369Y3067952D01*
X9422047Y3091631D01*
X9440652Y3119475D01*
X9453467Y3150413D01*
X9460000Y3183257D01*
Y3216743D01*
X9453467Y3249587D01*
X9440652Y3280525D01*
X9422047Y3308369D01*
X9398369Y3332047D01*
X9370525Y3350652D01*
X9339587Y3363467D01*
X9306743Y3370000D01*
D02*
G37*
G36*
X9315000Y2865863D02*
Y2716999D01*
X9463863D01*
X9458659Y2743162D01*
X9445437Y2775083D01*
X9426242Y2803811D01*
X9401811Y2828242D01*
X9373083Y2847437D01*
X9341162Y2860659D01*
X9315000Y2865863D01*
D02*
G37*
G36*
X9265000D02*
X9238838Y2860659D01*
X9206917Y2847437D01*
X9178189Y2828242D01*
X9153758Y2803811D01*
X9134563Y2775083D01*
X9121341Y2743162D01*
X9116136Y2716999D01*
X9265000D01*
Y2865863D01*
D02*
G37*
G36*
X9463863Y2666999D02*
X9315000D01*
Y2518136D01*
X9341162Y2523341D01*
X9373083Y2536563D01*
X9401811Y2555758D01*
X9426242Y2580189D01*
X9445437Y2608917D01*
X9458659Y2640838D01*
X9463863Y2666999D01*
D02*
G37*
G36*
X9265000D02*
X9116137D01*
X9121341Y2640838D01*
X9134563Y2608917D01*
X9153758Y2580189D01*
X9178189Y2555758D01*
X9206917Y2536563D01*
X9238838Y2523341D01*
X9265000Y2518136D01*
Y2666999D01*
D02*
G37*
G36*
X8503750Y2153346D02*
X8475000D01*
Y2100000D01*
X8555846D01*
Y2101250D01*
X8554071Y2114734D01*
X8548866Y2127298D01*
X8540587Y2138087D01*
X8529798Y2146367D01*
X8517233Y2151571D01*
X8503750Y2153346D01*
D02*
G37*
G36*
X8425000D02*
X8396250D01*
X8382767Y2151571D01*
X8370202Y2146367D01*
X8359413Y2138087D01*
X8351134Y2127298D01*
X8345930Y2114734D01*
X8344155Y2101250D01*
Y2100000D01*
X8425000D01*
Y2153346D01*
D02*
G37*
G36*
X535000Y2710949D02*
X465000D01*
X436284Y2707168D01*
X409525Y2696085D01*
X386547Y2678453D01*
X368915Y2655474D01*
X357831Y2628716D01*
X354051Y2600000D01*
X357831Y2571284D01*
X368915Y2544525D01*
X386547Y2521547D01*
X409525Y2503915D01*
X429215Y2495759D01*
X433018Y2475000D01*
X429215Y2454240D01*
X409525Y2446085D01*
X386547Y2428453D01*
X368915Y2405474D01*
X357831Y2378716D01*
X354051Y2350000D01*
X357831Y2321284D01*
X368915Y2294525D01*
X386547Y2271547D01*
X409525Y2253915D01*
X429215Y2245759D01*
X433018Y2225000D01*
X429215Y2204240D01*
X409525Y2196085D01*
X386547Y2178453D01*
X368915Y2155474D01*
X357831Y2128716D01*
X354051Y2100000D01*
X357831Y2071284D01*
X368915Y2044525D01*
X386547Y2021547D01*
X409525Y2003915D01*
X429215Y1995759D01*
X433018Y1975000D01*
X429215Y1954240D01*
X409525Y1946084D01*
X386547Y1928453D01*
X368915Y1905474D01*
X357831Y1878716D01*
X354051Y1850000D01*
X357831Y1821284D01*
X368915Y1794525D01*
X386547Y1771547D01*
X408348Y1754818D01*
X408805Y1749967D01*
X402182Y1713661D01*
X401622Y1713588D01*
X384496Y1706494D01*
X369790Y1695210D01*
X358506Y1680504D01*
X351412Y1663378D01*
X348992Y1645000D01*
Y1625000D01*
X500000D01*
X651008D01*
Y1645000D01*
X648588Y1663378D01*
X641494Y1680504D01*
X630210Y1695210D01*
X615504Y1706494D01*
X598378Y1713588D01*
X597818Y1713661D01*
X591195Y1749967D01*
X591652Y1754818D01*
X613453Y1771547D01*
X631085Y1794525D01*
X642169Y1821284D01*
X645949Y1850000D01*
X642169Y1878716D01*
X631085Y1905474D01*
X613453Y1928453D01*
X590475Y1946084D01*
X570785Y1954240D01*
X566982Y1975000D01*
X570785Y1995759D01*
X590475Y2003915D01*
X613453Y2021547D01*
X631085Y2044525D01*
X642169Y2071284D01*
X645949Y2100000D01*
X642169Y2128716D01*
X631085Y2155474D01*
X613453Y2178453D01*
X590475Y2196085D01*
X570785Y2204240D01*
X566982Y2225000D01*
X570785Y2245759D01*
X590475Y2253915D01*
X613453Y2271547D01*
X631085Y2294525D01*
X642169Y2321284D01*
X645949Y2350000D01*
X642169Y2378716D01*
X631085Y2405474D01*
X613453Y2428453D01*
X590475Y2446085D01*
X570785Y2454240D01*
X566982Y2475000D01*
X570785Y2495759D01*
X590475Y2503915D01*
X613453Y2521547D01*
X631085Y2544525D01*
X642169Y2571284D01*
X645949Y2600000D01*
X642169Y2628716D01*
X631085Y2655474D01*
X613453Y2678453D01*
X590475Y2696085D01*
X563716Y2707168D01*
X535000Y2710949D01*
D02*
G37*
G36*
X5979216Y1785000D02*
X5960784D01*
X5942981Y1780230D01*
X5927019Y1771014D01*
X5913986Y1757981D01*
X5904771Y1742020D01*
X5900000Y1724216D01*
Y1705785D01*
X5904771Y1687982D01*
X5913986Y1672020D01*
X5918641Y1667365D01*
X5923679Y1642500D01*
X5918641Y1617636D01*
X5913986Y1612981D01*
X5904771Y1597019D01*
X5900000Y1579216D01*
Y1560784D01*
X5904771Y1542981D01*
X5913986Y1527019D01*
X5927019Y1513986D01*
X5942981Y1504770D01*
X5960784Y1500000D01*
X5979216D01*
X5997019Y1504770D01*
X6012981Y1513986D01*
X6026014Y1527019D01*
X6035229Y1542981D01*
X6040000Y1560784D01*
Y1579216D01*
X6035229Y1597019D01*
X6026014Y1612981D01*
X6021359Y1617636D01*
X6016321Y1642500D01*
X6021359Y1667365D01*
X6026014Y1672020D01*
X6035229Y1687982D01*
X6040000Y1705785D01*
Y1724216D01*
X6035229Y1742020D01*
X6026014Y1757981D01*
X6012981Y1771014D01*
X5997019Y1780230D01*
X5979216Y1785000D01*
D02*
G37*
G36*
X6199216Y1630000D02*
X6180784D01*
X6162981Y1625229D01*
X6147019Y1616014D01*
X6133986Y1602981D01*
X6124771Y1587019D01*
X6120000Y1569216D01*
Y1550784D01*
X6122181Y1542648D01*
X5770219Y1190686D01*
X4795000D01*
X4781344Y1187969D01*
X4769767Y1180234D01*
X4407352Y817820D01*
X4399216Y820000D01*
X4380784D01*
X4362981Y815230D01*
X4347019Y806014D01*
X4333986Y792981D01*
X4324771Y777019D01*
X4320000Y759216D01*
Y740784D01*
X4324771Y722981D01*
X4333986Y707019D01*
X4347019Y693986D01*
X4362981Y684771D01*
X4380784Y680000D01*
X4399216D01*
X4417019Y684771D01*
X4432981Y693986D01*
X4446014Y707019D01*
X4455230Y722981D01*
X4460000Y740784D01*
Y759216D01*
X4457820Y767352D01*
X4809782Y1119314D01*
X5785000D01*
X5798657Y1122031D01*
X5810234Y1129767D01*
X6172648Y1492180D01*
X6180784Y1490000D01*
X6199216D01*
X6217019Y1494770D01*
X6232981Y1503986D01*
X6246014Y1517019D01*
X6255230Y1532981D01*
X6260000Y1550784D01*
Y1569216D01*
X6255230Y1587019D01*
X6246014Y1602981D01*
X6232981Y1616014D01*
X6217019Y1625229D01*
X6199216Y1630000D01*
D02*
G37*
G36*
X651008Y1575000D02*
X525000D01*
Y1483992D01*
X580000D01*
X598378Y1486412D01*
X615504Y1493506D01*
X630210Y1504790D01*
X641494Y1519496D01*
X648588Y1536622D01*
X651008Y1555000D01*
Y1575000D01*
D02*
G37*
G36*
X475000D02*
X348992D01*
Y1555000D01*
X351412Y1536622D01*
X358506Y1519496D01*
X369790Y1504790D01*
X384496Y1493506D01*
X401622Y1486412D01*
X420000Y1483992D01*
X475000D01*
Y1575000D01*
D02*
G37*
G36*
X999216Y1020000D02*
X980784D01*
X962981Y1015229D01*
X947019Y1006014D01*
X933986Y992981D01*
X924771Y977019D01*
X920000Y959216D01*
Y940784D01*
X924771Y922981D01*
X933986Y907019D01*
X947019Y893986D01*
X962981Y884770D01*
X980784Y880000D01*
X999216D01*
X1017019Y884770D01*
X1032981Y893986D01*
X1046014Y907019D01*
X1055230Y922981D01*
X1060000Y940784D01*
Y959216D01*
X1055230Y977019D01*
X1046014Y992981D01*
X1032981Y1006014D01*
X1017019Y1015229D01*
X999216Y1020000D01*
D02*
G37*
G36*
X8909216Y770000D02*
X8890784D01*
X8872981Y765230D01*
X8857019Y756014D01*
X8843986Y742981D01*
X8834770Y727019D01*
X8830000Y709216D01*
Y690784D01*
X8834770Y672981D01*
X8843986Y657019D01*
X8851811Y649195D01*
X8854729Y625000D01*
X8851811Y600805D01*
X8843986Y592981D01*
X8834770Y577019D01*
X8830000Y559216D01*
Y540784D01*
X8834770Y522981D01*
X8843986Y507019D01*
X8857019Y493986D01*
X8872981Y484770D01*
X8890784Y480000D01*
X8909216D01*
X8927019Y484770D01*
X8942981Y493986D01*
X8956014Y507019D01*
X8965229Y522981D01*
X8970000Y540784D01*
Y559216D01*
X8965229Y577019D01*
X8956014Y592981D01*
X8948189Y600805D01*
X8945271Y625000D01*
X8948189Y649195D01*
X8956014Y657019D01*
X8965229Y672981D01*
X8970000Y690784D01*
Y709216D01*
X8965229Y727019D01*
X8956014Y742981D01*
X8942981Y756014D01*
X8927019Y765230D01*
X8909216Y770000D01*
D02*
G37*
G36*
X6473165Y640000D02*
X6446835D01*
X6421402Y633185D01*
X6398599Y620020D01*
X6379980Y601401D01*
X6366815Y578599D01*
X6360000Y553166D01*
Y526835D01*
X6366815Y501402D01*
X6379980Y478599D01*
X6388311Y470268D01*
X6394770Y445000D01*
X6388311Y419732D01*
X6379980Y411401D01*
X6366815Y388598D01*
X6360000Y363165D01*
Y336835D01*
X6366815Y311402D01*
X6379980Y288599D01*
X6398599Y269980D01*
X6421402Y256815D01*
X6446835Y250000D01*
X6473165D01*
X6498598Y256815D01*
X6521401Y269980D01*
X6540020Y288599D01*
X6553185Y311402D01*
X6560000Y336835D01*
Y363165D01*
X6553185Y388598D01*
X6540020Y411401D01*
X6531689Y419732D01*
X6525230Y445000D01*
X6531689Y470268D01*
X6540020Y478599D01*
X6553185Y501402D01*
X6560000Y526835D01*
Y553166D01*
X6553185Y578599D01*
X6540020Y601401D01*
X6521401Y620020D01*
X6498598Y633185D01*
X6473165Y640000D01*
D02*
G37*
G36*
X504251Y840000D02*
X455749D01*
X407661Y833669D01*
X360812Y821116D01*
X316002Y802555D01*
X273998Y778304D01*
X235518Y748778D01*
X201222Y714482D01*
X171696Y676002D01*
X147445Y633998D01*
X128884Y589188D01*
X116330Y542339D01*
X110000Y494251D01*
Y445749D01*
X116330Y397662D01*
X128884Y350812D01*
X147445Y306002D01*
X171696Y263998D01*
X201222Y225518D01*
X235518Y191222D01*
X273998Y161696D01*
X316002Y137445D01*
X360812Y118884D01*
X407661Y106331D01*
X455749Y100000D01*
X504251D01*
X552338Y106331D01*
X599188Y118884D01*
X643998Y137445D01*
X686002Y161696D01*
X724481Y191222D01*
X758778Y225518D01*
X788304Y263998D01*
X812555Y306002D01*
X831116Y350812D01*
X843669Y397662D01*
X850000Y445749D01*
Y494251D01*
X843669Y542339D01*
X831116Y589188D01*
X812555Y633998D01*
X788304Y676002D01*
X758778Y714482D01*
X724481Y748778D01*
X686002Y778304D01*
X643998Y802555D01*
X599188Y821116D01*
X552338Y833669D01*
X504251Y840000D01*
D02*
G37*
G36*
X6470000Y3575846D02*
X6468750D01*
X6455266Y3574070D01*
X6442702Y3568866D01*
X6431913Y3560587D01*
X6423634Y3549798D01*
X6418429Y3537233D01*
X6416654Y3523750D01*
Y3495000D01*
X6470000D01*
Y3575846D01*
D02*
G37*
G36*
X2131007Y3306000D02*
X2039999D01*
Y3214993D01*
X2060000D01*
X2078378Y3217412D01*
X2095503Y3224506D01*
X2110210Y3235790D01*
X2121494Y3250496D01*
X2128588Y3267622D01*
X2131007Y3286000D01*
Y3306000D01*
D02*
G37*
G36*
X5949216Y2390000D02*
X5930784D01*
X5912981Y2385229D01*
X5897019Y2376014D01*
X5883986Y2362981D01*
X5874771Y2347019D01*
X5870000Y2329216D01*
Y2310784D01*
X5874771Y2292981D01*
X5883986Y2277019D01*
X5897019Y2263986D01*
X5912981Y2254770D01*
X5930784Y2250000D01*
X5949216D01*
X5967019Y2254770D01*
X5982981Y2263986D01*
X5996014Y2277019D01*
X6005230Y2292981D01*
X6010000Y2310784D01*
Y2329216D01*
X6005230Y2347019D01*
X5996014Y2362981D01*
X5982981Y2376014D01*
X5967019Y2385229D01*
X5949216Y2390000D01*
D02*
G37*
%LPD*%
D11*
X8500000Y4190000D02*
D03*
X8695000D02*
D03*
X8500000Y3710000D02*
D03*
X8695000D02*
D03*
X8500000Y3310000D02*
D03*
X8695000D02*
D03*
X6495000Y3070000D02*
D03*
X6690000D02*
D03*
Y3470000D02*
D03*
X6495000D02*
D03*
X6690000Y3950000D02*
D03*
X6495000D02*
D03*
D12*
X7060000Y4600000D02*
D03*
Y4795000D02*
D03*
X7310000Y4600000D02*
D03*
Y4795000D02*
D03*
X7560000Y4600000D02*
D03*
Y4795000D02*
D03*
X7810000Y4600000D02*
D03*
Y4795000D02*
D03*
X8450000Y2270000D02*
D03*
Y2075000D02*
D03*
X8110000Y1985000D02*
D03*
Y1790000D02*
D03*
X7860000Y1985000D02*
D03*
Y1790000D02*
D03*
X7610000D02*
D03*
Y1985000D02*
D03*
D17*
X8440000Y1620000D02*
D03*
Y1200000D02*
D03*
D32*
X2805000Y915000D02*
Y1022500D01*
X2700000Y1127501D02*
X2805000Y1022500D01*
X2510000Y1269793D02*
X2652292Y1127501D01*
X2700000D01*
X3663049Y520000D02*
X3765872D01*
X3703740Y670000D02*
X5258741Y2225000D01*
X5080000Y1580000D02*
Y1692708D01*
X3765872Y520000D02*
X5320872Y2075000D01*
X5341582Y2025000D02*
X5348050D01*
X5080000Y1692708D02*
X5172292Y1785000D01*
X5320872Y2075000D02*
X5327339D01*
X5306629Y2125000D02*
X5885000Y2703371D01*
X5300161Y2125000D02*
X5306629D01*
X5327339Y2075000D02*
X5935000Y2682661D01*
X3683760Y470000D02*
X3786582D01*
X3745161Y570000D02*
X5300161Y2125000D01*
X3642339Y570000D02*
X3745161D01*
X5285918Y2175000D02*
X5835000Y2724082D01*
X3786582Y470000D02*
X5341582Y2025000D01*
X3600918Y670000D02*
X3703740D01*
X5258741Y2225000D02*
X5265208D01*
X5785000Y2744792D01*
X5279451Y2175000D02*
X5285918D01*
X5348050Y2025000D02*
X5973049Y2650000D01*
X3724451Y620000D02*
X5279451Y2175000D01*
X3621629Y620000D02*
X3724451D01*
X5835000Y2724082D02*
Y3016420D01*
X5885000Y2703371D02*
Y3095000D01*
X5172292Y1785000D02*
X5265000D01*
X5935000Y2682661D02*
Y3115711D01*
X3421950Y515000D02*
X3658050D01*
X3678760Y465000D02*
X3683760Y470000D01*
X3637339Y565000D02*
X3642339Y570000D01*
X3442661Y565000D02*
X3637339D01*
X3616629Y615000D02*
X3621629Y620000D01*
X3463371Y615000D02*
X3616629D01*
X3401240Y465000D02*
X3678760D01*
X3658050Y515000D02*
X3663049Y520000D01*
X5785000Y2744792D02*
Y2995710D01*
X5973049Y2650000D02*
X6430000D01*
X5780000Y3200000D02*
X5885000Y3095000D01*
X5566420Y3285000D02*
X5835000Y3016420D01*
X5545710Y3235000D02*
X5785000Y2995710D01*
X5933394Y3117317D02*
X5935000Y3115711D01*
X7100000Y790000D02*
Y1560000D01*
Y790000D02*
X7235000Y655000D01*
X6775000Y3835000D02*
X6820000Y3790000D01*
Y3699792D02*
Y3790000D01*
X6443380Y3835000D02*
X6775000D01*
X6401690Y3876690D02*
X6443380Y3835000D01*
X8146606Y6176606D02*
X8160000Y6190000D01*
X8085896Y6176606D02*
X8146606D01*
X8085000Y6105000D02*
X8315000D01*
X6179262Y4975000D02*
X6884290D01*
X8085896Y6176606D01*
X6905000Y4925000D02*
X8085000Y6105000D01*
X6204792Y4925000D02*
X6905000D01*
X5949999Y4670207D02*
X6204792Y4925000D01*
X5899999Y4695738D02*
X6179262Y4975000D01*
X5750000Y4657158D02*
Y4757869D01*
X5899999Y4595027D02*
Y4695738D01*
X5650000Y4698579D02*
Y4799290D01*
X5849999Y4615738D02*
Y4716448D01*
X6212841Y5150000D02*
X6400000D01*
X5700000Y4778579D02*
X6086606Y5165186D01*
X5849999Y4716448D02*
X6193551Y5060000D01*
X5800000Y4737158D02*
X6212841Y5150000D01*
X6193551Y5060000D02*
X6500000D01*
X5965000Y5185000D02*
Y5305918D01*
X5600000Y4820000D02*
X5965000Y5185000D01*
X5800000Y4636448D02*
Y4737158D01*
X6015000Y5164290D02*
Y5285208D01*
X5700000Y4677869D02*
Y4778579D01*
X6086606Y5165186D02*
Y5236606D01*
X5600000Y4719290D02*
Y4820000D01*
X5750000Y4757869D02*
X6552130Y5559999D01*
X6654999D01*
X5650000Y4799290D02*
X6015000Y5164290D01*
X5949999Y4574317D02*
Y4670207D01*
X6680000Y6020918D02*
Y6150000D01*
X6917929Y6137929D02*
X6930000Y6150000D01*
X6867721Y6137929D02*
X6917929D01*
X6015000Y5285208D02*
X6867721Y6137929D01*
X5965000Y5305918D02*
X6680000Y6020918D01*
X5880000Y5250000D02*
Y5706789D01*
X6040000Y5866790D01*
X5465000Y5362500D02*
X5910000Y5807500D01*
Y6665000D01*
X6040000Y5866790D02*
Y5870000D01*
X2179792Y4200000D02*
X2354318D01*
X2519317Y4035001D01*
X2235000Y2045000D02*
X2860000Y2670000D01*
X2235000Y935001D02*
Y2045000D01*
X2380000Y2050000D02*
X2485000Y2155000D01*
X2380000Y1410208D02*
Y2050000D01*
Y1410208D02*
X2405000Y1385208D01*
X2530000Y1472339D02*
Y1730208D01*
X2430000Y1980000D02*
X2570000Y2120000D01*
X2480000Y1451629D02*
Y1909792D01*
X2705000Y2134792D01*
X2430000Y1430918D02*
X2460000Y1400918D01*
X2530000Y1472339D02*
X2600000Y1402339D01*
X2430000Y1430918D02*
Y1980000D01*
X2480000Y1451629D02*
X2510000Y1421629D01*
X2530000Y1730208D02*
X2594792Y1795000D01*
X2405000Y885209D02*
Y1385208D01*
X2185000Y1155000D02*
Y2124290D01*
X2502396Y2441685D01*
X2113394Y1323394D02*
Y1766606D01*
X2010000Y1870000D02*
X2113394Y1766606D01*
X8059000Y1397249D02*
Y1437000D01*
X8045000Y1451000D02*
X8059000Y1437000D01*
X8100750Y1355500D02*
X8223000D01*
X8045000Y1451000D02*
Y1632500D01*
X8059000Y1397249D02*
X8100750Y1355500D01*
X8223000D02*
X8376606Y1509106D01*
X6970000Y2040000D02*
X7062500D01*
X7650000Y1379792D02*
Y1452500D01*
X7062500Y2040000D02*
X7650000Y1452500D01*
X7547929Y1402071D02*
X7550000Y1400000D01*
X7547929Y1402071D02*
Y1472279D01*
X6632584Y1990000D02*
X7029290D01*
X7384290Y1635000D02*
X7385208D01*
X7029290Y1990000D02*
X7384290Y1635000D01*
X7385208D02*
X7547929Y1472279D01*
X7172593Y1727407D02*
Y1727408D01*
X6960000Y1940000D02*
X7172593Y1727408D01*
X6560000Y1940000D02*
X6960000D01*
X7172593Y1727407D02*
X7350000Y1550000D01*
X7315208Y1465000D02*
X7465208Y1315000D01*
X7265000Y1514792D02*
X7314792Y1465000D01*
X7315208D01*
X7135208Y1645000D02*
X7265000Y1515208D01*
X7465208Y1315000D02*
X7585208D01*
X7265000Y1514792D02*
Y1515208D01*
X8376606Y1556606D02*
X8440000Y1620000D01*
X8376606Y1509106D02*
Y1556606D01*
X1587500Y307708D02*
Y2680000D01*
X1240000Y3027500D02*
X1587500Y2680000D01*
X1240000Y3027500D02*
Y5110000D01*
X6400000Y5150000D02*
X6745000Y5495000D01*
Y5812500D02*
X7510000Y6577500D01*
X6745000Y5495000D02*
Y5812500D01*
X7510000Y6577500D02*
Y6665000D01*
X6082797Y4342853D02*
X6142853D01*
X5724944Y3985000D02*
X6082797Y4342853D01*
X6142853D02*
X6150000Y4350000D01*
X5745655Y3935000D02*
X6060654Y4250000D01*
X5165000Y3835000D02*
X5787075D01*
X5165000Y4035000D02*
X5704234D01*
X5165000Y3885000D02*
X5766365D01*
X5683524Y4085000D02*
X6148524Y4550000D01*
X5165000Y3985000D02*
X5724944D01*
X5165000Y3935000D02*
X5745655D01*
X5165000Y4085000D02*
X5683524D01*
X5787075Y3835000D02*
X6002075Y4050000D01*
X5704234Y4035000D02*
X6119234Y4450000D01*
X5766365Y3885000D02*
X6031365Y4150000D01*
X5831513Y3680803D02*
X6030027D01*
X6005710Y3735000D02*
X6120710Y3850000D01*
X6250000D01*
X5765000Y3685000D02*
X5815000Y3735000D01*
X6150000Y3950000D02*
X6330000D01*
X6079223Y3730000D02*
X6730000D01*
X5165000Y3785000D02*
X5985000D01*
X6030027Y3680803D02*
X6079223Y3730000D01*
X5815000Y3735000D02*
X6005710D01*
X5985000Y3785000D02*
X6150000Y3950000D01*
X5537317Y1686606D02*
X6230710Y2380000D01*
X5220894Y1686606D02*
X5537317D01*
X5207500Y1700000D02*
X5220894Y1686606D01*
X3195000Y975000D02*
X3867320D01*
X5020000Y2127680D02*
Y2250000D01*
X5130000Y2166970D02*
Y2390000D01*
X3867320Y975000D02*
X5020000Y2127680D01*
X4120208Y1300000D02*
X4935000Y2114792D01*
X3580208Y720000D02*
X3683030D01*
X4935000Y2114792D02*
Y2315208D01*
X2730000Y1300000D02*
X4120208D01*
X3683030Y720000D02*
X5130000Y2166970D01*
X4935000Y2315208D02*
X5050000Y2430208D01*
X4885000Y2605000D02*
Y2805000D01*
X4830000Y2550000D02*
X4885000Y2605000D01*
X4880000Y2459855D02*
X4935000Y2514855D01*
Y2805000D01*
X4236606Y2163394D02*
Y2200968D01*
Y2163394D02*
X4250000Y2150000D01*
X4235000Y2202574D02*
X4236606Y2200968D01*
X4235000Y2202574D02*
Y2805000D01*
X2865564Y1470000D02*
X3670000D01*
X3945000Y1815710D02*
Y2384290D01*
X2949792Y1520000D02*
X3649290D01*
X3995000Y1795000D02*
Y2405000D01*
X3670000Y1470000D02*
X3995000Y1795000D01*
X3649290Y1520000D02*
X3945000Y1815710D01*
X3615000Y1885208D02*
X3735000Y2005209D01*
X3785000Y1935000D02*
Y2805000D01*
X3735000Y2382159D02*
X3735000Y2382159D01*
X3835000Y1902574D02*
Y2805000D01*
X3836606Y1863394D02*
Y1900968D01*
X3700000Y1850000D02*
X3785000Y1935000D01*
X3836606Y1863394D02*
X3850000Y1850000D01*
X3835000Y1902574D02*
X3836606Y1900968D01*
X3735000Y2005209D02*
Y2382159D01*
X3935000Y2465000D02*
X3995000Y2405000D01*
X3885000Y2444290D02*
X3945000Y2384290D01*
X3020000Y1570000D02*
X3560208D01*
X2800000Y1790000D02*
X2999779Y1590221D01*
Y1590221D02*
Y1590221D01*
Y1590221D02*
X3020000Y1570000D01*
X2594792Y1795000D02*
X2674792D01*
X2949792Y1520000D01*
X2630000Y1705564D02*
Y1710000D01*
Y1705564D02*
X2865564Y1470000D01*
X3615000Y1765000D02*
Y1885208D01*
Y1765000D02*
X3635000Y1745000D01*
Y1644792D02*
Y1745000D01*
X3550000Y1890918D02*
X3685000Y2025919D01*
Y2805000D01*
X2349037Y3900000D02*
X2364037Y3885000D01*
X2525208D01*
X2200000Y3900000D02*
X2349037D01*
X2525208Y3885000D02*
X2575208Y3835000D01*
X2600000Y2700000D02*
X2655000Y2755000D01*
X2895208D01*
X1565000Y285208D02*
X1587500Y307708D01*
X1565000Y150000D02*
Y285208D01*
X2235000Y935001D02*
X2360000Y810000D01*
X2135000Y2751449D02*
X2668551Y3285000D01*
X2135000Y2286421D02*
Y2751449D01*
X1950000Y2101420D02*
X2135000Y2286421D01*
X2502396Y2722604D02*
X2535000Y2755208D01*
X2099999Y2109999D02*
X2450000Y2460000D01*
X2502396Y2441685D02*
Y2722604D01*
X2535000Y2755208D02*
Y2805208D01*
X2450000Y2460000D02*
Y2800000D01*
X2535000Y2805208D02*
X2764792Y3035000D01*
X2955000D01*
X2450000Y2800000D02*
X2460016Y2810016D01*
X2945000Y2615000D02*
Y2705208D01*
X2535000Y2205000D02*
X2945000Y2615000D01*
X1335000Y3060000D02*
X1900000Y2495000D01*
Y2390000D02*
Y2495000D01*
X1240000Y5110000D02*
X1765000Y5635000D01*
X2065000D01*
X2255000Y5235000D02*
X2605918D01*
X2240000Y5220000D02*
X2255000Y5235000D01*
X2828425Y5524075D02*
Y5581575D01*
X2942500Y5410000D02*
X3000710D01*
X2905000Y5518211D02*
X2963211Y5460000D01*
X3028371D01*
X2905000Y5518211D02*
Y5705000D01*
X2820000Y5590000D02*
X2828425Y5581575D01*
Y5524075D02*
X2942500Y5410000D01*
X3028371Y5460000D02*
X3183371Y5305000D01*
X2700000Y5500000D02*
X2840000Y5360000D01*
X2980000D01*
X2990000Y5572426D02*
X3025000Y5537426D01*
X3224792Y5405000D02*
X3273552D01*
X3075000Y5554792D02*
X3224792Y5405000D01*
X3075000Y5554792D02*
Y5695000D01*
X3025000Y5534082D02*
X3204081Y5355000D01*
X3252841D01*
X2990000Y5572426D02*
Y5590000D01*
X3025000Y5534082D02*
Y5537426D01*
X3277500Y5542473D02*
X3535000Y5284972D01*
X3277500Y6057500D02*
X3410000Y6190000D01*
X3277500Y5542473D02*
Y6057500D01*
X3327500Y5827500D02*
X3650000Y6150000D01*
X3327500Y5563183D02*
Y5827500D01*
Y5563183D02*
X3585000Y5305683D01*
X3505001Y5875001D02*
X4295000Y6665000D01*
X3505001Y5735208D02*
Y5875001D01*
X3415000Y5634792D02*
X3505000Y5724792D01*
X3415000Y5546393D02*
Y5634792D01*
X3505000Y5735207D02*
X3505001Y5735208D01*
X3505000Y5724792D02*
Y5735207D01*
X3415000Y5546393D02*
X3635000Y5326393D01*
X3835000Y5715502D02*
X3855000Y5695502D01*
X3835000Y5715502D02*
Y5746058D01*
X3855000Y5623580D02*
Y5695502D01*
X3885000Y5744082D02*
X3905000Y5724082D01*
X3935000Y5764792D02*
X3955000Y5744792D01*
X3935000Y5764792D02*
Y5856058D01*
X3885000Y5744082D02*
Y5835208D01*
X3955000Y5665001D02*
Y5744792D01*
X3805000Y5602869D02*
Y5674792D01*
X3755000Y5582159D02*
Y5654082D01*
X3665000Y5744082D02*
X3755000Y5654082D01*
X3873394Y5846815D02*
X3885000Y5835208D01*
X3905000Y5644290D02*
Y5724082D01*
X3715000Y5764792D02*
X3805000Y5674792D01*
X3873394Y5846815D02*
Y5906606D01*
X4685000Y5015000D02*
Y5316058D01*
X4850000Y5559792D02*
Y5670000D01*
X4635000Y5015000D02*
Y5344792D01*
X4850000Y5559792D01*
X4685000Y5316058D02*
X4950000Y5581058D01*
Y5600000D01*
X5076310Y5607368D02*
X5100000Y5631058D01*
X5076310Y5599339D02*
Y5607368D01*
X4735000Y5258029D02*
X5076310Y5599339D01*
X4735000Y5015000D02*
Y5258029D01*
X5100000Y5631058D02*
Y5650000D01*
X4208650Y5771142D02*
Y5771350D01*
Y5771142D02*
X4285000Y5694792D01*
X4150000Y5830000D02*
X4208650Y5771350D01*
X4285000Y5015000D02*
Y5694792D01*
X4150000Y5830000D02*
Y5848942D01*
X5465000Y5215208D02*
Y5362500D01*
X6031365Y4150000D02*
X6150000D01*
X6049999Y4532896D02*
Y4570207D01*
X5652103Y4135000D02*
X6049999Y4532896D01*
X5577842Y4485000D02*
X5750000Y4657158D01*
X5536421Y4585000D02*
X5650000Y4698579D01*
X6148524Y4550000D02*
X6150000D01*
X5557131Y4535000D02*
X5700000Y4677869D01*
X5631393Y4185000D02*
X5999999Y4553606D01*
X5619263Y4385001D02*
X5849999Y4615738D01*
X5495000Y4685000D02*
X5550000Y4740000D01*
X6119234Y4450000D02*
X6250000D01*
X5598552Y4435001D02*
X5800000Y4636448D01*
X5660683Y4285001D02*
X5949999Y4574317D01*
X5515711Y4635000D02*
X5600000Y4719290D01*
X5165000Y4735000D02*
X5467426D01*
X5485000Y4752574D02*
Y5195208D01*
X5467426Y4735000D02*
X5485000Y4752574D01*
X6060654Y4250000D02*
X6250000D01*
X5639973Y4335001D02*
X5899999Y4595027D01*
X6002075Y4050000D02*
X6240000D01*
X6086606Y5236606D02*
X6100000Y5250000D01*
X6654999Y5559999D02*
X6660000Y5565000D01*
X7585000Y2315000D02*
Y3105208D01*
X7455000Y2185000D02*
X7585000Y2315000D01*
X7779792Y3300000D02*
X7972500D01*
X8042500Y3230000D02*
X8165000D01*
X7972500Y3300000D02*
X8042500Y3230000D01*
X8022500Y2715000D02*
X8057500Y2750000D01*
X7764792Y2715000D02*
X8022500D01*
X8057500Y2750000D02*
X8165000D01*
X7895000Y2665000D02*
X7970000Y2590000D01*
X8165000D01*
X6582500Y2427500D02*
X6970000Y2040000D01*
X6582500Y2427500D02*
Y3129120D01*
X6670000Y2410710D02*
Y2830000D01*
Y2410710D02*
X6895711Y2185000D01*
X7455000D01*
X6747164Y3626956D02*
X6820000Y3699792D01*
X1565000Y150000D02*
X1665000Y50000D01*
X5230000Y2310000D02*
Y2777500D01*
X4764290Y2980000D02*
X5027500D01*
X5230000Y2777500D01*
X4735000Y2950710D02*
X4764290Y2980000D01*
X5265000Y1785000D02*
X5350000Y1870000D01*
X5207500Y1580000D02*
X5560000D01*
X2100000Y1310000D02*
X2113394Y1323394D01*
X7685000Y2665000D02*
X7895000D01*
X7680000Y2660000D02*
X7685000Y2665000D01*
X7680000Y2799792D02*
X7764792Y2715000D01*
X2343049Y520000D02*
X3416951D01*
X3421950Y515000D01*
X2301628Y620000D02*
X3458372D01*
X2144575Y695000D02*
X2235208D01*
X3595918Y665000D02*
X3600918Y670000D01*
X3437661Y570000D02*
X3442661Y565000D01*
X3396240Y470000D02*
X3401240Y465000D01*
X3499792Y720000D02*
X3504792Y715000D01*
X3575208D01*
X3458372Y620000D02*
X3463371Y615000D01*
X2280918Y670000D02*
X3479082D01*
X2322339Y570000D02*
X3437661D01*
X2470000Y470000D02*
X3396240D01*
X2260208Y720000D02*
X3499792D01*
X3484082Y665000D02*
X3595918D01*
X3575208Y715000D02*
X3580208Y720000D01*
X2000000Y730000D02*
X2109575D01*
X2144575Y695000D01*
X3479082Y670000D02*
X3484082Y665000D01*
X480000Y7470000D02*
X480000Y7470000D01*
X4795000Y1155000D02*
X5785000D01*
X6190000Y1560000D01*
X7585000Y3105208D02*
X7779792Y3300000D01*
X7045000Y1645000D02*
X7135208D01*
X6620000Y1220000D02*
X7045000Y1645000D01*
X7585208Y1315000D02*
X7650000Y1379792D01*
X6240000Y2260000D02*
X6560000Y1940000D01*
X6513373Y2109211D02*
X6632584Y1990000D01*
X6643972Y3190593D02*
Y3315147D01*
X6600000Y3359119D02*
Y3546621D01*
X6582500Y3129120D02*
X6643972Y3190593D01*
X6600000Y3359119D02*
X6643972Y3315147D01*
X6680336Y3626956D02*
X6747164D01*
X6600000Y3546621D02*
X6680336Y3626956D01*
X5785710Y3635000D02*
X5831513Y3680803D01*
X5165000Y3635000D02*
X5785710D01*
X6401690Y3876690D02*
Y3878310D01*
X6330000Y3950000D02*
X6401690Y3878310D01*
X5933394Y3117317D02*
Y3186606D01*
X6230710Y2380000D02*
X6501292D01*
X6513373Y2367919D01*
X8260723Y655000D02*
X8265723Y660000D01*
X8600208D01*
X8860208Y920000D01*
X7235000Y655000D02*
X8260723D01*
X8860208Y920000D02*
X9800000D01*
X4880000Y2440913D02*
Y2459855D01*
X4735000Y2805000D02*
Y2950710D01*
X5050000Y2430208D02*
Y2560000D01*
X2710000Y5900000D02*
X2905000Y5705000D01*
X5465000Y5215208D02*
X5485000Y5195208D01*
X4535000Y5505529D02*
X4694471Y5665000D01*
Y5754471D02*
X4700000Y5760000D01*
X4694471Y5665000D02*
Y5754471D01*
X4535000Y5015000D02*
Y5505529D01*
X4750000Y5570000D02*
Y5580000D01*
X4585000Y5405000D02*
X4750000Y5570000D01*
X4310000Y5974436D02*
Y5980000D01*
Y5974436D02*
X4385000Y5899436D01*
Y5015000D02*
Y5899436D01*
X4335000Y5015000D02*
Y5805000D01*
X4190000Y5950000D02*
X4335000Y5805000D01*
X3860000Y5920000D02*
X3873394Y5906606D01*
X3935000Y5856058D02*
X3980000Y5901058D01*
Y5920000D01*
X4390000Y750000D02*
X4795000Y1155000D01*
X4105000Y5893942D02*
X4150000Y5848942D01*
X4105000Y5893942D02*
Y6005000D01*
X4260000Y6160000D01*
X4024792Y5705000D02*
X4135000Y5594792D01*
X4020000Y5800000D02*
X4024792Y5795208D01*
Y5705000D02*
Y5795208D01*
X3800000Y5781058D02*
Y5800000D01*
X3855000Y5623580D02*
X3985000Y5493580D01*
X3805000Y5602869D02*
X3935000Y5472869D01*
Y5015000D02*
Y5472869D01*
X3800000Y5781058D02*
X3835000Y5746058D01*
X3755000Y5582159D02*
X3885000Y5452159D01*
X4035000Y5015000D02*
Y5514290D01*
X3885000Y5015000D02*
Y5452159D01*
X4085000Y5015000D02*
Y5535000D01*
X3985000Y5015000D02*
Y5493580D01*
X3905000Y5644290D02*
X4035000Y5514290D01*
X3955000Y5665001D02*
X4085000Y5535000D01*
X3665000Y5744082D02*
Y5955918D01*
X3715000Y5764792D02*
Y5935208D01*
X6211000Y3469000D02*
X6270000Y3410000D01*
X5710000Y3400000D02*
X5891029D01*
X5960029Y3469000D01*
X6211000D01*
X6270000Y2930208D02*
Y3410000D01*
X4612000Y6160000D02*
X4782000Y5990000D01*
X4260000Y6160000D02*
X4612000D01*
X3969082Y6260000D02*
X4895650D01*
X4839792Y6210000D02*
X4934792Y6115000D01*
X3989792Y6210000D02*
X4839792D01*
X4955650Y6200000D02*
X4970000D01*
X4895650Y6260000D02*
X4955650Y6200000D01*
X3715000Y5935208D02*
X3989792Y6210000D01*
X3909082Y6200000D02*
X3969082Y6260000D01*
X3665000Y5955918D02*
X3909082Y6200000D01*
X6270000Y2930208D02*
X6515000Y2685208D01*
Y2381627D02*
Y2685208D01*
X6513373Y2380000D02*
X6515000Y2381627D01*
X2705000Y2245208D02*
X2995000Y2535208D01*
X2895208Y2755000D02*
X2945000Y2705208D01*
X2870919Y2850000D02*
X2995000Y2725918D01*
X2700000Y2850000D02*
X2870919D01*
X2995000Y2535208D02*
Y2725918D01*
X2485000Y2155208D02*
X2534792Y2205000D01*
X2535000D01*
X2485000Y2155000D02*
Y2155208D01*
X2099999Y1949793D02*
Y2109999D01*
X2010000Y2090710D02*
X2350000Y2430710D01*
X2010000Y1870000D02*
Y2090710D01*
X1950000Y1800000D02*
Y2101420D01*
Y1800000D02*
X2020000Y1730000D01*
X1900000Y870000D02*
X2185000Y1155000D01*
X7680000Y2799792D02*
Y2800000D01*
X7610000Y1710000D02*
X7869001Y1451000D01*
X7610000Y1710000D02*
Y1790000D01*
X7869001Y1451000D02*
X7950000D01*
X3550000Y1680000D02*
Y1890918D01*
X3475000Y1915000D02*
X3635000Y2075000D01*
Y2805000D01*
X3560208Y1570000D02*
X3635000Y1644792D01*
X3380000Y2000208D02*
X3585000Y2205208D01*
Y2805000D01*
X3935000Y2465000D02*
Y2805000D01*
X1915000Y4464792D02*
X2179792Y4200000D01*
X1915000Y4464792D02*
Y4955000D01*
X1990000Y5030000D01*
X5011606Y5216606D02*
X5036606D01*
X4935000Y5140000D02*
X5011606Y5216606D01*
X5036606D02*
X5050000Y5230000D01*
X7000000Y3390000D02*
X7000000Y3390000D01*
X5393394Y2813394D02*
Y2946607D01*
X5305000Y3035000D02*
X5393394Y2946607D01*
X5380000Y2800000D02*
X5393394Y2813394D01*
X2180000Y220208D02*
X2250000Y150208D01*
X2370000Y149792D02*
Y150000D01*
X2285208Y65000D02*
X2370000Y149792D01*
X2250000Y150000D02*
Y150208D01*
X2180000Y220208D02*
Y356951D01*
X1665000Y50000D02*
X2270000D01*
X2285000Y65000D01*
X2285208D01*
X2130000Y377661D02*
X2322339Y570000D01*
X2080000Y398372D02*
X2301628Y620000D01*
X2080000Y239082D02*
Y398372D01*
X1955918Y115000D02*
X2080000Y239082D01*
X2130000Y150000D02*
Y377661D01*
X1935208Y165000D02*
X2030000Y259792D01*
Y419082D01*
X2280918Y670000D01*
X2180000Y356951D02*
X2343049Y520000D01*
X1864792Y165000D02*
X1935208D01*
X1809350Y115000D02*
X1955918D01*
X7887500Y1790000D02*
X8045000Y1632500D01*
X7860000Y1790000D02*
X7887500D01*
X7860000Y1670000D02*
Y1790000D01*
X3030000Y810000D02*
X3195000Y975000D01*
X2460000Y1201058D02*
Y1400918D01*
X2711058Y950000D02*
X2720000D01*
X2460000Y1201058D02*
X2711058Y950000D01*
X2510000Y1269793D02*
Y1421629D01*
X2705000Y2134792D02*
Y2245208D01*
X2600000Y1300000D02*
Y1402339D01*
X2805000Y915000D02*
X2910000Y810000D01*
X1800000Y2959081D02*
Y5361058D01*
X1840000Y2800000D02*
X2112841D01*
X1335000Y3305000D02*
X1840000Y2800000D01*
X1850000Y2931421D02*
Y5302530D01*
X2112841Y2800000D02*
X2647841Y3335000D01*
X2405000Y885209D02*
X2480000Y810208D01*
Y810000D02*
Y810208D01*
X2230000Y2775738D02*
X2689262Y3235000D01*
X2230000Y2560000D02*
Y2775738D01*
X1900000Y250000D02*
Y870000D01*
X2065000Y5635000D02*
X2250000Y5450000D01*
X2350000Y2430710D02*
Y2825028D01*
X1764350Y160000D02*
X1809350Y115000D01*
X1835000Y194792D02*
X1864792Y165000D01*
X1835000Y194792D02*
Y195208D01*
X1750000Y160000D02*
X1764350D01*
X1650000Y250000D02*
X1780208D01*
X1835000Y195208D01*
X2000000Y4500000D02*
X2079792D01*
X2194792Y4385000D01*
X2310738D01*
X2560738Y4135001D01*
X2163394Y4536606D02*
X2229842D01*
X2581448Y4185001D01*
X2150000Y4550000D02*
X2163394Y4536606D01*
X2444929Y3935001D02*
X2505917D01*
X2300000Y3800000D02*
X2415000Y3685000D01*
X2393324Y3986606D02*
X2444929Y3935001D01*
X2415000Y3685000D02*
X2955000D01*
X2465640Y3985001D02*
X2526628D01*
X2350641Y4100000D02*
X2465640Y3985001D01*
X2587339Y4035000D02*
X2637339Y3985000D01*
X2670181Y4234999D02*
X2720180Y4185000D01*
X2637339Y3985000D02*
X2955000D01*
X2720180Y4185000D02*
X2955000D01*
X2566629Y3985000D02*
X2616628Y3935000D01*
X2649470Y4185000D02*
X2699470Y4135000D01*
X2526628Y3985001D02*
X2526629Y3985000D01*
X2609469Y4185001D02*
X2609470Y4185000D01*
X2505918Y3935000D02*
X2545918D01*
X2588760Y4135000D02*
X2628760D01*
X2545918Y3935000D02*
X2595918Y3885000D01*
X2628760Y4135000D02*
X2678759Y4085000D01*
X2658049Y4035000D02*
X2955000D01*
X2608050Y4085000D02*
X2658049Y4035000D01*
X2630180Y4235000D02*
X2630181Y4234999D01*
X2505917Y3935001D02*
X2505918Y3935000D01*
X2616628Y3935000D02*
X2955000D01*
X2630181Y4234999D02*
X2670181D01*
X2588759Y4135001D02*
X2588760Y4135000D01*
X2547338Y4035001D02*
X2547339Y4035000D01*
X2595918Y3885000D02*
X2955000D01*
X2508942Y3800000D02*
X2523942Y3785000D01*
X2955000D01*
X2678759Y4085000D02*
X2955000D01*
X2568048Y4085001D02*
X2568049Y4085000D01*
X2526629Y3985000D02*
X2566629D01*
X2490000Y3800000D02*
X2508942D01*
X2568049Y4085000D02*
X2608050D01*
X2699470Y4135000D02*
X2955000D01*
X2547339Y4035000D02*
X2587339D01*
X2609470Y4185000D02*
X2649470D01*
X2575208Y3835000D02*
X2955000D01*
X2668551Y3285000D02*
X2955000D01*
X2092131Y2850000D02*
X2627131Y3385000D01*
X2100710Y3000000D02*
X2585710Y3485000D01*
X2709972Y3185000D02*
X2955000D01*
X2130000Y3100000D02*
X2565000Y3535000D01*
X2460016Y2864334D02*
X2730682Y3135000D01*
X2606421Y3435000D02*
X2955000D01*
X2015000Y3585000D02*
X2955000D01*
X2350000Y2825028D02*
X2709972Y3185000D01*
X2460016Y2810016D02*
Y2864334D01*
X2565000Y3535000D02*
X2955000D01*
X2585710Y3485000D02*
X2955000D01*
X2627131Y3385000D02*
X2955000D01*
X2647841Y3335000D02*
X2955000D01*
X2689262Y3235000D02*
X2955000D01*
X2730682Y3135000D02*
X2955000D01*
X2071420Y2900000D02*
X2606421Y3435000D01*
X2265000Y3635000D02*
X2955000D01*
X2200000Y3700000D02*
X2265000Y3635000D01*
X2235208Y695000D02*
X2260208Y720000D01*
X6513373Y2109211D02*
Y2367919D01*
X5560000Y1580000D02*
X6240000Y2260000D01*
X6513373Y2367919D02*
Y2380000D01*
X2300000Y300000D02*
X2470000Y470000D01*
X5920000Y3200000D02*
X5933394Y3186606D01*
X5525000Y3185000D02*
X5700000Y3010000D01*
Y2800000D02*
Y3010000D01*
X5165000Y3085000D02*
X5415000D01*
X5165000Y3185000D02*
X5525000D01*
X5415000Y3085000D02*
X5500000Y3000000D01*
Y2800000D02*
Y3000000D01*
X5165000Y3135000D02*
X5465000D01*
X5600000Y2700000D02*
Y3000000D01*
X5465000Y3135000D02*
X5600000Y3000000D01*
X5165000Y3035000D02*
X5305000D01*
X5165000Y3235000D02*
X5545710D01*
X5165000Y3285000D02*
X5566420D01*
X1950000Y3000000D02*
X2100710D01*
X1860711Y2850000D02*
X2092131D01*
X1881421Y2900000D02*
X2071420D01*
X2050000Y3100000D02*
X2130000D01*
X3185000Y2565000D02*
Y2805000D01*
X3050000Y2430000D02*
X3185000Y2565000D01*
X3235000Y2485000D02*
Y2805000D01*
X3050000Y2300000D02*
X3235000Y2485000D01*
X4120000Y2470000D02*
Y2488942D01*
X4135000Y2503942D01*
Y2805000D01*
X3065000Y1915000D02*
X3475000D01*
X5165000Y3485000D02*
X5625000D01*
X5710000Y3400000D01*
X5165000Y3335000D02*
X6115000D01*
X6120000Y3340000D01*
X5165000Y3535000D02*
X5746058D01*
X5781058Y3500000D02*
X5800000D01*
X5746058Y3535000D02*
X5781058Y3500000D01*
X2747131Y4585000D02*
X2955000D01*
X2726421Y4535000D02*
X2955000D01*
X2602159Y4235000D02*
X2630180D01*
X2128580Y4850000D02*
X2643579Y4335000D01*
X2767869Y4635000D02*
X2770000D01*
X2181263Y4726606D02*
X2622869Y4285000D01*
X2770000Y4635000D02*
X2955000D01*
X2622869Y4285000D02*
X2632661D01*
X2307530Y4883180D02*
X2705710Y4485000D01*
X2300000Y4000000D02*
X2313394Y3986606D01*
X2200000Y4100000D02*
X2350641D01*
X2705710Y4485000D02*
X2955000D01*
X2500000Y4832131D02*
X2747131Y4585000D01*
X2325028Y4300000D02*
X2540027Y4085001D01*
X2788580Y4685000D02*
X2955000D01*
X2519317Y4035001D02*
X2547338D01*
X2600000Y4802869D02*
X2767869Y4635000D01*
X2187159Y4650000D02*
X2602159Y4235000D01*
X2632661Y4285000D02*
X2955000D01*
X2560738Y4135001D02*
X2588759D01*
X2643579Y4335000D02*
X2955000D01*
X2632661Y4285000D02*
X2632661Y4285000D01*
X2581448Y4185001D02*
X2609469D01*
X2770000Y4635000D02*
X2770000Y4635000D01*
X2685000Y4435000D02*
X2955000D01*
X2400000Y4861421D02*
X2726421Y4535000D01*
X2313394Y3986606D02*
X2393324D01*
X2540027Y4085001D02*
X2568048D01*
X2200000Y4920000D02*
X2685000Y4435000D01*
X2664290Y4385000D02*
X2955000D01*
X2100000Y4949290D02*
X2664290Y4385000D01*
X2700000Y4773580D02*
X2788580Y4685000D01*
X3160000Y5589262D02*
X3485000Y5264263D01*
X5185000Y5605000D02*
Y5755208D01*
X5090208Y5850000D02*
X5185000Y5755208D01*
X4785000Y5205000D02*
X5185000Y5605000D01*
X3367426Y2335000D02*
X3385000Y2352574D01*
X3335000Y2335000D02*
X3367426D01*
X3385000Y2352574D02*
Y2805000D01*
X8315000Y6105000D02*
X8410000Y6200000D01*
X4934792Y6115000D02*
X5115000D01*
X5190000Y6190000D01*
X5200000D01*
X4295000Y6665000D02*
X4310000D01*
X3535000Y5015000D02*
Y5284972D01*
X3585000Y5015000D02*
Y5305683D01*
X3385000Y5221241D02*
X3385000Y5221240D01*
Y5015000D02*
Y5221240D01*
X3485000Y5262661D02*
Y5264263D01*
X3385000Y5221241D02*
Y5222842D01*
X3485000Y5015000D02*
Y5262661D01*
X3183371Y5305000D02*
X3232131D01*
X3485000Y5262661D02*
X3485000Y5262661D01*
X3252841Y5355000D02*
X3385000Y5222842D01*
X2710000Y5900000D02*
Y6665000D01*
X1335000D02*
X2500000Y5500000D01*
X1110000Y6665000D02*
X1335000D01*
Y3305000D02*
Y4660000D01*
X1800000Y2910710D02*
X1860711Y2850000D01*
X1850000Y2931421D02*
X1881421Y2900000D01*
X1800000Y2910710D02*
Y2959081D01*
X1850000Y5411058D02*
Y5430000D01*
X1800000Y5361058D02*
X1850000Y5411058D01*
X1935000Y5387530D02*
Y5465208D01*
X1850000Y5302530D02*
X1935000Y5387530D01*
X1850000Y5550000D02*
X1850208D01*
X1935000Y5465208D01*
X2817175Y2162825D02*
X3065000Y1915000D01*
X5397187Y4485000D02*
X5577842D01*
X2790000Y2191058D02*
Y2210000D01*
Y2191058D02*
X2817175Y2163883D01*
Y2162825D02*
Y2163883D01*
X5438608Y4385001D02*
X5619263D01*
X1400000Y130000D02*
Y282500D01*
X3670000Y5590000D02*
X3835000Y5425000D01*
Y5015000D02*
Y5425000D01*
X3735000Y5015000D02*
Y5297103D01*
X3585000Y5535000D02*
X3785000Y5335000D01*
X3585000Y5535000D02*
Y5695000D01*
X3513394Y5518710D02*
Y5576606D01*
X3500000Y5590000D02*
X3513394Y5576606D01*
Y5518710D02*
X3735000Y5297103D01*
X3785000Y5015000D02*
Y5335000D01*
X3000710Y5410000D02*
X3170710Y5240000D01*
X3150000Y5190000D02*
X3205711D01*
X3170710Y5240000D02*
X3226421D01*
X2980000Y5360000D02*
X3150000Y5190000D01*
X3226421Y5240000D02*
X3285000Y5181421D01*
X3273552Y5405000D02*
X3435000Y5243552D01*
X3232131Y5305000D02*
X3335000Y5202131D01*
X3435000Y5015000D02*
Y5243552D01*
X3075000Y5695000D02*
X3080000Y5700000D01*
X3335000Y5015000D02*
Y5202131D01*
X3235000Y5015000D02*
Y5160711D01*
X3205711Y5190000D02*
X3235000Y5160711D01*
X3285000Y5015000D02*
Y5181421D01*
X3635000Y5015000D02*
Y5326393D01*
X3585000Y5695000D02*
X3590000Y5700000D01*
X2984792Y5015000D02*
X3185000D01*
X2578828Y5420964D02*
Y5421172D01*
X2955000Y4785000D02*
Y4974081D01*
X2592475Y5336606D02*
X2955000Y4974081D01*
X2578828Y5420964D02*
X2984792Y5015000D01*
X2500000Y5500000D02*
X2578828Y5421172D01*
X2513394Y5336606D02*
X2592475D01*
X2500000Y5350000D02*
X2513394Y5336606D01*
X2605918Y5235000D02*
X2750000Y5090918D01*
Y4794290D02*
Y5090918D01*
X2620208Y5150000D02*
X2700000Y5070208D01*
Y4773580D02*
Y5070208D01*
X2750000Y4794290D02*
X2809290Y4735000D01*
X2955000D01*
X2600000Y4802869D02*
Y5050000D01*
X2500000Y5150000D02*
X2620208D01*
X2500000Y4832131D02*
Y4950000D01*
X2400000Y4861421D02*
Y5050000D01*
X2300000Y4950000D02*
X2307530Y4942470D01*
Y4883180D02*
Y4942470D01*
X2000000Y4850000D02*
X2128580D01*
X2200000Y4300000D02*
X2325028D01*
X2113394Y4726606D02*
X2181263D01*
X2000000Y4650000D02*
X2187159D01*
X2100000Y4949290D02*
Y4950000D01*
X2200000Y4920000D02*
Y5050000D01*
X2100000Y4740000D02*
X2113394Y4726606D01*
X2015000Y3585000D02*
X2015000Y3585000D01*
X4135000Y5015000D02*
Y5594792D01*
X4185000Y5015000D02*
Y5616058D01*
X4200000Y5631058D02*
Y5650000D01*
X4185000Y5616058D02*
X4200000Y5631058D01*
X4550000Y5645650D02*
Y5650000D01*
X4485000Y5580650D02*
X4550000Y5645650D01*
X4435000Y5730650D02*
X4500000Y5795649D01*
X4435000Y5015000D02*
Y5730650D01*
X4485000Y5015000D02*
Y5580650D01*
X4500000Y5795649D02*
Y5800000D01*
X4668000Y5850000D02*
X5090208D01*
X5283890Y5633179D02*
Y5663890D01*
X4835000Y5184290D02*
X5283890Y5633179D01*
X4785000Y5015000D02*
Y5205000D01*
X4585000Y5015000D02*
Y5405000D01*
X5283890Y5663890D02*
X5330000Y5710000D01*
X4835000Y5015000D02*
Y5184290D01*
X4528000Y5990000D02*
X4668000Y5850000D01*
X4935000Y5015000D02*
Y5140000D01*
X5165000Y4785000D02*
Y5195000D01*
X5490000Y5520000D02*
Y5742531D01*
X5165000Y5195000D02*
X5490000Y5520000D01*
X5367531Y5865000D02*
X5490000Y5742531D01*
X5161000Y5865000D02*
X5367531D01*
X5036000Y5990000D02*
X5161000Y5865000D01*
X5550000Y4740000D02*
Y5250000D01*
X5459319Y4335001D02*
X5639973D01*
X5165000Y4585000D02*
X5536421D01*
X5165000Y4635000D02*
X5515711D01*
X5999999Y4553606D02*
Y4599999D01*
X5165000Y4185000D02*
X5631393D01*
X5999999Y4599999D02*
X6150000Y4750000D01*
X5480029Y4285001D02*
X5660683D01*
X6049999Y4570207D02*
X6129792Y4650000D01*
X5165000Y4135000D02*
X5652103D01*
X6129792Y4650000D02*
X6250000D01*
X5165000Y4685000D02*
X5495000D01*
X5459318Y4335000D02*
X5459319Y4335001D01*
X5480028Y4285000D02*
X5480029Y4285001D01*
X5165000Y4285000D02*
X5480028D01*
X5165000Y4335000D02*
X5459318D01*
X5165000Y3685000D02*
X5765000D01*
X5165000Y3585000D02*
X5895000D01*
X5900000Y3590000D01*
X5417897Y4435000D02*
X5417898Y4435001D01*
X5397187Y4485000D02*
X5397187Y4485000D01*
X5438608Y4385000D02*
X5438608Y4385001D01*
X5376477Y4535000D02*
X5557131D01*
X5376477Y4535000D02*
X5376477Y4535000D01*
X5417898Y4435001D02*
X5598552D01*
X6240000Y4050000D02*
X6250000Y4040000D01*
X5165000Y4385000D02*
X5438608D01*
X5165000Y4535000D02*
X5376477D01*
X5165000Y4485000D02*
X5397187D01*
X5165000Y4435000D02*
X5417897D01*
X4685000Y2455000D02*
X4690000Y2450000D01*
X4685000Y2455000D02*
Y2805000D01*
X4740918Y2250000D02*
X4750000D01*
X4485000Y2505918D02*
X4740918Y2250000D01*
X4650000Y2150000D02*
Y2270000D01*
X4635000Y2285000D02*
X4650000Y2270000D01*
X4485000Y2505918D02*
Y2805000D01*
X4585208Y2335000D02*
X4635000Y2285208D01*
Y2285000D02*
Y2285208D01*
X3735000Y2382159D02*
Y2805000D01*
X3885000Y2444290D02*
Y2805000D01*
X4435000Y2485000D02*
Y2805000D01*
Y2485000D02*
X4585000Y2335000D01*
X4585208D01*
X4385000Y2415000D02*
X4550000Y2250000D01*
X4385000Y2415000D02*
Y2805000D01*
X4335000Y2394290D02*
X4450000Y2279290D01*
Y2150000D02*
Y2279290D01*
X4335000Y2394290D02*
Y2805000D01*
X4285000Y2319350D02*
X4350000Y2254350D01*
Y2250000D02*
Y2254350D01*
X4285000Y2319350D02*
Y2805000D01*
X3250000Y2250000D02*
X3335000Y2335000D01*
X3285000Y2410000D02*
Y2805000D01*
X2950000Y2210000D02*
X3085000D01*
X3285000Y2410000D01*
X3380000Y2000000D02*
Y2000208D01*
X3375000Y2125000D02*
X3535000Y2285000D01*
Y2805000D01*
X3250000Y2125000D02*
X3485000Y2360000D01*
Y2805000D01*
X3335000Y2335000D02*
Y2805000D01*
X2985000Y151250D02*
X3100000Y266250D01*
Y270000D01*
X2985000Y147500D02*
Y151250D01*
X3217500Y179972D02*
X3276606Y239078D01*
Y286606D01*
X3290000Y300000D01*
X3217500Y147500D02*
Y179972D01*
X3450000Y147500D02*
Y340000D01*
X3623394Y239078D02*
X3682500Y179972D01*
X3610000Y300000D02*
X3623394Y286606D01*
X3682500Y147500D02*
Y179972D01*
X3623394Y239078D02*
Y286606D01*
X3915000Y147500D02*
Y296058D01*
X3880000Y331058D02*
X3915000Y296058D01*
X3880000Y331058D02*
Y350000D01*
D33*
X6495000Y3205502D02*
X6558972Y3269475D01*
X6495000Y3070000D02*
Y3205502D01*
X8205000Y1200000D02*
X8440000D01*
X8280294Y5990000D02*
X9500000D01*
X8422500Y5740000D02*
X9500000D01*
X8132500Y5450000D02*
X8422500Y5740000D01*
X7750000Y5459706D02*
X8280294Y5990000D01*
X7910000Y5450000D02*
X8132500D01*
X7750000D02*
Y5459706D01*
X8870000Y2539320D02*
X9300000Y2109320D01*
X8749500Y5430000D02*
X9122500Y5057000D01*
X8560000Y5430000D02*
X8749500D01*
X9122500Y5057000D02*
X9137500D01*
X8410000Y5280000D02*
X8560000Y5430000D01*
X8410000Y4603084D02*
Y5280000D01*
Y4603084D02*
X8634733Y4378351D01*
X8722767D01*
X8870000Y4231118D01*
Y2539320D02*
Y4231118D01*
X7560000Y4795000D02*
X7810000D01*
X8440000Y1200000D02*
X9300000D01*
D34*
X7050000Y3950000D02*
X7060000Y3940000D01*
X6880000Y3950000D02*
X7050000D01*
X7060000Y3940000D02*
X7540000D01*
X7690000Y4090000D01*
X8140000Y1200000D02*
X8205000D01*
X7250000Y1380000D02*
X7255792Y1374208D01*
Y1311708D02*
Y1374208D01*
Y1311708D02*
X7367500Y1200000D01*
X8236790Y1680000D02*
X8240000D01*
X8164229Y1752561D02*
X8236790Y1680000D01*
X8164229Y1752561D02*
Y1762595D01*
X8110000Y1790000D02*
X8136824D01*
X8164229Y1762595D01*
X8110000Y1670000D02*
Y1790000D01*
X6790000Y2382500D02*
X6903092Y2269409D01*
X6999409D01*
X7000000Y2270000D01*
X6790000Y2382500D02*
Y2840000D01*
X7060856Y4794144D02*
X7309144D01*
X7379939Y4821728D02*
X7410000Y4851789D01*
Y4940000D01*
X7310000Y4795000D02*
X7336729Y4821728D01*
X7379939D01*
X8015000Y3550000D02*
X8165000D01*
X7934350Y3600000D02*
X7964350Y3630000D01*
X8165000D01*
X7900000Y3500000D02*
X7909567Y3509567D01*
X7974567D02*
X8015000Y3550000D01*
X7800000Y3600000D02*
X7934350D01*
X7909567Y3509567D02*
X7974567D01*
X8335000Y2670000D02*
X8450000Y2785000D01*
Y2900000D01*
X8165000Y2670000D02*
X8335000D01*
X7800000Y2580000D02*
X7802782Y2577218D01*
X7872782D02*
X7940000Y2510000D01*
X8165000D01*
X7802782Y2577218D02*
X7872782D01*
X7967500Y3200000D02*
X8017500Y3150000D01*
X8165000D01*
X7800000Y3200000D02*
X7967500D01*
X8105000Y3000000D02*
X8115000Y2990000D01*
X7800000Y3000000D02*
X8105000D01*
X8115000Y2990000D02*
X8165000D01*
X7802071Y4247929D02*
X7936422D01*
X8074350Y4110000D02*
X8165000D01*
X7936422Y4247929D02*
X8074350Y4110000D01*
X7900888Y4349112D02*
X7975888D01*
X8055000Y4270000D02*
X8165000D01*
X7975888Y4349112D02*
X8055000Y4270000D01*
X7900000Y4350000D02*
X7900888Y4349112D01*
X7800000Y4250000D02*
X7802071Y4247929D01*
X7396612Y2596612D02*
X7400000Y2600000D01*
X7240000Y2510000D02*
X7326612Y2596612D01*
X7396612D01*
X7193995Y2670000D02*
X7314428Y2790433D01*
X7322989Y2700000D02*
X7500000D01*
X7000000Y2670000D02*
X7193995D01*
X7212989Y2590000D02*
X7322989Y2700000D01*
X7314428Y2790433D02*
X7390433D01*
X7000000Y2510000D02*
X7240000D01*
X7390433Y2790433D02*
X7400000Y2800000D01*
X7000000Y2590000D02*
X7212989D01*
X7300710Y2430000D02*
X7370710Y2500000D01*
X7000000Y2430000D02*
X7300710D01*
X7370710Y2500000D02*
X7470000D01*
X7325000Y2900000D02*
X7500000D01*
X7175000Y2750000D02*
X7325000Y2900000D01*
X7000000Y2750000D02*
X7175000D01*
X7150000Y2830000D02*
X7320000Y3000000D01*
X7000000Y2830000D02*
X7150000D01*
X7320000Y3000000D02*
X7400000D01*
X7540433Y3694567D02*
X7575433D01*
X7445000Y3790000D02*
X7540433Y3694567D01*
X7000000Y3790000D02*
X7445000D01*
X7575433Y3694567D02*
X7585000Y3685000D01*
X7000000Y3710000D02*
X7257500D01*
X7000000Y3870000D02*
X7498970D01*
X7563970Y3805000D01*
X7577500D01*
X7280000Y3500000D02*
X7500000D01*
X7000000Y3550000D02*
X7230000D01*
X7280000Y3500000D01*
X7000000Y3630000D02*
X7262500D01*
X7292500Y3600000D02*
X7372500D01*
X7262500Y3630000D02*
X7292500Y3600000D01*
X7390000Y4030000D02*
X7400000Y4040000D01*
X7000000Y4030000D02*
X7390000D01*
X6690000Y3950000D02*
X6880000D01*
X6880000Y3950000D01*
Y3470000D02*
Y3950000D01*
Y3470000D02*
X7000000D01*
X6690000D02*
X6880000D01*
X8500000Y3277426D02*
X8550000Y3227426D01*
X8500000Y3277426D02*
Y3310000D01*
X8550000Y2740000D02*
Y3227426D01*
X8450000Y2640000D02*
X8550000Y2740000D01*
X8450000Y2270000D02*
Y2640000D01*
X8165000Y4474999D02*
X8375001D01*
X8500000Y4350000D01*
X7810000Y4600000D02*
X8040000D01*
X7690000D02*
X7810000D01*
X7560000D02*
X7690000D01*
Y4090000D02*
Y4600000D01*
X8500000Y4190000D02*
Y4350000D01*
Y3710000D02*
Y4190000D01*
Y3310000D02*
Y3710000D01*
X7000000Y3390000D02*
X7550000D01*
X7000000Y3150000D02*
X7231058D01*
X7281058Y3200000D02*
X7300000D01*
X7231058Y3150000D02*
X7281058Y3200000D01*
X7367500Y1200000D02*
X7700000D01*
X7950000D01*
X8140000Y1451000D02*
Y1640000D01*
X8110000Y1670000D02*
X8140000Y1640000D01*
X7000000Y4270000D02*
X7361058D01*
X7381058Y4250000D02*
X7400000D01*
X7361058Y4270000D02*
X7381058Y4250000D01*
X7500000Y4150000D02*
X7500000Y4150000D01*
X7289289Y4110000D02*
X7329290Y4150000D01*
X7500000D01*
X7000000Y4110000D02*
X7289289D01*
X7381058Y2400000D02*
X7400000D01*
X7000000Y2350000D02*
X7331058D01*
X7381058Y2400000D01*
X7000000Y2990000D02*
X7210529D01*
X7320529Y3100000D02*
X7500000D01*
X7210529Y2990000D02*
X7320529Y3100000D01*
X8010000Y2800000D02*
X8040000Y2830000D01*
X7800000Y2800000D02*
X8010000D01*
X7905000Y2905000D02*
X8160000D01*
X8165000Y2910000D01*
X7900000Y2900000D02*
X7905000Y2905000D01*
X8040000Y2830000D02*
X8165000D01*
X7948942Y3070000D02*
X8165000D01*
X7918942Y3100000D02*
X7948942Y3070000D01*
X7900000Y3100000D02*
X7918942D01*
X7800000Y3390000D02*
X8165000D01*
X7870000Y3870000D02*
X8165000D01*
X7800000Y3800000D02*
X7870000Y3870000D01*
X7990000Y3790000D02*
X8165000D01*
X7900000Y3700000D02*
X7990000Y3790000D01*
X8165000Y3390000D02*
X8165000Y3390000D01*
X7900000Y4150000D02*
X8020000Y4030000D01*
X8165000D01*
X8040000Y4600000D02*
X8165000Y4474999D01*
X7310000Y4600000D02*
X7560000D01*
X7060000D02*
X7310000D01*
X8165000Y4350000D02*
Y4474999D01*
Y4190000D02*
X8500000D01*
X8165000Y3710000D02*
X8500000D01*
X8165000Y2270000D02*
X8450000D01*
X8165000Y3310000D02*
X8500000D01*
X6690000Y3070000D02*
X7000000D01*
D35*
X480000Y6870000D02*
Y7470000D01*
D36*
X6120000Y3594000D02*
D03*
Y3340000D02*
D03*
X4782000Y5990000D02*
D03*
X5036000D02*
D03*
X5290000D02*
D03*
X8092500Y4845000D02*
D03*
X2015000Y3839000D02*
D03*
Y3585000D02*
D03*
D37*
X6120000Y3086000D02*
D03*
X2015000Y3331000D02*
D03*
D38*
X4528000Y5990000D02*
D03*
D39*
X9500000Y500000D02*
D03*
X480000Y470000D02*
D03*
X9500000Y7500000D02*
D03*
X480000Y7470000D02*
D03*
D40*
X9150000Y4040000D02*
D03*
D41*
X9650000D02*
D03*
D42*
X8682500Y5104000D02*
D03*
Y4850000D02*
D03*
Y4596000D02*
D03*
D43*
X9137500Y4803000D02*
D03*
D44*
Y5057000D02*
D03*
D45*
X6460000Y540000D02*
D03*
Y350000D02*
D03*
D46*
X480000Y6870000D02*
D03*
Y6370000D02*
D03*
D47*
X9290000Y2692000D02*
D03*
Y3200000D02*
D03*
D48*
X8567500Y500000D02*
D03*
X7650000Y7500000D02*
D03*
X6050000D02*
D03*
X4450000D02*
D03*
X2850000D02*
D03*
X1250000D02*
D03*
D49*
X8317500Y500000D02*
D03*
X7900000Y7500000D02*
D03*
X8150000D02*
D03*
X8400000D02*
D03*
X8650000D02*
D03*
X7050000D02*
D03*
X6800000D02*
D03*
X6550000D02*
D03*
X6300000D02*
D03*
X5450000D02*
D03*
X5200000D02*
D03*
X4950000D02*
D03*
X4700000D02*
D03*
X3850000D02*
D03*
X3600000D02*
D03*
X3350000D02*
D03*
X3100000D02*
D03*
X2250000D02*
D03*
X2000000D02*
D03*
X1750000D02*
D03*
X1500000D02*
D03*
D50*
X500000Y3450000D02*
D03*
Y3700000D02*
D03*
Y3950000D02*
D03*
Y4200000D02*
D03*
Y5800000D02*
D03*
Y5550000D02*
D03*
Y5300000D02*
D03*
Y5050000D02*
D03*
Y2600000D02*
D03*
Y2350000D02*
D03*
Y2100000D02*
D03*
Y1850000D02*
D03*
X9500000Y6490000D02*
D03*
Y6240000D02*
D03*
Y5990000D02*
D03*
Y5740000D02*
D03*
Y5490000D02*
D03*
D51*
X500000Y3200000D02*
D03*
Y4800000D02*
D03*
Y1600000D02*
D03*
X9500000Y6740000D02*
D03*
D52*
X7107500Y5400000D02*
D03*
X6852500D02*
D03*
X6980000D02*
D03*
X4622500Y4472500D02*
D03*
Y4097500D02*
D03*
Y3722500D02*
D03*
Y3347500D02*
D03*
X4247500Y4472500D02*
D03*
Y4097500D02*
D03*
Y3722500D02*
D03*
Y3347500D02*
D03*
X3872500Y4472500D02*
D03*
Y4097500D02*
D03*
Y3722500D02*
D03*
Y3347500D02*
D03*
X3497500D02*
D03*
Y3722500D02*
D03*
Y4097500D02*
D03*
Y4472500D02*
D03*
X6797500Y3262500D02*
D03*
X7577500Y3805000D02*
D03*
X7585000Y3685000D02*
D03*
X6660000Y5565000D02*
D03*
X9500000Y3500000D02*
D03*
X9750000Y3000000D02*
D03*
X9500000Y2500000D02*
D03*
Y1500000D02*
D03*
X9000000Y6500000D02*
D03*
Y3500000D02*
D03*
X8250000Y5000000D02*
D03*
X7750000D02*
D03*
X7000000Y500000D02*
D03*
X5750000Y7000000D02*
D03*
Y1000000D02*
D03*
X5000000Y500000D02*
D03*
X4000000D02*
D03*
X2500000Y7500000D02*
D03*
X1000000Y4500000D02*
D03*
X500000D02*
D03*
X750000Y3000000D02*
D03*
Y1000000D02*
D03*
X5350000Y1870000D02*
D03*
X5430000Y1780000D02*
D03*
X5207500Y1700000D02*
D03*
Y1580000D02*
D03*
X1485000Y670000D02*
D03*
X7372500Y3600000D02*
D03*
X8340000Y4075000D02*
D03*
X8370000Y3472500D02*
D03*
X8130000Y530000D02*
D03*
X7910000Y1010000D02*
D03*
X5830000Y1700000D02*
D03*
X6380000Y1120000D02*
D03*
X3370000Y1060000D02*
D03*
X2100000Y1310000D02*
D03*
X7800000Y2580000D02*
D03*
X3540000Y800000D02*
D03*
X1470000Y790000D02*
D03*
X1250000Y380000D02*
D03*
X5230000Y2310000D02*
D03*
X5970000Y1570000D02*
D03*
X6190000Y1560000D02*
D03*
X6790000Y2840000D02*
D03*
X6730000Y3730000D02*
D03*
X6620000Y1220000D02*
D03*
X5080000Y1580000D02*
D03*
X5970000Y1715001D02*
D03*
X5940000Y2320000D02*
D03*
X6740000Y2100000D02*
D03*
X9800000Y920000D02*
D03*
X4460000Y2000000D02*
D03*
X4880000Y2440913D02*
D03*
X4830000Y2550000D02*
D03*
X7830000Y1350000D02*
D03*
X7850000Y740000D02*
D03*
X8770000Y950000D02*
D03*
X9060000Y2350000D02*
D03*
X8240000Y1680000D02*
D03*
X5050000Y2560000D02*
D03*
X5400000Y5160000D02*
D03*
X6040000Y5870000D02*
D03*
X6100000Y5250000D02*
D03*
X5880000D02*
D03*
X4700000Y5760000D02*
D03*
X4850000Y5670000D02*
D03*
X4950000Y5600000D02*
D03*
X4750000Y5580000D02*
D03*
X4310000Y5980000D02*
D03*
X3860000Y5920000D02*
D03*
X3980000D02*
D03*
X3420000Y5760000D02*
D03*
X7410000Y4940000D02*
D03*
X4390000Y750000D02*
D03*
X7100000Y1560000D02*
D03*
X4150000Y5830000D02*
D03*
X4190000Y5950000D02*
D03*
X6558972Y3269475D02*
D03*
X4020000Y5800000D02*
D03*
X6430000Y2650000D02*
D03*
X2860000Y2670000D02*
D03*
X2099999Y1949793D02*
D03*
X7910000Y5450000D02*
D03*
X7750000D02*
D03*
X7700000Y2470000D02*
D03*
X7680000Y2800000D02*
D03*
X7470000Y2500000D02*
D03*
X3550000Y1680000D02*
D03*
X1990000Y5030000D02*
D03*
X6670000Y2830000D02*
D03*
X5050000Y5230000D02*
D03*
X7550000Y3390000D02*
D03*
X5380000Y2800000D02*
D03*
X7300000Y3200000D02*
D03*
X6500000Y5060000D02*
D03*
X2490000Y150000D02*
D03*
X2370000D02*
D03*
X2250000D02*
D03*
X2130000D02*
D03*
X2700000Y300000D02*
D03*
X2580000D02*
D03*
X7250000Y1380000D02*
D03*
X7860000Y1670000D02*
D03*
X990000Y950000D02*
D03*
X5020000Y2250000D02*
D03*
X3800000Y5800000D02*
D03*
X2600000Y2700000D02*
D03*
X2700000Y2850000D02*
D03*
X2720000Y950000D02*
D03*
X2570000Y2120000D02*
D03*
X2020000Y1730000D02*
D03*
X2320000Y1350000D02*
D03*
X2730000Y1300000D02*
D03*
X2600000D02*
D03*
X5130000Y2390000D02*
D03*
X2250000Y5450000D02*
D03*
X1750000Y160000D02*
D03*
X2630000Y1710000D02*
D03*
X2000000Y4500000D02*
D03*
X2150000Y4550000D02*
D03*
X2490000Y3800000D02*
D03*
X2480000Y810000D02*
D03*
X6513373Y2109211D02*
D03*
X6240000Y2260000D02*
D03*
X3250000Y810000D02*
D03*
X3030000Y810000D02*
D03*
X2360000D02*
D03*
X2910000D02*
D03*
X2200000Y780000D02*
D03*
X1900000Y250000D02*
D03*
X1650000D02*
D03*
X5700000Y2800000D02*
D03*
X5600000Y2700000D02*
D03*
X5500000Y2800000D02*
D03*
X5920000Y3200000D02*
D03*
X5780000D02*
D03*
X2840000Y1150000D02*
D03*
X2800000Y1790000D02*
D03*
X2450000Y2800000D02*
D03*
X3050000Y2430000D02*
D03*
Y2300000D02*
D03*
X2230000Y2560000D02*
D03*
X1900000Y2390000D02*
D03*
X4120000Y2470000D02*
D03*
X8900000Y550000D02*
D03*
Y700000D02*
D03*
X7350000Y1550000D02*
D03*
X5800000Y3500000D02*
D03*
X7550000Y1400000D02*
D03*
X5100000Y5650000D02*
D03*
X8840000Y7050000D02*
D03*
X7510000Y6665000D02*
D03*
X8410000Y6200000D02*
D03*
X8160000Y6190000D02*
D03*
X6930000Y6150000D02*
D03*
X6680000D02*
D03*
X5200000Y6190000D02*
D03*
X4970000Y6200000D02*
D03*
X3650000Y6150000D02*
D03*
X3410000Y6190000D02*
D03*
X2700000Y5500000D02*
D03*
X1850000Y5550000D02*
D03*
Y5430000D02*
D03*
X5910000Y6665000D02*
D03*
X4310000D02*
D03*
X2710000D02*
D03*
X1110000D02*
D03*
X1335000Y4660000D02*
D03*
Y3060000D02*
D03*
X7400000Y4250000D02*
D03*
X7500000Y4150000D02*
D03*
X7400000Y4040000D02*
D03*
X7500000Y3500000D02*
D03*
X7400000Y2400000D02*
D03*
Y2600000D02*
D03*
X7500000Y2700000D02*
D03*
X7400000Y2800000D02*
D03*
X7500000Y2900000D02*
D03*
X7400000Y3000000D02*
D03*
X7500000Y3100000D02*
D03*
X7800000Y2400000D02*
D03*
X7680000Y2660000D02*
D03*
X8450000Y2900000D02*
D03*
X7800000Y2800000D02*
D03*
X7900000Y2900000D02*
D03*
X7800000Y3000000D02*
D03*
X7900000Y3100000D02*
D03*
X7800000Y3200000D02*
D03*
Y3800000D02*
D03*
X7900000Y3700000D02*
D03*
X7800000Y3600000D02*
D03*
X7900000Y3500000D02*
D03*
X7800000Y3390000D02*
D03*
X7900000Y4150000D02*
D03*
X7800000Y4250000D02*
D03*
X7900000Y4350000D02*
D03*
X2980000Y330000D02*
D03*
X2800000Y200000D02*
D03*
X2300000Y300000D02*
D03*
X2000000Y730000D02*
D03*
X2790000Y2210000D02*
D03*
X1400000Y282500D02*
D03*
X3850000Y1850000D02*
D03*
X3700000D02*
D03*
X3500000Y5590000D02*
D03*
X3160000D02*
D03*
X2990000D02*
D03*
X3670000D02*
D03*
X2820000D02*
D03*
X3080000Y5700000D02*
D03*
X3590000D02*
D03*
X2500000Y5350000D02*
D03*
Y5150000D02*
D03*
X2600000Y5050000D02*
D03*
X2500000Y4950000D02*
D03*
X2400000Y5050000D02*
D03*
X2300000Y4950000D02*
D03*
X2200000Y5050000D02*
D03*
X2100000Y4950000D02*
D03*
X2000000Y4850000D02*
D03*
X2100000Y4740000D02*
D03*
X2000000Y4650000D02*
D03*
X2200000Y4300000D02*
D03*
Y4100000D02*
D03*
X2300000Y4000000D02*
D03*
X2200000Y3900000D02*
D03*
X2300000Y3800000D02*
D03*
X2200000Y3700000D02*
D03*
X2050000Y3100000D02*
D03*
X1950000Y3000000D02*
D03*
X4200000Y5650000D02*
D03*
X4500000Y5800000D02*
D03*
X4550000Y5650000D02*
D03*
X5550000Y5250000D02*
D03*
X5900000Y3590000D02*
D03*
X6150000Y4150000D02*
D03*
Y4750000D02*
D03*
Y4550000D02*
D03*
Y3950000D02*
D03*
Y4350000D02*
D03*
X6250000Y3850000D02*
D03*
Y4650000D02*
D03*
Y4040000D02*
D03*
Y4450000D02*
D03*
Y4250000D02*
D03*
X4690000Y2450000D02*
D03*
X4750000Y2250000D02*
D03*
X4650000Y2150000D02*
D03*
X4550000Y2250000D02*
D03*
X4450000Y2150000D02*
D03*
X4350000Y2250000D02*
D03*
X4250000Y2150000D02*
D03*
X3250000Y2250000D02*
D03*
X3380000Y2000000D02*
D03*
X2950000Y2210000D02*
D03*
X3375000Y2125000D02*
D03*
X3250000D02*
D03*
X4060000Y3910000D02*
D03*
X4435000D02*
D03*
X4810000D02*
D03*
X3310000D02*
D03*
X3685000D02*
D03*
X4060000Y4660000D02*
D03*
Y4285000D02*
D03*
Y3160000D02*
D03*
Y3535000D02*
D03*
X3685000Y4285000D02*
D03*
X3310000D02*
D03*
X4810000D02*
D03*
X4435000D02*
D03*
X3685000Y4660000D02*
D03*
X3310000D02*
D03*
X4810000D02*
D03*
X4435000D02*
D03*
X3685000Y3535000D02*
D03*
X3310000D02*
D03*
X4810000D02*
D03*
X4435000D02*
D03*
X3685000Y3160000D02*
D03*
X3310000D02*
D03*
X4810000D02*
D03*
X4435000D02*
D03*
X3100000Y270000D02*
D03*
X3290000Y300000D02*
D03*
X3450000Y340000D02*
D03*
X3610000Y300000D02*
D03*
X3880000Y350000D02*
D03*
X7240000Y7050000D02*
D03*
X5640000D02*
D03*
X4040000D02*
D03*
X2440000D02*
D03*
X950000Y5990000D02*
D03*
Y4390000D02*
D03*
Y2790000D02*
D03*
D53*
X4935000Y2805000D02*
D03*
X4885000D02*
D03*
X4835000D02*
D03*
X4785000D02*
D03*
X4735000D02*
D03*
X4685000D02*
D03*
X4635000D02*
D03*
X4585000D02*
D03*
X4535000D02*
D03*
X4485000D02*
D03*
X4435000D02*
D03*
X4385000D02*
D03*
X4335000D02*
D03*
X4285000D02*
D03*
X4235000D02*
D03*
X4185000D02*
D03*
X4135000D02*
D03*
X4085000D02*
D03*
X4035000D02*
D03*
X3985000D02*
D03*
X3935000D02*
D03*
X3885000D02*
D03*
X3835000D02*
D03*
X3785000D02*
D03*
X3735000D02*
D03*
X3685000D02*
D03*
X3635000D02*
D03*
X3585000D02*
D03*
X3535000D02*
D03*
X3485000D02*
D03*
X3435000D02*
D03*
X3385000D02*
D03*
X3335000D02*
D03*
X3285000D02*
D03*
X3235000D02*
D03*
X3185000D02*
D03*
Y5015000D02*
D03*
X3235000D02*
D03*
X3285000D02*
D03*
X3335000D02*
D03*
X3385000D02*
D03*
X3435000D02*
D03*
X3485000D02*
D03*
X3535000D02*
D03*
X3585000D02*
D03*
X3635000D02*
D03*
X3685000D02*
D03*
X3735000D02*
D03*
X3785000D02*
D03*
X3835000D02*
D03*
X3885000D02*
D03*
X3935000D02*
D03*
X3985000D02*
D03*
X4035000D02*
D03*
X4085000D02*
D03*
X4135000D02*
D03*
X4185000D02*
D03*
X4235000D02*
D03*
X4285000D02*
D03*
X4335000D02*
D03*
X4385000D02*
D03*
X4435000D02*
D03*
X4485000D02*
D03*
X4535000D02*
D03*
X4585000D02*
D03*
X4635000D02*
D03*
X4685000D02*
D03*
X4735000D02*
D03*
X4785000D02*
D03*
X4835000D02*
D03*
X4885000D02*
D03*
X4935000D02*
D03*
D54*
X2955000Y3035000D02*
D03*
Y3085000D02*
D03*
Y3135000D02*
D03*
Y3185000D02*
D03*
Y3235000D02*
D03*
Y3285000D02*
D03*
Y3335000D02*
D03*
Y3385000D02*
D03*
Y3435000D02*
D03*
Y3485000D02*
D03*
Y3535000D02*
D03*
Y3585000D02*
D03*
Y3635000D02*
D03*
Y3685000D02*
D03*
Y3735000D02*
D03*
Y3785000D02*
D03*
Y3835000D02*
D03*
Y3885000D02*
D03*
Y3935000D02*
D03*
Y3985000D02*
D03*
Y4035000D02*
D03*
Y4085000D02*
D03*
Y4135000D02*
D03*
Y4185000D02*
D03*
Y4235000D02*
D03*
Y4285000D02*
D03*
Y4335000D02*
D03*
Y4385000D02*
D03*
Y4435000D02*
D03*
Y4485000D02*
D03*
Y4535000D02*
D03*
Y4585000D02*
D03*
Y4635000D02*
D03*
Y4685000D02*
D03*
Y4735000D02*
D03*
Y4785000D02*
D03*
X5165000D02*
D03*
Y4735000D02*
D03*
Y4685000D02*
D03*
Y4635000D02*
D03*
Y4585000D02*
D03*
Y4535000D02*
D03*
Y4485000D02*
D03*
Y4435000D02*
D03*
Y4385000D02*
D03*
Y4335000D02*
D03*
Y4285000D02*
D03*
Y4235000D02*
D03*
Y4185000D02*
D03*
Y4135000D02*
D03*
Y4085000D02*
D03*
Y4035000D02*
D03*
Y3985000D02*
D03*
Y3935000D02*
D03*
Y3885000D02*
D03*
Y3835000D02*
D03*
Y3785000D02*
D03*
Y3735000D02*
D03*
Y3685000D02*
D03*
Y3635000D02*
D03*
Y3585000D02*
D03*
Y3535000D02*
D03*
Y3485000D02*
D03*
Y3435000D02*
D03*
Y3385000D02*
D03*
Y3335000D02*
D03*
Y3285000D02*
D03*
Y3235000D02*
D03*
Y3185000D02*
D03*
Y3135000D02*
D03*
Y3085000D02*
D03*
Y3035000D02*
D03*
D55*
X5610000Y5710000D02*
D03*
X5330000D02*
D03*
X1960000Y5220000D02*
D03*
X2240000D02*
D03*
D56*
X8165000Y2270000D02*
D03*
X7000000D02*
D03*
Y2350000D02*
D03*
Y2430000D02*
D03*
Y2510000D02*
D03*
Y2590000D02*
D03*
Y2670000D02*
D03*
Y2750000D02*
D03*
Y2830000D02*
D03*
Y2910000D02*
D03*
Y2990000D02*
D03*
Y3070000D02*
D03*
Y3150000D02*
D03*
Y3230000D02*
D03*
Y3310000D02*
D03*
Y3390000D02*
D03*
Y3470000D02*
D03*
Y3550000D02*
D03*
Y3630000D02*
D03*
Y3710000D02*
D03*
Y3790000D02*
D03*
Y3870000D02*
D03*
Y3950000D02*
D03*
Y4030000D02*
D03*
Y4110000D02*
D03*
Y4190000D02*
D03*
Y4270000D02*
D03*
Y4350000D02*
D03*
X8165000Y4270000D02*
D03*
Y4190000D02*
D03*
Y4110000D02*
D03*
Y4030000D02*
D03*
Y3950000D02*
D03*
Y3870000D02*
D03*
Y3790000D02*
D03*
Y3710000D02*
D03*
Y3630000D02*
D03*
Y3550000D02*
D03*
Y3470000D02*
D03*
Y3390000D02*
D03*
Y3310000D02*
D03*
Y3230000D02*
D03*
Y3150000D02*
D03*
Y3070000D02*
D03*
Y2990000D02*
D03*
Y2910000D02*
D03*
Y2830000D02*
D03*
Y2750000D02*
D03*
Y2670000D02*
D03*
Y2590000D02*
D03*
Y2510000D02*
D03*
Y2430000D02*
D03*
Y2350000D02*
D03*
D57*
Y4350000D02*
D03*
D58*
X8450000Y1880000D02*
D03*
X8300000D02*
D03*
D59*
X9300000Y2109320D02*
D03*
Y1200000D02*
D03*
D60*
X7950000Y1451000D02*
D03*
X8045000D02*
D03*
X8140000D02*
D03*
X7950000Y1200000D02*
D03*
X8045000D02*
D03*
X8140000D02*
D03*
D61*
X7700000Y905000D02*
D03*
Y1200000D02*
D03*
X7400000Y905000D02*
D03*
Y1200000D02*
D03*
D62*
X3915000Y147500D02*
D03*
X3682500D02*
D03*
X3450000D02*
D03*
X3217500D02*
D03*
X2985000D02*
D03*
X1400000Y130000D02*
D03*
D63*
X8288000Y1300500D02*
X8393749Y1406249D01*
X8077431Y1300500D02*
X8288000D01*
X8110000Y1985000D02*
X8134118D01*
X7860000D02*
X8110000D01*
X8166142Y1923858D02*
Y1952976D01*
X8134118Y1985000D02*
X8166142Y1952976D01*
X8210000Y1880000D02*
X8300000D01*
X8166142Y1923858D02*
X8210000Y1880000D01*
X8300000Y1860000D02*
Y1880000D01*
Y1860000D02*
X8390007Y1769993D01*
X8600000Y1470000D02*
Y1705000D01*
X8390007Y1769993D02*
X8535007D01*
X8600000Y1705000D01*
X8045000Y985000D02*
Y1200000D01*
X7965000Y905000D02*
X8045000Y985000D01*
Y1200000D02*
X8054000Y1209000D01*
Y1277068D01*
X8077431Y1300500D01*
X8393749Y1406249D02*
X8536249D01*
X7400000Y905000D02*
X7700000D01*
X7610000Y1985000D02*
X7860000D01*
X8536249Y1406249D02*
X8600000Y1470000D01*
X7700000Y905000D02*
X7965000D01*
X7700000Y2470000D02*
X7711480Y2481480D01*
X7744912D02*
X7753432Y2490000D01*
X7837279D01*
X7711480Y2481480D02*
X7744912D01*
X7837279Y2490000D02*
X7897279Y2430000D01*
X8165000D01*
X7854290Y2350000D02*
X8165000D01*
X7800000Y2400000D02*
X7804289D01*
X7854290Y2350000D01*
D64*
X8374993Y1879993D02*
D03*
D65*
X8491250Y1881357D02*
D03*
%TF.MD5,86c33a31a98cab70f1c05031434670ec*%
M02*
