%TF.GenerationSoftware,Altium Limited,Altium Designer,23.11.1 (41)*%
G04 Layer_Color=16711935*
%FSLAX45Y45*%
%MOMM*%
%TF.SameCoordinates,93787688-83E1-42C5-93B8-12A4BFDEF0D2*%
%TF.FilePolarity,Negative*%
%TF.FileFunction,Soldermask,Bot*%
%TF.Part,Single*%
G01*
G75*
%TA.AperFunction,SMDPad,CuDef*%
G04:AMPARAMS|DCode=101|XSize=1.2532mm|YSize=1.8032mm|CornerRadius=0.3641mm|HoleSize=0mm|Usage=FLASHONLY|Rotation=180.000|XOffset=0mm|YOffset=0mm|HoleType=Round|Shape=RoundedRectangle|*
%AMROUNDEDRECTD101*
21,1,1.25320,1.07500,0,0,180.0*
21,1,0.52500,1.80320,0,0,180.0*
1,1,0.72820,-0.26250,0.53750*
1,1,0.72820,0.26250,0.53750*
1,1,0.72820,0.26250,-0.53750*
1,1,0.72820,-0.26250,-0.53750*
%
%ADD101ROUNDEDRECTD101*%
G04:AMPARAMS|DCode=102|XSize=1.2532mm|YSize=1.8032mm|CornerRadius=0.3641mm|HoleSize=0mm|Usage=FLASHONLY|Rotation=270.000|XOffset=0mm|YOffset=0mm|HoleType=Round|Shape=RoundedRectangle|*
%AMROUNDEDRECTD102*
21,1,1.25320,1.07500,0,0,270.0*
21,1,0.52500,1.80320,0,0,270.0*
1,1,0.72820,-0.53750,-0.26250*
1,1,0.72820,-0.53750,0.26250*
1,1,0.72820,0.53750,0.26250*
1,1,0.72820,0.53750,-0.26250*
%
%ADD102ROUNDEDRECTD102*%
G04:AMPARAMS|DCode=107|XSize=2.2032mm|YSize=2.2032mm|CornerRadius=0.6016mm|HoleSize=0mm|Usage=FLASHONLY|Rotation=90.000|XOffset=0mm|YOffset=0mm|HoleType=Round|Shape=RoundedRectangle|*
%AMROUNDEDRECTD107*
21,1,2.20320,1.00000,0,0,90.0*
21,1,1.00000,2.20320,0,0,90.0*
1,1,1.20320,0.50000,0.50000*
1,1,1.20320,0.50000,-0.50000*
1,1,1.20320,-0.50000,-0.50000*
1,1,1.20320,-0.50000,0.50000*
%
%ADD107ROUNDEDRECTD107*%
%TA.AperFunction,ComponentPad*%
%ADD122C,2.00320*%
G04:AMPARAMS|DCode=123|XSize=2.0032mm|YSize=2.0032mm|CornerRadius=0.5516mm|HoleSize=0mm|Usage=FLASHONLY|Rotation=90.000|XOffset=0mm|YOffset=0mm|HoleType=Round|Shape=RoundedRectangle|*
%AMROUNDEDRECTD123*
21,1,2.00320,0.90000,0,0,90.0*
21,1,0.90000,2.00320,0,0,90.0*
1,1,1.10320,0.45000,0.45000*
1,1,1.10320,0.45000,-0.45000*
1,1,1.10320,-0.45000,-0.45000*
1,1,1.10320,-0.45000,0.45000*
%
%ADD123ROUNDEDRECTD123*%
G04:AMPARAMS|DCode=124|XSize=2.0032mm|YSize=2.0032mm|CornerRadius=0.5516mm|HoleSize=0mm|Usage=FLASHONLY|Rotation=0.000|XOffset=0mm|YOffset=0mm|HoleType=Round|Shape=RoundedRectangle|*
%AMROUNDEDRECTD124*
21,1,2.00320,0.90000,0,0,0.0*
21,1,0.90000,2.00320,0,0,0.0*
1,1,1.10320,0.45000,-0.45000*
1,1,1.10320,-0.45000,-0.45000*
1,1,1.10320,-0.45000,0.45000*
1,1,1.10320,0.45000,0.45000*
%
%ADD124ROUNDEDRECTD124*%
%ADD125C,7.20320*%
%ADD126O,2.80320X3.50320*%
G04:AMPARAMS|DCode=127|XSize=2.8032mm|YSize=3.5032mm|CornerRadius=0.4266mm|HoleSize=0mm|Usage=FLASHONLY|Rotation=0.000|XOffset=0mm|YOffset=0mm|HoleType=Round|Shape=RoundedRectangle|*
%AMROUNDEDRECTD127*
21,1,2.80320,2.65000,0,0,0.0*
21,1,1.95000,3.50320,0,0,0.0*
1,1,0.85320,0.97500,-1.32500*
1,1,0.85320,-0.97500,-1.32500*
1,1,0.85320,-0.97500,1.32500*
1,1,0.85320,0.97500,1.32500*
%
%ADD127ROUNDEDRECTD127*%
%ADD128O,2.70320X2.20320*%
G04:AMPARAMS|DCode=129|XSize=1.9032mm|YSize=2.2032mm|CornerRadius=0.3141mm|HoleSize=0mm|Usage=FLASHONLY|Rotation=270.000|XOffset=0mm|YOffset=0mm|HoleType=Round|Shape=RoundedRectangle|*
%AMROUNDEDRECTD129*
21,1,1.90320,1.57500,0,0,270.0*
21,1,1.27500,2.20320,0,0,270.0*
1,1,0.62820,-0.78750,-0.63750*
1,1,0.62820,-0.78750,0.63750*
1,1,0.62820,0.78750,0.63750*
1,1,0.62820,0.78750,-0.63750*
%
%ADD129ROUNDEDRECTD129*%
%ADD130O,2.20320X1.90320*%
%ADD131C,1.80320*%
%ADD132C,2.20320*%
%ADD133C,3.20320*%
G04:AMPARAMS|DCode=134|XSize=2.0032mm|YSize=2.7032mm|CornerRadius=0.5516mm|HoleSize=0mm|Usage=FLASHONLY|Rotation=180.000|XOffset=0mm|YOffset=0mm|HoleType=Round|Shape=RoundedRectangle|*
%AMROUNDEDRECTD134*
21,1,2.00320,1.60000,0,0,180.0*
21,1,0.90000,2.70320,0,0,180.0*
1,1,1.10320,-0.45000,0.80000*
1,1,1.10320,0.45000,0.80000*
1,1,1.10320,0.45000,-0.80000*
1,1,1.10320,-0.45000,-0.80000*
%
%ADD134ROUNDEDRECTD134*%
%ADD135O,2.00320X2.70320*%
%ADD136O,2.70320X2.00320*%
G04:AMPARAMS|DCode=137|XSize=2.0032mm|YSize=2.7032mm|CornerRadius=0.5516mm|HoleSize=0mm|Usage=FLASHONLY|Rotation=90.000|XOffset=0mm|YOffset=0mm|HoleType=Round|Shape=RoundedRectangle|*
%AMROUNDEDRECTD137*
21,1,2.00320,1.60000,0,0,90.0*
21,1,0.90000,2.70320,0,0,90.0*
1,1,1.10320,0.80000,0.45000*
1,1,1.10320,0.80000,-0.45000*
1,1,1.10320,-0.80000,-0.45000*
1,1,1.10320,-0.80000,0.45000*
%
%ADD137ROUNDEDRECTD137*%
%TA.AperFunction,ViaPad*%
%ADD138C,1.20320*%
%TA.AperFunction,SMDPad,CuDef*%
%ADD139O,0.50320X3.00320*%
%ADD140O,3.00320X0.50320*%
G04:AMPARAMS|DCode=141|XSize=1.7032mm|YSize=2.0032mm|CornerRadius=0.4766mm|HoleSize=0mm|Usage=FLASHONLY|Rotation=0.000|XOffset=0mm|YOffset=0mm|HoleType=Round|Shape=RoundedRectangle|*
%AMROUNDEDRECTD141*
21,1,1.70320,1.05000,0,0,0.0*
21,1,0.75000,2.00320,0,0,0.0*
1,1,0.95320,0.37500,-0.52500*
1,1,0.95320,-0.37500,-0.52500*
1,1,0.95320,-0.37500,0.52500*
1,1,0.95320,0.37500,0.52500*
%
%ADD141ROUNDEDRECTD141*%
G04:AMPARAMS|DCode=142|XSize=1.7032mm|YSize=0.7032mm|CornerRadius=0.2266mm|HoleSize=0mm|Usage=FLASHONLY|Rotation=180.000|XOffset=0mm|YOffset=0mm|HoleType=Round|Shape=RoundedRectangle|*
%AMROUNDEDRECTD142*
21,1,1.70320,0.25000,0,0,180.0*
21,1,1.25000,0.70320,0,0,180.0*
1,1,0.45320,-0.62500,0.12500*
1,1,0.45320,0.62500,0.12500*
1,1,0.45320,0.62500,-0.12500*
1,1,0.45320,-0.62500,-0.12500*
%
%ADD142ROUNDEDRECTD142*%
G04:AMPARAMS|DCode=143|XSize=1.7032mm|YSize=0.7032mm|CornerRadius=0.1641mm|HoleSize=0mm|Usage=FLASHONLY|Rotation=180.000|XOffset=0mm|YOffset=0mm|HoleType=Round|Shape=RoundedRectangle|*
%AMROUNDEDRECTD143*
21,1,1.70320,0.37500,0,0,180.0*
21,1,1.37500,0.70320,0,0,180.0*
1,1,0.32820,-0.68750,0.18750*
1,1,0.32820,0.68750,0.18750*
1,1,0.32820,0.68750,-0.18750*
1,1,0.32820,-0.68750,-0.18750*
%
%ADD143ROUNDEDRECTD143*%
G04:AMPARAMS|DCode=144|XSize=1.0032mm|YSize=1.3032mm|CornerRadius=0.3016mm|HoleSize=0mm|Usage=FLASHONLY|Rotation=0.000|XOffset=0mm|YOffset=0mm|HoleType=Round|Shape=RoundedRectangle|*
%AMROUNDEDRECTD144*
21,1,1.00320,0.70000,0,0,0.0*
21,1,0.40000,1.30320,0,0,0.0*
1,1,0.60320,0.20000,-0.35000*
1,1,0.60320,-0.20000,-0.35000*
1,1,0.60320,-0.20000,0.35000*
1,1,0.60320,0.20000,0.35000*
%
%ADD144ROUNDEDRECTD144*%
G04:AMPARAMS|DCode=145|XSize=3.2032mm|YSize=3.2032mm|CornerRadius=0.8516mm|HoleSize=0mm|Usage=FLASHONLY|Rotation=0.000|XOffset=0mm|YOffset=0mm|HoleType=Round|Shape=RoundedRectangle|*
%AMROUNDEDRECTD145*
21,1,3.20320,1.50000,0,0,0.0*
21,1,1.50000,3.20320,0,0,0.0*
1,1,1.70320,0.75000,-0.75000*
1,1,1.70320,-0.75000,-0.75000*
1,1,1.70320,-0.75000,0.75000*
1,1,1.70320,0.75000,0.75000*
%
%ADD145ROUNDEDRECTD145*%
G04:AMPARAMS|DCode=146|XSize=1.4132mm|YSize=0.7832mm|CornerRadius=0.1741mm|HoleSize=0mm|Usage=FLASHONLY|Rotation=90.000|XOffset=0mm|YOffset=0mm|HoleType=Round|Shape=RoundedRectangle|*
%AMROUNDEDRECTD146*
21,1,1.41320,0.43500,0,0,90.0*
21,1,1.06500,0.78320,0,0,90.0*
1,1,0.34820,0.21750,0.53250*
1,1,0.34820,0.21750,-0.53250*
1,1,0.34820,-0.21750,-0.53250*
1,1,0.34820,-0.21750,0.53250*
%
%ADD146ROUNDEDRECTD146*%
G04:AMPARAMS|DCode=147|XSize=1.6532mm|YSize=2.3032mm|CornerRadius=0.4641mm|HoleSize=0mm|Usage=FLASHONLY|Rotation=270.000|XOffset=0mm|YOffset=0mm|HoleType=Round|Shape=RoundedRectangle|*
%AMROUNDEDRECTD147*
21,1,1.65320,1.37500,0,0,270.0*
21,1,0.72500,2.30320,0,0,270.0*
1,1,0.92820,-0.68750,-0.36250*
1,1,0.92820,-0.68750,0.36250*
1,1,0.92820,0.68750,0.36250*
1,1,0.92820,0.68750,-0.36250*
%
%ADD147ROUNDEDRECTD147*%
%ADD148C,1.70320*%
D101*
X8500000Y4190000D02*
D03*
X8695000D02*
D03*
X8500000Y3710000D02*
D03*
X8695000D02*
D03*
X8500000Y3310000D02*
D03*
X8695000D02*
D03*
X6495000Y3070000D02*
D03*
X6690000D02*
D03*
Y3470000D02*
D03*
X6495000D02*
D03*
X6690000Y3950000D02*
D03*
X6495000D02*
D03*
D102*
X7060000Y4600000D02*
D03*
Y4795000D02*
D03*
X7310000Y4600000D02*
D03*
Y4795000D02*
D03*
X7560000Y4600000D02*
D03*
Y4795000D02*
D03*
X7810000Y4600000D02*
D03*
Y4795000D02*
D03*
X8450000Y2270000D02*
D03*
Y2075000D02*
D03*
X8110000Y1985000D02*
D03*
Y1790000D02*
D03*
X7860000Y1985000D02*
D03*
Y1790000D02*
D03*
X7610000D02*
D03*
Y1985000D02*
D03*
D107*
X8440000Y1620000D02*
D03*
Y1200000D02*
D03*
D122*
X6120000Y3594000D02*
D03*
Y3340000D02*
D03*
X4782000Y5990000D02*
D03*
X5036000D02*
D03*
X5290000D02*
D03*
X8092500Y4845000D02*
D03*
X2015000Y3839000D02*
D03*
Y3585000D02*
D03*
D123*
X6120000Y3086000D02*
D03*
X2015000Y3331000D02*
D03*
D124*
X4528000Y5990000D02*
D03*
D125*
X9500000Y500000D02*
D03*
X480000Y470000D02*
D03*
X9500000Y7500000D02*
D03*
X480000Y7470000D02*
D03*
D126*
X9150000Y4040000D02*
D03*
D127*
X9650000D02*
D03*
D128*
X8682500Y5104000D02*
D03*
Y4850000D02*
D03*
Y4596000D02*
D03*
D129*
X9137500Y4803000D02*
D03*
D130*
Y5057000D02*
D03*
D131*
X6460000Y540000D02*
D03*
Y350000D02*
D03*
D132*
X480000Y6870000D02*
D03*
Y6370000D02*
D03*
D133*
X9290000Y2692000D02*
D03*
Y3200000D02*
D03*
D134*
X8567500Y500000D02*
D03*
X7650000Y7500000D02*
D03*
X6050000D02*
D03*
X4450000D02*
D03*
X2850000D02*
D03*
X1250000D02*
D03*
D135*
X8317500Y500000D02*
D03*
X7900000Y7500000D02*
D03*
X8150000D02*
D03*
X8400000D02*
D03*
X8650000D02*
D03*
X7050000D02*
D03*
X6800000D02*
D03*
X6550000D02*
D03*
X6300000D02*
D03*
X5450000D02*
D03*
X5200000D02*
D03*
X4950000D02*
D03*
X4700000D02*
D03*
X3850000D02*
D03*
X3600000D02*
D03*
X3350000D02*
D03*
X3100000D02*
D03*
X2250000D02*
D03*
X2000000D02*
D03*
X1750000D02*
D03*
X1500000D02*
D03*
D136*
X500000Y3450000D02*
D03*
Y3700000D02*
D03*
Y3950000D02*
D03*
Y4200000D02*
D03*
Y5800000D02*
D03*
Y5550000D02*
D03*
Y5300000D02*
D03*
Y5050000D02*
D03*
Y2600000D02*
D03*
Y2350000D02*
D03*
Y2100000D02*
D03*
Y1850000D02*
D03*
X9500000Y6490000D02*
D03*
Y6240000D02*
D03*
Y5990000D02*
D03*
Y5740000D02*
D03*
Y5490000D02*
D03*
D137*
X500000Y3200000D02*
D03*
Y4800000D02*
D03*
Y1600000D02*
D03*
X9500000Y6740000D02*
D03*
D138*
X7107500Y5400000D02*
D03*
X6852500D02*
D03*
X6980000D02*
D03*
X4622500Y4472500D02*
D03*
Y4097500D02*
D03*
Y3722500D02*
D03*
Y3347500D02*
D03*
X4247500Y4472500D02*
D03*
Y4097500D02*
D03*
Y3722500D02*
D03*
Y3347500D02*
D03*
X3872500Y4472500D02*
D03*
Y4097500D02*
D03*
Y3722500D02*
D03*
Y3347500D02*
D03*
X3497500D02*
D03*
Y3722500D02*
D03*
Y4097500D02*
D03*
Y4472500D02*
D03*
X6797500Y3262500D02*
D03*
X7577500Y3805000D02*
D03*
X7585000Y3685000D02*
D03*
X6660000Y5565000D02*
D03*
X9500000Y3500000D02*
D03*
X9750000Y3000000D02*
D03*
X9500000Y2500000D02*
D03*
Y1500000D02*
D03*
X9000000Y6500000D02*
D03*
Y3500000D02*
D03*
X8250000Y5000000D02*
D03*
X7750000D02*
D03*
X7000000Y500000D02*
D03*
X5750000Y7000000D02*
D03*
Y1000000D02*
D03*
X5000000Y500000D02*
D03*
X4000000D02*
D03*
X2500000Y7500000D02*
D03*
X1000000Y4500000D02*
D03*
X500000D02*
D03*
X750000Y3000000D02*
D03*
Y1000000D02*
D03*
X5350000Y1870000D02*
D03*
X5430000Y1780000D02*
D03*
X5207500Y1700000D02*
D03*
Y1580000D02*
D03*
X1485000Y670000D02*
D03*
X7372500Y3600000D02*
D03*
X8340000Y4075000D02*
D03*
X8370000Y3472500D02*
D03*
X8130000Y530000D02*
D03*
X7910000Y1010000D02*
D03*
X5830000Y1700000D02*
D03*
X6380000Y1120000D02*
D03*
X3370000Y1060000D02*
D03*
X2100000Y1310000D02*
D03*
X7800000Y2580000D02*
D03*
X3540000Y800000D02*
D03*
X1470000Y790000D02*
D03*
X1250000Y380000D02*
D03*
X5230000Y2310000D02*
D03*
X5970000Y1570000D02*
D03*
X6190000Y1560000D02*
D03*
X6790000Y2840000D02*
D03*
X6730000Y3730000D02*
D03*
X6620000Y1220000D02*
D03*
X5080000Y1580000D02*
D03*
X5970000Y1715001D02*
D03*
X5940000Y2320000D02*
D03*
X6740000Y2100000D02*
D03*
X9800000Y920000D02*
D03*
X4460000Y2000000D02*
D03*
X4880000Y2440913D02*
D03*
X4830000Y2550000D02*
D03*
X7830000Y1350000D02*
D03*
X7850000Y740000D02*
D03*
X8770000Y950000D02*
D03*
X9060000Y2350000D02*
D03*
X8240000Y1680000D02*
D03*
X5050000Y2560000D02*
D03*
X5400000Y5160000D02*
D03*
X6040000Y5870000D02*
D03*
X6100000Y5250000D02*
D03*
X5880000D02*
D03*
X4700000Y5760000D02*
D03*
X4850000Y5670000D02*
D03*
X4950000Y5600000D02*
D03*
X4750000Y5580000D02*
D03*
X4310000Y5980000D02*
D03*
X3860000Y5920000D02*
D03*
X3980000D02*
D03*
X3420000Y5760000D02*
D03*
X7410000Y4940000D02*
D03*
X4390000Y750000D02*
D03*
X7100000Y1560000D02*
D03*
X4150000Y5830000D02*
D03*
X4190000Y5950000D02*
D03*
X6558972Y3269475D02*
D03*
X4020000Y5800000D02*
D03*
X6430000Y2650000D02*
D03*
X2860000Y2670000D02*
D03*
X2099999Y1949793D02*
D03*
X7910000Y5450000D02*
D03*
X7750000D02*
D03*
X7700000Y2470000D02*
D03*
X7680000Y2800000D02*
D03*
X7470000Y2500000D02*
D03*
X3550000Y1680000D02*
D03*
X1990000Y5030000D02*
D03*
X6670000Y2830000D02*
D03*
X5050000Y5230000D02*
D03*
X7550000Y3390000D02*
D03*
X5380000Y2800000D02*
D03*
X7300000Y3200000D02*
D03*
X6500000Y5060000D02*
D03*
X2490000Y150000D02*
D03*
X2370000D02*
D03*
X2250000D02*
D03*
X2130000D02*
D03*
X2700000Y300000D02*
D03*
X2580000D02*
D03*
X7250000Y1380000D02*
D03*
X7860000Y1670000D02*
D03*
X990000Y950000D02*
D03*
X5020000Y2250000D02*
D03*
X3800000Y5800000D02*
D03*
X2600000Y2700000D02*
D03*
X2700000Y2850000D02*
D03*
X2720000Y950000D02*
D03*
X2570000Y2120000D02*
D03*
X2020000Y1730000D02*
D03*
X2320000Y1350000D02*
D03*
X2730000Y1300000D02*
D03*
X2600000D02*
D03*
X5130000Y2390000D02*
D03*
X2250000Y5450000D02*
D03*
X1750000Y160000D02*
D03*
X2630000Y1710000D02*
D03*
X2000000Y4500000D02*
D03*
X2150000Y4550000D02*
D03*
X2490000Y3800000D02*
D03*
X2480000Y810000D02*
D03*
X6513373Y2109211D02*
D03*
X6240000Y2260000D02*
D03*
X3250000Y810000D02*
D03*
X3030000Y810000D02*
D03*
X2360000D02*
D03*
X2910000D02*
D03*
X2200000Y780000D02*
D03*
X1900000Y250000D02*
D03*
X1650000D02*
D03*
X5700000Y2800000D02*
D03*
X5600000Y2700000D02*
D03*
X5500000Y2800000D02*
D03*
X5920000Y3200000D02*
D03*
X5780000D02*
D03*
X2840000Y1150000D02*
D03*
X2800000Y1790000D02*
D03*
X2450000Y2800000D02*
D03*
X3050000Y2430000D02*
D03*
Y2300000D02*
D03*
X2230000Y2560000D02*
D03*
X1900000Y2390000D02*
D03*
X4120000Y2470000D02*
D03*
X8900000Y550000D02*
D03*
Y700000D02*
D03*
X7350000Y1550000D02*
D03*
X5800000Y3500000D02*
D03*
X7550000Y1400000D02*
D03*
X5100000Y5650000D02*
D03*
X8840000Y7050000D02*
D03*
X7510000Y6665000D02*
D03*
X8410000Y6200000D02*
D03*
X8160000Y6190000D02*
D03*
X6930000Y6150000D02*
D03*
X6680000D02*
D03*
X5200000Y6190000D02*
D03*
X4970000Y6200000D02*
D03*
X3650000Y6150000D02*
D03*
X3410000Y6190000D02*
D03*
X2700000Y5500000D02*
D03*
X1850000Y5550000D02*
D03*
Y5430000D02*
D03*
X5910000Y6665000D02*
D03*
X4310000D02*
D03*
X2710000D02*
D03*
X1110000D02*
D03*
X1335000Y4660000D02*
D03*
Y3060000D02*
D03*
X7400000Y4250000D02*
D03*
X7500000Y4150000D02*
D03*
X7400000Y4040000D02*
D03*
X7500000Y3500000D02*
D03*
X7400000Y2400000D02*
D03*
Y2600000D02*
D03*
X7500000Y2700000D02*
D03*
X7400000Y2800000D02*
D03*
X7500000Y2900000D02*
D03*
X7400000Y3000000D02*
D03*
X7500000Y3100000D02*
D03*
X7800000Y2400000D02*
D03*
X7680000Y2660000D02*
D03*
X8450000Y2900000D02*
D03*
X7800000Y2800000D02*
D03*
X7900000Y2900000D02*
D03*
X7800000Y3000000D02*
D03*
X7900000Y3100000D02*
D03*
X7800000Y3200000D02*
D03*
Y3800000D02*
D03*
X7900000Y3700000D02*
D03*
X7800000Y3600000D02*
D03*
X7900000Y3500000D02*
D03*
X7800000Y3390000D02*
D03*
X7900000Y4150000D02*
D03*
X7800000Y4250000D02*
D03*
X7900000Y4350000D02*
D03*
X2980000Y330000D02*
D03*
X2800000Y200000D02*
D03*
X2300000Y300000D02*
D03*
X2000000Y730000D02*
D03*
X2790000Y2210000D02*
D03*
X1400000Y282500D02*
D03*
X3850000Y1850000D02*
D03*
X3700000D02*
D03*
X3500000Y5590000D02*
D03*
X3160000D02*
D03*
X2990000D02*
D03*
X3670000D02*
D03*
X2820000D02*
D03*
X3080000Y5700000D02*
D03*
X3590000D02*
D03*
X2500000Y5350000D02*
D03*
Y5150000D02*
D03*
X2600000Y5050000D02*
D03*
X2500000Y4950000D02*
D03*
X2400000Y5050000D02*
D03*
X2300000Y4950000D02*
D03*
X2200000Y5050000D02*
D03*
X2100000Y4950000D02*
D03*
X2000000Y4850000D02*
D03*
X2100000Y4740000D02*
D03*
X2000000Y4650000D02*
D03*
X2200000Y4300000D02*
D03*
Y4100000D02*
D03*
X2300000Y4000000D02*
D03*
X2200000Y3900000D02*
D03*
X2300000Y3800000D02*
D03*
X2200000Y3700000D02*
D03*
X2050000Y3100000D02*
D03*
X1950000Y3000000D02*
D03*
X4200000Y5650000D02*
D03*
X4500000Y5800000D02*
D03*
X4550000Y5650000D02*
D03*
X5550000Y5250000D02*
D03*
X5900000Y3590000D02*
D03*
X6150000Y4150000D02*
D03*
Y4750000D02*
D03*
Y4550000D02*
D03*
Y3950000D02*
D03*
Y4350000D02*
D03*
X6250000Y3850000D02*
D03*
Y4650000D02*
D03*
Y4040000D02*
D03*
Y4450000D02*
D03*
Y4250000D02*
D03*
X4690000Y2450000D02*
D03*
X4750000Y2250000D02*
D03*
X4650000Y2150000D02*
D03*
X4550000Y2250000D02*
D03*
X4450000Y2150000D02*
D03*
X4350000Y2250000D02*
D03*
X4250000Y2150000D02*
D03*
X3250000Y2250000D02*
D03*
X3380000Y2000000D02*
D03*
X2950000Y2210000D02*
D03*
X3375000Y2125000D02*
D03*
X3250000D02*
D03*
X4060000Y3910000D02*
D03*
X4435000D02*
D03*
X4810000D02*
D03*
X3310000D02*
D03*
X3685000D02*
D03*
X4060000Y4660000D02*
D03*
Y4285000D02*
D03*
Y3160000D02*
D03*
Y3535000D02*
D03*
X3685000Y4285000D02*
D03*
X3310000D02*
D03*
X4810000D02*
D03*
X4435000D02*
D03*
X3685000Y4660000D02*
D03*
X3310000D02*
D03*
X4810000D02*
D03*
X4435000D02*
D03*
X3685000Y3535000D02*
D03*
X3310000D02*
D03*
X4810000D02*
D03*
X4435000D02*
D03*
X3685000Y3160000D02*
D03*
X3310000D02*
D03*
X4810000D02*
D03*
X4435000D02*
D03*
X3100000Y270000D02*
D03*
X3290000Y300000D02*
D03*
X3450000Y340000D02*
D03*
X3610000Y300000D02*
D03*
X3880000Y350000D02*
D03*
X7240000Y7050000D02*
D03*
X5640000D02*
D03*
X4040000D02*
D03*
X2440000D02*
D03*
X950000Y5990000D02*
D03*
Y4390000D02*
D03*
Y2790000D02*
D03*
D139*
X4935000Y2805000D02*
D03*
X4885000D02*
D03*
X4835000D02*
D03*
X4785000D02*
D03*
X4735000D02*
D03*
X4685000D02*
D03*
X4635000D02*
D03*
X4585000D02*
D03*
X4535000D02*
D03*
X4485000D02*
D03*
X4435000D02*
D03*
X4385000D02*
D03*
X4335000D02*
D03*
X4285000D02*
D03*
X4235000D02*
D03*
X4185000D02*
D03*
X4135000D02*
D03*
X4085000D02*
D03*
X4035000D02*
D03*
X3985000D02*
D03*
X3935000D02*
D03*
X3885000D02*
D03*
X3835000D02*
D03*
X3785000D02*
D03*
X3735000D02*
D03*
X3685000D02*
D03*
X3635000D02*
D03*
X3585000D02*
D03*
X3535000D02*
D03*
X3485000D02*
D03*
X3435000D02*
D03*
X3385000D02*
D03*
X3335000D02*
D03*
X3285000D02*
D03*
X3235000D02*
D03*
X3185000D02*
D03*
Y5015000D02*
D03*
X3235000D02*
D03*
X3285000D02*
D03*
X3335000D02*
D03*
X3385000D02*
D03*
X3435000D02*
D03*
X3485000D02*
D03*
X3535000D02*
D03*
X3585000D02*
D03*
X3635000D02*
D03*
X3685000D02*
D03*
X3735000D02*
D03*
X3785000D02*
D03*
X3835000D02*
D03*
X3885000D02*
D03*
X3935000D02*
D03*
X3985000D02*
D03*
X4035000D02*
D03*
X4085000D02*
D03*
X4135000D02*
D03*
X4185000D02*
D03*
X4235000D02*
D03*
X4285000D02*
D03*
X4335000D02*
D03*
X4385000D02*
D03*
X4435000D02*
D03*
X4485000D02*
D03*
X4535000D02*
D03*
X4585000D02*
D03*
X4635000D02*
D03*
X4685000D02*
D03*
X4735000D02*
D03*
X4785000D02*
D03*
X4835000D02*
D03*
X4885000D02*
D03*
X4935000D02*
D03*
D140*
X2955000Y3035000D02*
D03*
Y3085000D02*
D03*
Y3135000D02*
D03*
Y3185000D02*
D03*
Y3235000D02*
D03*
Y3285000D02*
D03*
Y3335000D02*
D03*
Y3385000D02*
D03*
Y3435000D02*
D03*
Y3485000D02*
D03*
Y3535000D02*
D03*
Y3585000D02*
D03*
Y3635000D02*
D03*
Y3685000D02*
D03*
Y3735000D02*
D03*
Y3785000D02*
D03*
Y3835000D02*
D03*
Y3885000D02*
D03*
Y3935000D02*
D03*
Y3985000D02*
D03*
Y4035000D02*
D03*
Y4085000D02*
D03*
Y4135000D02*
D03*
Y4185000D02*
D03*
Y4235000D02*
D03*
Y4285000D02*
D03*
Y4335000D02*
D03*
Y4385000D02*
D03*
Y4435000D02*
D03*
Y4485000D02*
D03*
Y4535000D02*
D03*
Y4585000D02*
D03*
Y4635000D02*
D03*
Y4685000D02*
D03*
Y4735000D02*
D03*
Y4785000D02*
D03*
X5165000D02*
D03*
Y4735000D02*
D03*
Y4685000D02*
D03*
Y4635000D02*
D03*
Y4585000D02*
D03*
Y4535000D02*
D03*
Y4485000D02*
D03*
Y4435000D02*
D03*
Y4385000D02*
D03*
Y4335000D02*
D03*
Y4285000D02*
D03*
Y4235000D02*
D03*
Y4185000D02*
D03*
Y4135000D02*
D03*
Y4085000D02*
D03*
Y4035000D02*
D03*
Y3985000D02*
D03*
Y3935000D02*
D03*
Y3885000D02*
D03*
Y3835000D02*
D03*
Y3785000D02*
D03*
Y3735000D02*
D03*
Y3685000D02*
D03*
Y3635000D02*
D03*
Y3585000D02*
D03*
Y3535000D02*
D03*
Y3485000D02*
D03*
Y3435000D02*
D03*
Y3385000D02*
D03*
Y3335000D02*
D03*
Y3285000D02*
D03*
Y3235000D02*
D03*
Y3185000D02*
D03*
Y3135000D02*
D03*
Y3085000D02*
D03*
Y3035000D02*
D03*
D141*
X5610000Y5710000D02*
D03*
X5330000D02*
D03*
X1960000Y5220000D02*
D03*
X2240000D02*
D03*
D142*
X8165000Y2270000D02*
D03*
X7000000D02*
D03*
Y2350000D02*
D03*
Y2430000D02*
D03*
Y2510000D02*
D03*
Y2590000D02*
D03*
Y2670000D02*
D03*
Y2750000D02*
D03*
Y2830000D02*
D03*
Y2910000D02*
D03*
Y2990000D02*
D03*
Y3070000D02*
D03*
Y3150000D02*
D03*
Y3230000D02*
D03*
Y3310000D02*
D03*
Y3390000D02*
D03*
Y3470000D02*
D03*
Y3550000D02*
D03*
Y3630000D02*
D03*
Y3710000D02*
D03*
Y3790000D02*
D03*
Y3870000D02*
D03*
Y3950000D02*
D03*
Y4030000D02*
D03*
Y4110000D02*
D03*
Y4190000D02*
D03*
Y4270000D02*
D03*
Y4350000D02*
D03*
X8165000Y4270000D02*
D03*
Y4190000D02*
D03*
Y4110000D02*
D03*
Y4030000D02*
D03*
Y3950000D02*
D03*
Y3870000D02*
D03*
Y3790000D02*
D03*
Y3710000D02*
D03*
Y3630000D02*
D03*
Y3550000D02*
D03*
Y3470000D02*
D03*
Y3390000D02*
D03*
Y3310000D02*
D03*
Y3230000D02*
D03*
Y3150000D02*
D03*
Y3070000D02*
D03*
Y2990000D02*
D03*
Y2910000D02*
D03*
Y2830000D02*
D03*
Y2750000D02*
D03*
Y2670000D02*
D03*
Y2590000D02*
D03*
Y2510000D02*
D03*
Y2430000D02*
D03*
Y2350000D02*
D03*
D143*
Y4350000D02*
D03*
D144*
X8450000Y1880000D02*
D03*
X8300000D02*
D03*
D145*
X9300000Y2109320D02*
D03*
Y1200000D02*
D03*
D146*
X7950000Y1451000D02*
D03*
X8045000D02*
D03*
X8140000D02*
D03*
X7950000Y1200000D02*
D03*
X8045000D02*
D03*
X8140000D02*
D03*
D147*
X7700000Y905000D02*
D03*
Y1200000D02*
D03*
X7400000Y905000D02*
D03*
Y1200000D02*
D03*
D148*
X3915000Y147500D02*
D03*
X3682500D02*
D03*
X3450000D02*
D03*
X3217500D02*
D03*
X2985000D02*
D03*
X1400000Y130000D02*
D03*
%TF.MD5,9131fed81e08175e59cac830e3a4b847*%
M02*
