%TF.GenerationSoftware,Altium Limited,Altium Designer,23.11.1 (41)*%
G04 Layer_Physical_Order=2*
G04 Layer_Color=36540*
%FSLAX45Y45*%
%MOMM*%
%TF.SameCoordinates,93787688-83E1-42C5-93B8-12A4BFDEF0D2*%
%TF.FilePolarity,Positive*%
%TF.FileFunction,Copper,L2,Inr,Signal*%
%TF.Part,Single*%
G01*
G75*
%TA.AperFunction,Conductor*%
%ADD32C,0.30000*%
%TA.AperFunction,ComponentPad*%
%ADD36C,1.80000*%
G04:AMPARAMS|DCode=37|XSize=1.8mm|YSize=1.8mm|CornerRadius=0.45mm|HoleSize=0mm|Usage=FLASHONLY|Rotation=90.000|XOffset=0mm|YOffset=0mm|HoleType=Round|Shape=RoundedRectangle|*
%AMROUNDEDRECTD37*
21,1,1.80000,0.90000,0,0,90.0*
21,1,0.90000,1.80000,0,0,90.0*
1,1,0.90000,0.45000,0.45000*
1,1,0.90000,0.45000,-0.45000*
1,1,0.90000,-0.45000,-0.45000*
1,1,0.90000,-0.45000,0.45000*
%
%ADD37ROUNDEDRECTD37*%
G04:AMPARAMS|DCode=38|XSize=1.8mm|YSize=1.8mm|CornerRadius=0.45mm|HoleSize=0mm|Usage=FLASHONLY|Rotation=0.000|XOffset=0mm|YOffset=0mm|HoleType=Round|Shape=RoundedRectangle|*
%AMROUNDEDRECTD38*
21,1,1.80000,0.90000,0,0,0.0*
21,1,0.90000,1.80000,0,0,0.0*
1,1,0.90000,0.45000,-0.45000*
1,1,0.90000,-0.45000,-0.45000*
1,1,0.90000,-0.45000,0.45000*
1,1,0.90000,0.45000,0.45000*
%
%ADD38ROUNDEDRECTD38*%
%ADD39C,7.00000*%
%ADD40O,2.60000X3.30000*%
G04:AMPARAMS|DCode=41|XSize=2.6mm|YSize=3.3mm|CornerRadius=0.325mm|HoleSize=0mm|Usage=FLASHONLY|Rotation=0.000|XOffset=0mm|YOffset=0mm|HoleType=Round|Shape=RoundedRectangle|*
%AMROUNDEDRECTD41*
21,1,2.60000,2.65000,0,0,0.0*
21,1,1.95000,3.30000,0,0,0.0*
1,1,0.65000,0.97500,-1.32500*
1,1,0.65000,-0.97500,-1.32500*
1,1,0.65000,-0.97500,1.32500*
1,1,0.65000,0.97500,1.32500*
%
%ADD41ROUNDEDRECTD41*%
%ADD42O,2.50000X2.00000*%
G04:AMPARAMS|DCode=43|XSize=1.7mm|YSize=2mm|CornerRadius=0.2125mm|HoleSize=0mm|Usage=FLASHONLY|Rotation=270.000|XOffset=0mm|YOffset=0mm|HoleType=Round|Shape=RoundedRectangle|*
%AMROUNDEDRECTD43*
21,1,1.70000,1.57500,0,0,270.0*
21,1,1.27500,2.00000,0,0,270.0*
1,1,0.42500,-0.78750,-0.63750*
1,1,0.42500,-0.78750,0.63750*
1,1,0.42500,0.78750,0.63750*
1,1,0.42500,0.78750,-0.63750*
%
%ADD43ROUNDEDRECTD43*%
%ADD44O,2.00000X1.70000*%
%ADD45C,1.60000*%
%ADD46C,2.00000*%
%ADD47C,3.00000*%
G04:AMPARAMS|DCode=48|XSize=1.8mm|YSize=2.5mm|CornerRadius=0.45mm|HoleSize=0mm|Usage=FLASHONLY|Rotation=180.000|XOffset=0mm|YOffset=0mm|HoleType=Round|Shape=RoundedRectangle|*
%AMROUNDEDRECTD48*
21,1,1.80000,1.60000,0,0,180.0*
21,1,0.90000,2.50000,0,0,180.0*
1,1,0.90000,-0.45000,0.80000*
1,1,0.90000,0.45000,0.80000*
1,1,0.90000,0.45000,-0.80000*
1,1,0.90000,-0.45000,-0.80000*
%
%ADD48ROUNDEDRECTD48*%
%ADD49O,1.80000X2.50000*%
%ADD50O,2.50000X1.80000*%
G04:AMPARAMS|DCode=51|XSize=1.8mm|YSize=2.5mm|CornerRadius=0.45mm|HoleSize=0mm|Usage=FLASHONLY|Rotation=90.000|XOffset=0mm|YOffset=0mm|HoleType=Round|Shape=RoundedRectangle|*
%AMROUNDEDRECTD51*
21,1,1.80000,1.60000,0,0,90.0*
21,1,0.90000,2.50000,0,0,90.0*
1,1,0.90000,0.80000,0.45000*
1,1,0.90000,0.80000,-0.45000*
1,1,0.90000,-0.80000,-0.45000*
1,1,0.90000,-0.80000,0.45000*
%
%ADD51ROUNDEDRECTD51*%
%TA.AperFunction,ViaPad*%
%ADD52C,1.00000*%
G36*
X4865296Y4819767D02*
X4876873Y4812031D01*
X4890530Y4809315D01*
X6057228D01*
X6070853Y4793338D01*
X6082706Y4769315D01*
X6080000Y4759216D01*
Y4740784D01*
X6084770Y4722981D01*
X6093986Y4707019D01*
X6107019Y4693986D01*
X6122981Y4684770D01*
X6140784Y4680000D01*
X6144158D01*
X6150327Y4676423D01*
X6158529Y4654938D01*
X6136859Y4618948D01*
X6122981Y4615230D01*
X6107019Y4606014D01*
X6093986Y4592981D01*
X6084770Y4577019D01*
X6080000Y4559216D01*
Y4540784D01*
X6084770Y4522981D01*
X6093986Y4507019D01*
X6107019Y4493986D01*
X6122981Y4484771D01*
X6136859Y4481052D01*
X6158529Y4445062D01*
X6150327Y4423577D01*
X6144158Y4420000D01*
X6140784D01*
X6122981Y4415229D01*
X6107019Y4406014D01*
X6093986Y4392981D01*
X6084770Y4377019D01*
X6080000Y4359216D01*
Y4340784D01*
X6084770Y4322981D01*
X6093986Y4307019D01*
X6107019Y4293986D01*
X6122981Y4284770D01*
X6138499Y4280612D01*
X6155747Y4250000D01*
X6138499Y4219388D01*
X6122981Y4215230D01*
X6107019Y4206014D01*
X6093986Y4192981D01*
X6084770Y4177019D01*
X6080000Y4159216D01*
Y4140784D01*
X6084770Y4122981D01*
X6093986Y4107019D01*
X6107019Y4093986D01*
X6122981Y4084771D01*
X6133276Y4082012D01*
X6159422Y4046595D01*
X6160295Y4045031D01*
X6156486Y4031842D01*
X6149751Y4022316D01*
X6141479Y4020000D01*
X6140784D01*
X6122981Y4015229D01*
X6107019Y4006014D01*
X6093986Y3992981D01*
X6084770Y3977019D01*
X6080000Y3959216D01*
Y3940784D01*
X6084770Y3922981D01*
X6093986Y3907019D01*
X6107019Y3893986D01*
X6122981Y3884770D01*
X6140784Y3880000D01*
X6144158D01*
X6166844Y3866844D01*
X6180000Y3844158D01*
Y3840784D01*
X6184770Y3822981D01*
X6193986Y3807019D01*
X6207019Y3793986D01*
X6222981Y3784770D01*
X6240784Y3780000D01*
X6259216D01*
X6277019Y3784770D01*
X6292981Y3793986D01*
X6306014Y3807019D01*
X6315229Y3822981D01*
X6320000Y3840784D01*
Y3859216D01*
X6315229Y3877019D01*
X6306014Y3892981D01*
X6292981Y3906014D01*
X6277019Y3915229D01*
X6259216Y3920000D01*
X6253073Y3945771D01*
X6264101Y3971309D01*
X6277019Y3974771D01*
X6292981Y3983986D01*
X6306014Y3997019D01*
X6315229Y4012981D01*
X6320000Y4030784D01*
Y4049216D01*
X6315229Y4067019D01*
X6306014Y4082981D01*
X6292981Y4096014D01*
X6277019Y4105230D01*
X6259216Y4110000D01*
X6233805Y4142526D01*
X6235548Y4153954D01*
X6244305Y4173310D01*
X6255842Y4180000D01*
X6259216D01*
X6277019Y4184770D01*
X6292981Y4193986D01*
X6306014Y4207019D01*
X6315229Y4222981D01*
X6320000Y4240784D01*
Y4259216D01*
X6315229Y4277019D01*
X6306014Y4292981D01*
X6292981Y4306014D01*
X6277019Y4315229D01*
X6263141Y4318948D01*
X6241471Y4354938D01*
X6249673Y4376423D01*
X6255842Y4380000D01*
X6259216D01*
X6277019Y4384771D01*
X6292981Y4393986D01*
X6306014Y4407019D01*
X6315229Y4422981D01*
X6320000Y4440784D01*
Y4459216D01*
X6315229Y4477019D01*
X6306014Y4492981D01*
X6292981Y4506014D01*
X6277019Y4515229D01*
X6263141Y4518948D01*
X6241471Y4554938D01*
X6249673Y4576423D01*
X6255842Y4580000D01*
X6259216D01*
X6277019Y4584771D01*
X6292981Y4593986D01*
X6306014Y4607019D01*
X6315229Y4622981D01*
X6320000Y4640784D01*
Y4657965D01*
X6323004Y4660787D01*
X6356321Y4678212D01*
X7066814Y3967719D01*
Y3679082D01*
X7069531Y3665425D01*
X7077266Y3653848D01*
X7318473Y3412641D01*
X7303166Y3375686D01*
X7247500D01*
X7233844Y3372969D01*
X7222267Y3365234D01*
X6930219Y3073186D01*
X6595000D01*
X6581344Y3070469D01*
X6569766Y3062734D01*
X6487718Y2980685D01*
X6251068D01*
X6242622Y2988625D01*
X6226941Y3020686D01*
X6228327Y3024032D01*
X6230561Y3041000D01*
Y3131000D01*
X6228327Y3147968D01*
X6221777Y3163780D01*
X6211358Y3177358D01*
X6197780Y3187777D01*
X6181968Y3194327D01*
X6165000Y3196561D01*
X6164232D01*
X6158965Y3236560D01*
X6162458Y3237496D01*
X6187541Y3251978D01*
X6208022Y3272459D01*
X6222503Y3297542D01*
X6230000Y3325518D01*
Y3354482D01*
X6222503Y3382458D01*
X6208022Y3407541D01*
X6187541Y3428022D01*
X6162458Y3442503D01*
X6158742Y3443499D01*
Y3484910D01*
X6164543Y3486464D01*
X6190857Y3501657D01*
X6212343Y3523143D01*
X6227535Y3549457D01*
X6232772Y3569000D01*
X6120000D01*
Y3594000D01*
X6095000D01*
Y3706772D01*
X6075457Y3701535D01*
X6049143Y3686343D01*
X6027657Y3664857D01*
X6012464Y3638543D01*
X6006669Y3616913D01*
X5980252Y3611730D01*
X5966256Y3613189D01*
X5965229Y3617019D01*
X5956014Y3632981D01*
X5942981Y3646014D01*
X5927019Y3655229D01*
X5909216Y3660000D01*
X5890784D01*
X5872981Y3655229D01*
X5857019Y3646014D01*
X5843986Y3632981D01*
X5834770Y3617019D01*
X5830000Y3599216D01*
X5813627Y3576201D01*
X5791479Y3570000D01*
X5790784D01*
X5772981Y3565230D01*
X5757019Y3556014D01*
X5743986Y3542981D01*
X5734771Y3527019D01*
X5730000Y3509216D01*
Y3490784D01*
X5734771Y3472981D01*
X5743986Y3457019D01*
X5757019Y3443986D01*
X5772981Y3434771D01*
X5790784Y3430000D01*
X5809216D01*
X5827019Y3434771D01*
X5842981Y3443986D01*
X5856014Y3457019D01*
X5865230Y3472981D01*
X5870000Y3490784D01*
X5886373Y3513799D01*
X5908521Y3520000D01*
X5909216D01*
X5927019Y3524770D01*
X5942981Y3533986D01*
X5956014Y3547019D01*
X5965229Y3562981D01*
X5966329Y3567087D01*
X6007741D01*
X6012464Y3549457D01*
X6027657Y3523143D01*
X6049143Y3501657D01*
X6075457Y3486464D01*
X6081258Y3484910D01*
Y3443499D01*
X6077542Y3442503D01*
X6052459Y3428022D01*
X6031978Y3407541D01*
X6017496Y3382458D01*
X6010000Y3354482D01*
Y3325518D01*
X6017496Y3297542D01*
X6031978Y3272459D01*
X6052459Y3251978D01*
X6077542Y3237496D01*
X6081035Y3236560D01*
X6075768Y3196561D01*
X6075000D01*
X6058032Y3194327D01*
X6042220Y3187777D01*
X6028642Y3177358D01*
X5992940Y3189992D01*
X5990000Y3192707D01*
Y3209216D01*
X5985230Y3227019D01*
X5976014Y3242981D01*
X5962981Y3256014D01*
X5947019Y3265229D01*
X5929216Y3270000D01*
X5910784D01*
X5892981Y3265229D01*
X5877019Y3256014D01*
X5875535Y3254529D01*
X5850000Y3247068D01*
X5824466Y3254529D01*
X5822981Y3256014D01*
X5807019Y3265229D01*
X5789216Y3270000D01*
X5770784D01*
X5752981Y3265229D01*
X5737019Y3256014D01*
X5723986Y3242981D01*
X5714771Y3227019D01*
X5710000Y3209216D01*
Y3190784D01*
X5714771Y3172981D01*
X5723986Y3157019D01*
X5737019Y3143986D01*
X5752981Y3134770D01*
X5754723Y3134304D01*
X5750000Y3095685D01*
X3304574D01*
X2785686Y3614573D01*
Y4210000D01*
X2782969Y4223656D01*
X2775234Y4235234D01*
X2685234Y4325234D01*
X2673656Y4332969D01*
X2660000Y4335686D01*
X2260226D01*
X2256014Y4342981D01*
X2246919Y4352076D01*
X2242851Y4361496D01*
X2241926Y4400541D01*
X2310234Y4468848D01*
X2317969Y4480425D01*
X2320686Y4494082D01*
Y4622279D01*
X2339493Y4634688D01*
X2360686Y4640811D01*
X2366344Y4637031D01*
X2380000Y4634314D01*
X3107131D01*
X3120787Y4637031D01*
X3132365Y4644766D01*
X3389414Y4901815D01*
X4783247D01*
X4865296Y4819767D01*
D02*
G37*
G36*
X2295634Y3650140D02*
X3129315Y2816458D01*
Y2506248D01*
X3104381Y2492363D01*
X3089315Y2488130D01*
X3077019Y2495229D01*
X3059216Y2500000D01*
X3040784D01*
X3022981Y2495229D01*
X3007019Y2486014D01*
X2993986Y2472981D01*
X2984771Y2457019D01*
X2980000Y2439216D01*
Y2420784D01*
X2984771Y2402981D01*
X2990670Y2392763D01*
X3003021Y2365000D01*
X2990670Y2337237D01*
X2984771Y2327019D01*
X2980000Y2309216D01*
X2963627Y2286200D01*
X2941479Y2280000D01*
X2940784D01*
X2922981Y2275229D01*
X2907019Y2266014D01*
X2893986Y2252981D01*
X2892087Y2249691D01*
X2886953Y2247926D01*
X2853047D01*
X2847913Y2249691D01*
X2846014Y2252981D01*
X2832981Y2266014D01*
X2817019Y2275229D01*
X2799216Y2280000D01*
X2780784D01*
X2762981Y2275229D01*
X2747019Y2266014D01*
X2733986Y2252981D01*
X2724771Y2237019D01*
X2724337Y2235401D01*
X2685554Y2221695D01*
X2681158Y2222012D01*
X2350686Y2552484D01*
Y2752017D01*
X2390686Y2762735D01*
X2393986Y2757019D01*
X2407019Y2743986D01*
X2422981Y2734771D01*
X2440784Y2730000D01*
X2459216D01*
X2477019Y2734771D01*
X2489518Y2741987D01*
X2503146Y2745625D01*
X2530986Y2712895D01*
X2530001Y2709220D01*
X2530000Y2709216D01*
X2530000Y2707602D01*
Y2690784D01*
X2534770Y2672981D01*
X2543986Y2657019D01*
X2557019Y2643986D01*
X2572981Y2634770D01*
X2590784Y2630000D01*
X2609216D01*
X2627019Y2634770D01*
X2642981Y2643986D01*
X2656014Y2657019D01*
X2665229Y2672981D01*
X2670000Y2690784D01*
Y2709216D01*
X2665229Y2727019D01*
X2658013Y2739518D01*
X2654375Y2753146D01*
X2687105Y2780986D01*
X2690780Y2780001D01*
X2690784Y2780000D01*
X2692398Y2780000D01*
X2709216D01*
X2727019Y2784770D01*
X2742981Y2793986D01*
X2756014Y2807019D01*
X2765229Y2822981D01*
X2770000Y2840784D01*
Y2859216D01*
X2765229Y2877019D01*
X2756014Y2892981D01*
X2742981Y2906014D01*
X2727019Y2915229D01*
X2709216Y2920000D01*
X2690784D01*
X2672981Y2915229D01*
X2657019Y2906014D01*
X2643986Y2892981D01*
X2634770Y2877019D01*
X2630000Y2859216D01*
Y2840784D01*
X2634770Y2822981D01*
X2641987Y2810482D01*
X2645625Y2796854D01*
X2612895Y2769014D01*
X2609220Y2769999D01*
X2609216Y2770000D01*
X2607602Y2770000D01*
X2590784D01*
X2572981Y2765229D01*
X2560482Y2758013D01*
X2546854Y2754375D01*
X2519014Y2787105D01*
X2519999Y2790780D01*
X2520000Y2790784D01*
X2520000Y2792398D01*
Y2809216D01*
X2515229Y2827019D01*
X2506014Y2842981D01*
X2492981Y2856014D01*
X2477019Y2865229D01*
X2459216Y2870000D01*
X2440784D01*
X2422981Y2865229D01*
X2407019Y2856014D01*
X2393986Y2842981D01*
X2390686Y2837265D01*
X2350686Y2847983D01*
Y3038439D01*
X2347969Y3052095D01*
X2340234Y3063673D01*
X2193674Y3210233D01*
X2182096Y3217968D01*
X2168440Y3220685D01*
X2149038D01*
X2138987Y3231563D01*
X2125714Y3260685D01*
X2128588Y3267622D01*
X2131007Y3286000D01*
Y3306000D01*
X2015000D01*
Y3356000D01*
X2131007D01*
Y3376000D01*
X2128588Y3394378D01*
X2121494Y3411504D01*
X2110210Y3426210D01*
X2095503Y3437494D01*
X2078378Y3444588D01*
X2070169Y3445668D01*
X2065047Y3460509D01*
X2064208Y3486394D01*
X2082541Y3496978D01*
X2103021Y3517459D01*
X2117503Y3542542D01*
X2125000Y3570518D01*
Y3599482D01*
X2117503Y3627458D01*
X2150228Y3650777D01*
X2157019Y3643986D01*
X2172981Y3634770D01*
X2190784Y3630000D01*
X2209216D01*
X2227019Y3634770D01*
X2242981Y3643986D01*
X2256014Y3657019D01*
X2295634Y3650140D01*
D02*
G37*
G36*
X7279314Y2976584D02*
Y2964792D01*
X7282031Y2951136D01*
X7289766Y2939559D01*
X7338066Y2891259D01*
X7351645Y2866007D01*
X7343986Y2842981D01*
X7334770Y2827019D01*
X7330000Y2809216D01*
Y2790785D01*
X7291396Y2780686D01*
X6768546D01*
X6761991Y2785072D01*
X6739974Y2820686D01*
X6740000Y2820784D01*
Y2839216D01*
X6735230Y2857019D01*
X6732461Y2861814D01*
X6745617Y2893360D01*
X6753749Y2901814D01*
X7137500D01*
X7151156Y2904531D01*
X7162734Y2912266D01*
X7242359Y2991892D01*
X7279314Y2976584D01*
D02*
G37*
G36*
X5667100Y1927359D02*
X5317500Y1577759D01*
X5289903Y1585663D01*
X5276420Y1593248D01*
X5272730Y1607019D01*
X5263514Y1622980D01*
X5252954Y1640000D01*
X5263514Y1657019D01*
X5272730Y1672981D01*
X5277500Y1690784D01*
Y1709216D01*
X5272730Y1727019D01*
X5263514Y1742981D01*
X5250481Y1756014D01*
X5234519Y1765229D01*
X5216716Y1770000D01*
X5198284D01*
X5180481Y1765229D01*
X5164519Y1756014D01*
X5151486Y1742981D01*
X5142271Y1727019D01*
X5137500Y1709216D01*
Y1690784D01*
X5142271Y1672981D01*
X5145537Y1667324D01*
X5114648Y1640825D01*
X5107019Y1645229D01*
X5089216Y1650000D01*
X5070784D01*
X5052981Y1645229D01*
X5037019Y1636014D01*
X5023986Y1622981D01*
X5014771Y1607019D01*
X5010000Y1589216D01*
Y1570784D01*
X5010027Y1570686D01*
X4988009Y1535072D01*
X4981455Y1530686D01*
X4099573D01*
X3884811Y1745448D01*
X3883278Y1753184D01*
X3892892Y1793935D01*
X3892981Y1793986D01*
X3906014Y1807019D01*
X3915229Y1822981D01*
X3920000Y1840784D01*
Y1859216D01*
X3915229Y1877019D01*
X3906014Y1892981D01*
X3892981Y1906014D01*
X3877019Y1915230D01*
X3859216Y1920000D01*
X3840784D01*
X3822981Y1915230D01*
X3807019Y1906014D01*
X3799195Y1898190D01*
X3775000Y1895271D01*
X3750805Y1898190D01*
X3742981Y1906014D01*
X3727019Y1915230D01*
X3709216Y1920000D01*
X3690784D01*
X3672981Y1915230D01*
X3657019Y1906014D01*
X3643986Y1892981D01*
X3634770Y1877019D01*
X3630000Y1859216D01*
Y1840784D01*
X3630027Y1840686D01*
X3608009Y1805072D01*
X3601455Y1800686D01*
X3504575D01*
X3410869Y1894391D01*
X3409813Y1905474D01*
X3419724Y1942106D01*
X3422981Y1943986D01*
X3436014Y1957019D01*
X3440226Y1964314D01*
X4115860D01*
X4190407Y1889767D01*
X4201984Y1882031D01*
X4215641Y1879315D01*
X5242713D01*
X5274816Y1879229D01*
X5280000Y1860784D01*
X5284770Y1842981D01*
X5293986Y1827019D01*
X5307019Y1813986D01*
X5322981Y1804771D01*
X5340784Y1800000D01*
X5359216D01*
X5377019Y1804771D01*
X5392981Y1813986D01*
X5406014Y1827019D01*
X5415229Y1842981D01*
X5420000Y1860784D01*
Y1879216D01*
X5415229Y1897019D01*
X5406014Y1912981D01*
X5394680Y1924315D01*
X5395147Y1932087D01*
X5406642Y1964315D01*
X5651793D01*
X5667100Y1927359D01*
D02*
G37*
G36*
X5878009Y1759929D02*
X5900027Y1724315D01*
X5900000Y1724216D01*
Y1705785D01*
X5904771Y1687982D01*
X5913986Y1672020D01*
X5918641Y1667365D01*
X5923679Y1642500D01*
X5918641Y1617636D01*
X5913986Y1612981D01*
X5904771Y1597019D01*
X5900000Y1579216D01*
Y1560784D01*
X5904771Y1542981D01*
X5913986Y1527019D01*
X5927019Y1513986D01*
X5942981Y1504770D01*
X5960784Y1500000D01*
X5962964D01*
X5979757Y1460224D01*
X5850219Y1330686D01*
X5435755D01*
X5420447Y1367641D01*
X5817121Y1764315D01*
X5871455D01*
X5878009Y1759929D01*
D02*
G37*
G36*
X7759397Y1684784D02*
X7790000Y1667784D01*
Y1660784D01*
X7794771Y1642981D01*
X7803986Y1627019D01*
X7817019Y1613986D01*
X7832981Y1604770D01*
X7850784Y1600000D01*
X7869216D01*
X7877352Y1602180D01*
X7964314Y1515218D01*
Y554781D01*
X7505218Y95686D01*
X2835700D01*
X2827019Y134771D01*
X2842981Y143986D01*
X2856014Y157019D01*
X2865229Y172981D01*
X2870000Y190784D01*
Y209216D01*
X2865229Y227019D01*
X2856014Y242981D01*
X2842981Y256014D01*
X2827019Y265230D01*
X2809216Y270000D01*
X2805842D01*
X2783156Y283155D01*
X2770000Y305842D01*
Y309216D01*
X2765229Y327019D01*
X2756014Y342981D01*
X2742981Y356014D01*
X2735686Y360226D01*
Y725219D01*
X2801434Y790967D01*
X2841157Y783647D01*
X2846691Y779655D01*
X2853986Y767019D01*
X2867019Y753986D01*
X2882981Y744771D01*
X2900785Y740000D01*
X2919216D01*
X2937019Y744771D01*
X2952981Y753986D01*
X2970000Y764546D01*
X2987019Y753986D01*
X3002981Y744771D01*
X3020785Y740000D01*
X3039216D01*
X3057019Y744771D01*
X3072981Y753986D01*
X3086014Y767019D01*
X3095230Y782981D01*
X3100000Y800785D01*
Y819216D01*
X3095230Y837019D01*
X3086014Y852981D01*
X3074681Y864314D01*
X3075148Y872089D01*
X3086643Y904314D01*
X3370208D01*
X3383864Y907031D01*
X3395442Y914766D01*
X3485234Y1004558D01*
X3492969Y1016135D01*
X3495686Y1029792D01*
Y1207279D01*
X3501896Y1212698D01*
X3533226Y1226307D01*
X3589766Y1169767D01*
X3601343Y1162031D01*
X3615000Y1159315D01*
X5906421D01*
X5920077Y1162031D01*
X5931655Y1169767D01*
X6191202Y1429314D01*
X7151455D01*
X7158009Y1424928D01*
X7180027Y1389314D01*
X7180000Y1389216D01*
Y1370784D01*
X7184770Y1352981D01*
X7193986Y1337019D01*
X7207019Y1323986D01*
X7222981Y1314771D01*
X7240784Y1310000D01*
X7259216D01*
X7277019Y1314771D01*
X7292981Y1323986D01*
X7306014Y1337019D01*
X7315229Y1352981D01*
X7320000Y1370784D01*
Y1389216D01*
X7319973Y1389314D01*
X7341991Y1424928D01*
X7348545Y1429314D01*
X7443974D01*
X7480000Y1409215D01*
Y1390784D01*
X7484770Y1372981D01*
X7493986Y1357019D01*
X7507019Y1343986D01*
X7522981Y1334771D01*
X7540784Y1330000D01*
X7559216D01*
X7577019Y1334771D01*
X7592981Y1343986D01*
X7606014Y1357019D01*
X7615229Y1372981D01*
X7620000Y1390784D01*
Y1409216D01*
X7615229Y1427019D01*
X7606014Y1442981D01*
X7592981Y1456014D01*
X7583629Y1461413D01*
X7575190Y1486019D01*
X7573288Y1507640D01*
X7751811Y1686164D01*
X7759397Y1684784D01*
D02*
G37*
G36*
X2080727Y1418598D02*
X2073724Y1379391D01*
X2069523Y1373233D01*
X2057019Y1366014D01*
X2043986Y1352981D01*
X2034771Y1337019D01*
X2030000Y1319216D01*
Y1300784D01*
X2034771Y1282981D01*
X2043986Y1267019D01*
X2057019Y1253986D01*
X2072981Y1244770D01*
X2090784Y1240000D01*
X2109216D01*
X2127019Y1244770D01*
X2142981Y1253986D01*
X2156014Y1267019D01*
X2163233Y1279523D01*
X2169391Y1283724D01*
X2208598Y1290726D01*
X2464558Y1034766D01*
X2476136Y1027031D01*
X2489792Y1024314D01*
X2638751D01*
X2648712Y1011945D01*
X2658982Y984314D01*
X2654770Y977019D01*
X2650000Y959216D01*
Y940784D01*
X2654770Y922981D01*
X2663986Y907019D01*
X2677019Y893986D01*
X2692981Y884770D01*
X2710784Y880000D01*
X2729216D01*
X2734336Y881372D01*
X2755042Y845509D01*
X2674766Y765234D01*
X2667031Y753656D01*
X2664314Y740000D01*
Y360226D01*
X2657019Y356014D01*
X2643986Y342981D01*
X2634770Y327019D01*
X2630000Y309216D01*
Y290784D01*
X2634046Y275686D01*
X2634128Y271969D01*
X2613447Y239409D01*
X2573778Y236897D01*
X2550442Y260234D01*
X2549187Y261072D01*
X2530686Y279573D01*
Y327500D01*
X2527969Y341157D01*
X2520233Y352734D01*
X2360234Y512734D01*
X2348656Y520469D01*
X2335000Y523186D01*
X2137074D01*
X2034812Y625448D01*
X2033279Y633184D01*
X2042893Y673935D01*
X2042981Y673986D01*
X2056014Y687019D01*
X2065230Y702981D01*
X2070000Y720784D01*
Y739216D01*
X2065230Y757019D01*
X2056014Y772981D01*
X2042981Y786014D01*
X2027019Y795230D01*
X2009216Y800000D01*
X1990784D01*
X1972981Y795230D01*
X1957019Y786014D01*
X1943986Y772981D01*
X1943935Y772893D01*
X1903184Y763279D01*
X1895448Y764812D01*
X1475686Y1184574D01*
Y1971377D01*
X1512641Y1986684D01*
X2080727Y1418598D01*
D02*
G37*
G36*
X9969412Y30588D02*
X7597624D01*
X7581055Y70588D01*
X8025234Y514766D01*
X8032969Y526344D01*
X8035686Y540000D01*
Y1530000D01*
X8032969Y1543656D01*
X8025234Y1555234D01*
X7927820Y1652648D01*
X7930000Y1660784D01*
Y1679216D01*
X7925230Y1697019D01*
X7916014Y1712981D01*
X7902981Y1726014D01*
X7887019Y1735229D01*
X7869216Y1740000D01*
X7862216D01*
X7845216Y1770603D01*
X7843836Y1778189D01*
X8475234Y2409586D01*
X8482969Y2421164D01*
X8485686Y2434820D01*
Y2839774D01*
X8492981Y2843986D01*
X8506014Y2857019D01*
X8515230Y2872981D01*
X8520000Y2890784D01*
Y2909216D01*
X8515230Y2927019D01*
X8506014Y2942981D01*
X8492981Y2956014D01*
X8477019Y2965230D01*
X8459216Y2970000D01*
X8440784D01*
X8422981Y2965230D01*
X8407019Y2956014D01*
X8393986Y2942981D01*
X8384771Y2927019D01*
X8380000Y2909216D01*
Y2890784D01*
X8384771Y2872981D01*
X8393986Y2857019D01*
X8407019Y2843986D01*
X8414314Y2839774D01*
Y2449602D01*
X8307639Y2342927D01*
X8270684Y2358234D01*
Y3365001D01*
X8267968Y3378658D01*
X8260232Y3390235D01*
X7967819Y3682648D01*
X7970000Y3690784D01*
Y3709216D01*
X7965229Y3727019D01*
X7956014Y3742981D01*
X7942981Y3756014D01*
X7927019Y3765229D01*
X7909216Y3770000D01*
X7905842D01*
X7893016Y3777437D01*
X7882608Y3820512D01*
X8110233Y4048138D01*
X8117969Y4059715D01*
X8120686Y4073371D01*
Y4426629D01*
X8117969Y4440285D01*
X8110233Y4451862D01*
X8001862Y4560233D01*
X7990285Y4567969D01*
X7976629Y4570686D01*
X7609782D01*
X6710957Y5469511D01*
X6702981Y5508986D01*
X6716014Y5522019D01*
X6725229Y5537981D01*
X6730000Y5555784D01*
Y5574216D01*
X6725229Y5592019D01*
X6716014Y5607981D01*
X6702981Y5621014D01*
X6687019Y5630230D01*
X6669216Y5635000D01*
X6650784D01*
X6632981Y5630230D01*
X6617019Y5621014D01*
X6603986Y5607981D01*
X6594770Y5592019D01*
X6590446Y5575880D01*
X6584423Y5572200D01*
X6550000Y5559757D01*
X6449524Y5660234D01*
X6437946Y5667969D01*
X6424290Y5670686D01*
X5343624D01*
X5328316Y5707641D01*
X5455234Y5834558D01*
X5462969Y5846136D01*
X5465686Y5859792D01*
Y6103210D01*
X5462969Y6116867D01*
X5455234Y6128444D01*
X5120944Y6462734D01*
X5109367Y6470469D01*
X5095710Y6473186D01*
X2256789D01*
X2243133Y6470469D01*
X2231556Y6462734D01*
X1394767Y5625944D01*
X1387031Y5614367D01*
X1384314Y5600711D01*
Y4758545D01*
X1379928Y4751991D01*
X1344314Y4729974D01*
X1344216Y4730000D01*
X1325784D01*
X1307981Y4725230D01*
X1292019Y4716014D01*
X1278986Y4702981D01*
X1269771Y4687019D01*
X1265000Y4669216D01*
Y4650784D01*
X1269771Y4632981D01*
X1278986Y4617019D01*
X1292019Y4603986D01*
X1307981Y4594771D01*
X1325784Y4590000D01*
X1344215D01*
X1354314Y4582251D01*
Y3665638D01*
X1224766Y3536090D01*
X1217031Y3524512D01*
X1214314Y3510856D01*
Y2943399D01*
X1217031Y2929743D01*
X1224766Y2918165D01*
X1354314Y2788617D01*
Y1145000D01*
X1357031Y1131344D01*
X1364766Y1119767D01*
X2072267Y412266D01*
X2083844Y404531D01*
X2097500Y401814D01*
X2236172D01*
X2244242Y394211D01*
X2247234Y385267D01*
X2249590Y348584D01*
X2243986Y342981D01*
X2234770Y327019D01*
X2230000Y309216D01*
Y290784D01*
X2234770Y272981D01*
X2242265Y260000D01*
X2241943Y251299D01*
X2227891Y216545D01*
X2222981Y215229D01*
X2207019Y206014D01*
X2190000Y195454D01*
X2172981Y206014D01*
X2157019Y215229D01*
X2139216Y220000D01*
X2120784D01*
X2102981Y215229D01*
X2087019Y206014D01*
X2073986Y192981D01*
X2064771Y177019D01*
X2060000Y159216D01*
Y140784D01*
X2061366Y135686D01*
X2043899Y104259D01*
X2034342Y95686D01*
X1838917D01*
X1815872Y131970D01*
X1815954Y135686D01*
X1820000Y150784D01*
Y169216D01*
X1818089Y176348D01*
X1853952Y197053D01*
X1857019Y193986D01*
X1872981Y184771D01*
X1890784Y180000D01*
X1909216D01*
X1927019Y184771D01*
X1942981Y193986D01*
X1956014Y207019D01*
X1965229Y222981D01*
X1970000Y240784D01*
Y259216D01*
X1965229Y277019D01*
X1956014Y292981D01*
X1942981Y306014D01*
X1927019Y315229D01*
X1909216Y320000D01*
X1890784D01*
X1872981Y315229D01*
X1857019Y306014D01*
X1843986Y292981D01*
X1834771Y277019D01*
X1830000Y259216D01*
Y240784D01*
X1831911Y233652D01*
X1796048Y212946D01*
X1792981Y216014D01*
X1777019Y225229D01*
X1759216Y230000D01*
X1758521D01*
X1736373Y236200D01*
X1720000Y259216D01*
X1715229Y277019D01*
X1706014Y292981D01*
X1692981Y306014D01*
X1677019Y315229D01*
X1659216Y320000D01*
X1640784D01*
X1622981Y315229D01*
X1607019Y306014D01*
X1593986Y292981D01*
X1584771Y277019D01*
X1580000Y259216D01*
Y240784D01*
X1584771Y222981D01*
X1593986Y207019D01*
X1607019Y193986D01*
X1622981Y184771D01*
X1640784Y180000D01*
X1641479D01*
X1663627Y173800D01*
X1680000Y150784D01*
X1684046Y135686D01*
X1684128Y131970D01*
X1661083Y95686D01*
X1174782D01*
X1025686Y244782D01*
Y889774D01*
X1032981Y893986D01*
X1046014Y907019D01*
X1055230Y922981D01*
X1060000Y940784D01*
Y959216D01*
X1055230Y977019D01*
X1046014Y992981D01*
X1032981Y1006014D01*
X1017019Y1015229D01*
X999216Y1020000D01*
X980784D01*
X962981Y1015229D01*
X947019Y1006014D01*
X933986Y992981D01*
X924771Y977019D01*
X920000Y959216D01*
Y940784D01*
X924771Y922981D01*
X933986Y907019D01*
X947019Y893986D01*
X954314Y889774D01*
Y230000D01*
X957031Y216344D01*
X964766Y204766D01*
X1098945Y70588D01*
X1082377Y30588D01*
X30588D01*
Y7969412D01*
X9969412D01*
X9969412Y30588D01*
D02*
G37*
%LPC*%
G36*
X6739216Y3800000D02*
X6720784D01*
X6702981Y3795229D01*
X6687019Y3786014D01*
X6673986Y3772981D01*
X6664771Y3757019D01*
X6660000Y3739216D01*
Y3720784D01*
X6664771Y3702981D01*
X6673986Y3687019D01*
X6687019Y3673986D01*
X6702981Y3664770D01*
X6720784Y3660000D01*
X6739216D01*
X6757019Y3664770D01*
X6772981Y3673986D01*
X6786014Y3687019D01*
X6795229Y3702981D01*
X6800000Y3720784D01*
Y3739216D01*
X6795229Y3757019D01*
X6786014Y3772981D01*
X6772981Y3786014D01*
X6757019Y3795229D01*
X6739216Y3800000D01*
D02*
G37*
G36*
X6145000Y3706772D02*
Y3619000D01*
X6232772D01*
X6227535Y3638543D01*
X6212343Y3664857D01*
X6190857Y3686343D01*
X6164543Y3701535D01*
X6145000Y3706772D01*
D02*
G37*
G36*
X6568188Y3339474D02*
X6549757D01*
X6531953Y3334704D01*
X6515991Y3325488D01*
X6502958Y3312455D01*
X6493743Y3296494D01*
X6488972Y3278690D01*
Y3260259D01*
X6493743Y3242456D01*
X6502958Y3226494D01*
X6515991Y3213461D01*
X6531953Y3204245D01*
X6549757Y3199475D01*
X6568188D01*
X6585991Y3204245D01*
X6601953Y3213461D01*
X6614986Y3226494D01*
X6624202Y3242456D01*
X6628972Y3260259D01*
Y3278690D01*
X6624202Y3296494D01*
X6614986Y3312455D01*
X6601953Y3325488D01*
X6585991Y3334704D01*
X6568188Y3339474D01*
D02*
G37*
G36*
X2869216Y2740000D02*
X2850784D01*
X2832981Y2735229D01*
X2817019Y2726014D01*
X2803986Y2712981D01*
X2794771Y2697019D01*
X2790000Y2679216D01*
Y2660784D01*
X2794771Y2642981D01*
X2803986Y2627019D01*
X2817019Y2613986D01*
X2832981Y2604771D01*
X2850784Y2600000D01*
X2869216D01*
X2887019Y2604771D01*
X2902981Y2613986D01*
X2916014Y2627019D01*
X2925230Y2642981D01*
X2930000Y2660784D01*
Y2679216D01*
X2925230Y2697019D01*
X2916014Y2712981D01*
X2902981Y2726014D01*
X2887019Y2735229D01*
X2869216Y2740000D01*
D02*
G37*
G36*
X7839216Y1420000D02*
X7820784D01*
X7802981Y1415230D01*
X7787019Y1406014D01*
X7773986Y1392981D01*
X7764771Y1377019D01*
X7760000Y1359216D01*
Y1340784D01*
X7764771Y1322981D01*
X7773986Y1307019D01*
X7787019Y1293986D01*
X7802981Y1284771D01*
X7820784Y1280000D01*
X7839216D01*
X7857019Y1284771D01*
X7872981Y1293986D01*
X7886014Y1307019D01*
X7895230Y1322981D01*
X7900000Y1340784D01*
Y1359216D01*
X7895230Y1377019D01*
X7886014Y1392981D01*
X7872981Y1406014D01*
X7857019Y1415230D01*
X7839216Y1420000D01*
D02*
G37*
G36*
X6629216Y1290000D02*
X6610784D01*
X6592981Y1285230D01*
X6577019Y1276014D01*
X6563986Y1262981D01*
X6554770Y1247019D01*
X6550000Y1229216D01*
Y1210784D01*
X6554770Y1192981D01*
X6563986Y1177019D01*
X6577019Y1163986D01*
X6592981Y1154771D01*
X6610784Y1150000D01*
X6629216D01*
X6647019Y1154771D01*
X6662981Y1163986D01*
X6676014Y1177019D01*
X6685229Y1192981D01*
X6690000Y1210784D01*
Y1229216D01*
X6685229Y1247019D01*
X6676014Y1262981D01*
X6662981Y1276014D01*
X6647019Y1285230D01*
X6629216Y1290000D01*
D02*
G37*
G36*
X3549216Y870000D02*
X3530784D01*
X3512981Y865229D01*
X3497019Y856014D01*
X3483986Y842981D01*
X3474771Y827019D01*
X3470000Y809216D01*
Y790784D01*
X3474771Y772981D01*
X3483986Y757019D01*
X3497019Y743986D01*
X3512981Y734770D01*
X3530784Y730000D01*
X3549216D01*
X3567019Y734770D01*
X3582981Y743986D01*
X3596014Y757019D01*
X3605230Y772981D01*
X3610000Y790784D01*
Y809216D01*
X3605230Y827019D01*
X3596014Y842981D01*
X3582981Y856014D01*
X3567019Y865229D01*
X3549216Y870000D01*
D02*
G37*
G36*
X4399216Y820000D02*
X4380784D01*
X4362981Y815230D01*
X4347019Y806014D01*
X4333986Y792981D01*
X4324771Y777019D01*
X4320000Y759216D01*
Y740784D01*
X4324771Y722981D01*
X4333986Y707019D01*
X4347019Y693986D01*
X4362981Y684771D01*
X4380784Y680000D01*
X4399216D01*
X4417019Y684771D01*
X4432981Y693986D01*
X4446014Y707019D01*
X4455230Y722981D01*
X4460000Y740784D01*
Y759216D01*
X4455230Y777019D01*
X4446014Y792981D01*
X4432981Y806014D01*
X4417019Y815230D01*
X4399216Y820000D01*
D02*
G37*
G36*
X3459216Y410000D02*
X3440784D01*
X3422981Y405230D01*
X3407019Y396014D01*
X3393986Y382981D01*
X3384770Y367019D01*
X3382727Y359392D01*
X3361334Y349829D01*
X3358002Y349094D01*
X3340000Y348994D01*
X3332981Y356014D01*
X3317019Y365229D01*
X3299216Y370000D01*
X3280784D01*
X3262981Y365229D01*
X3247019Y356014D01*
X3233986Y342981D01*
X3224771Y327019D01*
X3220000Y309216D01*
Y290784D01*
X3224771Y272981D01*
X3233986Y257019D01*
X3247019Y243986D01*
X3262981Y234770D01*
X3280784Y230000D01*
X3299216D01*
X3317019Y234770D01*
X3332981Y243986D01*
X3346014Y257019D01*
X3355230Y272981D01*
X3357273Y280608D01*
X3378666Y290171D01*
X3381998Y290906D01*
X3400000Y291006D01*
X3407019Y283986D01*
X3422981Y274771D01*
X3440784Y270000D01*
X3459216D01*
X3477019Y274771D01*
X3492981Y283986D01*
X3500000Y291006D01*
X3518002Y290906D01*
X3521334Y290171D01*
X3542727Y280608D01*
X3544770Y272981D01*
X3553986Y257019D01*
X3567019Y243986D01*
X3582981Y234770D01*
X3600784Y230000D01*
X3619216D01*
X3637019Y234770D01*
X3652981Y243986D01*
X3666014Y257019D01*
X3675229Y272981D01*
X3680000Y290784D01*
Y309216D01*
X3675229Y327019D01*
X3666014Y342981D01*
X3652981Y356014D01*
X3637019Y365229D01*
X3619216Y370000D01*
X3600784D01*
X3582981Y365229D01*
X3567019Y356014D01*
X3560000Y348994D01*
X3541997Y349094D01*
X3538666Y349829D01*
X3517273Y359392D01*
X3515229Y367019D01*
X3506014Y382981D01*
X3492981Y396014D01*
X3477019Y405230D01*
X3459216Y410000D01*
D02*
G37*
G36*
X3889216Y420000D02*
X3870784D01*
X3852981Y415230D01*
X3837019Y406014D01*
X3823986Y392981D01*
X3814771Y377019D01*
X3810000Y359216D01*
Y340784D01*
X3814771Y322981D01*
X3823986Y307019D01*
X3837019Y293986D01*
X3852981Y284771D01*
X3870784Y280000D01*
X3889216D01*
X3907019Y284771D01*
X3922981Y293986D01*
X3936014Y307019D01*
X3945230Y322981D01*
X3950000Y340784D01*
Y359216D01*
X3945230Y377019D01*
X3936014Y392981D01*
X3922981Y406014D01*
X3907019Y415230D01*
X3889216Y420000D01*
D02*
G37*
G36*
X6473165Y640000D02*
X6446835D01*
X6421402Y633185D01*
X6398599Y620020D01*
X6379980Y601401D01*
X6366815Y578599D01*
X6360000Y553166D01*
Y526835D01*
X6366815Y501402D01*
X6379980Y478599D01*
X6388311Y470268D01*
X6394770Y445000D01*
X6388311Y419732D01*
X6379980Y411401D01*
X6366815Y388598D01*
X6360000Y363165D01*
Y336835D01*
X6366815Y311402D01*
X6379980Y288599D01*
X6398599Y269980D01*
X6421402Y256815D01*
X6446835Y250000D01*
X6473165D01*
X6498598Y256815D01*
X6521401Y269980D01*
X6540020Y288599D01*
X6553185Y311402D01*
X6560000Y336835D01*
Y363165D01*
X6553185Y388598D01*
X6540020Y411401D01*
X6531689Y419732D01*
X6525230Y445000D01*
X6531689Y470268D01*
X6540020Y478599D01*
X6553185Y501402D01*
X6560000Y526835D01*
Y553166D01*
X6553185Y578599D01*
X6540020Y601401D01*
X6521401Y620020D01*
X6498598Y633185D01*
X6473165Y640000D01*
D02*
G37*
G36*
X3109216Y340000D02*
X3090784D01*
X3072981Y335229D01*
X3057019Y326014D01*
X3043986Y312981D01*
X3034770Y297019D01*
X3030000Y279216D01*
Y260784D01*
X3034770Y242981D01*
X3043986Y227019D01*
X3057019Y213986D01*
X3072981Y204770D01*
X3090784Y200000D01*
X3109216D01*
X3127019Y204770D01*
X3142981Y213986D01*
X3156014Y227019D01*
X3165229Y242981D01*
X3170000Y260784D01*
Y279216D01*
X3165229Y297019D01*
X3156014Y312981D01*
X3142981Y326014D01*
X3127019Y335229D01*
X3109216Y340000D01*
D02*
G37*
G36*
X2369216Y880000D02*
X2350785D01*
X2332981Y875230D01*
X2317019Y866014D01*
X2303987Y852981D01*
X2294771Y837019D01*
X2290001Y819216D01*
Y800785D01*
X2294771Y782981D01*
X2303987Y767019D01*
X2317019Y753986D01*
X2332981Y744771D01*
X2350785Y740000D01*
X2369216D01*
X2387019Y744771D01*
X2402981Y753986D01*
X2420000Y764546D01*
X2437019Y753986D01*
X2452981Y744770D01*
X2470784Y740000D01*
X2489216D01*
X2507019Y744770D01*
X2522981Y753986D01*
X2536014Y767019D01*
X2545230Y782981D01*
X2550000Y800784D01*
Y819216D01*
X2545230Y837019D01*
X2536014Y852981D01*
X2522981Y866014D01*
X2507019Y875229D01*
X2489216Y880000D01*
X2470784D01*
X2452981Y875229D01*
X2437020Y866014D01*
X2420000Y855454D01*
X2402981Y866014D01*
X2387019Y875230D01*
X2369216Y880000D01*
D02*
G37*
G36*
X7625000Y7651008D02*
X7605000D01*
X7586622Y7648588D01*
X7569497Y7641494D01*
X7554790Y7630210D01*
X7543506Y7615504D01*
X7536412Y7598378D01*
X7533993Y7580000D01*
Y7525000D01*
X7625000D01*
Y7651008D01*
D02*
G37*
G36*
X6025000D02*
X6005000D01*
X5986622Y7648588D01*
X5969496Y7641494D01*
X5954790Y7630210D01*
X5943506Y7615504D01*
X5936412Y7598378D01*
X5933993Y7580000D01*
Y7525000D01*
X6025000D01*
Y7651008D01*
D02*
G37*
G36*
X4425000D02*
X4405000D01*
X4386622Y7648588D01*
X4369496Y7641494D01*
X4354790Y7630210D01*
X4343506Y7615504D01*
X4336412Y7598378D01*
X4333993Y7580000D01*
Y7525000D01*
X4425000D01*
Y7651008D01*
D02*
G37*
G36*
X2825000D02*
X2805000D01*
X2786622Y7648588D01*
X2769497Y7641494D01*
X2754791Y7630210D01*
X2743506Y7615504D01*
X2736413Y7598378D01*
X2733993Y7580000D01*
Y7525000D01*
X2825000D01*
Y7651008D01*
D02*
G37*
G36*
X1225000D02*
X1205000D01*
X1186622Y7648588D01*
X1169497Y7641494D01*
X1154790Y7630210D01*
X1143506Y7615504D01*
X1136413Y7598378D01*
X1133993Y7580000D01*
Y7525000D01*
X1225000D01*
Y7651008D01*
D02*
G37*
G36*
X7695000D02*
X7675000D01*
Y7500000D01*
Y7348992D01*
X7695000D01*
X7713378Y7351412D01*
X7730504Y7358506D01*
X7745210Y7369790D01*
X7756494Y7384496D01*
X7763588Y7401622D01*
X7763662Y7402182D01*
X7799967Y7408805D01*
X7804819Y7408348D01*
X7821547Y7386547D01*
X7844526Y7368915D01*
X7871284Y7357831D01*
X7900000Y7354051D01*
X7928716Y7357831D01*
X7955475Y7368915D01*
X7978453Y7386547D01*
X7996085Y7409525D01*
X8004241Y7429215D01*
X8025000Y7433018D01*
X8045760Y7429215D01*
X8053916Y7409525D01*
X8071547Y7386547D01*
X8094526Y7368915D01*
X8121284Y7357831D01*
X8150000Y7354051D01*
X8178716Y7357831D01*
X8205475Y7368915D01*
X8228453Y7386547D01*
X8246085Y7409525D01*
X8254241Y7429215D01*
X8275000Y7433018D01*
X8295760Y7429215D01*
X8303916Y7409525D01*
X8321547Y7386547D01*
X8344526Y7368915D01*
X8371285Y7357831D01*
X8400000Y7354051D01*
X8428716Y7357831D01*
X8455475Y7368915D01*
X8478453Y7386547D01*
X8496085Y7409525D01*
X8504241Y7429215D01*
X8525000Y7433018D01*
X8545760Y7429215D01*
X8553916Y7409525D01*
X8571547Y7386547D01*
X8594526Y7368915D01*
X8621285Y7357831D01*
X8650000Y7354051D01*
X8678716Y7357831D01*
X8705475Y7368915D01*
X8728453Y7386547D01*
X8746085Y7409525D01*
X8757169Y7436284D01*
X8760949Y7465000D01*
Y7535000D01*
X8757169Y7563716D01*
X8746085Y7590475D01*
X8728453Y7613453D01*
X8705475Y7631085D01*
X8678716Y7642169D01*
X8650000Y7645949D01*
X8621285Y7642169D01*
X8594526Y7631085D01*
X8571547Y7613453D01*
X8553916Y7590475D01*
X8545760Y7570785D01*
X8525000Y7566982D01*
X8504241Y7570785D01*
X8496085Y7590475D01*
X8478453Y7613453D01*
X8455475Y7631085D01*
X8428716Y7642169D01*
X8400000Y7645949D01*
X8371285Y7642169D01*
X8344526Y7631085D01*
X8321547Y7613453D01*
X8303916Y7590475D01*
X8295760Y7570785D01*
X8275000Y7566982D01*
X8254241Y7570785D01*
X8246085Y7590475D01*
X8228453Y7613453D01*
X8205475Y7631085D01*
X8178716Y7642169D01*
X8150000Y7645949D01*
X8121284Y7642169D01*
X8094526Y7631085D01*
X8071547Y7613453D01*
X8053916Y7590475D01*
X8045760Y7570785D01*
X8025000Y7566982D01*
X8004241Y7570785D01*
X7996085Y7590475D01*
X7978453Y7613453D01*
X7955475Y7631085D01*
X7928716Y7642169D01*
X7900000Y7645949D01*
X7871284Y7642169D01*
X7844526Y7631085D01*
X7821547Y7613453D01*
X7804819Y7591652D01*
X7799967Y7591195D01*
X7763662Y7597818D01*
X7763588Y7598378D01*
X7756494Y7615504D01*
X7745210Y7630210D01*
X7730504Y7641494D01*
X7713378Y7648588D01*
X7695000Y7651008D01*
D02*
G37*
G36*
X6095000D02*
X6075000D01*
Y7500000D01*
Y7348992D01*
X6095000D01*
X6113378Y7351412D01*
X6130504Y7358506D01*
X6145210Y7369790D01*
X6156494Y7384496D01*
X6163588Y7401622D01*
X6163662Y7402182D01*
X6199967Y7408805D01*
X6204819Y7408348D01*
X6221547Y7386547D01*
X6244525Y7368915D01*
X6271284Y7357831D01*
X6300000Y7354051D01*
X6328716Y7357831D01*
X6355475Y7368915D01*
X6378453Y7386547D01*
X6396085Y7409525D01*
X6404241Y7429215D01*
X6425000Y7433018D01*
X6445760Y7429215D01*
X6453915Y7409525D01*
X6471547Y7386547D01*
X6494525Y7368915D01*
X6521284Y7357831D01*
X6550000Y7354051D01*
X6578716Y7357831D01*
X6605475Y7368915D01*
X6628453Y7386547D01*
X6646085Y7409525D01*
X6654241Y7429215D01*
X6675000Y7433018D01*
X6695760Y7429215D01*
X6703915Y7409525D01*
X6721547Y7386547D01*
X6744525Y7368915D01*
X6771284Y7357831D01*
X6800000Y7354051D01*
X6828716Y7357831D01*
X6855475Y7368915D01*
X6878453Y7386547D01*
X6896085Y7409525D01*
X6904241Y7429215D01*
X6925000Y7433018D01*
X6945760Y7429215D01*
X6953915Y7409525D01*
X6971547Y7386547D01*
X6994526Y7368915D01*
X7021284Y7357831D01*
X7050000Y7354051D01*
X7078716Y7357831D01*
X7105475Y7368915D01*
X7128453Y7386547D01*
X7146085Y7409525D01*
X7157169Y7436284D01*
X7160949Y7465000D01*
Y7535000D01*
X7157169Y7563716D01*
X7146085Y7590475D01*
X7128453Y7613453D01*
X7105475Y7631085D01*
X7078716Y7642169D01*
X7050000Y7645949D01*
X7021284Y7642169D01*
X6994526Y7631085D01*
X6971547Y7613453D01*
X6953915Y7590475D01*
X6945760Y7570785D01*
X6925000Y7566982D01*
X6904241Y7570785D01*
X6896085Y7590475D01*
X6878453Y7613453D01*
X6855475Y7631085D01*
X6828716Y7642169D01*
X6800000Y7645949D01*
X6771284Y7642169D01*
X6744525Y7631085D01*
X6721547Y7613453D01*
X6703915Y7590475D01*
X6695760Y7570785D01*
X6675000Y7566982D01*
X6654241Y7570785D01*
X6646085Y7590475D01*
X6628453Y7613453D01*
X6605475Y7631085D01*
X6578716Y7642169D01*
X6550000Y7645949D01*
X6521284Y7642169D01*
X6494525Y7631085D01*
X6471547Y7613453D01*
X6453915Y7590475D01*
X6445760Y7570785D01*
X6425000Y7566982D01*
X6404241Y7570785D01*
X6396085Y7590475D01*
X6378453Y7613453D01*
X6355475Y7631085D01*
X6328716Y7642169D01*
X6300000Y7645949D01*
X6271284Y7642169D01*
X6244525Y7631085D01*
X6221547Y7613453D01*
X6204819Y7591652D01*
X6199967Y7591195D01*
X6163662Y7597818D01*
X6163588Y7598378D01*
X6156494Y7615504D01*
X6145210Y7630210D01*
X6130504Y7641494D01*
X6113378Y7648588D01*
X6095000Y7651008D01*
D02*
G37*
G36*
X4495000D02*
X4475000D01*
Y7500000D01*
Y7348992D01*
X4495000D01*
X4513378Y7351412D01*
X4530504Y7358506D01*
X4545210Y7369790D01*
X4556494Y7384496D01*
X4563588Y7401622D01*
X4563662Y7402182D01*
X4599967Y7408805D01*
X4604819Y7408348D01*
X4621548Y7386547D01*
X4644526Y7368915D01*
X4671285Y7357831D01*
X4700000Y7354051D01*
X4728716Y7357831D01*
X4755475Y7368915D01*
X4778453Y7386547D01*
X4796085Y7409525D01*
X4804241Y7429215D01*
X4825000Y7433018D01*
X4845760Y7429215D01*
X4853916Y7409525D01*
X4871548Y7386547D01*
X4894526Y7368915D01*
X4921285Y7357831D01*
X4950000Y7354051D01*
X4978716Y7357831D01*
X5005475Y7368915D01*
X5028453Y7386547D01*
X5046085Y7409525D01*
X5054241Y7429215D01*
X5075000Y7433018D01*
X5095760Y7429215D01*
X5103916Y7409525D01*
X5121548Y7386547D01*
X5144526Y7368915D01*
X5171285Y7357831D01*
X5200000Y7354051D01*
X5228716Y7357831D01*
X5255475Y7368915D01*
X5278453Y7386547D01*
X5296085Y7409525D01*
X5304241Y7429215D01*
X5325000Y7433018D01*
X5345760Y7429215D01*
X5353916Y7409525D01*
X5371548Y7386547D01*
X5394526Y7368915D01*
X5421285Y7357831D01*
X5450000Y7354051D01*
X5478716Y7357831D01*
X5505475Y7368915D01*
X5528453Y7386547D01*
X5546085Y7409525D01*
X5557169Y7436284D01*
X5560949Y7465000D01*
Y7535000D01*
X5557169Y7563716D01*
X5546085Y7590475D01*
X5528453Y7613453D01*
X5505475Y7631085D01*
X5478716Y7642169D01*
X5450000Y7645949D01*
X5421285Y7642169D01*
X5394526Y7631085D01*
X5371548Y7613453D01*
X5353916Y7590475D01*
X5345760Y7570785D01*
X5325000Y7566982D01*
X5304241Y7570785D01*
X5296085Y7590475D01*
X5278453Y7613453D01*
X5255475Y7631085D01*
X5228716Y7642169D01*
X5200000Y7645949D01*
X5171285Y7642169D01*
X5144526Y7631085D01*
X5121548Y7613453D01*
X5103916Y7590475D01*
X5095760Y7570785D01*
X5075000Y7566982D01*
X5054241Y7570785D01*
X5046085Y7590475D01*
X5028453Y7613453D01*
X5005475Y7631085D01*
X4978716Y7642169D01*
X4950000Y7645949D01*
X4921285Y7642169D01*
X4894526Y7631085D01*
X4871548Y7613453D01*
X4853916Y7590475D01*
X4845760Y7570785D01*
X4825000Y7566982D01*
X4804241Y7570785D01*
X4796085Y7590475D01*
X4778453Y7613453D01*
X4755475Y7631085D01*
X4728716Y7642169D01*
X4700000Y7645949D01*
X4671285Y7642169D01*
X4644526Y7631085D01*
X4621548Y7613453D01*
X4604819Y7591652D01*
X4599967Y7591195D01*
X4563662Y7597818D01*
X4563588Y7598378D01*
X4556494Y7615504D01*
X4545210Y7630210D01*
X4530504Y7641494D01*
X4513378Y7648588D01*
X4495000Y7651008D01*
D02*
G37*
G36*
X2895000D02*
X2875000D01*
Y7500000D01*
Y7348992D01*
X2895000D01*
X2913378Y7351412D01*
X2930504Y7358506D01*
X2945210Y7369790D01*
X2956494Y7384496D01*
X2963588Y7401622D01*
X2963662Y7402182D01*
X2999967Y7408805D01*
X3004819Y7408348D01*
X3021548Y7386547D01*
X3044526Y7368915D01*
X3071285Y7357831D01*
X3100000Y7354051D01*
X3128716Y7357831D01*
X3155475Y7368915D01*
X3178453Y7386547D01*
X3196085Y7409525D01*
X3204241Y7429215D01*
X3225000Y7433018D01*
X3245760Y7429215D01*
X3253916Y7409525D01*
X3271548Y7386547D01*
X3294526Y7368915D01*
X3321285Y7357831D01*
X3350000Y7354051D01*
X3378716Y7357831D01*
X3405475Y7368915D01*
X3428453Y7386547D01*
X3446085Y7409525D01*
X3454241Y7429215D01*
X3475000Y7433018D01*
X3495760Y7429215D01*
X3503916Y7409525D01*
X3521548Y7386547D01*
X3544526Y7368915D01*
X3571285Y7357831D01*
X3600000Y7354051D01*
X3628716Y7357831D01*
X3655475Y7368915D01*
X3678453Y7386547D01*
X3696085Y7409525D01*
X3704241Y7429215D01*
X3725000Y7433018D01*
X3745760Y7429215D01*
X3753916Y7409525D01*
X3771548Y7386547D01*
X3794526Y7368915D01*
X3821285Y7357831D01*
X3850000Y7354051D01*
X3878716Y7357831D01*
X3905475Y7368915D01*
X3928453Y7386547D01*
X3946085Y7409525D01*
X3957169Y7436284D01*
X3960949Y7465000D01*
Y7535000D01*
X3957169Y7563716D01*
X3946085Y7590475D01*
X3928453Y7613453D01*
X3905475Y7631085D01*
X3878716Y7642169D01*
X3850000Y7645949D01*
X3821285Y7642169D01*
X3794526Y7631085D01*
X3771548Y7613453D01*
X3753916Y7590475D01*
X3745760Y7570785D01*
X3725000Y7566982D01*
X3704241Y7570785D01*
X3696085Y7590475D01*
X3678453Y7613453D01*
X3655475Y7631085D01*
X3628716Y7642169D01*
X3600000Y7645949D01*
X3571285Y7642169D01*
X3544526Y7631085D01*
X3521548Y7613453D01*
X3503916Y7590475D01*
X3495760Y7570785D01*
X3475000Y7566982D01*
X3454241Y7570785D01*
X3446085Y7590475D01*
X3428453Y7613453D01*
X3405475Y7631085D01*
X3378716Y7642169D01*
X3350000Y7645949D01*
X3321285Y7642169D01*
X3294526Y7631085D01*
X3271548Y7613453D01*
X3253916Y7590475D01*
X3245760Y7570785D01*
X3225000Y7566982D01*
X3204241Y7570785D01*
X3196085Y7590475D01*
X3178453Y7613453D01*
X3155475Y7631085D01*
X3128716Y7642169D01*
X3100000Y7645949D01*
X3071285Y7642169D01*
X3044526Y7631085D01*
X3021548Y7613453D01*
X3004819Y7591652D01*
X2999967Y7591195D01*
X2963662Y7597818D01*
X2963588Y7598378D01*
X2956494Y7615504D01*
X2945210Y7630210D01*
X2930504Y7641494D01*
X2913378Y7648588D01*
X2895000Y7651008D01*
D02*
G37*
G36*
X1295000D02*
X1275000D01*
Y7500000D01*
Y7348992D01*
X1295000D01*
X1313378Y7351412D01*
X1330504Y7358506D01*
X1345210Y7369790D01*
X1356494Y7384496D01*
X1363588Y7401622D01*
X1363662Y7402182D01*
X1399967Y7408805D01*
X1404819Y7408348D01*
X1421548Y7386547D01*
X1444526Y7368915D01*
X1471285Y7357831D01*
X1500000Y7354051D01*
X1528716Y7357831D01*
X1555475Y7368915D01*
X1578453Y7386547D01*
X1596085Y7409525D01*
X1604241Y7429215D01*
X1625000Y7433018D01*
X1645760Y7429215D01*
X1653916Y7409525D01*
X1671548Y7386547D01*
X1694526Y7368915D01*
X1721285Y7357831D01*
X1750000Y7354051D01*
X1778716Y7357831D01*
X1805475Y7368915D01*
X1828453Y7386547D01*
X1846085Y7409525D01*
X1854241Y7429215D01*
X1875000Y7433018D01*
X1895760Y7429215D01*
X1903916Y7409525D01*
X1921548Y7386547D01*
X1944526Y7368915D01*
X1971285Y7357831D01*
X2000000Y7354051D01*
X2028716Y7357831D01*
X2055475Y7368915D01*
X2078453Y7386547D01*
X2096085Y7409525D01*
X2104241Y7429215D01*
X2125000Y7433018D01*
X2145760Y7429215D01*
X2153916Y7409525D01*
X2171548Y7386547D01*
X2194526Y7368915D01*
X2221285Y7357831D01*
X2250000Y7354051D01*
X2278716Y7357831D01*
X2305475Y7368915D01*
X2328453Y7386547D01*
X2346085Y7409525D01*
X2357169Y7436284D01*
X2360949Y7465000D01*
Y7535000D01*
X2357169Y7563716D01*
X2346085Y7590475D01*
X2328453Y7613453D01*
X2305475Y7631085D01*
X2278716Y7642169D01*
X2250000Y7645949D01*
X2221285Y7642169D01*
X2194526Y7631085D01*
X2171548Y7613453D01*
X2153916Y7590475D01*
X2145760Y7570785D01*
X2125000Y7566982D01*
X2104241Y7570785D01*
X2096085Y7590475D01*
X2078453Y7613453D01*
X2055475Y7631085D01*
X2028716Y7642169D01*
X2000000Y7645949D01*
X1971285Y7642169D01*
X1944526Y7631085D01*
X1921548Y7613453D01*
X1903916Y7590475D01*
X1895760Y7570785D01*
X1875000Y7566982D01*
X1854241Y7570785D01*
X1846085Y7590475D01*
X1828453Y7613453D01*
X1805475Y7631085D01*
X1778716Y7642169D01*
X1750000Y7645949D01*
X1721285Y7642169D01*
X1694526Y7631085D01*
X1671548Y7613453D01*
X1653916Y7590475D01*
X1645760Y7570785D01*
X1625000Y7566982D01*
X1604241Y7570785D01*
X1596085Y7590475D01*
X1578453Y7613453D01*
X1555475Y7631085D01*
X1528716Y7642169D01*
X1500000Y7645949D01*
X1471285Y7642169D01*
X1444526Y7631085D01*
X1421548Y7613453D01*
X1404819Y7591652D01*
X1399967Y7591195D01*
X1363662Y7597818D01*
X1363588Y7598378D01*
X1356494Y7615504D01*
X1345210Y7630210D01*
X1330504Y7641494D01*
X1313378Y7648588D01*
X1295000Y7651008D01*
D02*
G37*
G36*
X7625000Y7475000D02*
X7533993D01*
Y7420000D01*
X7536412Y7401622D01*
X7543506Y7384496D01*
X7554790Y7369790D01*
X7569497Y7358506D01*
X7586622Y7351412D01*
X7605000Y7348992D01*
X7625000D01*
Y7475000D01*
D02*
G37*
G36*
X6025000D02*
X5933993D01*
Y7420000D01*
X5936412Y7401622D01*
X5943506Y7384496D01*
X5954790Y7369790D01*
X5969496Y7358506D01*
X5986622Y7351412D01*
X6005000Y7348992D01*
X6025000D01*
Y7475000D01*
D02*
G37*
G36*
X4425000D02*
X4333993D01*
Y7420000D01*
X4336412Y7401622D01*
X4343506Y7384496D01*
X4354790Y7369790D01*
X4369496Y7358506D01*
X4386622Y7351412D01*
X4405000Y7348992D01*
X4425000D01*
Y7475000D01*
D02*
G37*
G36*
X2825000D02*
X2733993D01*
Y7420000D01*
X2736413Y7401622D01*
X2743506Y7384496D01*
X2754791Y7369790D01*
X2769497Y7358506D01*
X2786622Y7351412D01*
X2805000Y7348992D01*
X2825000D01*
Y7475000D01*
D02*
G37*
G36*
X1225000D02*
X1133993D01*
Y7420000D01*
X1136413Y7401622D01*
X1143506Y7384496D01*
X1154790Y7369790D01*
X1169497Y7358506D01*
X1186622Y7351412D01*
X1205000Y7348992D01*
X1225000D01*
Y7475000D01*
D02*
G37*
G36*
X9524251Y7870000D02*
X9475749D01*
X9427662Y7863669D01*
X9380812Y7851116D01*
X9336002Y7832555D01*
X9293998Y7808304D01*
X9255518Y7778778D01*
X9221222Y7744482D01*
X9191696Y7706002D01*
X9167445Y7663998D01*
X9148884Y7619188D01*
X9136331Y7572338D01*
X9130000Y7524251D01*
Y7475749D01*
X9136331Y7427662D01*
X9148884Y7380812D01*
X9167445Y7336002D01*
X9191696Y7293998D01*
X9221222Y7255518D01*
X9255518Y7221222D01*
X9293998Y7191696D01*
X9336002Y7167445D01*
X9380812Y7148884D01*
X9427662Y7136331D01*
X9475749Y7130000D01*
X9524251D01*
X9572338Y7136331D01*
X9619188Y7148884D01*
X9663998Y7167445D01*
X9706002Y7191696D01*
X9744482Y7221222D01*
X9778778Y7255518D01*
X9808304Y7293998D01*
X9832555Y7336002D01*
X9851116Y7380812D01*
X9863669Y7427662D01*
X9870000Y7475749D01*
Y7524251D01*
X9863669Y7572338D01*
X9851116Y7619188D01*
X9832555Y7663998D01*
X9808304Y7706002D01*
X9778778Y7744482D01*
X9744482Y7778778D01*
X9706002Y7808304D01*
X9663998Y7832555D01*
X9619188Y7851116D01*
X9572338Y7863669D01*
X9524251Y7870000D01*
D02*
G37*
G36*
X504251Y7840000D02*
X455749D01*
X407661Y7833669D01*
X360812Y7821116D01*
X316002Y7802555D01*
X273998Y7778304D01*
X235518Y7748778D01*
X201222Y7714482D01*
X171696Y7676002D01*
X147445Y7633998D01*
X128884Y7589188D01*
X116330Y7542338D01*
X110000Y7494251D01*
Y7445749D01*
X116330Y7397662D01*
X128884Y7350812D01*
X147445Y7306002D01*
X171696Y7263998D01*
X201222Y7225518D01*
X235518Y7191222D01*
X273998Y7161696D01*
X316002Y7137445D01*
X360812Y7118884D01*
X407661Y7106331D01*
X455749Y7100000D01*
X504251D01*
X552338Y7106331D01*
X599188Y7118884D01*
X643998Y7137445D01*
X686002Y7161696D01*
X724481Y7191222D01*
X758778Y7225518D01*
X788304Y7263998D01*
X812555Y7306002D01*
X831116Y7350812D01*
X843669Y7397662D01*
X850000Y7445749D01*
Y7494251D01*
X843669Y7542338D01*
X831116Y7589188D01*
X812555Y7633998D01*
X788304Y7676002D01*
X758778Y7714482D01*
X724481Y7748778D01*
X686002Y7778304D01*
X643998Y7802555D01*
X599188Y7821116D01*
X552338Y7833669D01*
X504251Y7840000D01*
D02*
G37*
G36*
X491819Y6990000D02*
X468181D01*
X444997Y6985388D01*
X423159Y6976343D01*
X403504Y6963210D01*
X386790Y6946496D01*
X373657Y6926841D01*
X364612Y6905003D01*
X360000Y6881819D01*
Y6858181D01*
X364612Y6834997D01*
X373657Y6813159D01*
X386790Y6793504D01*
X403504Y6776790D01*
X423159Y6763657D01*
X444997Y6754612D01*
X468181Y6750000D01*
X491819D01*
X515003Y6754612D01*
X536841Y6763657D01*
X556496Y6776790D01*
X573210Y6793504D01*
X586343Y6813159D01*
X595388Y6834997D01*
X600000Y6858181D01*
Y6881819D01*
X595388Y6905003D01*
X586343Y6926841D01*
X573210Y6946496D01*
X556496Y6963210D01*
X536841Y6976343D01*
X515003Y6985388D01*
X491819Y6990000D01*
D02*
G37*
G36*
X7519216Y6735000D02*
X7500785D01*
X7482981Y6730229D01*
X7467019Y6721014D01*
X7453986Y6707981D01*
X7444771Y6692019D01*
X7440000Y6674216D01*
Y6655784D01*
X7444771Y6637981D01*
X7453986Y6622019D01*
X7467019Y6608986D01*
X7482981Y6599770D01*
X7500785Y6595000D01*
X7519216D01*
X7537019Y6599770D01*
X7552981Y6608986D01*
X7566014Y6622019D01*
X7575230Y6637981D01*
X7580000Y6655784D01*
Y6674216D01*
X7575230Y6692019D01*
X7566014Y6707981D01*
X7552981Y6721014D01*
X7537019Y6730229D01*
X7519216Y6735000D01*
D02*
G37*
G36*
X5919216D02*
X5900784D01*
X5882981Y6730229D01*
X5867019Y6721014D01*
X5853986Y6707981D01*
X5844771Y6692019D01*
X5840000Y6674216D01*
Y6655784D01*
X5844771Y6637981D01*
X5853986Y6622019D01*
X5867019Y6608986D01*
X5882981Y6599770D01*
X5900784Y6595000D01*
X5919216D01*
X5937019Y6599770D01*
X5952981Y6608986D01*
X5966014Y6622019D01*
X5975230Y6637981D01*
X5980000Y6655784D01*
Y6674216D01*
X5975230Y6692019D01*
X5966014Y6707981D01*
X5952981Y6721014D01*
X5937019Y6730229D01*
X5919216Y6735000D01*
D02*
G37*
G36*
X4319216D02*
X4300785D01*
X4282981Y6730229D01*
X4267019Y6721014D01*
X4253986Y6707981D01*
X4244771Y6692019D01*
X4240000Y6674216D01*
Y6655784D01*
X4244771Y6637981D01*
X4253986Y6622019D01*
X4267019Y6608986D01*
X4282981Y6599770D01*
X4300785Y6595000D01*
X4319216D01*
X4337019Y6599770D01*
X4352981Y6608986D01*
X4366014Y6622019D01*
X4375230Y6637981D01*
X4380000Y6655784D01*
Y6674216D01*
X4375230Y6692019D01*
X4366014Y6707981D01*
X4352981Y6721014D01*
X4337019Y6730229D01*
X4319216Y6735000D01*
D02*
G37*
G36*
X2719216D02*
X2700785D01*
X2682981Y6730229D01*
X2667020Y6721014D01*
X2653987Y6707981D01*
X2644771Y6692019D01*
X2640001Y6674216D01*
Y6655784D01*
X2644771Y6637981D01*
X2653987Y6622019D01*
X2667020Y6608986D01*
X2682981Y6599770D01*
X2700785Y6595000D01*
X2719216D01*
X2737019Y6599770D01*
X2752981Y6608986D01*
X2766014Y6622019D01*
X2775230Y6637981D01*
X2780000Y6655784D01*
Y6674216D01*
X2775230Y6692019D01*
X2766014Y6707981D01*
X2752981Y6721014D01*
X2737019Y6730229D01*
X2719216Y6735000D01*
D02*
G37*
G36*
X1119216D02*
X1100785D01*
X1082981Y6730229D01*
X1067019Y6721014D01*
X1053986Y6707981D01*
X1044771Y6692019D01*
X1040000Y6674216D01*
Y6655784D01*
X1044771Y6637981D01*
X1053986Y6622019D01*
X1067019Y6608986D01*
X1082981Y6599770D01*
X1100785Y6595000D01*
X1119216D01*
X1137019Y6599770D01*
X1152981Y6608986D01*
X1166014Y6622019D01*
X1175230Y6637981D01*
X1180000Y6655784D01*
Y6674216D01*
X1175230Y6692019D01*
X1166014Y6707981D01*
X1152981Y6721014D01*
X1137019Y6730229D01*
X1119216Y6735000D01*
D02*
G37*
G36*
X505000Y6492884D02*
Y6395000D01*
X602884D01*
X600581Y6406578D01*
X591128Y6429399D01*
X577405Y6449938D01*
X559938Y6467405D01*
X539399Y6481128D01*
X516578Y6490581D01*
X505000Y6492884D01*
D02*
G37*
G36*
X455000D02*
X443422Y6490581D01*
X420601Y6481128D01*
X400062Y6467405D01*
X382595Y6449938D01*
X368872Y6429399D01*
X359419Y6406578D01*
X357116Y6395000D01*
X455000D01*
Y6492884D01*
D02*
G37*
G36*
X602884Y6345000D02*
X505000D01*
Y6247116D01*
X516578Y6249419D01*
X539399Y6258872D01*
X559938Y6272595D01*
X577405Y6290062D01*
X591128Y6310601D01*
X600581Y6333422D01*
X602884Y6345000D01*
D02*
G37*
G36*
X455000D02*
X357116D01*
X359419Y6333422D01*
X368872Y6310601D01*
X382595Y6290062D01*
X400062Y6272595D01*
X420601Y6258872D01*
X443422Y6249419D01*
X455000Y6247116D01*
Y6345000D01*
D02*
G37*
G36*
X8419216Y6270000D02*
X8400784D01*
X8382981Y6265230D01*
X8367019Y6256014D01*
X8353986Y6242981D01*
X8344770Y6227019D01*
X8340000Y6209216D01*
Y6190784D01*
X8344770Y6172981D01*
X8353986Y6157019D01*
X8367019Y6143986D01*
X8382981Y6134771D01*
X8400784Y6130000D01*
X8419216D01*
X8437019Y6134771D01*
X8452981Y6143986D01*
X8466014Y6157019D01*
X8475229Y6172981D01*
X8480000Y6190784D01*
Y6209216D01*
X8475229Y6227019D01*
X8466014Y6242981D01*
X8452981Y6256014D01*
X8437019Y6265230D01*
X8419216Y6270000D01*
D02*
G37*
G36*
X8169216Y6260000D02*
X8150784D01*
X8132981Y6255230D01*
X8117019Y6246014D01*
X8103986Y6232981D01*
X8094770Y6217019D01*
X8090000Y6199216D01*
Y6180784D01*
X8094770Y6162981D01*
X8103986Y6147019D01*
X8117019Y6133986D01*
X8132981Y6124771D01*
X8150784Y6120000D01*
X8169216D01*
X8187019Y6124771D01*
X8202981Y6133986D01*
X8216014Y6147019D01*
X8225229Y6162981D01*
X8230000Y6180784D01*
Y6199216D01*
X8225229Y6217019D01*
X8216014Y6232981D01*
X8202981Y6246014D01*
X8187019Y6255230D01*
X8169216Y6260000D01*
D02*
G37*
G36*
X6939216Y6220000D02*
X6920784D01*
X6902981Y6215229D01*
X6887019Y6206014D01*
X6873986Y6192981D01*
X6864771Y6177019D01*
X6860000Y6159216D01*
Y6140784D01*
X6864771Y6122981D01*
X6873986Y6107019D01*
X6887019Y6093986D01*
X6902981Y6084770D01*
X6920784Y6080000D01*
X6939216D01*
X6957019Y6084770D01*
X6972981Y6093986D01*
X6986014Y6107019D01*
X6995230Y6122981D01*
X7000000Y6140784D01*
Y6159216D01*
X6995230Y6177019D01*
X6986014Y6192981D01*
X6972981Y6206014D01*
X6957019Y6215229D01*
X6939216Y6220000D01*
D02*
G37*
G36*
X6689216D02*
X6670784D01*
X6652981Y6215229D01*
X6637019Y6206014D01*
X6623986Y6192981D01*
X6614771Y6177019D01*
X6610000Y6159216D01*
Y6140784D01*
X6614771Y6122981D01*
X6623986Y6107019D01*
X6637019Y6093986D01*
X6652981Y6084770D01*
X6670784Y6080000D01*
X6689216D01*
X6707019Y6084770D01*
X6722981Y6093986D01*
X6736014Y6107019D01*
X6745230Y6122981D01*
X6750000Y6140784D01*
Y6159216D01*
X6745230Y6177019D01*
X6736014Y6192981D01*
X6722981Y6206014D01*
X6707019Y6215229D01*
X6689216Y6220000D01*
D02*
G37*
G36*
X9580000Y6850561D02*
X9420000D01*
X9403031Y6848327D01*
X9387220Y6841777D01*
X9373642Y6831358D01*
X9363223Y6817780D01*
X9356673Y6801968D01*
X9354439Y6785000D01*
Y6695000D01*
X9356673Y6678032D01*
X9363223Y6662220D01*
X9373642Y6648642D01*
X9387220Y6638223D01*
X9403031Y6631673D01*
X9412160Y6630472D01*
X9419397Y6609399D01*
X9418812Y6589931D01*
X9409526Y6586085D01*
X9386547Y6568453D01*
X9368915Y6545474D01*
X9357831Y6518716D01*
X9354051Y6490000D01*
X9357831Y6461284D01*
X9368915Y6434526D01*
X9386547Y6411547D01*
X9409526Y6393915D01*
X9429215Y6385759D01*
X9433018Y6365000D01*
X9429215Y6344241D01*
X9409526Y6336085D01*
X9386547Y6318453D01*
X9368915Y6295474D01*
X9357831Y6268716D01*
X9354051Y6240000D01*
X9357831Y6211284D01*
X9368915Y6184526D01*
X9386547Y6161547D01*
X9409526Y6143915D01*
X9429215Y6135759D01*
X9433018Y6115000D01*
X9429215Y6094241D01*
X9409526Y6086085D01*
X9386547Y6068453D01*
X9368915Y6045474D01*
X9357831Y6018716D01*
X9354051Y5990000D01*
X9357831Y5961284D01*
X9368915Y5934526D01*
X9386547Y5911547D01*
X9409526Y5893915D01*
X9429215Y5885759D01*
X9433018Y5865000D01*
X9429215Y5844241D01*
X9409526Y5836085D01*
X9386547Y5818453D01*
X9368915Y5795474D01*
X9357831Y5768716D01*
X9354051Y5740000D01*
X9357831Y5711284D01*
X9368915Y5684526D01*
X9386547Y5661547D01*
X9409526Y5643915D01*
X9420464Y5639384D01*
X9420015Y5596275D01*
X9406802Y5590801D01*
X9382696Y5572304D01*
X9364198Y5548198D01*
X9352570Y5520125D01*
X9351895Y5515000D01*
X9500001D01*
Y5490000D01*
D01*
Y5515000D01*
X9648105D01*
X9647430Y5520125D01*
X9635802Y5548198D01*
X9617304Y5572304D01*
X9593198Y5590801D01*
X9579985Y5596275D01*
X9579536Y5639384D01*
X9590475Y5643915D01*
X9613453Y5661547D01*
X9631085Y5684526D01*
X9642169Y5711284D01*
X9645949Y5740000D01*
X9642169Y5768716D01*
X9631085Y5795474D01*
X9613453Y5818453D01*
X9590475Y5836085D01*
X9570785Y5844241D01*
X9566982Y5865000D01*
X9570785Y5885759D01*
X9590475Y5893915D01*
X9613453Y5911547D01*
X9631085Y5934526D01*
X9642169Y5961284D01*
X9645949Y5990000D01*
X9642169Y6018716D01*
X9631085Y6045474D01*
X9613453Y6068453D01*
X9590475Y6086085D01*
X9570785Y6094241D01*
X9566982Y6115000D01*
X9570785Y6135759D01*
X9590475Y6143915D01*
X9613453Y6161547D01*
X9631085Y6184526D01*
X9642169Y6211284D01*
X9645949Y6240000D01*
X9642169Y6268716D01*
X9631085Y6295474D01*
X9613453Y6318453D01*
X9590475Y6336085D01*
X9570785Y6344241D01*
X9566982Y6365000D01*
X9570785Y6385759D01*
X9590475Y6393915D01*
X9613453Y6411547D01*
X9631085Y6434526D01*
X9642169Y6461284D01*
X9645949Y6490000D01*
X9642169Y6518716D01*
X9631085Y6545474D01*
X9613453Y6568453D01*
X9590475Y6586085D01*
X9581188Y6589931D01*
X9580603Y6609399D01*
X9587840Y6630472D01*
X9596969Y6631673D01*
X9612780Y6638223D01*
X9626358Y6648642D01*
X9636777Y6662220D01*
X9643327Y6678032D01*
X9645561Y6695000D01*
Y6785000D01*
X9643327Y6801968D01*
X9636777Y6817780D01*
X9626358Y6831358D01*
X9612780Y6841777D01*
X9596969Y6848327D01*
X9580000Y6850561D01*
D02*
G37*
G36*
X7919216Y5520000D02*
X7900784D01*
X7882981Y5515230D01*
X7867019Y5506014D01*
X7853986Y5492981D01*
X7852087Y5489691D01*
X7846953Y5487926D01*
X7813047D01*
X7807913Y5489691D01*
X7806014Y5492981D01*
X7792981Y5506014D01*
X7777019Y5515230D01*
X7759216Y5520000D01*
X7740784D01*
X7722981Y5515230D01*
X7707019Y5506014D01*
X7693986Y5492981D01*
X7684771Y5477019D01*
X7680000Y5459216D01*
Y5440784D01*
X7684771Y5422981D01*
X7693986Y5407019D01*
X7707019Y5393986D01*
X7722981Y5384771D01*
X7740784Y5380000D01*
X7759216D01*
X7777019Y5384771D01*
X7792981Y5393986D01*
X7806014Y5407019D01*
X7807913Y5410309D01*
X7813047Y5412074D01*
X7846953D01*
X7852087Y5410309D01*
X7853986Y5407019D01*
X7867019Y5393986D01*
X7882981Y5384771D01*
X7900784Y5380000D01*
X7919216D01*
X7937019Y5384771D01*
X7952981Y5393986D01*
X7966014Y5407019D01*
X7975229Y5422981D01*
X7980000Y5440784D01*
Y5459216D01*
X7975229Y5477019D01*
X7966014Y5492981D01*
X7952981Y5506014D01*
X7937019Y5515230D01*
X7919216Y5520000D01*
D02*
G37*
G36*
X9648105Y5465000D02*
X9525001D01*
Y5373604D01*
X9535000D01*
X9565126Y5377570D01*
X9593198Y5389199D01*
X9617304Y5407696D01*
X9635802Y5431802D01*
X9647430Y5459875D01*
X9648105Y5465000D01*
D02*
G37*
G36*
X9475001D02*
X9351895D01*
X9352570Y5459875D01*
X9364198Y5431802D01*
X9382696Y5407696D01*
X9406802Y5389199D01*
X9434874Y5377570D01*
X9465000Y5373604D01*
X9475001D01*
Y5465000D01*
D02*
G37*
G36*
X8707500Y5224581D02*
X8657500D01*
X8633976Y5222264D01*
X8611356Y5215402D01*
X8590509Y5204259D01*
X8572237Y5189263D01*
X8557241Y5170991D01*
X8546098Y5150144D01*
X8539236Y5127524D01*
X8536919Y5104000D01*
X8539236Y5080476D01*
X8546098Y5057856D01*
X8557241Y5037009D01*
X8572237Y5018736D01*
X8590509Y5003741D01*
X8593732Y5002018D01*
X8592383Y4957384D01*
X8587494Y4954771D01*
X8568400Y4939100D01*
X8552729Y4920006D01*
X8541085Y4898221D01*
X8534041Y4875000D01*
X8682500D01*
X8830959D01*
X8823915Y4898221D01*
X8812271Y4920006D01*
X8796600Y4939100D01*
X8777506Y4954771D01*
X8772617Y4957384D01*
X8771268Y5002018D01*
X8774491Y5003741D01*
X8792763Y5018736D01*
X8807759Y5037009D01*
X8818902Y5057856D01*
X8825764Y5080476D01*
X8828081Y5104000D01*
X8825764Y5127524D01*
X8818902Y5150144D01*
X8807759Y5170991D01*
X8792763Y5189263D01*
X8774491Y5204259D01*
X8753644Y5215402D01*
X8731024Y5222264D01*
X8707500Y5224581D01*
D02*
G37*
G36*
X8117500Y4957772D02*
Y4870000D01*
X8205272D01*
X8200035Y4889543D01*
X8184843Y4915857D01*
X8163357Y4937343D01*
X8137043Y4952535D01*
X8117500Y4957772D01*
D02*
G37*
G36*
X6049216Y5940000D02*
X6030784D01*
X6012981Y5935229D01*
X5997019Y5926014D01*
X5983986Y5912981D01*
X5974771Y5897019D01*
X5970000Y5879216D01*
Y5860784D01*
X5974771Y5842981D01*
X5983986Y5827019D01*
X5997019Y5813986D01*
X6012981Y5804770D01*
X6030784Y5800000D01*
X6049216D01*
X6067019Y5804770D01*
X6082981Y5813986D01*
X6096014Y5827019D01*
X6100226Y5834314D01*
X6810219D01*
X7374314Y5270219D01*
Y5000226D01*
X7367019Y4996014D01*
X7353986Y4982981D01*
X7344770Y4967019D01*
X7340000Y4949216D01*
Y4930784D01*
X7344770Y4912981D01*
X7353986Y4897019D01*
X7367019Y4883986D01*
X7382981Y4874771D01*
X7400784Y4870000D01*
X7419216D01*
X7437019Y4874771D01*
X7452981Y4883986D01*
X7466014Y4897019D01*
X7475229Y4912981D01*
X7480000Y4930784D01*
Y4949216D01*
X7475229Y4967019D01*
X7466014Y4982981D01*
X7452981Y4996014D01*
X7445686Y5000226D01*
Y5285000D01*
X7442969Y5298656D01*
X7435234Y5310234D01*
X6850234Y5895234D01*
X6838656Y5902969D01*
X6825000Y5905686D01*
X6100226D01*
X6096014Y5912981D01*
X6082981Y5926014D01*
X6067019Y5935229D01*
X6049216Y5940000D01*
D02*
G37*
G36*
X8067500Y4957772D02*
X8047957Y4952535D01*
X8021643Y4937343D01*
X8000157Y4915857D01*
X7984964Y4889543D01*
X7979728Y4870000D01*
X8067500D01*
Y4957772D01*
D02*
G37*
G36*
X9152500Y5162906D02*
X9122500D01*
X9095089Y5159297D01*
X9069547Y5148717D01*
X9047613Y5131887D01*
X9030783Y5109953D01*
X9020202Y5084410D01*
X9016594Y5057000D01*
X9020202Y5029590D01*
X9030783Y5004047D01*
X9047613Y4982113D01*
X9069547Y4965283D01*
X9095089Y4954703D01*
X9098045Y4954314D01*
X9095423Y4914314D01*
X9058750D01*
X9040548Y4910693D01*
X9025117Y4900383D01*
X9014806Y4884952D01*
X9011186Y4866750D01*
Y4827999D01*
X9137500D01*
X9263814D01*
Y4866750D01*
X9260193Y4884952D01*
X9249883Y4900383D01*
X9234452Y4910693D01*
X9216250Y4914314D01*
X9179577D01*
X9176955Y4954314D01*
X9179911Y4954703D01*
X9205453Y4965283D01*
X9227387Y4982113D01*
X9244217Y5004047D01*
X9254797Y5029590D01*
X9258406Y5057000D01*
X9254797Y5084410D01*
X9244217Y5109953D01*
X9227387Y5131887D01*
X9205453Y5148717D01*
X9179911Y5159297D01*
X9152500Y5162906D01*
D02*
G37*
G36*
X535000Y5910949D02*
X465000D01*
X436284Y5907169D01*
X409525Y5896085D01*
X386547Y5878453D01*
X368915Y5855475D01*
X357831Y5828716D01*
X354051Y5800000D01*
X357831Y5771284D01*
X368915Y5744525D01*
X386547Y5721547D01*
X409525Y5703915D01*
X429215Y5695759D01*
X433018Y5675000D01*
X429215Y5654241D01*
X409525Y5646085D01*
X386547Y5628453D01*
X368915Y5605475D01*
X357831Y5578716D01*
X354051Y5550000D01*
X357831Y5521284D01*
X368915Y5494525D01*
X386547Y5471547D01*
X409525Y5453915D01*
X429215Y5445759D01*
X433018Y5425000D01*
X429215Y5404241D01*
X409525Y5396085D01*
X386547Y5378453D01*
X368915Y5355475D01*
X357831Y5328716D01*
X354051Y5300000D01*
X357831Y5271284D01*
X368915Y5244525D01*
X386547Y5221547D01*
X409525Y5203915D01*
X429215Y5195759D01*
X433018Y5175000D01*
X429215Y5154241D01*
X409525Y5146085D01*
X386547Y5128453D01*
X368915Y5105475D01*
X357831Y5078716D01*
X354051Y5050000D01*
X357831Y5021284D01*
X368915Y4994525D01*
X386547Y4971547D01*
X408348Y4954819D01*
X408805Y4949967D01*
X402182Y4913661D01*
X401622Y4913588D01*
X384496Y4906494D01*
X369790Y4895210D01*
X358506Y4880504D01*
X351412Y4863378D01*
X348992Y4845000D01*
Y4825000D01*
X500000D01*
X651008D01*
Y4845000D01*
X648588Y4863378D01*
X641494Y4880504D01*
X630210Y4895210D01*
X615504Y4906494D01*
X598378Y4913588D01*
X597818Y4913661D01*
X591195Y4949967D01*
X591652Y4954819D01*
X613453Y4971547D01*
X631085Y4994525D01*
X642169Y5021284D01*
X645949Y5050000D01*
X642169Y5078716D01*
X631085Y5105475D01*
X613453Y5128453D01*
X590475Y5146085D01*
X570785Y5154241D01*
X566982Y5175000D01*
X570785Y5195759D01*
X590475Y5203915D01*
X613453Y5221547D01*
X631085Y5244525D01*
X642169Y5271284D01*
X645949Y5300000D01*
X642169Y5328716D01*
X631085Y5355475D01*
X613453Y5378453D01*
X590475Y5396085D01*
X570785Y5404241D01*
X566982Y5425000D01*
X570785Y5445759D01*
X590475Y5453915D01*
X613453Y5471547D01*
X631085Y5494525D01*
X642169Y5521284D01*
X645949Y5550000D01*
X642169Y5578716D01*
X631085Y5605475D01*
X613453Y5628453D01*
X590475Y5646085D01*
X570785Y5654241D01*
X566982Y5675000D01*
X570785Y5695759D01*
X590475Y5703915D01*
X613453Y5721547D01*
X631085Y5744525D01*
X642169Y5771284D01*
X645949Y5800000D01*
X642169Y5828716D01*
X631085Y5855475D01*
X613453Y5878453D01*
X590475Y5896085D01*
X563716Y5907169D01*
X535000Y5910949D01*
D02*
G37*
G36*
X8205272Y4820000D02*
X8117500D01*
Y4732228D01*
X8137043Y4737464D01*
X8163357Y4752657D01*
X8184843Y4774143D01*
X8200035Y4800457D01*
X8205272Y4820000D01*
D02*
G37*
G36*
X8067500D02*
X7979728D01*
X7984964Y4800457D01*
X8000157Y4774143D01*
X8021643Y4752657D01*
X8047957Y4737464D01*
X8067500Y4732228D01*
Y4820000D01*
D02*
G37*
G36*
X9263814Y4778000D02*
X9162500D01*
Y4691686D01*
X9216250D01*
X9234452Y4695307D01*
X9249883Y4705617D01*
X9260193Y4721048D01*
X9263814Y4739250D01*
Y4778000D01*
D02*
G37*
G36*
X9112500D02*
X9011186D01*
Y4739250D01*
X9014806Y4721048D01*
X9025117Y4705617D01*
X9040548Y4695307D01*
X9058750Y4691686D01*
X9112500D01*
Y4778000D01*
D02*
G37*
G36*
X651008Y4775000D02*
X525000D01*
Y4683993D01*
X580000D01*
X598378Y4686412D01*
X615504Y4693506D01*
X630210Y4704790D01*
X641494Y4719496D01*
X648588Y4736622D01*
X651008Y4755000D01*
Y4775000D01*
D02*
G37*
G36*
X475000D02*
X348992D01*
Y4755000D01*
X351412Y4736622D01*
X358506Y4719496D01*
X369790Y4704790D01*
X384496Y4693506D01*
X401622Y4686412D01*
X420000Y4683993D01*
X475000D01*
Y4775000D01*
D02*
G37*
G36*
X8830959Y4825000D02*
X8682500D01*
X8534041D01*
X8541085Y4801779D01*
X8552729Y4779994D01*
X8568400Y4760900D01*
X8587494Y4745229D01*
X8592383Y4742616D01*
X8593732Y4697982D01*
X8590509Y4696259D01*
X8572237Y4681263D01*
X8557241Y4662991D01*
X8546098Y4642144D01*
X8539236Y4619524D01*
X8536919Y4596000D01*
X8539236Y4572476D01*
X8546098Y4549856D01*
X8557241Y4529009D01*
X8572237Y4510736D01*
X8590509Y4495741D01*
X8611356Y4484598D01*
X8633976Y4477736D01*
X8657500Y4475419D01*
X8707500D01*
X8731024Y4477736D01*
X8753644Y4484598D01*
X8774491Y4495741D01*
X8792763Y4510736D01*
X8807759Y4529009D01*
X8818902Y4549856D01*
X8825764Y4572476D01*
X8828081Y4596000D01*
X8825764Y4619524D01*
X8818902Y4642144D01*
X8807759Y4662991D01*
X8792763Y4681263D01*
X8774491Y4696259D01*
X8771268Y4697982D01*
X8772617Y4742616D01*
X8777506Y4745229D01*
X8796600Y4760900D01*
X8812271Y4779994D01*
X8823915Y4801779D01*
X8830959Y4825000D01*
D02*
G37*
G36*
X9747500Y4230900D02*
X9675000D01*
Y4065000D01*
X9805900D01*
Y4172500D01*
X9803910Y4187615D01*
X9798076Y4201700D01*
X9788795Y4213795D01*
X9776700Y4223076D01*
X9762615Y4228910D01*
X9747500Y4230900D01*
D02*
G37*
G36*
X9625000D02*
X9552500D01*
X9537385Y4228910D01*
X9523300Y4223076D01*
X9511205Y4213795D01*
X9501924Y4201700D01*
X9496090Y4187615D01*
X9494100Y4172500D01*
Y4065000D01*
X9625000D01*
Y4230900D01*
D02*
G37*
G36*
X9150000Y4225726D02*
X9120595Y4222830D01*
X9092320Y4214252D01*
X9066261Y4200324D01*
X9043421Y4181579D01*
X9024676Y4158739D01*
X9010748Y4132680D01*
X9002170Y4104405D01*
X8999274Y4075000D01*
Y4005000D01*
X9002170Y3975595D01*
X9010748Y3947320D01*
X9024676Y3921261D01*
X9043421Y3898421D01*
X9066261Y3879676D01*
X9092320Y3865748D01*
X9120595Y3857171D01*
X9150000Y3854274D01*
X9179405Y3857171D01*
X9207680Y3865748D01*
X9233739Y3879676D01*
X9256579Y3898421D01*
X9275324Y3921261D01*
X9289252Y3947320D01*
X9297830Y3975595D01*
X9300726Y4005000D01*
Y4075000D01*
X9297830Y4104405D01*
X9289252Y4132680D01*
X9275324Y4158739D01*
X9256579Y4181579D01*
X9233739Y4200324D01*
X9207680Y4214252D01*
X9179405Y4222830D01*
X9150000Y4225726D01*
D02*
G37*
G36*
X9805900Y4015000D02*
X9675000D01*
Y3849101D01*
X9747500D01*
X9762615Y3851090D01*
X9776700Y3856924D01*
X9788795Y3866205D01*
X9798076Y3878300D01*
X9803910Y3892385D01*
X9805900Y3907500D01*
Y4015000D01*
D02*
G37*
G36*
X9625000D02*
X9494100D01*
Y3907500D01*
X9496090Y3892385D01*
X9501924Y3878300D01*
X9511205Y3866205D01*
X9523300Y3856924D01*
X9537385Y3851090D01*
X9552500Y3849101D01*
X9625000D01*
Y4015000D01*
D02*
G37*
G36*
X535000Y4310949D02*
X465000D01*
X436284Y4307168D01*
X409525Y4296085D01*
X386547Y4278453D01*
X368915Y4255475D01*
X357831Y4228716D01*
X354051Y4200000D01*
X357831Y4171284D01*
X368915Y4144525D01*
X386547Y4121547D01*
X409525Y4103915D01*
X429215Y4095759D01*
X433018Y4075000D01*
X429215Y4054241D01*
X409525Y4046085D01*
X386547Y4028453D01*
X368915Y4005475D01*
X357831Y3978716D01*
X354051Y3950000D01*
X357831Y3921284D01*
X368915Y3894525D01*
X386547Y3871547D01*
X409525Y3853915D01*
X429215Y3845759D01*
X433018Y3825000D01*
X429215Y3804241D01*
X409525Y3796085D01*
X386547Y3778453D01*
X368915Y3755475D01*
X357831Y3728716D01*
X354051Y3700000D01*
X357831Y3671284D01*
X368915Y3644525D01*
X386547Y3621547D01*
X409525Y3603915D01*
X429215Y3595759D01*
X433018Y3575000D01*
X429215Y3554241D01*
X409525Y3546085D01*
X386547Y3528453D01*
X368915Y3505475D01*
X357831Y3478716D01*
X354051Y3450000D01*
X357831Y3421284D01*
X368915Y3394525D01*
X386547Y3371547D01*
X408348Y3354819D01*
X408805Y3349967D01*
X402182Y3313661D01*
X401622Y3313588D01*
X384496Y3306494D01*
X369790Y3295210D01*
X358506Y3280504D01*
X351412Y3263378D01*
X348992Y3245000D01*
Y3225000D01*
X500000D01*
X651008D01*
Y3245000D01*
X648588Y3263378D01*
X641494Y3280504D01*
X630210Y3295210D01*
X615504Y3306494D01*
X598378Y3313588D01*
X597818Y3313661D01*
X591195Y3349967D01*
X591652Y3354819D01*
X613453Y3371547D01*
X631085Y3394525D01*
X642169Y3421284D01*
X645949Y3450000D01*
X642169Y3478716D01*
X631085Y3505475D01*
X613453Y3528453D01*
X590475Y3546085D01*
X570785Y3554241D01*
X566982Y3575000D01*
X570785Y3595759D01*
X590475Y3603915D01*
X613453Y3621547D01*
X631085Y3644525D01*
X642169Y3671284D01*
X645949Y3700000D01*
X642169Y3728716D01*
X631085Y3755475D01*
X613453Y3778453D01*
X590475Y3796085D01*
X570785Y3804241D01*
X566982Y3825000D01*
X570785Y3845759D01*
X590475Y3853915D01*
X613453Y3871547D01*
X631085Y3894525D01*
X642169Y3921284D01*
X645949Y3950000D01*
X642169Y3978716D01*
X631085Y4005475D01*
X613453Y4028453D01*
X590475Y4046085D01*
X570785Y4054241D01*
X566982Y4075000D01*
X570785Y4095759D01*
X590475Y4103915D01*
X613453Y4121547D01*
X631085Y4144525D01*
X642169Y4171284D01*
X645949Y4200000D01*
X642169Y4228716D01*
X631085Y4255475D01*
X613453Y4278453D01*
X590475Y4296085D01*
X563716Y4307168D01*
X535000Y4310949D01*
D02*
G37*
G36*
X651008Y3175000D02*
X525000D01*
Y3083993D01*
X580000D01*
X598378Y3086412D01*
X615504Y3093506D01*
X630210Y3104790D01*
X641494Y3119496D01*
X648588Y3136622D01*
X651008Y3155000D01*
Y3175000D01*
D02*
G37*
G36*
X475000D02*
X348992D01*
Y3155000D01*
X351412Y3136622D01*
X358506Y3119496D01*
X369790Y3104790D01*
X384496Y3093506D01*
X401622Y3086412D01*
X420000Y3083993D01*
X475000D01*
Y3175000D01*
D02*
G37*
G36*
X9306743Y3370000D02*
X9273257D01*
X9240413Y3363467D01*
X9209475Y3350652D01*
X9181631Y3332047D01*
X9157952Y3308369D01*
X9139348Y3280525D01*
X9126533Y3249587D01*
X9120000Y3216743D01*
Y3183257D01*
X9126533Y3150413D01*
X9139348Y3119475D01*
X9157952Y3091631D01*
X9181631Y3067952D01*
X9209475Y3049348D01*
X9240413Y3036533D01*
X9273257Y3030000D01*
X9306743D01*
X9339587Y3036533D01*
X9370525Y3049348D01*
X9398369Y3067952D01*
X9422047Y3091631D01*
X9440652Y3119475D01*
X9453467Y3150413D01*
X9460000Y3183257D01*
Y3216743D01*
X9453467Y3249587D01*
X9440652Y3280525D01*
X9422047Y3308369D01*
X9398369Y3332047D01*
X9370525Y3350652D01*
X9339587Y3363467D01*
X9306743Y3370000D01*
D02*
G37*
G36*
X9315000Y2865863D02*
Y2716999D01*
X9463863D01*
X9458659Y2743162D01*
X9445437Y2775083D01*
X9426242Y2803811D01*
X9401811Y2828242D01*
X9373083Y2847437D01*
X9341162Y2860659D01*
X9315000Y2865863D01*
D02*
G37*
G36*
X9265000D02*
X9238838Y2860659D01*
X9206917Y2847437D01*
X9178189Y2828242D01*
X9153758Y2803811D01*
X9134563Y2775083D01*
X9121341Y2743162D01*
X9116136Y2716999D01*
X9265000D01*
Y2865863D01*
D02*
G37*
G36*
X9463863Y2666999D02*
X9315000D01*
Y2518136D01*
X9341162Y2523341D01*
X9373083Y2536563D01*
X9401811Y2555758D01*
X9426242Y2580189D01*
X9445437Y2608917D01*
X9458659Y2640838D01*
X9463863Y2666999D01*
D02*
G37*
G36*
X9265000D02*
X9116137D01*
X9121341Y2640838D01*
X9134563Y2608917D01*
X9153758Y2580189D01*
X9178189Y2555758D01*
X9206917Y2536563D01*
X9238838Y2523341D01*
X9265000Y2518136D01*
Y2666999D01*
D02*
G37*
G36*
X9069216Y2420000D02*
X9050784D01*
X9032981Y2415230D01*
X9017019Y2406014D01*
X9003986Y2392981D01*
X8999774Y2385686D01*
X8910000D01*
X8896344Y2382969D01*
X8884767Y2375234D01*
X8257352Y1747819D01*
X8249216Y1750000D01*
X8230784D01*
X8212981Y1745229D01*
X8197019Y1736014D01*
X8183986Y1722981D01*
X8174771Y1707019D01*
X8170000Y1689216D01*
Y1670784D01*
X8174771Y1652981D01*
X8183986Y1637019D01*
X8197019Y1623986D01*
X8212981Y1614770D01*
X8230784Y1610000D01*
X8249216D01*
X8267019Y1614770D01*
X8282981Y1623986D01*
X8296014Y1637019D01*
X8305230Y1652981D01*
X8310000Y1670784D01*
Y1689216D01*
X8307820Y1697352D01*
X8924782Y2314314D01*
X8999774D01*
X9003986Y2307019D01*
X9017019Y2293986D01*
X9032981Y2284771D01*
X9050784Y2280000D01*
X9069216D01*
X9087019Y2284771D01*
X9102981Y2293986D01*
X9116014Y2307019D01*
X9125229Y2322981D01*
X9130000Y2340784D01*
Y2359216D01*
X9125229Y2377019D01*
X9116014Y2392981D01*
X9102981Y2406014D01*
X9087019Y2415230D01*
X9069216Y2420000D01*
D02*
G37*
G36*
X535000Y2710949D02*
X465000D01*
X436284Y2707168D01*
X409525Y2696085D01*
X386547Y2678453D01*
X368915Y2655474D01*
X357831Y2628716D01*
X354051Y2600000D01*
X357831Y2571284D01*
X368915Y2544525D01*
X386547Y2521547D01*
X409525Y2503915D01*
X429215Y2495759D01*
X433018Y2475000D01*
X429215Y2454240D01*
X409525Y2446085D01*
X386547Y2428453D01*
X368915Y2405474D01*
X357831Y2378716D01*
X354051Y2350000D01*
X357831Y2321284D01*
X368915Y2294525D01*
X386547Y2271547D01*
X409525Y2253915D01*
X429215Y2245759D01*
X433018Y2225000D01*
X429215Y2204240D01*
X409525Y2196085D01*
X386547Y2178453D01*
X368915Y2155474D01*
X357831Y2128716D01*
X354051Y2100000D01*
X357831Y2071284D01*
X368915Y2044525D01*
X386547Y2021547D01*
X409525Y2003915D01*
X429215Y1995759D01*
X433018Y1975000D01*
X429215Y1954240D01*
X409525Y1946084D01*
X386547Y1928453D01*
X368915Y1905474D01*
X357831Y1878716D01*
X354051Y1850000D01*
X357831Y1821284D01*
X368915Y1794525D01*
X386547Y1771547D01*
X408348Y1754818D01*
X408805Y1749967D01*
X402182Y1713661D01*
X401622Y1713588D01*
X384496Y1706494D01*
X369790Y1695210D01*
X358506Y1680504D01*
X351412Y1663378D01*
X348992Y1645000D01*
Y1625000D01*
X500000D01*
X651008D01*
Y1645000D01*
X648588Y1663378D01*
X641494Y1680504D01*
X630210Y1695210D01*
X615504Y1706494D01*
X598378Y1713588D01*
X597818Y1713661D01*
X591195Y1749967D01*
X591652Y1754818D01*
X613453Y1771547D01*
X631085Y1794525D01*
X642169Y1821284D01*
X645949Y1850000D01*
X642169Y1878716D01*
X631085Y1905474D01*
X613453Y1928453D01*
X590475Y1946084D01*
X570785Y1954240D01*
X566982Y1975000D01*
X570785Y1995759D01*
X590475Y2003915D01*
X613453Y2021547D01*
X631085Y2044525D01*
X642169Y2071284D01*
X645949Y2100000D01*
X642169Y2128716D01*
X631085Y2155474D01*
X613453Y2178453D01*
X590475Y2196085D01*
X570785Y2204240D01*
X566982Y2225000D01*
X570785Y2245759D01*
X590475Y2253915D01*
X613453Y2271547D01*
X631085Y2294525D01*
X642169Y2321284D01*
X645949Y2350000D01*
X642169Y2378716D01*
X631085Y2405474D01*
X613453Y2428453D01*
X590475Y2446085D01*
X570785Y2454240D01*
X566982Y2475000D01*
X570785Y2495759D01*
X590475Y2503915D01*
X613453Y2521547D01*
X631085Y2544525D01*
X642169Y2571284D01*
X645949Y2600000D01*
X642169Y2628716D01*
X631085Y2655474D01*
X613453Y2678453D01*
X590475Y2696085D01*
X563716Y2707168D01*
X535000Y2710949D01*
D02*
G37*
G36*
X651008Y1575000D02*
X525000D01*
Y1483992D01*
X580000D01*
X598378Y1486412D01*
X615504Y1493506D01*
X630210Y1504790D01*
X641494Y1519496D01*
X648588Y1536622D01*
X651008Y1555000D01*
Y1575000D01*
D02*
G37*
G36*
X475000D02*
X348992D01*
Y1555000D01*
X351412Y1536622D01*
X358506Y1519496D01*
X369790Y1504790D01*
X384496Y1493506D01*
X401622Y1486412D01*
X420000Y1483992D01*
X475000D01*
Y1575000D01*
D02*
G37*
G36*
X9809216Y990000D02*
X9790784D01*
X9772981Y985229D01*
X9757019Y976014D01*
X9743986Y962981D01*
X9734770Y947019D01*
X9730000Y929216D01*
Y910784D01*
X9734770Y892981D01*
X9743986Y877019D01*
X9757019Y863986D01*
X9772981Y854770D01*
X9790784Y850000D01*
X9809216D01*
X9827019Y854770D01*
X9842981Y863986D01*
X9856014Y877019D01*
X9865229Y892981D01*
X9870000Y910784D01*
Y929216D01*
X9865229Y947019D01*
X9856014Y962981D01*
X9842981Y976014D01*
X9827019Y985229D01*
X9809216Y990000D01*
D02*
G37*
G36*
X1479216Y860000D02*
X1460784D01*
X1442981Y855229D01*
X1427019Y846014D01*
X1413986Y832981D01*
X1404771Y817019D01*
X1400000Y799216D01*
Y780784D01*
X1404771Y762981D01*
X1413986Y747019D01*
X1427019Y733986D01*
X1442981Y724770D01*
X1460784Y720000D01*
X1479216D01*
X1497019Y724770D01*
X1512981Y733986D01*
X1526014Y747019D01*
X1535230Y762981D01*
X1540000Y780784D01*
Y799216D01*
X1535230Y817019D01*
X1526014Y832981D01*
X1512981Y846014D01*
X1497019Y855229D01*
X1479216Y860000D01*
D02*
G37*
G36*
X8909216Y770000D02*
X8890784D01*
X8872981Y765230D01*
X8857019Y756014D01*
X8843986Y742981D01*
X8834770Y727019D01*
X8830000Y709216D01*
Y690784D01*
X8834770Y672981D01*
X8843986Y657019D01*
X8851811Y649195D01*
X8854729Y625000D01*
X8851811Y600805D01*
X8843986Y592981D01*
X8834770Y577019D01*
X8830000Y559216D01*
Y540784D01*
X8834770Y522981D01*
X8843986Y507019D01*
X8857019Y493986D01*
X8872981Y484770D01*
X8890784Y480000D01*
X8909216D01*
X8927019Y484770D01*
X8942981Y493986D01*
X8956014Y507019D01*
X8965229Y522981D01*
X8970000Y540784D01*
Y559216D01*
X8965229Y577019D01*
X8956014Y592981D01*
X8948189Y600805D01*
X8945271Y625000D01*
X8948189Y649195D01*
X8956014Y657019D01*
X8965229Y672981D01*
X8970000Y690784D01*
Y709216D01*
X8965229Y727019D01*
X8956014Y742981D01*
X8942981Y756014D01*
X8927019Y765230D01*
X8909216Y770000D01*
D02*
G37*
G36*
X8317500Y645949D02*
X8288784Y642169D01*
X8262026Y631085D01*
X8239047Y613453D01*
X8221415Y590475D01*
X8210332Y563716D01*
X8206551Y535000D01*
Y465000D01*
X8210332Y436284D01*
X8221415Y409525D01*
X8239047Y386547D01*
X8262026Y368915D01*
X8288784Y357831D01*
X8317500Y354051D01*
X8346216Y357831D01*
X8372974Y368915D01*
X8395953Y386547D01*
X8413585Y409525D01*
X8417431Y418812D01*
X8436898Y419397D01*
X8457972Y412160D01*
X8459173Y403031D01*
X8465723Y387219D01*
X8476142Y373642D01*
X8489720Y363223D01*
X8505532Y356673D01*
X8522500Y354439D01*
X8612500D01*
X8629468Y356673D01*
X8645280Y363223D01*
X8658858Y373642D01*
X8669277Y387219D01*
X8675827Y403031D01*
X8678061Y420000D01*
Y580000D01*
X8675827Y596969D01*
X8669277Y612781D01*
X8658858Y626358D01*
X8645280Y636777D01*
X8629468Y643327D01*
X8612500Y645561D01*
X8522500D01*
X8505532Y643327D01*
X8489720Y636777D01*
X8476142Y626358D01*
X8465723Y612781D01*
X8459173Y596969D01*
X8457972Y587840D01*
X8436898Y580603D01*
X8417431Y581188D01*
X8413585Y590475D01*
X8395953Y613453D01*
X8372974Y631085D01*
X8346216Y642169D01*
X8317500Y645949D01*
D02*
G37*
G36*
X1259216Y450000D02*
X1240784D01*
X1222981Y445229D01*
X1207019Y436014D01*
X1193986Y422981D01*
X1184771Y407019D01*
X1180000Y389216D01*
Y370784D01*
X1184771Y352981D01*
X1193986Y337019D01*
X1207019Y323986D01*
X1222981Y314771D01*
X1240784Y310000D01*
X1259216D01*
X1277019Y314771D01*
X1291473Y323115D01*
X1308199Y320252D01*
X1331139Y297419D01*
X1330747Y294503D01*
X1330001Y291718D01*
X1330000Y291716D01*
X1330000Y290708D01*
Y273284D01*
X1334771Y255481D01*
X1343986Y239519D01*
X1357019Y226486D01*
X1372981Y217271D01*
X1390784Y212500D01*
X1409216D01*
X1427019Y217271D01*
X1442981Y226486D01*
X1456014Y239519D01*
X1465229Y255481D01*
X1470000Y273284D01*
Y291716D01*
X1465229Y309519D01*
X1456014Y325481D01*
X1442981Y338514D01*
X1427019Y347730D01*
X1409216Y352500D01*
X1390784D01*
X1372981Y347730D01*
X1358527Y339385D01*
X1341801Y342248D01*
X1318861Y365081D01*
X1319253Y367997D01*
X1319999Y370782D01*
X1320000Y370784D01*
X1320000Y371793D01*
Y389216D01*
X1315230Y407019D01*
X1306014Y422981D01*
X1292981Y436014D01*
X1277019Y445229D01*
X1259216Y450000D01*
D02*
G37*
G36*
X9524251Y870000D02*
X9475749D01*
X9427662Y863669D01*
X9380812Y851116D01*
X9336002Y832555D01*
X9293998Y808304D01*
X9255518Y778778D01*
X9221222Y744482D01*
X9191696Y706002D01*
X9167445Y663998D01*
X9148884Y619188D01*
X9136331Y572338D01*
X9130000Y524251D01*
Y475749D01*
X9136331Y427662D01*
X9148884Y380812D01*
X9167445Y336002D01*
X9191696Y293998D01*
X9221222Y255518D01*
X9255518Y221222D01*
X9293998Y191696D01*
X9336002Y167445D01*
X9380812Y148884D01*
X9427662Y136331D01*
X9475749Y130000D01*
X9524251D01*
X9572338Y136331D01*
X9619188Y148884D01*
X9663998Y167445D01*
X9706002Y191696D01*
X9744482Y221222D01*
X9778778Y255518D01*
X9808304Y293998D01*
X9832555Y336002D01*
X9851116Y380812D01*
X9863669Y427662D01*
X9870000Y475749D01*
Y524251D01*
X9863669Y572338D01*
X9851116Y619188D01*
X9832555Y663998D01*
X9808304Y706002D01*
X9778778Y744482D01*
X9744482Y778778D01*
X9706002Y808304D01*
X9663998Y832555D01*
X9619188Y851116D01*
X9572338Y863669D01*
X9524251Y870000D01*
D02*
G37*
G36*
X504251Y840000D02*
X455749D01*
X407661Y833669D01*
X360812Y821116D01*
X316002Y802555D01*
X273998Y778304D01*
X235518Y748778D01*
X201222Y714482D01*
X171696Y676002D01*
X147445Y633998D01*
X128884Y589188D01*
X116330Y542339D01*
X110000Y494251D01*
Y445749D01*
X116330Y397662D01*
X128884Y350812D01*
X147445Y306002D01*
X171696Y263998D01*
X201222Y225518D01*
X235518Y191222D01*
X273998Y161696D01*
X316002Y137445D01*
X360812Y118884D01*
X407661Y106331D01*
X455749Y100000D01*
X504251D01*
X552338Y106331D01*
X599188Y118884D01*
X643998Y137445D01*
X686002Y161696D01*
X724481Y191222D01*
X758778Y225518D01*
X788304Y263998D01*
X812555Y306002D01*
X831116Y350812D01*
X843669Y397662D01*
X850000Y445749D01*
Y494251D01*
X843669Y542339D01*
X831116Y589188D01*
X812555Y633998D01*
X788304Y676002D01*
X758778Y714482D01*
X724481Y748778D01*
X686002Y778304D01*
X643998Y802555D01*
X599188Y821116D01*
X552338Y833669D01*
X504251Y840000D01*
D02*
G37*
%LPD*%
D32*
X6040000Y5870000D02*
X6825000D01*
X7410000Y5285000D01*
Y4940000D02*
Y5285000D01*
X7394553Y3910447D02*
X7472053D01*
X7577500Y3805000D01*
X7302499Y4002501D02*
X7394553Y3910447D01*
X7394792Y3685000D02*
X7585000D01*
X7252500Y3827292D02*
X7394792Y3685000D01*
X7715000Y2964792D02*
Y3635208D01*
Y2964792D02*
X7800000Y2879792D01*
X7715000Y3635208D02*
X7720000Y3640208D01*
X2150207Y1814793D02*
X2405000Y1560000D01*
Y1374792D02*
Y1560000D01*
X2044080Y1814793D02*
X2150207D01*
X1590000Y2268874D02*
X2044080Y1814793D01*
X2097500Y437500D02*
X2291790D01*
X1390000Y1145000D02*
Y2803399D01*
Y1145000D02*
X2097500Y437500D01*
X2122292Y487500D02*
X2335000D01*
X1440000Y1169792D02*
X2122292Y487500D01*
X1440000Y1169792D02*
Y4574082D01*
X2277500Y6387500D02*
X4925000D01*
X5100000Y6212500D01*
Y6147500D02*
Y6212500D01*
X7152500Y3699792D02*
X7352292Y3500000D01*
X7252500Y3827292D02*
Y4044632D01*
X6324082Y5045000D02*
X7302499Y4066582D01*
Y4002501D02*
Y4066582D01*
X7202500Y3770000D02*
X7372500Y3600000D01*
X6260710Y4895000D02*
X7152500Y4003211D01*
X6240000Y4845000D02*
X7102500Y3982501D01*
Y3679082D02*
Y3982501D01*
X6281421Y4945000D02*
X7202500Y4023921D01*
X7152500Y3699792D02*
Y4003211D01*
X7102500Y3679082D02*
X7391582Y3390000D01*
X7202500Y3770000D02*
Y4023921D01*
X6302131Y4995000D02*
X7252500Y4044632D01*
X4952661Y4995000D02*
X6302131D01*
X4911240Y4895000D02*
X6260710D01*
X4931951Y4945000D02*
X6281421D01*
X4890530Y4845000D02*
X6240000D01*
X4973371Y5045000D02*
X6324082D01*
X6464792Y4975000D02*
X6465000D01*
X6415000Y5024792D02*
X6464792Y4975000D01*
X6465000D02*
X7400000Y4040000D01*
X6415000Y5024792D02*
Y5220028D01*
X7391582Y3390000D02*
X7550000D01*
X6945000Y3037500D02*
X7247500Y3340000D01*
X7400000D02*
X7585000Y3155000D01*
X7247500Y3340000D02*
X7400000D01*
X7585000Y3064792D02*
Y3155000D01*
X5844290Y2895000D02*
X6523210D01*
X5823579Y2845000D02*
X6543921D01*
X5773579Y2895000D02*
X5823579Y2845000D01*
X5865000Y2945000D02*
X6502500D01*
X5750000Y3059999D02*
X5865000Y2945000D01*
X3289793Y3059999D02*
X5750000D01*
X3269082Y3010000D02*
X5729290D01*
X5674792Y2895000D02*
X5773579D01*
X5729290Y3010000D02*
X5844290Y2895000D01*
X6543921Y2845000D02*
X6636421Y2937500D01*
X6616058Y2795000D02*
X6651058Y2830000D01*
X6636421Y2937500D02*
X7137500D01*
X6595000Y3037500D02*
X6945000D01*
X6523210Y2895000D02*
X6615710Y2987500D01*
X6502500Y2945000D02*
X6595000Y3037500D01*
X5705000Y2795000D02*
X6616058D01*
X6651058Y2830000D02*
X6670000D01*
X6615710Y2987500D02*
X6967292D01*
X5700000Y2800000D02*
X5705000Y2795000D01*
X6195000Y2745000D02*
X7345000D01*
X6065000Y2615000D02*
X6195000Y2745000D01*
X6967292Y2987500D02*
X7264792Y3285000D01*
X7137500Y2937500D02*
X7300000Y3100000D01*
X7264792Y3285000D02*
X7335208D01*
X7665000Y3655918D02*
X7670000Y3660919D01*
X7665000Y3740208D02*
X7670000Y3735208D01*
X7715000Y3760919D02*
X7720000Y3755918D01*
X7665000Y3740208D02*
Y3855918D01*
Y2944082D02*
Y3655918D01*
X7720000Y3640208D02*
Y3755918D01*
X7715000Y3835208D02*
X7815147Y3935355D01*
X7665000Y3855918D02*
X7794437Y3985355D01*
X7670000Y3660919D02*
Y3735208D01*
X7715000Y3760919D02*
Y3835208D01*
X5416421Y2565000D02*
X7187500D01*
X5395710Y2515000D02*
X7208210D01*
X5380000Y2460000D02*
X7250748D01*
X7187500Y2565000D02*
X7317500Y2695000D01*
X7208210Y2515000D02*
X7293210Y2600000D01*
X7250748Y2460000D02*
X7290748Y2500000D01*
X7293210Y2600000D02*
X7400000D01*
X7317500Y2695000D02*
X7495000D01*
X7290748Y2500000D02*
X7470000D01*
X7345000Y2745000D02*
X7400000Y2800000D01*
X7495000Y2695000D02*
X7500000Y2700000D01*
X7390000Y2410000D02*
X7400000Y2400000D01*
X5350208Y2410000D02*
X7390000D01*
X5329085Y2510915D02*
X5380000Y2460000D01*
X5000208Y2760000D02*
X5350208Y2410000D01*
X5437131Y2615000D02*
X6065000D01*
X5092131Y2960000D02*
X5437131Y2615000D01*
X5071421Y2910000D02*
X5416421Y2565000D01*
X5050710Y2860000D02*
X5395710Y2515000D01*
X4882500Y2117500D02*
X5192500D01*
X5275000Y2200000D01*
X5940208D01*
X4735000Y2065000D02*
X5212500D01*
X5274792Y1915000D02*
X5359792Y2000000D01*
X7520208D01*
X5318371Y2100000D02*
X6270918D01*
X5297500Y2150000D02*
X6250208D01*
X5233371Y2015000D02*
X5318371Y2100000D01*
X5254082Y1965000D02*
X5339082Y2050000D01*
X6291629D01*
X5212500Y2065000D02*
X5297500Y2150000D01*
X4750000Y2250000D02*
X4882500Y2117500D01*
X5740208Y1950000D02*
X7540919D01*
X5326629Y1395000D02*
X5781629Y1850001D01*
X5305918Y1445000D02*
X5760919Y1900001D01*
X5347339Y1345000D02*
X5802340Y1800001D01*
X5285208Y1495000D02*
X5740208Y1950000D01*
X5760919Y1900001D02*
X7561629D01*
X5940208Y2200000D02*
X6100208Y2360000D01*
X5802340Y1800001D02*
X7603050D01*
X5781629Y1850001D02*
X7582339D01*
X3370208Y940000D02*
X3460000Y1029792D01*
Y1210000D01*
X3270000Y1400000D02*
X3460000Y1210000D01*
X2900000Y940000D02*
X3370208D01*
X4839450Y5037501D02*
X4931951Y4945000D01*
X4994082Y5095000D02*
X5160180D01*
X5400181Y5335001D01*
X6300028D02*
X6415000Y5220028D01*
X4880871Y5137501D02*
X4973371Y5045000D01*
X4860160Y5087501D02*
X4952661Y4995000D01*
X4798029Y4937501D02*
X4890530Y4845000D01*
X5400181Y5335001D02*
X6300028D01*
X4818739Y4987501D02*
X4911240Y4895000D01*
X5400000Y5160000D02*
X5790000D01*
X4004290Y6065000D02*
X4085000Y5984290D01*
X2174082Y6065000D02*
X4004290D01*
X1620000Y5510918D02*
X2174082Y6065000D01*
X2325872Y6287500D02*
X3852500D01*
X4085000Y5885208D02*
Y5984290D01*
X3852500Y6287500D02*
X4190000Y5950000D01*
X1570000Y5531629D02*
X2325872Y6287500D01*
X5095710Y6437500D02*
X5430000Y6103210D01*
X1470000Y5580000D02*
X2277500Y6387500D01*
X1520000Y5552339D02*
X2305161Y6337500D01*
X2256789Y6437500D02*
X5095710D01*
X4113210Y6337500D02*
X4395000Y6055710D01*
X2305161Y6337500D02*
X4113210D01*
X1420000Y5600711D02*
X2256789Y6437500D01*
X2194792Y6015000D02*
X3885208D01*
X3980000Y5920208D01*
Y5920000D02*
Y5920208D01*
X1670000Y5490208D02*
X2194792Y6015000D01*
X1840000Y2715000D02*
Y4130918D01*
X1789999Y2694291D02*
X2501790Y1982500D01*
X1739999Y2673580D02*
X2481079Y1932500D01*
X1739999Y2673580D02*
Y4239999D01*
X1789999Y2694291D02*
Y4151628D01*
X1840000Y2715000D02*
X2522500Y2032500D01*
X1640000Y2289584D02*
Y4491240D01*
X1540000Y2089793D02*
X1935000Y1694792D01*
X1640000Y2289584D02*
X2064791Y1864793D01*
X1490000Y2059792D02*
X2489792Y1060000D01*
X1590000Y2268874D02*
Y4511950D01*
X1490000Y2059792D02*
Y4553371D01*
X1540000Y2089793D02*
Y4532661D01*
X1689999Y2480001D02*
Y4470530D01*
Y2480001D02*
X1815000Y2355000D01*
X1250000Y2943399D02*
X1390000Y2803399D01*
X2200917Y1864793D02*
X2665710Y1400000D01*
X3270000D01*
X2064791Y1864793D02*
X2200917D01*
X2489792Y1060000D02*
X3370000D01*
X2266398Y1363394D02*
X2306606D01*
X1935000Y1694792D02*
X2266398Y1363394D01*
X2306606D02*
X2320000Y1350000D01*
X1935000Y1694792D02*
Y1694792D01*
X2405000Y1374792D02*
X2629792Y1150000D01*
X2300000Y3800000D02*
X2313394Y3786606D01*
Y3753557D02*
Y3786606D01*
Y3753557D02*
X3206951Y2860000D01*
X2471421Y4100000D02*
X2700000Y3871420D01*
Y3579081D02*
X3269082Y3010000D01*
X2600000Y3537661D02*
X3227661Y2910000D01*
X2600000Y3537661D02*
Y3830000D01*
X2500710Y4000000D02*
X2650000Y3850710D01*
X2700000Y3579081D02*
Y3871420D01*
X2530000Y3900000D02*
X2600000Y3830000D01*
X2650000Y3558371D02*
X3248372Y2960000D01*
X2650000Y3558371D02*
Y3850710D01*
X2660000Y4300000D02*
X2750000Y4210000D01*
Y3599792D02*
X3289793Y3059999D01*
X2750000Y3599792D02*
Y4210000D01*
X2200000Y4100000D02*
X2471421D01*
X1789999Y4151628D02*
X2136606Y4498235D01*
Y4536606D02*
X2150000Y4550000D01*
X2136606Y4498235D02*
Y4536606D01*
X1250000Y3510856D02*
X1390000Y3650856D01*
Y4594792D02*
X1420000Y4624792D01*
X1390000Y3650856D02*
Y4594792D01*
X2205563Y4414645D02*
X2285000Y4494082D01*
X1840000Y4130918D02*
X2173726Y4464645D01*
X1590000Y4511950D02*
X1620000Y4541951D01*
Y5510918D01*
X1540000Y4532661D02*
X1570000Y4562661D01*
X1890000Y4110208D02*
X2194437Y4414645D01*
X1570000Y4562661D02*
Y5531629D01*
X1890000Y3202573D02*
X1907574Y3184999D01*
X1440000Y4574082D02*
X1470000Y4604082D01*
X1670000Y4521240D02*
Y5490208D01*
X2184853Y4464645D02*
X2235000Y4514792D01*
X1739999Y4239999D02*
X2000000Y4500000D01*
X1520000Y4583371D02*
Y5552339D01*
X1640000Y4491240D02*
X1670000Y4521240D01*
X1470000Y4604082D02*
Y5580000D01*
X1490000Y4553371D02*
X1520000Y4583371D01*
X2173726Y4464645D02*
X2184853D01*
X2194437Y4414645D02*
X2205563D01*
X1689999Y4470530D02*
X1720000Y4500530D01*
X1890000Y3202573D02*
Y4110208D01*
X1720000Y4500530D02*
Y4760000D01*
X5430000Y5859792D02*
Y6103210D01*
X3110711Y4815001D02*
X3333211Y5037501D01*
X3090001Y4865001D02*
X3312501Y5087501D01*
X4966582Y5337500D02*
X4994082Y5365000D01*
X3312501Y5087501D02*
X4860160D01*
X3116420Y4750000D02*
X3353922Y4987501D01*
X4987293Y5287500D02*
X5014792Y5315000D01*
X3806421Y5800000D02*
X4168921Y5437500D01*
X3353922Y4987501D02*
X4818739D01*
X3290001Y5137501D02*
X4880871D01*
X4922291Y5237501D02*
X5014792Y5145000D01*
X4925161Y5437500D02*
X4952661Y5465000D01*
X3462500Y5287500D02*
X4987293D01*
X3075000Y5554792D02*
X3392291Y5237501D01*
X3835711Y5700000D02*
X4148210Y5387500D01*
X3333211Y5037501D02*
X4839450D01*
X3875000Y5590000D02*
X4127500Y5337500D01*
X4904451Y5487500D02*
X4931951Y5515000D01*
X3102500Y4950000D02*
X3290001Y5137501D01*
X4127500Y5337500D02*
X4966582D01*
X4901581Y5187501D02*
X4994082Y5095000D01*
X4168921Y5437500D02*
X4925161D01*
X3374632Y4937501D02*
X4798029D01*
X4945872Y5387500D02*
X4973371Y5415000D01*
X3371581Y5187501D02*
X4901581D01*
X3025000Y5534081D02*
X3371581Y5187501D01*
X3160000Y5590000D02*
X3462500Y5287500D01*
X3915000Y5762131D02*
X4189631Y5487500D01*
X3107131Y4670000D02*
X3374632Y4937501D01*
X4148210Y5387500D02*
X4945872D01*
X4189631Y5487500D02*
X4904451D01*
X3392291Y5237501D02*
X4922291D01*
X4931951Y5515000D02*
X5101656D01*
X6424290Y5635000D02*
X7574290Y4485000D01*
X6362159Y5485000D02*
X7597159Y4250000D01*
X6585000Y4944792D02*
Y5120738D01*
X7567869Y4350000D02*
X7900000D01*
X7597159Y4250000D02*
X7800000D01*
X7553580Y4435000D02*
X7935208D01*
X6660000Y5470000D02*
X7595000Y4535000D01*
X6382869Y5535000D02*
X7567869Y4350000D01*
X5338050Y5485000D02*
X6362159D01*
X5275918Y5635000D02*
X6424290D01*
X6320738Y5385000D02*
X6585000Y5120738D01*
X5296629Y5585000D02*
X6403580D01*
X7595000Y4535000D02*
X7976629D01*
X5379470Y5385000D02*
X6320738D01*
X7574290Y4485000D02*
X7955918D01*
X6403580Y5585000D02*
X7553580Y4435000D01*
X5317339Y5535000D02*
X6382869D01*
X5358760Y5435000D02*
X6341448D01*
X6660000Y5470000D02*
Y5565000D01*
X6341448Y5435000D02*
X7400000Y4376449D01*
Y4250000D02*
Y4376449D01*
X7811629Y3800000D02*
X8085000Y4073371D01*
X7800000Y3800000D02*
X7811629D01*
X7665000Y2944082D02*
X7680000Y2929082D01*
X7800000Y2800000D02*
Y2879792D01*
X7680000Y2800000D02*
Y2929082D01*
X7495000Y2315000D02*
X7560000Y2380000D01*
Y2552813D01*
X8184999Y2311239D02*
Y3335209D01*
X7920208Y3600000D02*
X8184999Y3335209D01*
X8234999Y2290529D02*
Y3365001D01*
X7900000Y3700000D02*
X8234999Y3365001D01*
X8134999Y2331950D02*
Y3265001D01*
X8084999Y2352660D02*
Y3235209D01*
X7900000Y3500000D02*
X8134999Y3265001D01*
X7930208Y3390000D02*
X8084999Y3235209D01*
X7920208Y3200000D02*
X8034999Y3085209D01*
Y2373370D02*
Y3085209D01*
X7480180Y1465000D02*
X8450000Y2434820D01*
X7285208Y1465000D02*
X7480180D01*
X7540919Y1950000D02*
X7984999Y2394081D01*
X7561629Y1900001D02*
X8034999Y2373370D01*
X7520208Y2000000D02*
X7900000Y2379792D01*
X7582339Y1850001D02*
X8084999Y2352660D01*
X7623760Y1750001D02*
X8184999Y2311239D01*
X6160001Y1750001D02*
X7623760D01*
X7603050Y1800001D02*
X8134999Y2331950D01*
X6055000Y1645000D02*
X6160001Y1750001D01*
X6250208Y2150000D02*
X6394419Y2294211D01*
X6291629Y2050000D02*
X6435840Y2194212D01*
X6270918Y2100000D02*
X6415130Y2244211D01*
X7984999Y2394081D02*
Y2935208D01*
X6100208Y2360000D02*
X6830000D01*
X6435840Y2194212D02*
X6783658D01*
X6415130Y2244211D02*
X6804368D01*
X6394419Y2294211D02*
X6825079D01*
X6055000Y1485000D02*
Y1645000D01*
X4664792Y2015000D02*
X5233371D01*
X4215641Y1915000D02*
X5274792D01*
X4635000Y1965000D02*
X5254082D01*
X4550000Y2129792D02*
X4664792Y2015000D01*
X4130641Y2000000D02*
X4215641Y1915000D01*
X4450000Y2150000D02*
X4635000Y1965000D01*
X3380000Y2000000D02*
X4130641D01*
X3380000Y2000000D02*
X3380000Y2000000D01*
X3489793Y1765000D02*
X3814792D01*
X4084792Y1495000D01*
X2495000Y264792D02*
Y327500D01*
X2335000Y487500D02*
X2495000Y327500D01*
X2291790Y437500D02*
X2429645Y299645D01*
Y223995D02*
Y299645D01*
X2495000Y264792D02*
X2524792Y235000D01*
X1907574Y3184999D02*
X2168440D01*
X2315000Y2537703D02*
Y3038439D01*
X2168440Y3184999D02*
X2315000Y3038439D01*
Y2537703D02*
X2770203Y2082500D01*
X3010341D01*
X3697841Y1395000D01*
X5326629D01*
X3677131Y1345000D02*
X5347339D01*
X2989631Y2032500D02*
X3677131Y1345000D01*
X2522500Y2032500D02*
X2989631D01*
X2287500Y1882500D02*
X2927500D01*
X3615000Y1195000D01*
X2501790Y1982500D02*
X2968921D01*
X2481079Y1932500D02*
X2948210D01*
X3656421Y1295000D02*
X5865000D01*
X3615000Y1195000D02*
X5906421D01*
X3635710Y1245000D02*
X5885711D01*
X2948210Y1932500D02*
X3635710Y1245000D01*
X2968921Y1982500D02*
X3656421Y1295000D01*
X1865000Y2305000D02*
X2287500Y1882500D01*
X1720000Y4760000D02*
X1990000Y5030000D01*
X1420000Y4624792D02*
Y5600711D01*
X2400000Y4929793D02*
Y5050000D01*
Y4929793D02*
X2464792Y4865001D01*
X2500000Y4950000D02*
X3102500D01*
X2464792Y4865001D02*
X3090001D01*
X2380000Y4670000D02*
X3107131D01*
X2370711Y4750000D02*
X3116420D01*
X2377499Y4815001D02*
X3110711D01*
X2313394Y4879107D02*
X2377499Y4815001D01*
X2313394Y4879107D02*
Y4936606D01*
X2200000Y4920711D02*
X2370711Y4750000D01*
X2100000Y4950000D02*
X2380000Y4670000D01*
X2110208Y4850000D02*
X2285000Y4675208D01*
Y4494082D02*
Y4675208D01*
X2000000Y4850000D02*
X2110208D01*
X2300000Y4950000D02*
X2313394Y4936606D01*
X3590000Y5700000D02*
X3835711D01*
X3800000Y5800000D02*
X3806421D01*
X3915000Y5762131D02*
Y5846058D01*
X3670000Y5590000D02*
X3875000D01*
X5101656Y5515000D02*
X5101657Y5515000D01*
X5155918D01*
X5014792Y5145000D02*
X5139470D01*
X5379470Y5385000D01*
X5218050Y5365000D02*
X5338050Y5485000D01*
X5155918Y5515000D02*
X5275918Y5635000D01*
X5238760Y5315000D02*
X5358760Y5435000D01*
X5197339Y5415000D02*
X5317339Y5535000D01*
X5176629Y5465000D02*
X5296629Y5585000D01*
X5161000Y5723350D02*
Y6086500D01*
X5100000Y6147500D02*
X5161000Y6086500D01*
X4065000Y5863942D02*
Y5865208D01*
X4085000Y5885208D01*
X4020000Y5818942D02*
X4065000Y5863942D01*
X4020000Y5800000D02*
Y5818942D01*
X7352292Y3500000D02*
X7500000D01*
X7860000Y1670000D02*
X8000000Y1530000D01*
X7520000Y60000D02*
X8000000Y540000D01*
Y1530000D01*
X7654792Y2575000D02*
X7795000D01*
X7800000Y2580000D01*
X7610000Y2530208D02*
X7654792Y2575000D01*
X2700000Y740000D02*
X2900000Y940000D01*
X2700000Y300000D02*
Y740000D01*
X6105000Y1464290D02*
Y1624290D01*
X5885711Y1245000D02*
X6105000Y1464290D01*
Y1624290D02*
X6140711Y1660000D01*
X5865000Y1295000D02*
X6055000Y1485000D01*
X6190000Y1560000D02*
X7100000D01*
X5906421Y1195000D02*
X6176421Y1465000D01*
X7285208D01*
X3829081Y1680000D02*
X4064082Y1445000D01*
X4084792Y1495000D02*
X5285208D01*
X4064082Y1445000D02*
X5305918D01*
X3550000Y1680000D02*
X3829081D01*
X6140711Y1660000D02*
X7604470D01*
X6783658Y2194212D02*
X6812869Y2165000D01*
X5329085Y2510915D02*
Y2510915D01*
X5369498Y2320000D02*
X5940000D01*
X5030000Y2810000D02*
X5329085Y2510915D01*
X4240000Y2330000D02*
X4720000Y2810000D01*
X4240000Y2160000D02*
Y2330000D01*
Y2160000D02*
X4250000Y2150000D01*
X4915208Y2355912D02*
X5034295Y2475000D01*
X5214497Y2475000D02*
X5369498Y2320000D01*
X5085208Y2475000D02*
X5214497D01*
X5085208Y2475000D02*
X5085208Y2475000D01*
X4690000Y2450000D02*
X4784087Y2355912D01*
X5034295Y2475000D02*
X5085208D01*
X4784087Y2355912D02*
X4915208D01*
X4350000Y2250000D02*
X4860000Y2760000D01*
X5000208D01*
X8910000Y2350000D02*
X9060000D01*
X8240000Y1680000D02*
X8910000Y2350000D01*
X3206951Y2860000D02*
X5050710D01*
X4720000Y2810000D02*
X5030000D01*
X3248372Y2960000D02*
X5092131D01*
X3227661Y2910000D02*
X5071421D01*
X5790000Y5160000D02*
X5880000Y5250000D01*
X5064792Y5565000D02*
X5135208D01*
X5184498Y5315000D02*
X5184498Y5315000D01*
X5163787Y5365000D02*
X5163788Y5365000D01*
X5122367Y5465000D02*
X5122367Y5465000D01*
X4973371Y5415000D02*
X5143077D01*
X5143077Y5415000D02*
X5197339D01*
X5043185Y5586606D02*
X5064792Y5565000D01*
X5122367Y5465000D02*
X5176629D01*
X4952661Y5465000D02*
X5122367D01*
X5163788Y5365000D02*
X5218050D01*
X4994082Y5365000D02*
X5163787D01*
X5014792Y5315000D02*
X5184498D01*
X5143077Y5415000D02*
X5143077Y5415000D01*
X5135208Y5565000D02*
X5430000Y5859792D01*
X5184498Y5315000D02*
X5238760D01*
X4950000Y5600000D02*
X4963394Y5586606D01*
X5043185D01*
X4395000Y5905000D02*
Y6055710D01*
Y5905000D02*
X4500000Y5800000D01*
X3860000Y5901058D02*
X3915000Y5846058D01*
X3860000Y5901058D02*
Y5920000D01*
X1815000Y2354792D02*
Y2355000D01*
Y2354792D02*
X1864792Y2305000D01*
X1865000D01*
X7855563Y3985355D02*
X7985000Y4114792D01*
X7876274Y3935355D02*
X8035000Y4094082D01*
X7976629Y4535000D02*
X8085000Y4426629D01*
Y4073371D02*
Y4426629D01*
X7955918Y4485000D02*
X8035000Y4405918D01*
X7935208Y4435000D02*
X7985000Y4385208D01*
X8035000Y4094082D02*
Y4405918D01*
X7985000Y4114792D02*
Y4385208D01*
X7794437Y3985355D02*
X7855563D01*
X7815147Y3935355D02*
X7876274D01*
X6585000Y4944792D02*
X7379792Y4150000D01*
X7595000Y2587813D02*
X7674687Y2667500D01*
X7595000Y2587813D02*
X7595000D01*
X7560000Y2552813D02*
X7595000Y2587813D01*
X7696420Y2466420D02*
X7700000Y2470000D01*
X7536421Y2215000D02*
X7696420Y2375000D01*
Y2466420D01*
X7520208Y3000000D02*
X7585000Y3064792D01*
X7515710Y2265000D02*
X7610000Y2359290D01*
Y2530208D01*
X6854290Y2265000D02*
X7515710D01*
X6830000Y2360000D02*
X6875000Y2315000D01*
X7565000Y2165000D02*
X7800000Y2400000D01*
X6833579Y2215000D02*
X7536421D01*
X6825079Y2294211D02*
X6854290Y2265000D01*
X6812869Y2165000D02*
X7565000D01*
X6804368Y2244211D02*
X6833579Y2215000D01*
X6875000Y2315000D02*
X7495000D01*
X3165001Y2089792D02*
X3489793Y1765000D01*
X7285208Y1465000D02*
X7285208Y1465000D01*
X8450000Y2434820D02*
Y2900000D01*
X2296241Y3700000D02*
X3165001Y2831239D01*
X7315000Y2964792D02*
X7379792Y2900000D01*
X7385000Y3114290D02*
Y3235208D01*
X3165001Y2089792D02*
Y2831239D01*
X2235000Y4514792D02*
Y4585208D01*
X2170208Y4650000D02*
X2235000Y4585208D01*
X1250000Y2943399D02*
Y3510856D01*
X7604470Y1660000D02*
X8234999Y2290529D01*
X7800000Y3390000D02*
X7930208D01*
X2000000Y4650000D02*
X2170208D01*
X4650000Y2150000D02*
X4735000Y2065000D01*
X7800000Y3200000D02*
X7920208D01*
X7800000Y3600000D02*
X7920208D01*
X7920207Y3000000D02*
X7984999Y2935208D01*
X7800000Y3000000D02*
X7920207D01*
X7900000Y2379792D02*
Y2900000D01*
X2200000Y3700000D02*
X2296241D01*
X5100000Y5650000D02*
Y5662350D01*
X5161000Y5723350D01*
X4550000Y2129792D02*
Y2250000D01*
X2300000Y4000000D02*
X2500710D01*
X2200000Y3900000D02*
X2530000D01*
X7335208Y3285000D02*
X7385000Y3235208D01*
X7379792Y2900000D02*
X7500000D01*
X7315000Y3044290D02*
X7385000Y3114290D01*
X7315000Y2964792D02*
Y3044290D01*
X2200000Y4300000D02*
X2660000D01*
X5600000Y2820208D02*
X5674792Y2895000D01*
X7400000Y3000000D02*
X7520208D01*
X7300000Y3100000D02*
Y3200000D01*
X5600000Y2700000D02*
Y2820208D01*
X2200000Y4920711D02*
Y5050000D01*
X3025000Y5534081D02*
Y5536058D01*
X2990000Y5571058D02*
X3025000Y5536058D01*
X2990000Y5571058D02*
Y5590000D01*
X3075000Y5554792D02*
Y5695000D01*
X3080000Y5700000D01*
X7379792Y4150000D02*
X7500000D01*
X990000Y230000D02*
X1160000Y60000D01*
X2490000Y150000D02*
Y163639D01*
X1160000Y60000D02*
X7520000D01*
X2429645Y223995D02*
X2490000Y163639D01*
X2525208Y235000D02*
X2560208Y200000D01*
X2524792Y235000D02*
X2525208D01*
X2560208Y200000D02*
X2800000D01*
X990000Y230000D02*
Y950000D01*
X2629792Y1150000D02*
X2840000D01*
D36*
X6120000Y3594000D02*
D03*
Y3340000D02*
D03*
X4782000Y5990000D02*
D03*
X5036000D02*
D03*
X5290000D02*
D03*
X8092500Y4845000D02*
D03*
X2015000Y3839000D02*
D03*
Y3585000D02*
D03*
D37*
X6120000Y3086000D02*
D03*
X2015000Y3331000D02*
D03*
D38*
X4528000Y5990000D02*
D03*
D39*
X9500000Y500000D02*
D03*
X480000Y470000D02*
D03*
X9500000Y7500000D02*
D03*
X480000Y7470000D02*
D03*
D40*
X9150000Y4040000D02*
D03*
D41*
X9650000D02*
D03*
D42*
X8682500Y5104000D02*
D03*
Y4850000D02*
D03*
Y4596000D02*
D03*
D43*
X9137500Y4803000D02*
D03*
D44*
Y5057000D02*
D03*
D45*
X6460000Y540000D02*
D03*
Y350000D02*
D03*
D46*
X480000Y6870000D02*
D03*
Y6370000D02*
D03*
D47*
X9290000Y2692000D02*
D03*
Y3200000D02*
D03*
D48*
X8567500Y500000D02*
D03*
X7650000Y7500000D02*
D03*
X6050000D02*
D03*
X4450000D02*
D03*
X2850000D02*
D03*
X1250000D02*
D03*
D49*
X8317500Y500000D02*
D03*
X7900000Y7500000D02*
D03*
X8150000D02*
D03*
X8400000D02*
D03*
X8650000D02*
D03*
X7050000D02*
D03*
X6800000D02*
D03*
X6550000D02*
D03*
X6300000D02*
D03*
X5450000D02*
D03*
X5200000D02*
D03*
X4950000D02*
D03*
X4700000D02*
D03*
X3850000D02*
D03*
X3600000D02*
D03*
X3350000D02*
D03*
X3100000D02*
D03*
X2250000D02*
D03*
X2000000D02*
D03*
X1750000D02*
D03*
X1500000D02*
D03*
D50*
X500000Y3450000D02*
D03*
Y3700000D02*
D03*
Y3950000D02*
D03*
Y4200000D02*
D03*
Y5800000D02*
D03*
Y5550000D02*
D03*
Y5300000D02*
D03*
Y5050000D02*
D03*
Y2600000D02*
D03*
Y2350000D02*
D03*
Y2100000D02*
D03*
Y1850000D02*
D03*
X9500000Y6490000D02*
D03*
Y6240000D02*
D03*
Y5990000D02*
D03*
Y5740000D02*
D03*
Y5490000D02*
D03*
D51*
X500000Y3200000D02*
D03*
Y4800000D02*
D03*
Y1600000D02*
D03*
X9500000Y6740000D02*
D03*
D52*
X7107500Y5400000D02*
D03*
X6852500D02*
D03*
X6980000D02*
D03*
X4622500Y4472500D02*
D03*
Y4097500D02*
D03*
Y3722500D02*
D03*
Y3347500D02*
D03*
X4247500Y4472500D02*
D03*
Y4097500D02*
D03*
Y3722500D02*
D03*
Y3347500D02*
D03*
X3872500Y4472500D02*
D03*
Y4097500D02*
D03*
Y3722500D02*
D03*
Y3347500D02*
D03*
X3497500D02*
D03*
Y3722500D02*
D03*
Y4097500D02*
D03*
Y4472500D02*
D03*
X6797500Y3262500D02*
D03*
X7577500Y3805000D02*
D03*
X7585000Y3685000D02*
D03*
X6660000Y5565000D02*
D03*
X9500000Y3500000D02*
D03*
X9750000Y3000000D02*
D03*
X9500000Y2500000D02*
D03*
Y1500000D02*
D03*
X9000000Y6500000D02*
D03*
Y3500000D02*
D03*
X8250000Y5000000D02*
D03*
X7750000D02*
D03*
X7000000Y500000D02*
D03*
X5750000Y7000000D02*
D03*
Y1000000D02*
D03*
X5000000Y500000D02*
D03*
X4000000D02*
D03*
X2500000Y7500000D02*
D03*
X1000000Y4500000D02*
D03*
X500000D02*
D03*
X750000Y3000000D02*
D03*
Y1000000D02*
D03*
X5350000Y1870000D02*
D03*
X5430000Y1780000D02*
D03*
X5207500Y1700000D02*
D03*
Y1580000D02*
D03*
X1485000Y670000D02*
D03*
X7372500Y3600000D02*
D03*
X8340000Y4075000D02*
D03*
X8370000Y3472500D02*
D03*
X8130000Y530000D02*
D03*
X7910000Y1010000D02*
D03*
X5830000Y1700000D02*
D03*
X6380000Y1120000D02*
D03*
X3370000Y1060000D02*
D03*
X2100000Y1310000D02*
D03*
X7800000Y2580000D02*
D03*
X3540000Y800000D02*
D03*
X1470000Y790000D02*
D03*
X1250000Y380000D02*
D03*
X5230000Y2310000D02*
D03*
X5970000Y1570000D02*
D03*
X6190000Y1560000D02*
D03*
X6790000Y2840000D02*
D03*
X6730000Y3730000D02*
D03*
X6620000Y1220000D02*
D03*
X5080000Y1580000D02*
D03*
X5970000Y1715001D02*
D03*
X5940000Y2320000D02*
D03*
X6740000Y2100000D02*
D03*
X9800000Y920000D02*
D03*
X4460000Y2000000D02*
D03*
X4880000Y2440913D02*
D03*
X4830000Y2550000D02*
D03*
X7830000Y1350000D02*
D03*
X7850000Y740000D02*
D03*
X8770000Y950000D02*
D03*
X9060000Y2350000D02*
D03*
X8240000Y1680000D02*
D03*
X5050000Y2560000D02*
D03*
X5400000Y5160000D02*
D03*
X6040000Y5870000D02*
D03*
X6100000Y5250000D02*
D03*
X5880000D02*
D03*
X4700000Y5760000D02*
D03*
X4850000Y5670000D02*
D03*
X4950000Y5600000D02*
D03*
X4750000Y5580000D02*
D03*
X4310000Y5980000D02*
D03*
X3860000Y5920000D02*
D03*
X3980000D02*
D03*
X3420000Y5760000D02*
D03*
X7410000Y4940000D02*
D03*
X4390000Y750000D02*
D03*
X7100000Y1560000D02*
D03*
X4150000Y5830000D02*
D03*
X4190000Y5950000D02*
D03*
X6558972Y3269475D02*
D03*
X4020000Y5800000D02*
D03*
X6430000Y2650000D02*
D03*
X2860000Y2670000D02*
D03*
X2099999Y1949793D02*
D03*
X7910000Y5450000D02*
D03*
X7750000D02*
D03*
X7700000Y2470000D02*
D03*
X7680000Y2800000D02*
D03*
X7470000Y2500000D02*
D03*
X3550000Y1680000D02*
D03*
X1990000Y5030000D02*
D03*
X6670000Y2830000D02*
D03*
X5050000Y5230000D02*
D03*
X7550000Y3390000D02*
D03*
X5380000Y2800000D02*
D03*
X7300000Y3200000D02*
D03*
X6500000Y5060000D02*
D03*
X2490000Y150000D02*
D03*
X2370000D02*
D03*
X2250000D02*
D03*
X2130000D02*
D03*
X2700000Y300000D02*
D03*
X2580000D02*
D03*
X7250000Y1380000D02*
D03*
X7860000Y1670000D02*
D03*
X990000Y950000D02*
D03*
X5020000Y2250000D02*
D03*
X3800000Y5800000D02*
D03*
X2600000Y2700000D02*
D03*
X2700000Y2850000D02*
D03*
X2720000Y950000D02*
D03*
X2570000Y2120000D02*
D03*
X2020000Y1730000D02*
D03*
X2320000Y1350000D02*
D03*
X2730000Y1300000D02*
D03*
X2600000D02*
D03*
X5130000Y2390000D02*
D03*
X2250000Y5450000D02*
D03*
X1750000Y160000D02*
D03*
X2630000Y1710000D02*
D03*
X2000000Y4500000D02*
D03*
X2150000Y4550000D02*
D03*
X2490000Y3800000D02*
D03*
X2480000Y810000D02*
D03*
X6513373Y2109211D02*
D03*
X6240000Y2260000D02*
D03*
X3250000Y810000D02*
D03*
X3030000Y810000D02*
D03*
X2360000D02*
D03*
X2910000D02*
D03*
X2200000Y780000D02*
D03*
X1900000Y250000D02*
D03*
X1650000D02*
D03*
X5700000Y2800000D02*
D03*
X5600000Y2700000D02*
D03*
X5500000Y2800000D02*
D03*
X5920000Y3200000D02*
D03*
X5780000D02*
D03*
X2840000Y1150000D02*
D03*
X2800000Y1790000D02*
D03*
X2450000Y2800000D02*
D03*
X3050000Y2430000D02*
D03*
Y2300000D02*
D03*
X2230000Y2560000D02*
D03*
X1900000Y2390000D02*
D03*
X4120000Y2470000D02*
D03*
X8900000Y550000D02*
D03*
Y700000D02*
D03*
X7350000Y1550000D02*
D03*
X5800000Y3500000D02*
D03*
X7550000Y1400000D02*
D03*
X5100000Y5650000D02*
D03*
X8840000Y7050000D02*
D03*
X7510000Y6665000D02*
D03*
X8410000Y6200000D02*
D03*
X8160000Y6190000D02*
D03*
X6930000Y6150000D02*
D03*
X6680000D02*
D03*
X5200000Y6190000D02*
D03*
X4970000Y6200000D02*
D03*
X3650000Y6150000D02*
D03*
X3410000Y6190000D02*
D03*
X2700000Y5500000D02*
D03*
X1850000Y5550000D02*
D03*
Y5430000D02*
D03*
X5910000Y6665000D02*
D03*
X4310000D02*
D03*
X2710000D02*
D03*
X1110000D02*
D03*
X1335000Y4660000D02*
D03*
Y3060000D02*
D03*
X7400000Y4250000D02*
D03*
X7500000Y4150000D02*
D03*
X7400000Y4040000D02*
D03*
X7500000Y3500000D02*
D03*
X7400000Y2400000D02*
D03*
Y2600000D02*
D03*
X7500000Y2700000D02*
D03*
X7400000Y2800000D02*
D03*
X7500000Y2900000D02*
D03*
X7400000Y3000000D02*
D03*
X7500000Y3100000D02*
D03*
X7800000Y2400000D02*
D03*
X7680000Y2660000D02*
D03*
X8450000Y2900000D02*
D03*
X7800000Y2800000D02*
D03*
X7900000Y2900000D02*
D03*
X7800000Y3000000D02*
D03*
X7900000Y3100000D02*
D03*
X7800000Y3200000D02*
D03*
Y3800000D02*
D03*
X7900000Y3700000D02*
D03*
X7800000Y3600000D02*
D03*
X7900000Y3500000D02*
D03*
X7800000Y3390000D02*
D03*
X7900000Y4150000D02*
D03*
X7800000Y4250000D02*
D03*
X7900000Y4350000D02*
D03*
X2980000Y330000D02*
D03*
X2800000Y200000D02*
D03*
X2300000Y300000D02*
D03*
X2000000Y730000D02*
D03*
X2790000Y2210000D02*
D03*
X1400000Y282500D02*
D03*
X3850000Y1850000D02*
D03*
X3700000D02*
D03*
X3500000Y5590000D02*
D03*
X3160000D02*
D03*
X2990000D02*
D03*
X3670000D02*
D03*
X2820000D02*
D03*
X3080000Y5700000D02*
D03*
X3590000D02*
D03*
X2500000Y5350000D02*
D03*
Y5150000D02*
D03*
X2600000Y5050000D02*
D03*
X2500000Y4950000D02*
D03*
X2400000Y5050000D02*
D03*
X2300000Y4950000D02*
D03*
X2200000Y5050000D02*
D03*
X2100000Y4950000D02*
D03*
X2000000Y4850000D02*
D03*
X2100000Y4740000D02*
D03*
X2000000Y4650000D02*
D03*
X2200000Y4300000D02*
D03*
Y4100000D02*
D03*
X2300000Y4000000D02*
D03*
X2200000Y3900000D02*
D03*
X2300000Y3800000D02*
D03*
X2200000Y3700000D02*
D03*
X2050000Y3100000D02*
D03*
X1950000Y3000000D02*
D03*
X4200000Y5650000D02*
D03*
X4500000Y5800000D02*
D03*
X4550000Y5650000D02*
D03*
X5550000Y5250000D02*
D03*
X5900000Y3590000D02*
D03*
X6150000Y4150000D02*
D03*
Y4750000D02*
D03*
Y4550000D02*
D03*
Y3950000D02*
D03*
Y4350000D02*
D03*
X6250000Y3850000D02*
D03*
Y4650000D02*
D03*
Y4040000D02*
D03*
Y4450000D02*
D03*
Y4250000D02*
D03*
X4690000Y2450000D02*
D03*
X4750000Y2250000D02*
D03*
X4650000Y2150000D02*
D03*
X4550000Y2250000D02*
D03*
X4450000Y2150000D02*
D03*
X4350000Y2250000D02*
D03*
X4250000Y2150000D02*
D03*
X3250000Y2250000D02*
D03*
X3380000Y2000000D02*
D03*
X2950000Y2210000D02*
D03*
X3375000Y2125000D02*
D03*
X3250000D02*
D03*
X4060000Y3910000D02*
D03*
X4435000D02*
D03*
X4810000D02*
D03*
X3310000D02*
D03*
X3685000D02*
D03*
X4060000Y4660000D02*
D03*
Y4285000D02*
D03*
Y3160000D02*
D03*
Y3535000D02*
D03*
X3685000Y4285000D02*
D03*
X3310000D02*
D03*
X4810000D02*
D03*
X4435000D02*
D03*
X3685000Y4660000D02*
D03*
X3310000D02*
D03*
X4810000D02*
D03*
X4435000D02*
D03*
X3685000Y3535000D02*
D03*
X3310000D02*
D03*
X4810000D02*
D03*
X4435000D02*
D03*
X3685000Y3160000D02*
D03*
X3310000D02*
D03*
X4810000D02*
D03*
X4435000D02*
D03*
X3100000Y270000D02*
D03*
X3290000Y300000D02*
D03*
X3450000Y340000D02*
D03*
X3610000Y300000D02*
D03*
X3880000Y350000D02*
D03*
X7240000Y7050000D02*
D03*
X5640000D02*
D03*
X4040000D02*
D03*
X2440000D02*
D03*
X950000Y5990000D02*
D03*
Y4390000D02*
D03*
Y2790000D02*
D03*
%TF.MD5,e8844e32a77077d79d6fa498a2e64c96*%
M02*
