%TF.GenerationSoftware,Altium Limited,Altium Designer,23.11.1 (41)*%
G04 Layer_Color=65280*
%FSLAX45Y45*%
%MOMM*%
%TF.SameCoordinates,93787688-83E1-42C5-93B8-12A4BFDEF0D2*%
%TF.FilePolarity,Positive*%
%TF.FileFunction,Other,Mechanical_15*%
%TF.Part,Single*%
G01*
G75*
%TA.AperFunction,NonConductor*%
%ADD68C,0.20000*%
%ADD98C,0.12700*%
%ADD150C,0.10000*%
%ADD151C,0.05000*%
D68*
X7787504Y3646250D02*
G03*
X7787504Y3646250I-735004J0D01*
G01*
D98*
X1861860Y5634250D02*
X2578140D01*
Y6136040D01*
X1861860D02*
X2578140D01*
X1861860Y5634250D02*
Y6136040D01*
X5966110Y2162500D02*
X6467900D01*
Y1182500D02*
Y2162500D01*
X5966110Y1182500D02*
Y2162500D01*
Y1182500D02*
X6467900D01*
D150*
X4060000Y3860000D02*
Y3960000D01*
X4010000Y3910000D02*
X4110000D01*
X5234700Y5599700D02*
X5705300D01*
X5234700D02*
Y5820300D01*
X5705300D01*
Y5599700D02*
Y5820300D01*
X5470000Y5680108D02*
Y5740108D01*
X5439992Y5710100D02*
X5499992D01*
X6950000Y4537500D02*
Y4857500D01*
X7170000D01*
Y4537500D02*
Y4857500D01*
X6950000Y4537500D02*
X7170000D01*
X7060300Y4669892D02*
Y4724892D01*
X7032808Y4697400D02*
X7087808D01*
X7200000Y4537500D02*
Y4857500D01*
X7420000D01*
Y4537500D02*
Y4857500D01*
X7200000Y4537500D02*
X7420000D01*
X7310300Y4669892D02*
Y4724892D01*
X7282808Y4697400D02*
X7337808D01*
X7459197Y4868277D02*
X7660503D01*
X7459197Y4526722D02*
Y4868277D01*
Y4526722D02*
X7660503D01*
Y4868277D01*
X7560000Y4667508D02*
Y4727508D01*
X7530008Y4697500D02*
X7590008D01*
X7709196Y4868277D02*
X7910503D01*
X7709196Y4526722D02*
Y4868277D01*
Y4526722D02*
X7910503D01*
Y4868277D01*
X7810000Y4667508D02*
Y4727508D01*
X7780008Y4697500D02*
X7840008D01*
X8768277Y4089497D02*
Y4290803D01*
X8426723D02*
X8768277D01*
X8426723Y4089497D02*
Y4290803D01*
Y4089497D02*
X8768277D01*
X8567508Y4190000D02*
X8627508D01*
X8597500Y4159992D02*
Y4219992D01*
X8768277Y3609497D02*
Y3810803D01*
X8426723D02*
X8768277D01*
X8426723Y3609497D02*
Y3810803D01*
Y3609497D02*
X8768277D01*
X8567508Y3710000D02*
X8627508D01*
X8597500Y3679992D02*
Y3739992D01*
X8768277Y3209497D02*
Y3410803D01*
X8426723D02*
X8768277D01*
X8426723Y3209497D02*
Y3410803D01*
Y3209497D02*
X8768277D01*
X8567508Y3310000D02*
X8627508D01*
X8597500Y3279992D02*
Y3339992D01*
X6762680Y2968400D02*
Y3171600D01*
X6422320Y2968400D02*
X6762680D01*
X6422320D02*
Y3171600D01*
X6762680D01*
X6592500Y3042508D02*
Y3097508D01*
X6565008Y3070000D02*
X6620008D01*
X6421722Y3369196D02*
Y3570503D01*
Y3369196D02*
X6763277D01*
Y3570503D01*
X6421722D02*
X6763277D01*
X6562492Y3470000D02*
X6622492D01*
X6592500Y3440008D02*
Y3500008D01*
X6421722Y3849197D02*
Y4050503D01*
Y3849197D02*
X6763277D01*
Y4050503D01*
X6421722D02*
X6763277D01*
X6562492Y3950000D02*
X6622492D01*
X6592500Y3920008D02*
Y3980008D01*
X7554992Y3310000D02*
X7609992D01*
X7582500Y3282492D02*
Y3337492D01*
X8344992Y1880000D02*
X8404992D01*
X8375000Y1850008D02*
Y1910008D01*
X8248000Y1816500D02*
Y1943500D01*
X8502000D01*
Y1816500D02*
Y1943500D01*
X8344992Y1880000D02*
X8404992D01*
X8375000Y1850008D02*
Y1910008D01*
X8248000Y1816500D02*
X8502000D01*
X8349497Y2001723D02*
X8550804D01*
Y2343278D01*
X8349497D02*
X8550804D01*
X8349497Y2001723D02*
Y2343278D01*
X8450000Y2142492D02*
Y2202492D01*
X8419992Y2172500D02*
X8479992D01*
X9269992Y1657200D02*
X9329992D01*
X9300000Y1627192D02*
Y1687192D01*
X8662460Y2289660D02*
X9940080D01*
X8662460Y1022200D02*
Y2289660D01*
Y1022200D02*
X9940080D01*
Y2289660D01*
X8409976Y1409984D02*
X8469975D01*
X8439984Y1379976D02*
Y1439976D01*
X8630484Y1054384D02*
Y1765584D01*
X8249484D02*
X8630484D01*
X8249484Y1054384D02*
X8630484D01*
X8249484D02*
Y1765584D01*
X8009497Y1716722D02*
X8210803D01*
Y2058277D01*
X8009497D02*
X8210803D01*
X8009497Y1716722D02*
Y2058277D01*
X8110000Y1857492D02*
Y1917492D01*
X8079992Y1887500D02*
X8139992D01*
X7759497Y1716722D02*
X7960803D01*
Y2058277D01*
X7759497D02*
X7960803D01*
X7759497Y1716722D02*
Y2058277D01*
X7860000Y1857492D02*
Y1917492D01*
X7829992Y1887500D02*
X7889992D01*
X7508400Y2057680D02*
X7711600D01*
Y1717320D02*
Y2057680D01*
X7508400Y1717320D02*
X7711600D01*
X7508400D02*
Y2057680D01*
X7582492Y1887500D02*
X7637492D01*
X7610000Y1860008D02*
Y1915008D01*
X7570460Y811200D02*
X7824460D01*
X7570460D02*
Y1291260D01*
X7824460D01*
Y811200D02*
Y1291260D01*
X7672508Y1052500D02*
X7727508D01*
X7700000Y1024992D02*
Y1079992D01*
X7270460Y811200D02*
X7524460D01*
X7270460D02*
Y1291260D01*
X7524460D01*
Y811200D02*
Y1291260D01*
X7372508Y1052500D02*
X7427508D01*
X7400000Y1024992D02*
Y1079992D01*
X3815000Y250000D02*
X4015000D01*
X3915000Y117492D02*
Y177492D01*
X3885008Y147500D02*
X3945008D01*
X3815000Y50000D02*
Y250000D01*
Y50000D02*
X4015000D01*
Y250000D01*
X3915000Y117492D02*
Y177492D01*
X3885008Y147500D02*
X3945008D01*
X3582500Y250000D02*
X3782500D01*
X3682500Y117492D02*
Y177492D01*
X3652508Y147500D02*
X3712508D01*
X3582500Y50000D02*
Y250000D01*
Y50000D02*
X3782500D01*
Y250000D01*
X3682500Y117492D02*
Y177492D01*
X3652508Y147500D02*
X3712508D01*
X3350000Y250000D02*
X3550000D01*
X3450000Y117492D02*
Y177492D01*
X3420008Y147500D02*
X3480008D01*
X3350000Y50000D02*
Y250000D01*
Y50000D02*
X3550000D01*
Y250000D01*
X3450000Y117492D02*
Y177492D01*
X3420008Y147500D02*
X3480008D01*
X3117500Y250000D02*
X3317500D01*
X3217500Y117492D02*
Y177492D01*
X3187508Y147500D02*
X3247508D01*
X3117500Y50000D02*
Y250000D01*
Y50000D02*
X3317500D01*
Y250000D01*
X3217500Y117492D02*
Y177492D01*
X3187508Y147500D02*
X3247508D01*
X2885000Y250000D02*
X3085000D01*
X2985000Y117492D02*
Y177492D01*
X2955008Y147500D02*
X3015008D01*
X2885000Y50000D02*
Y250000D01*
Y50000D02*
X3085000D01*
Y250000D01*
X2985000Y117492D02*
Y177492D01*
X2955008Y147500D02*
X3015008D01*
X1300000Y232500D02*
X1500000D01*
X1400000Y99992D02*
Y159992D01*
X1370008Y130000D02*
X1430008D01*
X1300000Y32500D02*
Y232500D01*
Y32500D02*
X1500000D01*
Y232500D01*
X1400000Y99992D02*
Y159992D01*
X1370008Y130000D02*
X1430008D01*
X1864700Y5330300D02*
X2335300D01*
Y5109700D02*
Y5330300D01*
X1864700Y5109700D02*
X2335300D01*
X1864700D02*
Y5330300D01*
X2100000Y5189892D02*
Y5249892D01*
X2070008Y5219900D02*
X2130008D01*
X6120000Y3309992D02*
Y3369992D01*
X6090008Y3340000D02*
X6150008D01*
X5980300Y3733700D02*
X6259700D01*
X5980300Y2946300D02*
Y3733700D01*
X6259700Y2946300D02*
Y3733700D01*
X5980300Y2946300D02*
X6259700D01*
X7866258Y1675000D02*
X7921258D01*
X7893750Y1647508D02*
Y1702508D01*
X6999670Y2294760D02*
X8800530D01*
X6999670Y1052700D02*
X8800530D01*
Y2294760D01*
X6999670Y1052700D02*
Y2294760D01*
X4388300Y5850300D02*
Y6129700D01*
Y5850300D02*
X5429700D01*
X4388300Y6129700D02*
X5429700D01*
Y5850300D02*
Y6129700D01*
X4909000Y5959992D02*
Y6019992D01*
X4878992Y5990000D02*
X4938992D01*
X5085000Y4902500D02*
X5405000D01*
Y5122500D01*
X5085000D02*
X5405000D01*
X5085000Y4902500D02*
Y5122500D01*
X5217392Y5012800D02*
X5272392D01*
X5244900Y4985308D02*
Y5040308D01*
X4834497Y5085777D02*
X5035803D01*
Y4744223D02*
Y5085777D01*
X4834497Y4744223D02*
X5035803D01*
X4834497D02*
Y5085777D01*
X4935000Y4885008D02*
Y4945008D01*
X4904992Y4915000D02*
X4964992D01*
X4184497Y5085777D02*
X4385804D01*
Y4744223D02*
Y5085777D01*
X4184497Y4744223D02*
X4385804D01*
X4184497D02*
Y5085777D01*
X4285000Y4885008D02*
Y4945008D01*
X4254992Y4915000D02*
X4314992D01*
X3634497Y5085777D02*
X3835803D01*
Y4744223D02*
Y5085777D01*
X3634497Y4744223D02*
X3835803D01*
X3634497D02*
Y5085777D01*
X3735000Y4885008D02*
Y4945008D01*
X3704992Y4915000D02*
X3764992D01*
X2881722Y4681997D02*
Y4883304D01*
X3223277D01*
Y4681997D02*
Y4883304D01*
X2881722Y4681997D02*
X3223277D01*
X3022492Y4782500D02*
X3082492D01*
X3052500Y4752492D02*
Y4812492D01*
X2881722Y4181997D02*
Y4383304D01*
X3223277D01*
Y4181997D02*
Y4383304D01*
X2881722Y4181997D02*
X3223277D01*
X3022492Y4282500D02*
X3082492D01*
X3052500Y4252492D02*
Y4312492D01*
X2881722Y3681997D02*
Y3883304D01*
X3223277D01*
Y3681997D02*
Y3883304D01*
X2881722Y3681997D02*
X3223277D01*
X3022492Y3782500D02*
X3082492D01*
X3052500Y3752492D02*
Y3812492D01*
X2881722Y3031997D02*
Y3233304D01*
X3223277D01*
Y3031997D02*
Y3233304D01*
X2881722Y3031997D02*
X3223277D01*
X3022492Y3132500D02*
X3082492D01*
X3052500Y3102492D02*
Y3162492D01*
X3281697Y2729223D02*
X3483003D01*
X3281697D02*
Y3070777D01*
X3483003D01*
Y2729223D02*
Y3070777D01*
X3382500Y2869992D02*
Y2929992D01*
X3352508Y2900000D02*
X3412508D01*
X3524196Y2729223D02*
X3725503D01*
X3524196D02*
Y3070777D01*
X3725503D01*
Y2729223D02*
Y3070777D01*
X3625000Y2869992D02*
Y2929992D01*
X3595008Y2900000D02*
X3655008D01*
X4031697Y2729223D02*
X4233003D01*
X4031697D02*
Y3070777D01*
X4233003D01*
Y2729223D02*
Y3070777D01*
X4132500Y2869992D02*
Y2929992D01*
X4102508Y2900000D02*
X4162508D01*
X4584497Y3070777D02*
X4785803D01*
Y2729223D02*
Y3070777D01*
X4584497Y2729223D02*
X4785803D01*
X4584497D02*
Y3070777D01*
X4685000Y2870008D02*
Y2930008D01*
X4654992Y2900000D02*
X4714992D01*
X5238278Y3581697D02*
Y3783003D01*
X4896723Y3581697D02*
X5238278D01*
X4896723D02*
Y3783003D01*
X5238278D01*
X5037508Y3682500D02*
X5097508D01*
X5067500Y3652508D02*
Y3712508D01*
X5238278Y3039197D02*
Y3240503D01*
X4896723Y3039197D02*
X5238278D01*
X4896723D02*
Y3240503D01*
X5238278D01*
X5037508Y3140000D02*
X5097508D01*
X5067500Y3110008D02*
Y3170008D01*
X5238278Y2796697D02*
Y2998003D01*
X4896723Y2796697D02*
X5238278D01*
X4896723D02*
Y2998003D01*
X5238278D01*
X5037508Y2897500D02*
X5097508D01*
X5067500Y2867508D02*
Y2927508D01*
X5238278Y4081697D02*
Y4283003D01*
X4896723Y4081697D02*
X5238278D01*
X4896723D02*
Y4283003D01*
X5238278D01*
X5037508Y4182500D02*
X5097508D01*
X5067500Y4152508D02*
Y4212508D01*
X6647500Y4875000D02*
Y5980000D01*
Y4875000D02*
X7310000D01*
Y5980000D01*
X6647500D02*
X7310000D01*
X6950008Y5530000D02*
X7010008D01*
X6980000Y5500008D02*
Y5560008D01*
X7802500Y2538750D02*
Y4711250D01*
X6305000Y2538750D02*
Y4711250D01*
X7802500D01*
X6305000Y2538750D02*
X7802500D01*
X7052500Y3595008D02*
Y3655008D01*
X7022508Y3625000D02*
X7082508D01*
X9500000Y472492D02*
Y527492D01*
X9472508Y500000D02*
X9527508D01*
X9576200Y119000D02*
X9893700D01*
Y893700D01*
X9106300D02*
X9893700D01*
X9106300Y119000D02*
Y893700D01*
Y119000D02*
X9576200D01*
X9529820Y995942D02*
Y1199142D01*
Y995942D02*
X9870180D01*
Y1199142D01*
X9529820D02*
X9870180D01*
X9700000Y1070050D02*
Y1125050D01*
X9672492Y1097542D02*
X9727492D01*
X9473277Y996738D02*
Y1198044D01*
X9131723Y996738D02*
X9473277D01*
X9131723D02*
Y1198044D01*
X9473277D01*
X9272508Y1097542D02*
X9332508D01*
X9302500Y1067550D02*
Y1127550D01*
X8859497Y1220778D02*
X9060804D01*
Y879223D02*
Y1220778D01*
X8859497Y879223D02*
X9060804D01*
X8859497D02*
Y1220778D01*
X8960000Y1020008D02*
Y1080008D01*
X8929992Y1050000D02*
X8989992D01*
X9440000Y1417517D02*
Y1477517D01*
X9409992Y1447525D02*
X9469992D01*
X9912500Y1260025D02*
Y1635025D01*
X8967500D02*
X9912500D01*
X8967500Y1260025D02*
Y1635025D01*
Y1260025D02*
X9912500D01*
X9529820Y1695942D02*
Y1899142D01*
Y1695942D02*
X9870180D01*
Y1899142D01*
X9529820D02*
X9870180D01*
X9700000Y1770050D02*
Y1825050D01*
X9672492Y1797542D02*
X9727492D01*
X9473277Y1696738D02*
Y1898044D01*
X9131723Y1696738D02*
X9473277D01*
X9131723D02*
Y1898044D01*
X9473277D01*
X9272508Y1797542D02*
X9332508D01*
X9302500Y1767550D02*
Y1827550D01*
X9440000Y2117517D02*
Y2177517D01*
X9409992Y2147525D02*
X9469992D01*
X9912500Y1960025D02*
Y2335025D01*
X8967500D02*
X9912500D01*
X8967500Y1960025D02*
Y2335025D01*
Y1960025D02*
X9912500D01*
X7856697Y2419222D02*
X8058003D01*
X7856697D02*
Y2760777D01*
X8058003D01*
Y2419222D02*
Y2760777D01*
X7957500Y2559992D02*
Y2619992D01*
X7927508Y2590000D02*
X7987508D01*
X8098400Y2760156D02*
X8301600D01*
X8098400Y2419796D02*
Y2760156D01*
Y2419796D02*
X8301600D01*
Y2760156D01*
X8172508Y2589976D02*
X8227508D01*
X8200000Y2562484D02*
Y2617484D01*
X8341697Y2419222D02*
X8543003D01*
X8341697D02*
Y2760777D01*
X8543003D01*
Y2419222D02*
Y2760777D01*
X8442500Y2559992D02*
Y2619992D01*
X8412508Y2590000D02*
X8472508D01*
X8107084Y3059913D02*
X8792884D01*
X8107084D02*
Y4025113D01*
X8792884D01*
Y3059913D02*
Y4025113D01*
X8449984Y3512521D02*
Y3572521D01*
X8419976Y3542513D02*
X8479976D01*
X9399992Y4009984D02*
Y4069984D01*
X9369984Y4039992D02*
X9429984D01*
X8864060Y4573400D02*
X9938480D01*
X8864060Y3501520D02*
Y4573400D01*
Y3501520D02*
X9938480D01*
Y4573400D01*
X8357508Y4850000D02*
X8417508D01*
X8387500Y4819992D02*
Y4879992D01*
X8832500Y4100000D02*
Y5590000D01*
X7852500Y4100000D02*
X8832500D01*
X7852500D02*
Y5590000D01*
X8832500D01*
X9511723Y4649497D02*
Y4850803D01*
X9853277D01*
Y4649497D02*
Y4850803D01*
X9511723Y4649497D02*
X9853277D01*
X9652492Y4750000D02*
X9712492D01*
X9682500Y4719992D02*
Y4779992D01*
X9137500Y4900008D02*
Y4960008D01*
X9107492Y4930000D02*
X9167492D01*
X9407500Y4660000D02*
Y5200000D01*
X8867500D02*
X9407500D01*
X8867500Y4660000D02*
Y5200000D01*
Y4660000D02*
X9407500D01*
X8869197Y5276722D02*
X9070503D01*
X8869197D02*
Y5618277D01*
X9070503D01*
Y5276722D02*
Y5618277D01*
X8970000Y5417492D02*
Y5477492D01*
X8940008Y5447500D02*
X9000008D01*
X8030000Y6360008D02*
Y6415008D01*
X8002508Y6387500D02*
X8057508D01*
X8131600Y6217320D02*
Y6557680D01*
X7928400Y6217320D02*
X8131600D01*
X7928400D02*
Y6557680D01*
X8131600D01*
X8280000Y6360008D02*
Y6415008D01*
X8252508Y6387500D02*
X8307508D01*
X8381600Y6217320D02*
Y6557680D01*
X8178400Y6217320D02*
X8381600D01*
X8178400D02*
Y6557680D01*
X8381600D01*
X8530000Y6359992D02*
Y6414992D01*
X8502492Y6387500D02*
X8557492D01*
X8428400Y6217320D02*
Y6557680D01*
X8631600D01*
Y6217320D02*
Y6557680D01*
X8428400Y6217320D02*
X8631600D01*
X8780000Y6359992D02*
Y6414992D01*
X8752492Y6387500D02*
X8807492D01*
X8678400Y6217320D02*
Y6557680D01*
X8881600D01*
Y6217320D02*
Y6557680D01*
X8678400Y6217320D02*
X8881600D01*
X7739392Y6459900D02*
X7799392D01*
X7769400Y6429908D02*
Y6489908D01*
X7657900Y6204300D02*
X7880800D01*
Y6717500D01*
X7657900D02*
X7880800D01*
X7657900Y6204300D02*
Y6717500D01*
X7999392Y6859900D02*
X8059392D01*
X8029400Y6829908D02*
Y6889908D01*
X7917900Y6604300D02*
X8140800D01*
Y7117500D01*
X7917900D02*
X8140800D01*
X7917900Y6604300D02*
Y7117500D01*
X7769850Y6909992D02*
Y6964992D01*
X7742342Y6937500D02*
X7797342D01*
X7668250Y6767320D02*
Y7107680D01*
X7871450D01*
Y6767320D02*
Y7107680D01*
X7668250Y6767320D02*
X7871450D01*
X8359991Y6749984D02*
Y6809984D01*
X8329983Y6779992D02*
X8389983D01*
X8525100Y6627600D02*
Y6907000D01*
X8194900D02*
X8525100D01*
X8194900Y6627600D02*
Y6907000D01*
Y6627600D02*
X8525100D01*
X8729991Y6749984D02*
Y6809984D01*
X8699983Y6779992D02*
X8759983D01*
X8895100Y6627600D02*
Y6907000D01*
X8564900D02*
X8895100D01*
X8564900Y6627600D02*
Y6907000D01*
Y6627600D02*
X8895100D01*
X8909497Y6143278D02*
X9110803D01*
Y5801723D02*
Y6143278D01*
X8909497Y5801723D02*
X9110803D01*
X8909497D02*
Y6143278D01*
X9010000Y5942508D02*
Y6002508D01*
X8979992Y5972500D02*
X9039992D01*
X8659497Y6143278D02*
X8860803D01*
Y5801723D02*
Y6143278D01*
X8659497Y5801723D02*
X8860803D01*
X8659497D02*
Y6143278D01*
X8760000Y5942508D02*
Y6002508D01*
X8729992Y5972500D02*
X8789992D01*
X8249858Y5930000D02*
X8309858D01*
X8279850Y5899992D02*
Y5959992D01*
X8170630Y6148440D02*
X8389070D01*
Y5709020D02*
Y6148440D01*
X8170630Y5709020D02*
X8389070D01*
X8170630D02*
Y6148440D01*
X7928400Y6137634D02*
X8131600D01*
X7928400Y5797274D02*
Y6137634D01*
Y5797274D02*
X8131600D01*
Y6137634D01*
X8002508Y5967454D02*
X8057508D01*
X8030000Y5939962D02*
Y5994962D01*
X7678995Y6138255D02*
X7880301D01*
Y5796701D02*
Y6138255D01*
X7678995Y5796701D02*
X7880301D01*
X7678995D02*
Y6138255D01*
X7779498Y5937486D02*
Y5997486D01*
X7749489Y5967478D02*
X7809489D01*
X7409798Y6138255D02*
X7611104D01*
Y5796701D02*
Y6138255D01*
X7409798Y5796701D02*
X7611104D01*
X7409798D02*
Y6138255D01*
X7510301Y5937486D02*
Y5997486D01*
X7480293Y5967478D02*
X7540293D01*
X7510000Y6914992D02*
Y6969992D01*
X7482492Y6942500D02*
X7537492D01*
X7408400Y6772320D02*
Y7112680D01*
X7611600D01*
Y6772320D02*
Y7112680D01*
X7408400Y6772320D02*
X7611600D01*
X7479992Y6387500D02*
X7539992D01*
X7510000Y6357508D02*
Y6417508D01*
X7409498Y6216723D02*
Y6558277D01*
Y6216723D02*
X7610804D01*
Y6558277D01*
X7409498D02*
X7610804D01*
X7078400Y6217320D02*
X7281600D01*
Y6557680D01*
X7078400D02*
X7281600D01*
X7078400Y6217320D02*
Y6557680D01*
X7152492Y6387500D02*
X7207492D01*
X7180000Y6359992D02*
Y6414992D01*
X6828400Y6217320D02*
X7031600D01*
Y6557680D01*
X6828400D02*
X7031600D01*
X6828400Y6217320D02*
Y6557680D01*
X6902492Y6387500D02*
X6957492D01*
X6930000Y6359992D02*
Y6414992D01*
X6578400Y6557680D02*
X6781600D01*
X6578400Y6217320D02*
Y6557680D01*
Y6217320D02*
X6781600D01*
Y6557680D01*
X6652508Y6387500D02*
X6707508D01*
X6680000Y6360008D02*
Y6415008D01*
X6328400Y6557680D02*
X6531600D01*
X6328400Y6217320D02*
Y6557680D01*
Y6217320D02*
X6531600D01*
Y6557680D01*
X6402508Y6387500D02*
X6457508D01*
X6430000Y6360008D02*
Y6415008D01*
X6964899Y6627600D02*
X7295099D01*
X6964899D02*
Y6907000D01*
X7295099D01*
Y6627600D02*
Y6907000D01*
X7099983Y6779992D02*
X7159983D01*
X7129991Y6749984D02*
Y6809984D01*
X6594899Y6627600D02*
X6925099D01*
X6594899D02*
Y6907000D01*
X6925099D01*
Y6627600D02*
Y6907000D01*
X6729983Y6779992D02*
X6789983D01*
X6759991Y6749984D02*
Y6809984D01*
X6320400Y6604300D02*
Y7117500D01*
X6543300D01*
Y6604300D02*
Y7117500D01*
X6320400Y6604300D02*
X6543300D01*
X6431900Y6829908D02*
Y6889908D01*
X6401892Y6859900D02*
X6461892D01*
X6057900Y6204300D02*
Y6717500D01*
X6280800D01*
Y6204300D02*
Y6717500D01*
X6057900Y6204300D02*
X6280800D01*
X6169400Y6429908D02*
Y6489908D01*
X6139392Y6459900D02*
X6199392D01*
X5478400Y6217320D02*
X5681600D01*
Y6557680D01*
X5478400D02*
X5681600D01*
X5478400Y6217320D02*
Y6557680D01*
X5552492Y6387500D02*
X5607492D01*
X5580000Y6359992D02*
Y6414992D01*
X5228400Y6217320D02*
X5431600D01*
Y6557680D01*
X5228400D02*
X5431600D01*
X5228400Y6217320D02*
Y6557680D01*
X5302492Y6387500D02*
X5357492D01*
X5330000Y6359992D02*
Y6414992D01*
X4978400Y6557680D02*
X5181600D01*
X4978400Y6217320D02*
Y6557680D01*
Y6217320D02*
X5181600D01*
Y6557680D01*
X5052508Y6387500D02*
X5107508D01*
X5080000Y6360008D02*
Y6415008D01*
X4728400Y6557680D02*
X4931600D01*
X4728400Y6217320D02*
Y6557680D01*
Y6217320D02*
X4931600D01*
Y6557680D01*
X4802508Y6387500D02*
X4857508D01*
X4830000Y6360008D02*
Y6415008D01*
X5809497Y6558277D02*
X6010804D01*
Y6216723D02*
Y6558277D01*
X5809497Y6216723D02*
X6010804D01*
X5809497D02*
Y6558277D01*
X5910000Y6357508D02*
Y6417508D01*
X5879992Y6387500D02*
X5939992D01*
X6329197Y6138255D02*
X6530503D01*
Y5796701D02*
Y6138255D01*
X6329197Y5796701D02*
X6530503D01*
X6329197D02*
Y6138255D01*
X6429699Y5937486D02*
Y5997486D01*
X6399691Y5967478D02*
X6459691D01*
X6069347Y6138255D02*
X6270653D01*
Y5796701D02*
Y6138255D01*
X6069347Y5796701D02*
X6270653D01*
X6069347D02*
Y6138255D01*
X6169850Y5937486D02*
Y5997486D01*
X6139842Y5967478D02*
X6199842D01*
X5818400Y6140180D02*
X6021600D01*
X5818400Y5799820D02*
Y6140180D01*
Y5799820D02*
X6021600D01*
Y6140180D01*
X5892508Y5970000D02*
X5947508D01*
X5920000Y5942508D02*
Y5997508D01*
X5550143Y5930006D02*
X5610142D01*
X5580151Y5900014D02*
Y5960014D01*
X5470931Y5711566D02*
X5689371D01*
X5470931D02*
Y6150986D01*
X5689371D01*
Y5711566D02*
Y6150986D01*
X6068250Y6767320D02*
X6271450D01*
Y7107680D01*
X6068250D02*
X6271450D01*
X6068250Y6767320D02*
Y7107680D01*
X6142342Y6937500D02*
X6197342D01*
X6169850Y6909992D02*
Y6964992D01*
X5808400Y6772320D02*
X6011600D01*
Y7112680D01*
X5808400D02*
X6011600D01*
X5808400Y6772320D02*
Y7112680D01*
X5882492Y6942500D02*
X5937492D01*
X5910000Y6914992D02*
Y6969992D01*
X5364900Y6627600D02*
X5695100D01*
X5364900D02*
Y6907000D01*
X5695100D01*
Y6627600D02*
Y6907000D01*
X5499983Y6779992D02*
X5559983D01*
X5529991Y6749984D02*
Y6809984D01*
X4994900Y6627600D02*
X5325100D01*
X4994900D02*
Y6907000D01*
X5325100D01*
Y6627600D02*
Y6907000D01*
X5129983Y6779992D02*
X5189983D01*
X5159991Y6749984D02*
Y6809984D01*
X4720400Y6604300D02*
Y7117500D01*
X4943300D01*
Y6604300D02*
Y7117500D01*
X4720400Y6604300D02*
X4943300D01*
X4831900Y6829908D02*
Y6889908D01*
X4801892Y6859900D02*
X4861892D01*
X4468250Y6767320D02*
X4671450D01*
Y7107680D01*
X4468250D02*
X4671450D01*
X4468250Y6767320D02*
Y7107680D01*
X4542342Y6937500D02*
X4597342D01*
X4569850Y6909992D02*
Y6964992D01*
X4208400Y6772320D02*
X4411600D01*
Y7112680D01*
X4208400D02*
X4411600D01*
X4208400Y6772320D02*
Y7112680D01*
X4282492Y6942500D02*
X4337492D01*
X4310000Y6914992D02*
Y6969992D01*
X4457900Y6204300D02*
Y6717500D01*
X4680800D01*
Y6204300D02*
Y6717500D01*
X4457900Y6204300D02*
X4680800D01*
X4569400Y6429908D02*
Y6489908D01*
X4539392Y6459900D02*
X4599392D01*
X4209498Y6558277D02*
X4410804D01*
Y6216723D02*
Y6558277D01*
X4209498Y6216723D02*
X4410804D01*
X4209498D02*
Y6558277D01*
X4310000Y6357508D02*
Y6417508D01*
X4279992Y6387500D02*
X4339992D01*
X3128400Y6557680D02*
X3331600D01*
X3128400Y6217320D02*
Y6557680D01*
Y6217320D02*
X3331600D01*
Y6557680D01*
X3202508Y6387500D02*
X3257509D01*
X3230000Y6360008D02*
Y6415008D01*
X2857900Y6204300D02*
Y6717500D01*
X3080800D01*
Y6204300D02*
Y6717500D01*
X2857900Y6204300D02*
X3080800D01*
X2969400Y6429908D02*
Y6489908D01*
X2939392Y6459900D02*
X2999392D01*
X3378400Y6557680D02*
X3581600D01*
X3378400Y6217320D02*
Y6557680D01*
Y6217320D02*
X3581600D01*
Y6557680D01*
X3452508Y6387500D02*
X3507509D01*
X3480000Y6360008D02*
Y6415008D01*
X3628400Y6217320D02*
X3831600D01*
Y6557680D01*
X3628400D02*
X3831600D01*
X3628400Y6217320D02*
Y6557680D01*
X3702492Y6387500D02*
X3757492D01*
X3730000Y6359992D02*
Y6414992D01*
X3878400Y6217320D02*
X4081600D01*
Y6557680D01*
X3878400D02*
X4081600D01*
X3878400Y6217320D02*
Y6557680D01*
X3952492Y6387500D02*
X4007492D01*
X3980000Y6359992D02*
Y6414992D01*
X3764900Y6627600D02*
X4095100D01*
X3764900D02*
Y6907000D01*
X4095100D01*
Y6627600D02*
Y6907000D01*
X3899984Y6779992D02*
X3959983D01*
X3929992Y6749984D02*
Y6809984D01*
X3394900Y6627600D02*
X3725100D01*
X3394900D02*
Y6907000D01*
X3725100D01*
Y6627600D02*
Y6907000D01*
X3529984Y6779992D02*
X3589983D01*
X3559992Y6749984D02*
Y6809984D01*
X3117900Y6604300D02*
Y7117500D01*
X3340800D01*
Y6604300D02*
Y7117500D01*
X3117900Y6604300D02*
X3340800D01*
X3229400Y6829908D02*
Y6889908D01*
X3199392Y6859900D02*
X3259392D01*
X2868250Y6767320D02*
X3071450D01*
Y7107680D01*
X2868250D02*
X3071450D01*
X2868250Y6767320D02*
Y7107680D01*
X2942342Y6937500D02*
X2997342D01*
X2969850Y6909992D02*
Y6964992D01*
X2608400Y6772320D02*
X2811600D01*
Y7112680D01*
X2608400D02*
X2811600D01*
X2608400Y6772320D02*
Y7112680D01*
X2682492Y6942500D02*
X2737492D01*
X2710000Y6914992D02*
Y6969992D01*
X2609498Y6558277D02*
X2810804D01*
Y6216723D02*
Y6558277D01*
X2609498Y6216723D02*
X2810804D01*
X2609498D02*
Y6558277D01*
X2710000Y6357508D02*
Y6417508D01*
X2679992Y6387500D02*
X2739992D01*
X1778400Y6557680D02*
X1981600D01*
X1778400Y6217320D02*
Y6557680D01*
Y6217320D02*
X1981600D01*
Y6557680D01*
X1852508Y6387500D02*
X1907509D01*
X1880000Y6360008D02*
Y6415008D01*
X2028400Y6217320D02*
X2231600D01*
Y6557680D01*
X2028400D02*
X2231600D01*
X2028400Y6217320D02*
Y6557680D01*
X2102492Y6387500D02*
X2157492D01*
X2130000Y6359992D02*
Y6414992D01*
X2278400Y6217320D02*
X2481600D01*
Y6557680D01*
X2278400D02*
X2481600D01*
X2278400Y6217320D02*
Y6557680D01*
X2352492Y6387500D02*
X2407492D01*
X2380000Y6359992D02*
Y6414992D01*
X2164900Y6627600D02*
X2495100D01*
X2164900D02*
Y6907000D01*
X2495100D01*
Y6627600D02*
Y6907000D01*
X2299983Y6779992D02*
X2359983D01*
X2329992Y6749984D02*
Y6809984D01*
X1794900Y6627600D02*
X2125100D01*
X1794900D02*
Y6907000D01*
X2125100D01*
Y6627600D02*
Y6907000D01*
X1929983Y6779992D02*
X1989983D01*
X1959992Y6749984D02*
Y6809984D01*
X1517900Y6604300D02*
Y7117500D01*
X1740800D01*
Y6604300D02*
Y7117500D01*
X1517900Y6604300D02*
X1740800D01*
X1629400Y6829908D02*
Y6889908D01*
X1599392Y6859900D02*
X1659392D01*
X1268250Y6767320D02*
X1471450D01*
Y7107680D01*
X1268250D02*
X1471450D01*
X1268250Y6767320D02*
Y7107680D01*
X1342342Y6937500D02*
X1397342D01*
X1369850Y6909992D02*
Y6964992D01*
X1528400Y6557680D02*
X1731600D01*
X1528400Y6217320D02*
Y6557680D01*
Y6217320D02*
X1731600D01*
Y6557680D01*
X1602508Y6387500D02*
X1657508D01*
X1630000Y6360008D02*
Y6415008D01*
X1257900Y6204300D02*
Y6717500D01*
X1480800D01*
Y6204300D02*
Y6717500D01*
X1257900Y6204300D02*
X1480800D01*
X1369400Y6429908D02*
Y6489908D01*
X1339392Y6459900D02*
X1399392D01*
X1009498Y6558277D02*
X1210804D01*
Y6216723D02*
Y6558277D01*
X1009498Y6216723D02*
X1210804D01*
X1009498D02*
Y6558277D01*
X1110000Y6357508D02*
Y6417508D01*
X1079992Y6387500D02*
X1139992D01*
X1008400Y6772320D02*
X1211600D01*
Y7112680D01*
X1008400D02*
X1211600D01*
X1008400Y6772320D02*
Y7112680D01*
X1082492Y6942500D02*
X1137492D01*
X1110000Y6914992D02*
Y6969992D01*
X3481690Y5969924D02*
X3536690D01*
X3509198Y5942416D02*
Y5997416D01*
X3399498Y5810024D02*
X3619498D01*
X3399498D02*
Y6130024D01*
X3619498D01*
Y5810024D02*
Y6130024D01*
X3158400Y5799869D02*
X3361600D01*
Y6140229D01*
X3158400D02*
X3361600D01*
X3158400Y5799869D02*
Y6140229D01*
X3232492Y5970049D02*
X3287492D01*
X3260000Y5942541D02*
Y5997541D01*
X2908100Y5799869D02*
X3111300D01*
Y6140229D01*
X2908100D02*
X3111300D01*
X2908100Y5799869D02*
Y6140229D01*
X2982191Y5970049D02*
X3037192D01*
X3009700Y5942541D02*
Y5997541D01*
X2659196Y6140826D02*
X2860503D01*
Y5799271D02*
Y6140826D01*
X2659196Y5799271D02*
X2860503D01*
X2659196D02*
Y6140826D01*
X2759699Y5940057D02*
Y6000057D01*
X2729691Y5970049D02*
X2789691D01*
X2192508Y5879500D02*
X2247508D01*
X2220000Y5851992D02*
Y5906992D01*
X1232680Y4818250D02*
Y5021450D01*
X892320D02*
X1232680D01*
X892320Y4818250D02*
Y5021450D01*
Y4818250D02*
X1232680D01*
X1062500Y4892341D02*
Y4947342D01*
X1035008Y4919850D02*
X1090008D01*
X882500Y5067900D02*
X1395700D01*
X882500D02*
Y5290800D01*
X1395700D01*
Y5067900D02*
Y5290800D01*
X1110092Y5179400D02*
X1170092D01*
X1140100Y5149392D02*
Y5209392D01*
X1372400Y5714899D02*
Y6045099D01*
X1093000Y5714899D02*
X1372400D01*
X1093000D02*
Y6045099D01*
X1372400D01*
X1220008Y5849983D02*
Y5909983D01*
X1190016Y5879991D02*
X1250016D01*
X1372400Y5344899D02*
Y5675099D01*
X1093000Y5344899D02*
X1372400D01*
X1093000D02*
Y5675099D01*
X1372400D01*
X1220008Y5479983D02*
Y5539983D01*
X1190016Y5509991D02*
X1250016D01*
X1782680Y5828400D02*
Y6031600D01*
X1442320D02*
X1782680D01*
X1442320Y5828400D02*
Y6031600D01*
Y5828400D02*
X1782680D01*
X1612500Y5902492D02*
Y5957492D01*
X1585008Y5930000D02*
X1640008D01*
X1782680Y5578400D02*
Y5781600D01*
X1442320D02*
X1782680D01*
X1442320Y5578400D02*
Y5781600D01*
Y5578400D02*
X1782680D01*
X1612500Y5652492D02*
Y5707492D01*
X1585008Y5680000D02*
X1640008D01*
X1442320Y5328400D02*
Y5531600D01*
Y5328400D02*
X1782680D01*
Y5531600D01*
X1442320D02*
X1782680D01*
X1612500Y5402508D02*
Y5457508D01*
X1584992Y5430000D02*
X1639992D01*
X1442320Y5078400D02*
Y5281600D01*
Y5078400D02*
X1782680D01*
Y5281600D01*
X1442320D02*
X1782680D01*
X1612500Y5152508D02*
Y5207508D01*
X1584992Y5180000D02*
X1639992D01*
X1282500Y4807900D02*
X1795700D01*
X1282500D02*
Y5030800D01*
X1795700D01*
Y4807900D02*
Y5030800D01*
X1510092Y4919400D02*
X1570092D01*
X1540100Y4889392D02*
Y4949392D01*
X1441723Y4559497D02*
Y4760804D01*
X1783277D01*
Y4559497D02*
Y4760804D01*
X1441723Y4559497D02*
X1783277D01*
X1582492Y4660000D02*
X1642492D01*
X1612500Y4629992D02*
Y4689992D01*
X1227680Y4558400D02*
Y4761600D01*
X887320D02*
X1227680D01*
X887320Y4558400D02*
Y4761600D01*
Y4558400D02*
X1227680D01*
X1057500Y4632492D02*
Y4687492D01*
X1030008Y4660000D02*
X1085008D01*
X1442320Y3728400D02*
Y3931600D01*
Y3728400D02*
X1782680D01*
Y3931600D01*
X1442320D02*
X1782680D01*
X1612500Y3802508D02*
Y3857508D01*
X1584992Y3830000D02*
X1639992D01*
X1442320Y3478400D02*
Y3681600D01*
Y3478400D02*
X1782680D01*
Y3681600D01*
X1442320D02*
X1782680D01*
X1612500Y3552508D02*
Y3607508D01*
X1584992Y3580000D02*
X1639992D01*
X1782680Y3978400D02*
Y4181600D01*
X1442320D02*
X1782680D01*
X1442320Y3978400D02*
Y4181600D01*
Y3978400D02*
X1782680D01*
X1612500Y4052492D02*
Y4107492D01*
X1585008Y4080000D02*
X1640008D01*
X1782680Y4228400D02*
Y4431600D01*
X1442320D02*
X1782680D01*
X1442320Y4228400D02*
Y4431600D01*
Y4228400D02*
X1782680D01*
X1612500Y4302492D02*
Y4357492D01*
X1585008Y4330000D02*
X1640008D01*
X2015000Y4159992D02*
Y4214992D01*
X1987492Y4187500D02*
X2042492D01*
X1913400Y4017320D02*
Y4357680D01*
X2116600D01*
Y4017320D02*
Y4357680D01*
X1913400Y4017320D02*
X2116600D01*
X2015000Y3554992D02*
Y3614992D01*
X1985008Y3585000D02*
X2045008D01*
X1875300Y3978700D02*
X2154700D01*
X1875300Y3191300D02*
Y3978700D01*
X2154700Y3191300D02*
Y3978700D01*
X1875300Y3191300D02*
X2154700D01*
X1282500Y3205400D02*
X1795700D01*
X1282500D02*
Y3428300D01*
X1795700D01*
Y3205400D02*
Y3428300D01*
X1510092Y3316900D02*
X1570092D01*
X1540100Y3286892D02*
Y3346892D01*
X1441723Y2959497D02*
Y3160803D01*
X1783277D01*
Y2959497D02*
Y3160803D01*
X1441723Y2959497D02*
X1783277D01*
X1582492Y3060000D02*
X1642492D01*
X1612500Y3029992D02*
Y3089992D01*
X882500Y3467900D02*
X1395700D01*
X882500D02*
Y3690800D01*
X1395700D01*
Y3467900D02*
Y3690800D01*
X1110092Y3579400D02*
X1170092D01*
X1140100Y3549392D02*
Y3609392D01*
X1372400Y4114899D02*
Y4445099D01*
X1093000Y4114899D02*
X1372400D01*
X1093000D02*
Y4445099D01*
X1372400D01*
X1220008Y4249983D02*
Y4309983D01*
X1190016Y4279991D02*
X1250016D01*
X1372400Y3744899D02*
Y4075099D01*
X1093000Y3744899D02*
X1372400D01*
X1093000D02*
Y4075099D01*
X1372400D01*
X1220008Y3879983D02*
Y3939983D01*
X1190016Y3909991D02*
X1250016D01*
X1232680Y3218250D02*
Y3421450D01*
X892320D02*
X1232680D01*
X892320Y3218250D02*
Y3421450D01*
Y3218250D02*
X1232680D01*
X1062500Y3292341D02*
Y3347342D01*
X1035008Y3319850D02*
X1090008D01*
X1227680Y2958400D02*
Y3161600D01*
X887320D02*
X1227680D01*
X887320Y2958400D02*
Y3161600D01*
Y2958400D02*
X1227680D01*
X1057500Y3032492D02*
Y3087492D01*
X1030008Y3060000D02*
X1085008D01*
X1232680Y1618249D02*
Y1821449D01*
X892320D02*
X1232680D01*
X892320Y1618249D02*
Y1821449D01*
Y1618249D02*
X1232680D01*
X1062500Y1692341D02*
Y1747341D01*
X1035008Y1719849D02*
X1090008D01*
X882500Y1870400D02*
X1395700D01*
X882500D02*
Y2093300D01*
X1395700D01*
Y1870400D02*
Y2093300D01*
X1110092Y1981900D02*
X1170092D01*
X1140100Y1951892D02*
Y2011892D01*
X1372400Y2144899D02*
Y2475099D01*
X1093000Y2144899D02*
X1372400D01*
X1093000D02*
Y2475099D01*
X1372400D01*
X1220008Y2279983D02*
Y2339983D01*
X1190016Y2309991D02*
X1250016D01*
X1372400Y2514899D02*
Y2845099D01*
X1093000Y2514899D02*
X1372400D01*
X1093000D02*
Y2845099D01*
X1372400D01*
X1220008Y2649983D02*
Y2709983D01*
X1190016Y2679991D02*
X1250016D01*
X1442320Y2128400D02*
Y2331600D01*
Y2128400D02*
X1782680D01*
Y2331600D01*
X1442320D02*
X1782680D01*
X1612500Y2202508D02*
Y2257508D01*
X1584992Y2230000D02*
X1639992D01*
X1442320Y1878400D02*
Y2081600D01*
Y1878400D02*
X1782680D01*
Y2081600D01*
X1442320D02*
X1782680D01*
X1612500Y1952508D02*
Y2007508D01*
X1584992Y1980000D02*
X1639992D01*
X1282500Y1607900D02*
X1795700D01*
X1282500D02*
Y1830800D01*
X1795700D01*
Y1607900D02*
Y1830800D01*
X1510092Y1719400D02*
X1570092D01*
X1540100Y1689392D02*
Y1749392D01*
X1441723Y1359497D02*
Y1560803D01*
X1783277D01*
Y1359497D02*
Y1560803D01*
X1441723Y1359497D02*
X1783277D01*
X1582492Y1460000D02*
X1642492D01*
X1612500Y1429992D02*
Y1489992D01*
X1227680Y1358400D02*
Y1561600D01*
X887320D02*
X1227680D01*
X887320Y1358400D02*
Y1561600D01*
Y1358400D02*
X1227680D01*
X1057500Y1432492D02*
Y1487492D01*
X1030008Y1460000D02*
X1085008D01*
X4137500Y1922508D02*
Y1982508D01*
X4107508Y1952500D02*
X4167508D01*
X3966723Y2053003D02*
X4308278D01*
X3966723Y1851697D02*
Y2053003D01*
Y1851697D02*
X4308278D01*
Y2053003D01*
X2299992Y1952500D02*
X2354992D01*
X2327500Y1925008D02*
Y1980008D01*
X2157320Y2054100D02*
X2497680D01*
Y1850900D02*
Y2054100D01*
X2157320Y1850900D02*
X2497680D01*
X2157320D02*
Y2054100D01*
X2710000Y1922508D02*
Y1982508D01*
X2680008Y1952500D02*
X2740008D01*
X2539223Y2053002D02*
X2880778D01*
X2539223Y1851696D02*
Y2053002D01*
Y1851696D02*
X2880778D01*
Y2053002D01*
X3092500Y1922492D02*
Y1982492D01*
X3062492Y1952500D02*
X3122492D01*
X2921723Y1851997D02*
X3263278D01*
Y2053303D01*
X2921723D02*
X3263278D01*
X2921723Y1851997D02*
Y2053303D01*
X2955000Y1812500D02*
X4272500D01*
Y1292500D02*
Y1812500D01*
X2955000Y1292500D02*
X4272500D01*
X2955000D02*
Y1812500D01*
X3585009Y1552492D02*
X3645008D01*
X3615000Y1522500D02*
Y1582500D01*
X1935000Y1364984D02*
X2880000D01*
X1935000D02*
Y1739984D01*
X2880000D01*
Y1364984D02*
Y1739984D01*
X2377492Y1552484D02*
X2437492D01*
X2407500Y1522476D02*
Y1582476D01*
X1106697Y879222D02*
X1308003D01*
X1106697D02*
Y1220777D01*
X1308003D01*
Y879222D02*
Y1220777D01*
X1207500Y1019992D02*
Y1079991D01*
X1177508Y1050000D02*
X1237508D01*
X1349196Y879222D02*
X1550503D01*
X1349196D02*
Y1220777D01*
X1550503D01*
Y879222D02*
Y1220777D01*
X1450000Y1019992D02*
Y1079991D01*
X1420008Y1050000D02*
X1480008D01*
X1590900Y1220180D02*
X1794100D01*
X1590900Y879820D02*
Y1220180D01*
Y879820D02*
X1794100D01*
Y1220180D01*
X1665008Y1050000D02*
X1720008D01*
X1692500Y1022508D02*
Y1077508D01*
X1833400Y879844D02*
X2036600D01*
Y1220204D01*
X1833400D02*
X2036600D01*
X1833400Y879844D02*
Y1220204D01*
X1907491Y1050024D02*
X1962492D01*
X1935000Y1022516D02*
Y1077516D01*
X2075900Y879844D02*
X2279100D01*
Y1220204D01*
X2075900D02*
X2279100D01*
X2075900Y879844D02*
Y1220204D01*
X2149992Y1050024D02*
X2204992D01*
X2177500Y1022516D02*
Y1077516D01*
X2318400Y879820D02*
X2521600D01*
Y1220180D01*
X2318400D02*
X2521600D01*
X2318400Y879820D02*
Y1220180D01*
X2392492Y1050000D02*
X2447492D01*
X2420000Y1022492D02*
Y1077492D01*
X2910900Y879844D02*
X3114100D01*
Y1220204D01*
X2910900D02*
X3114100D01*
X2910900Y879844D02*
Y1220204D01*
X2984992Y1050024D02*
X3039992D01*
X3012500Y1022516D02*
Y1077516D01*
X3153400Y879844D02*
X3356600D01*
Y1220204D01*
X3153400D02*
X3356600D01*
X3153400Y879844D02*
Y1220204D01*
X3227492Y1050024D02*
X3282492D01*
X3255000Y1022516D02*
Y1077516D01*
X3638400Y879844D02*
X3841600D01*
Y1220204D01*
X3638400D02*
X3841600D01*
X3638400Y879844D02*
Y1220204D01*
X3712492Y1050024D02*
X3767492D01*
X3740000Y1022516D02*
Y1077516D01*
X3396697Y879222D02*
X3598003D01*
X3396697D02*
Y1220777D01*
X3598003D01*
Y879222D02*
Y1220777D01*
X3497500Y1019992D02*
Y1079991D01*
X3467508Y1050000D02*
X3527508D01*
X3881697Y879222D02*
X4083003D01*
X3881697D02*
Y1220777D01*
X4083003D01*
Y879222D02*
Y1220777D01*
X3982500Y1019992D02*
Y1079991D01*
X3952508Y1050000D02*
X4012508D01*
X4124196Y879222D02*
X4325503D01*
X4124196D02*
Y1220777D01*
X4325503D01*
Y879222D02*
Y1220777D01*
X4225000Y1019992D02*
Y1079991D01*
X4195008Y1050000D02*
X4255008D01*
X4582500Y890000D02*
Y1210000D01*
X4362500D02*
X4582500D01*
X4362500Y890000D02*
Y1210000D01*
Y890000D02*
X4582500D01*
X4472200Y1022392D02*
Y1077392D01*
X4444692Y1049900D02*
X4499692D01*
X4371847Y1286723D02*
X4573153D01*
X4371847D02*
Y1628277D01*
X4573153D01*
Y1286723D02*
Y1628277D01*
X4472650Y1427492D02*
Y1487492D01*
X4442659Y1457500D02*
X4502659D01*
X4629347Y1286723D02*
X4830653D01*
X4629347D02*
Y1628277D01*
X4830653D01*
Y1286723D02*
Y1628277D01*
X4730150Y1427492D02*
Y1487492D01*
X4700158Y1457500D02*
X4760158D01*
X4620000Y890000D02*
Y1210000D01*
Y890000D02*
X4840000D01*
Y1210000D01*
X4620000D02*
X4840000D01*
X4730300Y1022608D02*
Y1077608D01*
X4702808Y1050100D02*
X4757808D01*
X4628250Y1729844D02*
X4831450D01*
Y2070204D01*
X4628250D02*
X4831450D01*
X4628250Y1729844D02*
Y2070204D01*
X4702341Y1900024D02*
X4757342D01*
X4729850Y1872516D02*
Y1927516D01*
X5470150Y1739976D02*
Y2059976D01*
Y1739976D02*
X5690150D01*
Y2059976D01*
X5470150D02*
X5690150D01*
X5580450Y1872584D02*
Y1927584D01*
X5552958Y1900076D02*
X5607959D01*
X5185000Y1646258D02*
Y1701258D01*
X5157508Y1673750D02*
X5212508D01*
X5727148Y1729198D02*
X5928454D01*
X5727148D02*
Y2070753D01*
X5928454D01*
Y1729198D02*
Y2070753D01*
X5827951Y1869968D02*
Y1929967D01*
X5797959Y1899976D02*
X5857959D01*
X6515900Y1627680D02*
X6719100D01*
X6515900Y1287320D02*
Y1627680D01*
Y1287320D02*
X6719100D01*
Y1627680D01*
X6590008Y1457500D02*
X6645008D01*
X6617500Y1430008D02*
Y1485008D01*
X6975000Y1297500D02*
Y1617500D01*
X6755000D02*
X6975000D01*
X6755000Y1297500D02*
Y1617500D01*
Y1297500D02*
X6975000D01*
X6864700Y1429892D02*
Y1484892D01*
X6837192Y1457400D02*
X6892192D01*
X6515900Y2070131D02*
X6719100D01*
X6515900Y1729771D02*
Y2070131D01*
Y1729771D02*
X6719100D01*
Y2070131D01*
X6590008Y1899951D02*
X6645008D01*
X6617500Y1872459D02*
Y1927459D01*
X6763550Y2070156D02*
X6966750D01*
X6763550Y1729796D02*
Y2070156D01*
Y1729796D02*
X6966750D01*
Y2070156D01*
X6837658Y1899976D02*
X6892659D01*
X6865150Y1872484D02*
Y1927484D01*
X6757500Y2155000D02*
Y2475000D01*
Y2155000D02*
X6977500D01*
Y2475000D01*
X6757500D02*
X6977500D01*
X6867800Y2287608D02*
Y2342608D01*
X6840308Y2315100D02*
X6895308D01*
X6515900Y2485156D02*
X6719100D01*
X6515900Y2144796D02*
Y2485156D01*
Y2144796D02*
X6719100D01*
Y2485156D01*
X6590008Y2314976D02*
X6645008D01*
X6617500Y2287484D02*
Y2342484D01*
X5962500Y2250400D02*
X6475700D01*
X5962500D02*
Y2473300D01*
X6475700D01*
Y2250400D02*
Y2473300D01*
X6190092Y2361900D02*
X6250092D01*
X6220100Y2331892D02*
Y2391892D01*
X6120000Y2705008D02*
Y2760008D01*
X6092508Y2732500D02*
X6147508D01*
X6221600Y2562320D02*
Y2902680D01*
X6018400Y2562320D02*
X6221600D01*
X6018400D02*
Y2902680D01*
X6221600D01*
X5721696Y2144223D02*
X5923003D01*
X5721696D02*
Y2485777D01*
X5923003D01*
Y2144223D02*
Y2485777D01*
X5822500Y2284992D02*
Y2344992D01*
X5792508Y2315000D02*
X5852508D01*
X5478400Y2144869D02*
X5681600D01*
Y2485229D01*
X5478400D02*
X5681600D01*
X5478400Y2144869D02*
Y2485229D01*
X5552492Y2315049D02*
X5607492D01*
X5580000Y2287541D02*
Y2342541D01*
X5299992Y2352503D02*
X5359992D01*
X5330000Y2322511D02*
Y2382511D01*
X5220780Y2134063D02*
X5439220D01*
X5220780D02*
Y2573483D01*
X5439220D01*
Y2134063D02*
Y2573483D01*
X6195159Y1672500D02*
X6250159D01*
X6222650Y1645008D02*
Y1700008D01*
X5726051Y1287369D02*
X5929251D01*
Y1627729D01*
X5726051D02*
X5929251D01*
X5726051Y1287369D02*
Y1627729D01*
X5800142Y1457549D02*
X5855142D01*
X5827651Y1430041D02*
Y1485041D01*
X5479497Y1628277D02*
X5680803D01*
Y1286723D02*
Y1628277D01*
X5479497Y1286723D02*
X5680803D01*
X5479497D02*
Y1628277D01*
X5580000Y1427508D02*
Y1487508D01*
X5549992Y1457500D02*
X5609992D01*
X6430008Y445000D02*
X6490008D01*
X6460000Y414992D02*
Y474992D01*
X6205000Y90000D02*
Y802500D01*
Y90000D02*
X6915000D01*
Y802500D01*
X6205000D02*
X6915000D01*
X5954992Y322500D02*
X6014992D01*
X5985000Y292508D02*
Y352508D01*
X5875780Y104060D02*
X6094220D01*
X5875780D02*
Y543480D01*
X6094220D01*
Y104060D02*
Y543480D01*
X5883400Y922680D02*
X6086600D01*
X5883400Y582320D02*
Y922680D01*
Y582320D02*
X6086600D01*
Y922680D01*
X5957508Y752500D02*
X6012508D01*
X5985000Y725008D02*
Y780008D01*
X6764347Y1220778D02*
X6965653D01*
Y879223D02*
Y1220778D01*
X6764347Y879223D02*
X6965653D01*
X6764347D02*
Y1220778D01*
X6864850Y1020008D02*
Y1080008D01*
X6834842Y1050000D02*
X6894841D01*
X7049820Y755900D02*
Y959100D01*
Y755900D02*
X7390180D01*
Y959100D01*
X7049820D02*
X7390180D01*
X7220000Y830008D02*
Y885008D01*
X7192492Y857500D02*
X7247492D01*
X7049223Y514498D02*
Y715804D01*
X7390777D01*
Y514498D02*
Y715804D01*
X7049223Y514498D02*
X7390777D01*
X7189992Y615000D02*
X7249992D01*
X7220000Y584992D02*
Y644992D01*
X7444820Y755900D02*
Y959100D01*
Y755900D02*
X7785180D01*
Y959100D01*
X7444820D02*
X7785180D01*
X7615000Y830008D02*
Y885008D01*
X7587492Y857500D02*
X7642492D01*
X7444174Y514498D02*
Y715804D01*
X7785729D01*
Y514498D02*
Y715804D01*
X7444174Y514498D02*
X7785729D01*
X7584943Y615000D02*
X7644943D01*
X7614951Y584992D02*
Y644992D01*
X7049223Y271997D02*
Y473304D01*
X7390777D01*
Y271997D02*
Y473304D01*
X7049223Y271997D02*
X7390777D01*
X7189992Y372500D02*
X7249992D01*
X7220000Y342492D02*
Y402492D01*
X7390180Y28400D02*
Y231600D01*
X7049820D02*
X7390180D01*
X7049820Y28400D02*
Y231600D01*
Y28400D02*
X7390180D01*
X7220000Y102492D02*
Y157492D01*
X7192508Y130000D02*
X7247508D01*
X355540Y6249160D02*
Y6990840D01*
X601920D01*
Y6249160D02*
Y6990840D01*
X355540Y6249160D02*
X601920D01*
X480000Y6590008D02*
Y6650008D01*
X449992Y6620000D02*
X509992D01*
X9290000Y2915992D02*
Y2975992D01*
X9260008Y2946000D02*
X9320008D01*
X8832800Y2374500D02*
X9747200D01*
X8832800D02*
Y3454000D01*
X9747200Y2374500D02*
Y3454000D01*
X8832800D02*
X9747200D01*
X8442500Y470008D02*
Y530008D01*
X8412508Y500000D02*
X8472508D01*
X8074200Y258700D02*
X8810800D01*
Y842900D01*
X8074200Y258700D02*
Y842900D01*
X8810800D01*
X4395000Y-3550D02*
X5607500D01*
X4395000D02*
Y830000D01*
X5607500D01*
Y-3550D02*
Y830000D01*
X4970000Y583950D02*
X5030000D01*
X5000000Y553950D02*
Y613949D01*
X2544992Y373750D02*
X2604991D01*
X2575000Y343742D02*
Y403742D01*
X4150000Y4250D02*
Y618750D01*
X1015000D02*
X4150000D01*
X1015000Y4250D02*
Y618750D01*
Y4250D02*
X4150000D01*
X480000Y442508D02*
Y497508D01*
X452492Y470000D02*
X507492D01*
X86300Y851000D02*
X403800D01*
X86300Y76300D02*
Y851000D01*
Y76300D02*
X873700D01*
Y851000D01*
X403800D02*
X873700D01*
X9500000Y7472492D02*
Y7527492D01*
X9472508Y7500000D02*
X9527508D01*
X9576200Y7119000D02*
X9893700D01*
Y7893700D01*
X9106300D02*
X9893700D01*
X9106300Y7119000D02*
Y7893700D01*
Y7119000D02*
X9576200D01*
X470008Y3700000D02*
X530008D01*
X500000Y3669992D02*
Y3729992D01*
X258700Y2950700D02*
Y4449300D01*
Y2950700D02*
X842900D01*
X258700Y4449300D02*
X842900D01*
Y2950700D02*
Y4449300D01*
X480000Y7442508D02*
Y7497508D01*
X452492Y7470000D02*
X507492D01*
X86300Y7851000D02*
X403800D01*
X86300Y7076300D02*
Y7851000D01*
Y7076300D02*
X873700D01*
Y7851000D01*
X403800D02*
X873700D01*
X8150000Y7469992D02*
Y7529992D01*
X8119992Y7500000D02*
X8179992D01*
X7400700Y7741300D02*
X8899300D01*
X7400700Y7157100D02*
Y7741300D01*
X8899300Y7157100D02*
Y7741300D01*
X7400700Y7157100D02*
X8899300D01*
X5800700D02*
X7299300D01*
Y7741300D01*
X5800700Y7157100D02*
Y7741300D01*
X7299300D01*
X6519992Y7500000D02*
X6579992D01*
X6550000Y7469992D02*
Y7529992D01*
X4200700Y7157100D02*
X5699300D01*
Y7741300D01*
X4200700Y7157100D02*
Y7741300D01*
X5699300D01*
X4919992Y7500000D02*
X4979992D01*
X4950000Y7469992D02*
Y7529992D01*
X2600700Y7157100D02*
X4099300D01*
Y7741300D01*
X2600700Y7157100D02*
Y7741300D01*
X4099300D01*
X3319992Y7500000D02*
X3379992D01*
X3350000Y7469992D02*
Y7529992D01*
X1000700Y7157100D02*
X2499300D01*
Y7741300D01*
X1000700Y7157100D02*
Y7741300D01*
X2499300D01*
X1719992Y7500000D02*
X1779992D01*
X1750000Y7469992D02*
Y7529992D01*
X842900Y4550700D02*
Y6049300D01*
X258700D02*
X842900D01*
X258700Y4550700D02*
X842900D01*
X258700D02*
Y6049300D01*
X500000Y5269992D02*
Y5329992D01*
X470008Y5300000D02*
X530008D01*
X1585008Y2730000D02*
X1640008D01*
X1612500Y2702492D02*
Y2757492D01*
X1442320Y2628400D02*
X1782680D01*
X1442320D02*
Y2831600D01*
X1782680D01*
Y2628400D02*
Y2831600D01*
X1585008Y2480000D02*
X1640008D01*
X1612500Y2452492D02*
Y2507492D01*
X1442320Y2378400D02*
X1782680D01*
X1442320D02*
Y2581600D01*
X1782680D01*
Y2378400D02*
Y2581600D01*
X842900Y1350700D02*
Y2849300D01*
X258700D02*
X842900D01*
X258700Y1350700D02*
X842900D01*
X258700D02*
Y2849300D01*
X500000Y2069992D02*
Y2129992D01*
X470008Y2100000D02*
X530008D01*
X9157100Y5238700D02*
Y6991300D01*
Y5238700D02*
X9741300D01*
X9157100Y6991300D02*
X9741300D01*
Y5238700D02*
Y6991300D01*
X9469992Y6115000D02*
X9529992D01*
X9500000Y6085008D02*
Y6145008D01*
D151*
X2890000Y2740000D02*
X5230000D01*
X2890000Y5080000D02*
X5230000D01*
Y2740000D02*
Y5080000D01*
X2890000Y2740000D02*
Y5080000D01*
X6912500Y2190000D02*
X8252500D01*
X6912500D02*
Y4440000D01*
X8252500Y2190000D02*
Y4440000D01*
X6912500D02*
X8252500D01*
X7890470Y1430500D02*
Y1536500D01*
Y1114500D02*
Y1220500D01*
X8200903D02*
Y1430500D01*
X7890470Y1536500D02*
X8200903D01*
Y1430500D02*
Y1536500D01*
X7890470Y1114500D02*
X8200903D01*
Y1220500D01*
X7890470D02*
Y1430500D01*
X4867500Y2080000D02*
X5442500D01*
X4867500Y1262500D02*
X5442500D01*
Y2080000D01*
X4867500Y1262500D02*
Y2080000D01*
%TF.MD5,4e27fed92379235107a3336d1c42201d*%
M02*
