%TF.GenerationSoftware,Altium Limited,Altium Designer,23.11.1 (41)*%
G04 Layer_Color=128*
%FSLAX45Y45*%
%MOMM*%
%TF.SameCoordinates,93787688-83E1-42C5-93B8-12A4BFDEF0D2*%
%TF.FilePolarity,Positive*%
%TF.FileFunction,Drillmap*%
%TF.Part,Single*%
G01*
G75*
%TA.AperFunction,NonConductor*%
%ADD98C,0.12700*%
D98*
X6075000Y3594000D02*
X6165000D01*
X6120000Y3549000D02*
Y3639000D01*
X6075000Y3340000D02*
X6165000D01*
X6120000Y3295000D02*
Y3385000D01*
X6075000Y3086000D02*
X6165000D01*
X6120000Y3041000D02*
Y3131000D01*
X4483000Y5990000D02*
X4573000D01*
X4528000Y5945000D02*
Y6035000D01*
X4737000Y5990000D02*
X4827000D01*
X4782000Y5945000D02*
Y6035000D01*
X4991000Y5990000D02*
X5081000D01*
X5036000Y5945000D02*
Y6035000D01*
X5245000Y5990000D02*
X5335000D01*
X5290000Y5945000D02*
Y6035000D01*
X9325000Y500000D02*
X9675000D01*
X9500000Y325000D02*
Y675000D01*
X9085000Y4040000D02*
X9215000D01*
X9150000Y3975000D02*
Y4105000D01*
X9585000Y4040000D02*
X9715000D01*
X9650000Y3975000D02*
Y4105000D01*
X8622500Y5104000D02*
X8742500D01*
X8682500Y5044000D02*
Y5164000D01*
X8622500Y4850000D02*
X8742500D01*
X8682500Y4790000D02*
Y4910000D01*
X8622500Y4596000D02*
X8742500D01*
X8682500Y4536000D02*
Y4656000D01*
X8032500Y4845000D02*
X8152500D01*
X8092500Y4785000D02*
Y4905000D01*
X9087500Y4803000D02*
X9187500D01*
X9137500Y4753000D02*
Y4853000D01*
X9087500Y5057000D02*
X9187500D01*
X9137500Y5007000D02*
Y5107000D01*
X1970000Y3839000D02*
X2060000D01*
X2015000Y3794000D02*
Y3884000D01*
X1970000Y3585000D02*
X2060000D01*
X2015000Y3540000D02*
Y3630000D01*
X1970000Y3331000D02*
X2060000D01*
X2015000Y3286000D02*
Y3376000D01*
X6430000Y540000D02*
X6490000D01*
X6460000Y510000D02*
Y570000D01*
X6430000Y350000D02*
X6490000D01*
X6460000Y320000D02*
Y380000D01*
X430000Y6870000D02*
X530000D01*
X480000Y6820000D02*
Y6920000D01*
X430000Y6370000D02*
X530000D01*
X480000Y6320000D02*
Y6420000D01*
X9215000Y2692000D02*
X9365000D01*
X9290000Y2617000D02*
Y2767000D01*
X9215000Y3200000D02*
X9365000D01*
X9290000Y3125000D02*
Y3275000D01*
X8522500Y500000D02*
X8612500D01*
X8567500Y455000D02*
Y545000D01*
X8272500Y500000D02*
X8362500D01*
X8317500Y455000D02*
Y545000D01*
X305000Y470000D02*
X655000D01*
X480000Y295000D02*
Y645000D01*
X9325000Y7500000D02*
X9675000D01*
X9500000Y7325000D02*
Y7675000D01*
X450000Y3450000D02*
X550000D01*
X500000Y3400000D02*
Y3500000D01*
X450000Y3700000D02*
X550000D01*
X500000Y3650000D02*
Y3750000D01*
X450000Y3950000D02*
X550000D01*
X500000Y3900000D02*
Y4000000D01*
X450000Y4200000D02*
X550000D01*
X500000Y4150000D02*
Y4250000D01*
X450000Y3200000D02*
X550000D01*
X500000Y3150000D02*
Y3250000D01*
X305000Y7470000D02*
X655000D01*
X480000Y7295000D02*
Y7645000D01*
X7850000Y7500000D02*
X7950000D01*
X7900000Y7450000D02*
Y7550000D01*
X8100000Y7500000D02*
X8200000D01*
X8150000Y7450000D02*
Y7550000D01*
X8350000Y7500000D02*
X8450000D01*
X8400000Y7450000D02*
Y7550000D01*
X8600000Y7500000D02*
X8700000D01*
X8650000Y7450000D02*
Y7550000D01*
X7600000Y7500000D02*
X7700000D01*
X7650000Y7450000D02*
Y7550000D01*
X6000000Y7500000D02*
X6100000D01*
X6050000Y7450000D02*
Y7550000D01*
X7000000Y7500000D02*
X7100000D01*
X7050000Y7450000D02*
Y7550000D01*
X6750000Y7500000D02*
X6850000D01*
X6800000Y7450000D02*
Y7550000D01*
X6500000Y7500000D02*
X6600000D01*
X6550000Y7450000D02*
Y7550000D01*
X6250000Y7500000D02*
X6350000D01*
X6300000Y7450000D02*
Y7550000D01*
X4400000Y7500000D02*
X4500000D01*
X4450000Y7450000D02*
Y7550000D01*
X5400000Y7500000D02*
X5500000D01*
X5450000Y7450000D02*
Y7550000D01*
X5150000Y7500000D02*
X5250000D01*
X5200000Y7450000D02*
Y7550000D01*
X4900000Y7500000D02*
X5000000D01*
X4950000Y7450000D02*
Y7550000D01*
X4650000Y7500000D02*
X4750000D01*
X4700000Y7450000D02*
Y7550000D01*
X2800000Y7500000D02*
X2900000D01*
X2850000Y7450000D02*
Y7550000D01*
X3800001Y7500000D02*
X3900000D01*
X3850000Y7450000D02*
Y7550000D01*
X3550001Y7500000D02*
X3650000D01*
X3600000Y7450000D02*
Y7550000D01*
X3300001Y7500000D02*
X3400000D01*
X3350000Y7450000D02*
Y7550000D01*
X3050001Y7500000D02*
X3150000D01*
X3100000Y7450000D02*
Y7550000D01*
X1200000Y7500000D02*
X1300000D01*
X1250000Y7450000D02*
Y7550000D01*
X2200000Y7500000D02*
X2300000D01*
X2250000Y7450000D02*
Y7550000D01*
X1950000Y7500000D02*
X2050000D01*
X2000000Y7450000D02*
Y7550000D01*
X1700000Y7500000D02*
X1800000D01*
X1750000Y7450000D02*
Y7550000D01*
X1450000Y7500000D02*
X1550000D01*
X1500000Y7450000D02*
Y7550000D01*
X450000Y4800000D02*
X550000D01*
X500000Y4750000D02*
Y4850000D01*
X450000Y5800000D02*
X550000D01*
X500000Y5750000D02*
Y5850000D01*
X450000Y5550000D02*
X550000D01*
X500000Y5500000D02*
Y5600000D01*
X450000Y5300000D02*
X550000D01*
X500000Y5250000D02*
Y5350000D01*
X450000Y5050000D02*
X550000D01*
X500000Y5000000D02*
Y5100000D01*
X450000Y1600000D02*
X550000D01*
X500000Y1550000D02*
Y1650000D01*
X450000Y2600000D02*
X550000D01*
X500000Y2550000D02*
Y2650000D01*
X450000Y2350000D02*
X550000D01*
X500000Y2300000D02*
Y2400000D01*
X450000Y2100000D02*
X550000D01*
X500000Y2050000D02*
Y2150000D01*
X450000Y1850000D02*
X550000D01*
X500000Y1800000D02*
Y1900000D01*
X9450000Y6490000D02*
X9550000D01*
X9500000Y6440000D02*
Y6540000D01*
X9450000Y6240000D02*
X9550000D01*
X9500000Y6190000D02*
Y6290000D01*
X9450000Y5990000D02*
X9550000D01*
X9500000Y5940000D02*
Y6040000D01*
X9450000Y5740000D02*
X9550000D01*
X9500000Y5690000D02*
Y5790000D01*
X9450000Y6740000D02*
X9550000D01*
X9500000Y6690000D02*
Y6790000D01*
X9450000Y5490000D02*
X9550000D01*
X9500000Y5440000D02*
Y5540000D01*
X7082500Y5400000D02*
X7132500D01*
X7107500Y5375000D02*
Y5425000D01*
X6827500Y5400000D02*
X6877500D01*
X6852500Y5375000D02*
Y5425000D01*
X6955000Y5400000D02*
X7005000D01*
X6980000Y5375000D02*
Y5425000D01*
X4597500Y4472500D02*
X4647500D01*
X4622500Y4447500D02*
Y4497500D01*
X4597500Y4097500D02*
X4647500D01*
X4622500Y4072500D02*
Y4122500D01*
X4597500Y3722500D02*
X4647500D01*
X4622500Y3697500D02*
Y3747500D01*
X4597500Y3347500D02*
X4647500D01*
X4622500Y3322500D02*
Y3372500D01*
X4222500Y4472500D02*
X4272500D01*
X4247500Y4447500D02*
Y4497500D01*
X4222500Y4097500D02*
X4272500D01*
X4247500Y4072500D02*
Y4122500D01*
X4222500Y3722500D02*
X4272500D01*
X4247500Y3697500D02*
Y3747500D01*
X4222500Y3347500D02*
X4272500D01*
X4247500Y3322500D02*
Y3372500D01*
X3847500Y4472500D02*
X3897500D01*
X3872500Y4447500D02*
Y4497500D01*
X3847500Y4097500D02*
X3897500D01*
X3872500Y4072500D02*
Y4122500D01*
X3847500Y3722500D02*
X3897500D01*
X3872500Y3697500D02*
Y3747500D01*
X3847500Y3347500D02*
X3897500D01*
X3872500Y3322500D02*
Y3372500D01*
X3472500Y3347500D02*
X3522500D01*
X3497500Y3322500D02*
Y3372500D01*
X3472500Y3722500D02*
X3522500D01*
X3497500Y3697500D02*
Y3747500D01*
X3472500Y4097500D02*
X3522500D01*
X3497500Y4072500D02*
Y4122500D01*
X3472500Y4472500D02*
X3522500D01*
X3497500Y4447500D02*
Y4497500D01*
X6772500Y3262500D02*
X6822500D01*
X6797500Y3237500D02*
Y3287500D01*
X7552500Y3805000D02*
X7602500D01*
X7577500Y3780000D02*
Y3830000D01*
X7560000Y3685000D02*
X7610000D01*
X7585000Y3660000D02*
Y3710000D01*
X6635000Y5565000D02*
X6685000D01*
X6660000Y5540000D02*
Y5590000D01*
X9475000Y3500000D02*
X9525000D01*
X9500000Y3475000D02*
Y3525000D01*
X9725000Y3000000D02*
X9775000D01*
X9750000Y2975000D02*
Y3025000D01*
X9475000Y2500000D02*
X9525000D01*
X9500000Y2475000D02*
Y2525000D01*
X9475000Y1500000D02*
X9525000D01*
X9500000Y1475000D02*
Y1525000D01*
X8975000Y6500000D02*
X9025000D01*
X9000000Y6475000D02*
Y6525000D01*
X8975000Y3500000D02*
X9025000D01*
X9000000Y3475000D02*
Y3525000D01*
X8225000Y5000000D02*
X8275000D01*
X8250000Y4975000D02*
Y5025000D01*
X7725000Y5000000D02*
X7775000D01*
X7750000Y4975000D02*
Y5025000D01*
X6975000Y500000D02*
X7025000D01*
X7000000Y475000D02*
Y525000D01*
X5725000Y7000000D02*
X5775000D01*
X5750000Y6975000D02*
Y7025000D01*
X5725000Y1000000D02*
X5775000D01*
X5750000Y975000D02*
Y1025000D01*
X4975000Y500000D02*
X5025000D01*
X5000000Y475000D02*
Y525000D01*
X3975000Y500000D02*
X4025000D01*
X4000000Y475000D02*
Y525000D01*
X2475000Y7500000D02*
X2525000D01*
X2500000Y7475000D02*
Y7525000D01*
X975000Y4500000D02*
X1025000D01*
X1000000Y4475000D02*
Y4525000D01*
X475000Y4500000D02*
X525000D01*
X500000Y4475000D02*
Y4525000D01*
X725000Y3000000D02*
X775000D01*
X750000Y2975000D02*
Y3025000D01*
X725000Y1000000D02*
X775000D01*
X750000Y975000D02*
Y1025000D01*
X5325000Y1870000D02*
X5375000D01*
X5350000Y1845000D02*
Y1895000D01*
X5405000Y1780000D02*
X5455000D01*
X5430000Y1755000D02*
Y1805000D01*
X5182500Y1700000D02*
X5232500D01*
X5207500Y1675000D02*
Y1725000D01*
X5182500Y1580000D02*
X5232500D01*
X5207500Y1555000D02*
Y1605000D01*
X1460000Y670000D02*
X1510000D01*
X1485000Y645000D02*
Y695000D01*
X7347500Y3600000D02*
X7397500D01*
X7372500Y3575000D02*
Y3625000D01*
X8315000Y4075000D02*
X8365000D01*
X8340000Y4050000D02*
Y4100000D01*
X8345000Y3472500D02*
X8395000D01*
X8370000Y3447500D02*
Y3497500D01*
X8105000Y530000D02*
X8155000D01*
X8130000Y505000D02*
Y555000D01*
X7885000Y1010000D02*
X7935000D01*
X7910000Y985000D02*
Y1035000D01*
X5805000Y1700000D02*
X5855000D01*
X5830000Y1675000D02*
Y1725000D01*
X6355000Y1120000D02*
X6405000D01*
X6380000Y1095000D02*
Y1145000D01*
X3345000Y1060000D02*
X3395000D01*
X3370000Y1035000D02*
Y1085000D01*
X2075000Y1310000D02*
X2125000D01*
X2100000Y1285000D02*
Y1335000D01*
X7775000Y2580000D02*
X7825000D01*
X7800000Y2555000D02*
Y2605000D01*
X3515000Y800000D02*
X3565000D01*
X3540000Y775000D02*
Y825000D01*
X1445000Y790000D02*
X1495000D01*
X1470000Y765000D02*
Y815000D01*
X1225000Y380000D02*
X1275000D01*
X1250000Y355000D02*
Y405000D01*
X5205000Y2310000D02*
X5255000D01*
X5230000Y2285000D02*
Y2335000D01*
X5945000Y1570000D02*
X5995000D01*
X5970000Y1545000D02*
Y1595000D01*
X6165000Y1560000D02*
X6215000D01*
X6190000Y1535000D02*
Y1585000D01*
X6765000Y2840000D02*
X6815000D01*
X6790000Y2815000D02*
Y2865000D01*
X6705000Y3730000D02*
X6755000D01*
X6730000Y3705000D02*
Y3755000D01*
X6595000Y1220000D02*
X6645000D01*
X6620000Y1195000D02*
Y1245000D01*
X5055000Y1580000D02*
X5105000D01*
X5080000Y1555000D02*
Y1605000D01*
X5945000Y1715001D02*
X5995000D01*
X5970000Y1690001D02*
Y1740001D01*
X5915000Y2320000D02*
X5965000D01*
X5940000Y2295000D02*
Y2345000D01*
X6715000Y2100000D02*
X6765000D01*
X6740000Y2075000D02*
Y2125000D01*
X9775000Y920000D02*
X9825000D01*
X9800000Y895000D02*
Y945000D01*
X4435000Y2000000D02*
X4485000D01*
X4460000Y1975000D02*
Y2025000D01*
X4855000Y2440913D02*
X4905000D01*
X4880000Y2415913D02*
Y2465913D01*
X4805000Y2550000D02*
X4855000D01*
X4830000Y2525000D02*
Y2575000D01*
X7805000Y1350000D02*
X7855000D01*
X7830000Y1325000D02*
Y1375000D01*
X7825000Y740000D02*
X7875000D01*
X7850000Y715000D02*
Y765000D01*
X8745000Y950000D02*
X8795000D01*
X8770000Y925000D02*
Y975000D01*
X9035000Y2350000D02*
X9085000D01*
X9060000Y2325000D02*
Y2375000D01*
X8215000Y1680000D02*
X8265000D01*
X8240000Y1655000D02*
Y1705000D01*
X5025000Y2560000D02*
X5075000D01*
X5050000Y2535000D02*
Y2585000D01*
X5375000Y5160000D02*
X5425000D01*
X5400000Y5135000D02*
Y5185000D01*
X6015000Y5870000D02*
X6065000D01*
X6040000Y5845000D02*
Y5895000D01*
X6075000Y5250000D02*
X6125000D01*
X6100000Y5225000D02*
Y5275000D01*
X5855000Y5250000D02*
X5905000D01*
X5880000Y5225000D02*
Y5275000D01*
X4675000Y5760000D02*
X4725000D01*
X4700000Y5735000D02*
Y5785000D01*
X4825000Y5670000D02*
X4875000D01*
X4850000Y5645000D02*
Y5695000D01*
X4925000Y5600000D02*
X4975000D01*
X4950000Y5575000D02*
Y5625000D01*
X4725000Y5580000D02*
X4775000D01*
X4750000Y5555000D02*
Y5605000D01*
X4285000Y5980000D02*
X4335000D01*
X4310000Y5955000D02*
Y6005000D01*
X3835000Y5920000D02*
X3885000D01*
X3860000Y5895000D02*
Y5945000D01*
X3955000Y5920000D02*
X4005000D01*
X3980000Y5895000D02*
Y5945000D01*
X3395000Y5760000D02*
X3445000D01*
X3420000Y5735000D02*
Y5785000D01*
X7385000Y4940000D02*
X7435000D01*
X7410000Y4915000D02*
Y4965000D01*
X4365000Y750000D02*
X4415000D01*
X4390000Y725000D02*
Y775000D01*
X7075000Y1560000D02*
X7125000D01*
X7100000Y1535000D02*
Y1585000D01*
X4125000Y5830000D02*
X4175000D01*
X4150000Y5805000D02*
Y5855000D01*
X4165000Y5950000D02*
X4215000D01*
X4190000Y5925000D02*
Y5975000D01*
X6533972Y3269475D02*
X6583972D01*
X6558972Y3244475D02*
Y3294474D01*
X3995000Y5800000D02*
X4045000D01*
X4020000Y5775000D02*
Y5825000D01*
X6405000Y2650000D02*
X6455000D01*
X6430000Y2625000D02*
Y2675000D01*
X2835000Y2670000D02*
X2885000D01*
X2860000Y2645000D02*
Y2695000D01*
X2074999Y1949793D02*
X2124999D01*
X2099999Y1924793D02*
Y1974793D01*
X7885000Y5450000D02*
X7935000D01*
X7910000Y5425000D02*
Y5475000D01*
X7725000Y5450000D02*
X7775000D01*
X7750000Y5425000D02*
Y5475000D01*
X7675000Y2470000D02*
X7725000D01*
X7700000Y2445000D02*
Y2495000D01*
X7655000Y2800000D02*
X7705000D01*
X7680000Y2775000D02*
Y2825000D01*
X7445000Y2500000D02*
X7495000D01*
X7470000Y2475000D02*
Y2525000D01*
X3525000Y1680000D02*
X3575000D01*
X3550000Y1655000D02*
Y1705000D01*
X1965000Y5030000D02*
X2015000D01*
X1990000Y5005000D02*
Y5055000D01*
X6645000Y2830000D02*
X6695000D01*
X6670000Y2805000D02*
Y2855000D01*
X5025000Y5230000D02*
X5075000D01*
X5050000Y5205000D02*
Y5255000D01*
X7525000Y3390000D02*
X7575000D01*
X7550000Y3365000D02*
Y3415000D01*
X5355000Y2800000D02*
X5405000D01*
X5380000Y2775000D02*
Y2825000D01*
X7275000Y3200000D02*
X7325000D01*
X7300000Y3175000D02*
Y3225000D01*
X6475000Y5060000D02*
X6525000D01*
X6500000Y5035000D02*
Y5085000D01*
X2465000Y150000D02*
X2515000D01*
X2490000Y125000D02*
Y175000D01*
X2345000Y150000D02*
X2395000D01*
X2370000Y125000D02*
Y175000D01*
X2225000Y150000D02*
X2275000D01*
X2250000Y125000D02*
Y175000D01*
X2105000Y150000D02*
X2155000D01*
X2130000Y125000D02*
Y175000D01*
X2675000Y300000D02*
X2725000D01*
X2700000Y275000D02*
Y325000D01*
X2555000Y300000D02*
X2605000D01*
X2580000Y275000D02*
Y325000D01*
X7225000Y1380000D02*
X7275000D01*
X7250000Y1355000D02*
Y1405000D01*
X7835000Y1670000D02*
X7885000D01*
X7860000Y1645000D02*
Y1695000D01*
X965000Y950000D02*
X1015000D01*
X990000Y925000D02*
Y975000D01*
X4995000Y2250000D02*
X5045000D01*
X5020000Y2225000D02*
Y2275000D01*
X3775000Y5800000D02*
X3825000D01*
X3800000Y5775000D02*
Y5825000D01*
X2575000Y2700000D02*
X2625000D01*
X2600000Y2675000D02*
Y2725000D01*
X2675000Y2850000D02*
X2725000D01*
X2700000Y2825000D02*
Y2875000D01*
X2695000Y950000D02*
X2745000D01*
X2720000Y925000D02*
Y975000D01*
X2545000Y2120000D02*
X2595000D01*
X2570000Y2095000D02*
Y2145000D01*
X1995000Y1730000D02*
X2045000D01*
X2020000Y1705000D02*
Y1755000D01*
X2295000Y1350000D02*
X2345000D01*
X2320000Y1325000D02*
Y1375000D01*
X2705000Y1300000D02*
X2755000D01*
X2730000Y1275000D02*
Y1325000D01*
X2575000Y1300000D02*
X2625000D01*
X2600000Y1275000D02*
Y1325000D01*
X5105000Y2390000D02*
X5155000D01*
X5130000Y2365000D02*
Y2415000D01*
X2225000Y5450000D02*
X2275000D01*
X2250000Y5425000D02*
Y5475000D01*
X1725000Y160000D02*
X1775000D01*
X1750000Y135000D02*
Y185000D01*
X2605000Y1710000D02*
X2655000D01*
X2630000Y1685000D02*
Y1735000D01*
X1975000Y4500000D02*
X2025000D01*
X2000000Y4475000D02*
Y4525000D01*
X2125000Y4550000D02*
X2175000D01*
X2150000Y4525000D02*
Y4575000D01*
X2465000Y3800000D02*
X2515000D01*
X2490000Y3775000D02*
Y3825000D01*
X2455000Y810000D02*
X2505000D01*
X2480000Y785000D02*
Y835000D01*
X6488373Y2109211D02*
X6538373D01*
X6513373Y2084211D02*
Y2134211D01*
X6215000Y2260000D02*
X6265000D01*
X6240000Y2235000D02*
Y2285000D01*
X3225000Y810000D02*
X3275000D01*
X3250000Y785000D02*
Y835000D01*
X3005000Y810000D02*
X3055000D01*
X3030000Y785000D02*
Y835000D01*
X2335000Y810000D02*
X2385000D01*
X2360000Y785000D02*
Y835000D01*
X2885000Y810000D02*
X2935000D01*
X2910000Y785000D02*
Y835000D01*
X2175000Y780000D02*
X2225000D01*
X2200000Y755000D02*
Y805000D01*
X1875000Y250000D02*
X1925000D01*
X1900000Y225000D02*
Y275000D01*
X1625000Y250000D02*
X1675000D01*
X1650000Y225000D02*
Y275000D01*
X5675000Y2800000D02*
X5725000D01*
X5700000Y2775000D02*
Y2825000D01*
X5575000Y2700000D02*
X5625000D01*
X5600000Y2675000D02*
Y2725000D01*
X5475000Y2800000D02*
X5525000D01*
X5500000Y2775000D02*
Y2825000D01*
X5895000Y3200000D02*
X5945000D01*
X5920000Y3175000D02*
Y3225000D01*
X5755000Y3200000D02*
X5805000D01*
X5780000Y3175000D02*
Y3225000D01*
X2815000Y1150000D02*
X2865000D01*
X2840000Y1125000D02*
Y1175000D01*
X2775000Y1790000D02*
X2825000D01*
X2800000Y1765000D02*
Y1815000D01*
X2425000Y2800000D02*
X2475000D01*
X2450000Y2775000D02*
Y2825000D01*
X3025000Y2430000D02*
X3075000D01*
X3050000Y2405000D02*
Y2455000D01*
X3025000Y2300000D02*
X3075000D01*
X3050000Y2275000D02*
Y2325000D01*
X2205000Y2560000D02*
X2255000D01*
X2230000Y2535000D02*
Y2585000D01*
X1875000Y2390000D02*
X1925000D01*
X1900000Y2365000D02*
Y2415000D01*
X4095000Y2470000D02*
X4145000D01*
X4120000Y2445000D02*
Y2495000D01*
X8875000Y550000D02*
X8925000D01*
X8900000Y525000D02*
Y575000D01*
X8875000Y700000D02*
X8925000D01*
X8900000Y675000D02*
Y725000D01*
X7325000Y1550000D02*
X7375000D01*
X7350000Y1525000D02*
Y1575000D01*
X5775000Y3500000D02*
X5825000D01*
X5800000Y3475000D02*
Y3525000D01*
X7525000Y1400000D02*
X7575000D01*
X7550000Y1375000D02*
Y1425000D01*
X5075000Y5650000D02*
X5125000D01*
X5100000Y5625000D02*
Y5675000D01*
X8815000Y7050000D02*
X8865000D01*
X8840000Y7025000D02*
Y7075000D01*
X7485000Y6665000D02*
X7535000D01*
X7510000Y6640000D02*
Y6690000D01*
X8385000Y6200000D02*
X8435000D01*
X8410000Y6175000D02*
Y6225000D01*
X8135000Y6190000D02*
X8185000D01*
X8160000Y6165000D02*
Y6215000D01*
X6905000Y6150000D02*
X6955000D01*
X6930000Y6125000D02*
Y6175000D01*
X6655000Y6150000D02*
X6705000D01*
X6680000Y6125000D02*
Y6175000D01*
X5175000Y6190000D02*
X5225000D01*
X5200000Y6165000D02*
Y6215000D01*
X4945000Y6200000D02*
X4995000D01*
X4970000Y6175000D02*
Y6225000D01*
X3625000Y6150000D02*
X3675000D01*
X3650000Y6125000D02*
Y6175000D01*
X3385000Y6190000D02*
X3435000D01*
X3410000Y6165000D02*
Y6215000D01*
X2675000Y5500000D02*
X2725000D01*
X2700000Y5475000D02*
Y5525000D01*
X1825000Y5550000D02*
X1875000D01*
X1850000Y5525000D02*
Y5575000D01*
X1825000Y5430000D02*
X1875000D01*
X1850000Y5405000D02*
Y5455000D01*
X5885000Y6665000D02*
X5935000D01*
X5910000Y6640000D02*
Y6690000D01*
X4285000Y6665000D02*
X4335000D01*
X4310000Y6640000D02*
Y6690000D01*
X2685000Y6665000D02*
X2735000D01*
X2710000Y6640000D02*
Y6690000D01*
X1085000Y6665000D02*
X1135000D01*
X1110000Y6640000D02*
Y6690000D01*
X1310000Y4660000D02*
X1360000D01*
X1335000Y4635000D02*
Y4685000D01*
X1310000Y3060000D02*
X1360000D01*
X1335000Y3035000D02*
Y3085000D01*
X7375000Y4250000D02*
X7425000D01*
X7400000Y4225000D02*
Y4275000D01*
X7475000Y4150000D02*
X7525000D01*
X7500000Y4125000D02*
Y4175000D01*
X7375000Y4040000D02*
X7425000D01*
X7400000Y4015000D02*
Y4065000D01*
X7475000Y3500000D02*
X7525000D01*
X7500000Y3475000D02*
Y3525000D01*
X7375000Y2400000D02*
X7425000D01*
X7400000Y2375000D02*
Y2425000D01*
X7375000Y2600000D02*
X7425000D01*
X7400000Y2575000D02*
Y2625000D01*
X7475000Y2700000D02*
X7525000D01*
X7500000Y2675000D02*
Y2725000D01*
X7375000Y2800000D02*
X7425000D01*
X7400000Y2775000D02*
Y2825000D01*
X7475000Y2900000D02*
X7525000D01*
X7500000Y2875000D02*
Y2925000D01*
X7375000Y3000000D02*
X7425000D01*
X7400000Y2975000D02*
Y3025000D01*
X7475000Y3100000D02*
X7525000D01*
X7500000Y3075000D02*
Y3125000D01*
X7775000Y2400000D02*
X7825000D01*
X7800000Y2375000D02*
Y2425000D01*
X7655000Y2660000D02*
X7705000D01*
X7680000Y2635000D02*
Y2685000D01*
X8425000Y2900000D02*
X8475000D01*
X8450000Y2875000D02*
Y2925000D01*
X7775000Y2800000D02*
X7825000D01*
X7800000Y2775000D02*
Y2825000D01*
X7875000Y2900000D02*
X7925000D01*
X7900000Y2875000D02*
Y2925000D01*
X7775000Y3000000D02*
X7825000D01*
X7800000Y2975000D02*
Y3025000D01*
X7875000Y3100000D02*
X7925000D01*
X7900000Y3075000D02*
Y3125000D01*
X7775000Y3200000D02*
X7825000D01*
X7800000Y3175000D02*
Y3225000D01*
X7775000Y3800000D02*
X7825000D01*
X7800000Y3775000D02*
Y3825000D01*
X7875000Y3700000D02*
X7925000D01*
X7900000Y3675000D02*
Y3725000D01*
X7775000Y3600000D02*
X7825000D01*
X7800000Y3575000D02*
Y3625000D01*
X7875000Y3500000D02*
X7925000D01*
X7900000Y3475000D02*
Y3525000D01*
X7775000Y3390000D02*
X7825000D01*
X7800000Y3365000D02*
Y3415000D01*
X7875000Y4150000D02*
X7925000D01*
X7900000Y4125000D02*
Y4175000D01*
X7775000Y4250000D02*
X7825000D01*
X7800000Y4225000D02*
Y4275000D01*
X7875000Y4350000D02*
X7925000D01*
X7900000Y4325000D02*
Y4375000D01*
X2955000Y330000D02*
X3005000D01*
X2980000Y305000D02*
Y355000D01*
X2775000Y200000D02*
X2825000D01*
X2800000Y175000D02*
Y225000D01*
X2275000Y300000D02*
X2325000D01*
X2300000Y275000D02*
Y325000D01*
X1975000Y730000D02*
X2025000D01*
X2000000Y705000D02*
Y755000D01*
X2765000Y2210000D02*
X2815000D01*
X2790000Y2185000D02*
Y2235000D01*
X1375000Y282500D02*
X1425000D01*
X1400000Y257500D02*
Y307500D01*
X3825000Y1850000D02*
X3875000D01*
X3850000Y1825000D02*
Y1875000D01*
X3675000Y1850000D02*
X3725000D01*
X3700000Y1825000D02*
Y1875000D01*
X3475000Y5590000D02*
X3525000D01*
X3500000Y5565000D02*
Y5615000D01*
X3135000Y5590000D02*
X3185000D01*
X3160000Y5565000D02*
Y5615000D01*
X2965000Y5590000D02*
X3015000D01*
X2990000Y5565000D02*
Y5615000D01*
X3645000Y5590000D02*
X3695000D01*
X3670000Y5565000D02*
Y5615000D01*
X2795000Y5590000D02*
X2845000D01*
X2820000Y5565000D02*
Y5615000D01*
X3055000Y5700000D02*
X3105000D01*
X3080000Y5675000D02*
Y5725000D01*
X3565000Y5700000D02*
X3615000D01*
X3590000Y5675000D02*
Y5725000D01*
X2475000Y5350000D02*
X2525000D01*
X2500000Y5325000D02*
Y5375000D01*
X2475000Y5150000D02*
X2525000D01*
X2500000Y5125000D02*
Y5175000D01*
X2575000Y5050000D02*
X2625000D01*
X2600000Y5025000D02*
Y5075000D01*
X2475000Y4950000D02*
X2525000D01*
X2500000Y4925000D02*
Y4975000D01*
X2375000Y5050000D02*
X2425000D01*
X2400000Y5025000D02*
Y5075000D01*
X2275000Y4950000D02*
X2325000D01*
X2300000Y4925000D02*
Y4975000D01*
X2175000Y5050000D02*
X2225000D01*
X2200000Y5025000D02*
Y5075000D01*
X2075000Y4950000D02*
X2125000D01*
X2100000Y4925000D02*
Y4975000D01*
X1975000Y4850000D02*
X2025000D01*
X2000000Y4825000D02*
Y4875000D01*
X2075000Y4740000D02*
X2125000D01*
X2100000Y4715000D02*
Y4765000D01*
X1975000Y4650000D02*
X2025000D01*
X2000000Y4625000D02*
Y4675000D01*
X2175000Y4300000D02*
X2225000D01*
X2200000Y4275000D02*
Y4325000D01*
X2175000Y4100000D02*
X2225000D01*
X2200000Y4075000D02*
Y4125000D01*
X2275000Y4000000D02*
X2325000D01*
X2300000Y3975000D02*
Y4025000D01*
X2175000Y3900000D02*
X2225000D01*
X2200000Y3875000D02*
Y3925000D01*
X2275000Y3800000D02*
X2325000D01*
X2300000Y3775000D02*
Y3825000D01*
X2175000Y3700000D02*
X2225000D01*
X2200000Y3675000D02*
Y3725000D01*
X2025000Y3100000D02*
X2075000D01*
X2050000Y3075000D02*
Y3125000D01*
X1925000Y3000000D02*
X1975000D01*
X1950000Y2975000D02*
Y3025000D01*
X4175000Y5650000D02*
X4225000D01*
X4200000Y5625000D02*
Y5675000D01*
X4475000Y5800000D02*
X4525000D01*
X4500000Y5775000D02*
Y5825000D01*
X4525000Y5650000D02*
X4575000D01*
X4550000Y5625000D02*
Y5675000D01*
X5525000Y5250000D02*
X5575000D01*
X5550000Y5225000D02*
Y5275000D01*
X5875000Y3590000D02*
X5925000D01*
X5900000Y3565000D02*
Y3615000D01*
X6125000Y4150000D02*
X6175000D01*
X6150000Y4125000D02*
Y4175000D01*
X6125000Y4750000D02*
X6175000D01*
X6150000Y4725000D02*
Y4775000D01*
X6125000Y4550000D02*
X6175000D01*
X6150000Y4525000D02*
Y4575000D01*
X6125000Y3950000D02*
X6175000D01*
X6150000Y3925000D02*
Y3975000D01*
X6125000Y4350000D02*
X6175000D01*
X6150000Y4325000D02*
Y4375000D01*
X6225000Y3850000D02*
X6275000D01*
X6250000Y3825000D02*
Y3875000D01*
X6225000Y4650000D02*
X6275000D01*
X6250000Y4625000D02*
Y4675000D01*
X6225000Y4040000D02*
X6275000D01*
X6250000Y4015000D02*
Y4065000D01*
X6225000Y4450000D02*
X6275000D01*
X6250000Y4425000D02*
Y4475000D01*
X6225000Y4250000D02*
X6275000D01*
X6250000Y4225000D02*
Y4275000D01*
X4665000Y2450000D02*
X4715000D01*
X4690000Y2425000D02*
Y2475000D01*
X4725000Y2250000D02*
X4775000D01*
X4750000Y2225000D02*
Y2275000D01*
X4625000Y2150000D02*
X4675000D01*
X4650000Y2125000D02*
Y2175000D01*
X4525000Y2250000D02*
X4575000D01*
X4550000Y2225000D02*
Y2275000D01*
X4425000Y2150000D02*
X4475000D01*
X4450000Y2125000D02*
Y2175000D01*
X4325000Y2250000D02*
X4375000D01*
X4350000Y2225000D02*
Y2275000D01*
X4225000Y2150000D02*
X4275000D01*
X4250000Y2125000D02*
Y2175000D01*
X3225000Y2250000D02*
X3275000D01*
X3250000Y2225000D02*
Y2275000D01*
X3355000Y2000000D02*
X3405000D01*
X3380000Y1975000D02*
Y2025000D01*
X2925000Y2210000D02*
X2975000D01*
X2950000Y2185000D02*
Y2235000D01*
X3350000Y2125000D02*
X3400000D01*
X3375000Y2100000D02*
Y2150000D01*
X3225000Y2125000D02*
X3275000D01*
X3250000Y2100000D02*
Y2150000D01*
X4035000Y3910000D02*
X4085000D01*
X4060000Y3885000D02*
Y3935000D01*
X4410000Y3910000D02*
X4460000D01*
X4435000Y3885000D02*
Y3935000D01*
X4785000Y3910000D02*
X4835000D01*
X4810000Y3885000D02*
Y3935000D01*
X3285000Y3910000D02*
X3335000D01*
X3310000Y3885000D02*
Y3935000D01*
X3660000Y3910000D02*
X3710000D01*
X3685000Y3885000D02*
Y3935000D01*
X4035000Y4660000D02*
X4085000D01*
X4060000Y4635000D02*
Y4685000D01*
X4035000Y4285000D02*
X4085000D01*
X4060000Y4260000D02*
Y4310000D01*
X4035000Y3160000D02*
X4085000D01*
X4060000Y3135000D02*
Y3185000D01*
X4035000Y3535000D02*
X4085000D01*
X4060000Y3510000D02*
Y3560000D01*
X3660000Y4285000D02*
X3710000D01*
X3685000Y4260000D02*
Y4310000D01*
X3285000Y4285000D02*
X3335000D01*
X3310000Y4260000D02*
Y4310000D01*
X4785000Y4285000D02*
X4835000D01*
X4810000Y4260000D02*
Y4310000D01*
X4410000Y4285000D02*
X4460000D01*
X4435000Y4260000D02*
Y4310000D01*
X3660000Y4660000D02*
X3710000D01*
X3685000Y4635000D02*
Y4685000D01*
X3285000Y4660000D02*
X3335000D01*
X3310000Y4635000D02*
Y4685000D01*
X4785000Y4660000D02*
X4835000D01*
X4810000Y4635000D02*
Y4685000D01*
X4410000Y4660000D02*
X4460000D01*
X4435000Y4635000D02*
Y4685000D01*
X3660000Y3535000D02*
X3710000D01*
X3685000Y3510000D02*
Y3560000D01*
X3285000Y3535000D02*
X3335000D01*
X3310000Y3510000D02*
Y3560000D01*
X4785000Y3535000D02*
X4835000D01*
X4810000Y3510000D02*
Y3560000D01*
X4410000Y3535000D02*
X4460000D01*
X4435000Y3510000D02*
Y3560000D01*
X3660000Y3160000D02*
X3710000D01*
X3685000Y3135000D02*
Y3185000D01*
X3285000Y3160000D02*
X3335000D01*
X3310000Y3135000D02*
Y3185000D01*
X4785000Y3160000D02*
X4835000D01*
X4810000Y3135000D02*
Y3185000D01*
X4410000Y3160000D02*
X4460000D01*
X4435000Y3135000D02*
Y3185000D01*
X3075000Y270000D02*
X3125000D01*
X3100000Y245000D02*
Y295000D01*
X3265000Y300000D02*
X3315000D01*
X3290000Y275000D02*
Y325000D01*
X3425000Y340000D02*
X3475000D01*
X3450000Y315000D02*
Y365000D01*
X3585000Y300000D02*
X3635000D01*
X3610000Y275000D02*
Y325000D01*
X3855000Y350000D02*
X3905000D01*
X3880000Y325000D02*
Y375000D01*
X7215000Y7050000D02*
X7265000D01*
X7240000Y7025000D02*
Y7075000D01*
X5615000Y7050000D02*
X5665000D01*
X5640000Y7025000D02*
Y7075000D01*
X4015000Y7050000D02*
X4065000D01*
X4040000Y7025000D02*
Y7075000D01*
X2415000Y7050000D02*
X2465000D01*
X2440000Y7025000D02*
Y7075000D01*
X925000Y5990000D02*
X975000D01*
X950000Y5965000D02*
Y6015000D01*
X925000Y4390000D02*
X975000D01*
X950000Y4365000D02*
Y4415000D01*
X925000Y2790000D02*
X975000D01*
X950000Y2765000D02*
Y2815000D01*
%TF.MD5,f5134f9a0b1e0bb1a6326e22c2eae68b*%
M02*
