%TF.GenerationSoftware,Altium Limited,Altium Designer,23.11.1 (41)*%
G04 Layer_Color=255*
%FSLAX45Y45*%
%MOMM*%
%TF.SameCoordinates,93787688-83E1-42C5-93B8-12A4BFDEF0D2*%
%TF.FilePolarity,Positive*%
%TF.FileFunction,Pads,Top*%
%TF.Part,Single*%
G01*
G75*
%TA.AperFunction,SMDPad,CuDef*%
G04:AMPARAMS|DCode=10|XSize=2mm|YSize=0.625mm|CornerRadius=0.15625mm|HoleSize=0mm|Usage=FLASHONLY|Rotation=90.000|XOffset=0mm|YOffset=0mm|HoleType=Round|Shape=RoundedRectangle|*
%AMROUNDEDRECTD10*
21,1,2.00000,0.31250,0,0,90.0*
21,1,1.68750,0.62500,0,0,90.0*
1,1,0.31250,0.15625,0.84375*
1,1,0.31250,0.15625,-0.84375*
1,1,0.31250,-0.15625,-0.84375*
1,1,0.31250,-0.15625,0.84375*
%
%ADD10ROUNDEDRECTD10*%
G04:AMPARAMS|DCode=11|XSize=1.05mm|YSize=1.6mm|CornerRadius=0.2625mm|HoleSize=0mm|Usage=FLASHONLY|Rotation=180.000|XOffset=0mm|YOffset=0mm|HoleType=Round|Shape=RoundedRectangle|*
%AMROUNDEDRECTD11*
21,1,1.05000,1.07500,0,0,180.0*
21,1,0.52500,1.60000,0,0,180.0*
1,1,0.52500,-0.26250,0.53750*
1,1,0.52500,0.26250,0.53750*
1,1,0.52500,0.26250,-0.53750*
1,1,0.52500,-0.26250,-0.53750*
%
%ADD11ROUNDEDRECTD11*%
G04:AMPARAMS|DCode=12|XSize=1.05mm|YSize=1.6mm|CornerRadius=0.2625mm|HoleSize=0mm|Usage=FLASHONLY|Rotation=270.000|XOffset=0mm|YOffset=0mm|HoleType=Round|Shape=RoundedRectangle|*
%AMROUNDEDRECTD12*
21,1,1.05000,1.07500,0,0,270.0*
21,1,0.52500,1.60000,0,0,270.0*
1,1,0.52500,-0.53750,-0.26250*
1,1,0.52500,-0.53750,0.26250*
1,1,0.52500,0.53750,0.26250*
1,1,0.52500,0.53750,-0.26250*
%
%ADD12ROUNDEDRECTD12*%
G04:AMPARAMS|DCode=13|XSize=1mm|YSize=2.1mm|CornerRadius=0.25mm|HoleSize=0mm|Usage=FLASHONLY|Rotation=180.000|XOffset=0mm|YOffset=0mm|HoleType=Round|Shape=RoundedRectangle|*
%AMROUNDEDRECTD13*
21,1,1.00000,1.60000,0,0,180.0*
21,1,0.50000,2.10000,0,0,180.0*
1,1,0.50000,-0.25000,0.80000*
1,1,0.50000,0.25000,0.80000*
1,1,0.50000,0.25000,-0.80000*
1,1,0.50000,-0.25000,-0.80000*
%
%ADD13ROUNDEDRECTD13*%
G04:AMPARAMS|DCode=14|XSize=5.4mm|YSize=6.2mm|CornerRadius=1.35mm|HoleSize=0mm|Usage=FLASHONLY|Rotation=180.000|XOffset=0mm|YOffset=0mm|HoleType=Round|Shape=RoundedRectangle|*
%AMROUNDEDRECTD14*
21,1,5.40000,3.50000,0,0,180.0*
21,1,2.70000,6.20000,0,0,180.0*
1,1,2.70000,-1.35000,1.75000*
1,1,2.70000,1.35000,1.75000*
1,1,2.70000,1.35000,-1.75000*
1,1,2.70000,-1.35000,-1.75000*
%
%ADD14ROUNDEDRECTD14*%
%ADD15O,2.50000X5.00000*%
G04:AMPARAMS|DCode=16|XSize=2.5mm|YSize=5mm|CornerRadius=0.625mm|HoleSize=0mm|Usage=FLASHONLY|Rotation=180.000|XOffset=0mm|YOffset=0mm|HoleType=Round|Shape=RoundedRectangle|*
%AMROUNDEDRECTD16*
21,1,2.50000,3.75000,0,0,180.0*
21,1,1.25000,5.00000,0,0,180.0*
1,1,1.25000,-0.62500,1.87500*
1,1,1.25000,0.62500,1.87500*
1,1,1.25000,0.62500,-1.87500*
1,1,1.25000,-0.62500,-1.87500*
%
%ADD16ROUNDEDRECTD16*%
G04:AMPARAMS|DCode=17|XSize=2mm|YSize=2mm|CornerRadius=0.5mm|HoleSize=0mm|Usage=FLASHONLY|Rotation=90.000|XOffset=0mm|YOffset=0mm|HoleType=Round|Shape=RoundedRectangle|*
%AMROUNDEDRECTD17*
21,1,2.00000,1.00000,0,0,90.0*
21,1,1.00000,2.00000,0,0,90.0*
1,1,1.00000,0.50000,0.50000*
1,1,1.00000,0.50000,-0.50000*
1,1,1.00000,-0.50000,-0.50000*
1,1,1.00000,-0.50000,0.50000*
%
%ADD17ROUNDEDRECTD17*%
G04:AMPARAMS|DCode=18|XSize=2mm|YSize=3.2mm|CornerRadius=0.5mm|HoleSize=0mm|Usage=FLASHONLY|Rotation=270.000|XOffset=0mm|YOffset=0mm|HoleType=Round|Shape=RoundedRectangle|*
%AMROUNDEDRECTD18*
21,1,2.00000,2.20000,0,0,270.0*
21,1,1.00000,3.20000,0,0,270.0*
1,1,1.00000,-1.10000,-0.50000*
1,1,1.00000,-1.10000,0.50000*
1,1,1.00000,1.10000,0.50000*
1,1,1.00000,1.10000,-0.50000*
%
%ADD18ROUNDEDRECTD18*%
G04:AMPARAMS|DCode=19|XSize=1.3mm|YSize=1.7mm|CornerRadius=0.325mm|HoleSize=0mm|Usage=FLASHONLY|Rotation=270.000|XOffset=0mm|YOffset=0mm|HoleType=Round|Shape=RoundedRectangle|*
%AMROUNDEDRECTD19*
21,1,1.30000,1.05000,0,0,270.0*
21,1,0.65000,1.70000,0,0,270.0*
1,1,0.65000,-0.52500,-0.32500*
1,1,0.65000,-0.52500,0.32500*
1,1,0.65000,0.52500,0.32500*
1,1,0.65000,0.52500,-0.32500*
%
%ADD19ROUNDEDRECTD19*%
G04:AMPARAMS|DCode=20|XSize=1mm|YSize=1mm|CornerRadius=0.25mm|HoleSize=0mm|Usage=FLASHONLY|Rotation=180.000|XOffset=0mm|YOffset=0mm|HoleType=Round|Shape=RoundedRectangle|*
%AMROUNDEDRECTD20*
21,1,1.00000,0.50000,0,0,180.0*
21,1,0.50000,1.00000,0,0,180.0*
1,1,0.50000,-0.25000,0.25000*
1,1,0.50000,0.25000,0.25000*
1,1,0.50000,0.25000,-0.25000*
1,1,0.50000,-0.25000,-0.25000*
%
%ADD20ROUNDEDRECTD20*%
G04:AMPARAMS|DCode=21|XSize=1.6mm|YSize=1mm|CornerRadius=0.25mm|HoleSize=0mm|Usage=FLASHONLY|Rotation=180.000|XOffset=0mm|YOffset=0mm|HoleType=Round|Shape=RoundedRectangle|*
%AMROUNDEDRECTD21*
21,1,1.60000,0.50000,0,0,180.0*
21,1,1.10000,1.00000,0,0,180.0*
1,1,0.50000,-0.55000,0.25000*
1,1,0.50000,0.55000,0.25000*
1,1,0.50000,0.55000,-0.25000*
1,1,0.50000,-0.55000,-0.25000*
%
%ADD21ROUNDEDRECTD21*%
G04:AMPARAMS|DCode=22|XSize=1.6mm|YSize=0.65mm|CornerRadius=0.08125mm|HoleSize=0mm|Usage=FLASHONLY|Rotation=0.000|XOffset=0mm|YOffset=0mm|HoleType=Round|Shape=RoundedRectangle|*
%AMROUNDEDRECTD22*
21,1,1.60000,0.48750,0,0,0.0*
21,1,1.43750,0.65000,0,0,0.0*
1,1,0.16250,0.71875,-0.24375*
1,1,0.16250,-0.71875,-0.24375*
1,1,0.16250,-0.71875,0.24375*
1,1,0.16250,0.71875,0.24375*
%
%ADD22ROUNDEDRECTD22*%
G04:AMPARAMS|DCode=23|XSize=1.3mm|YSize=1.7mm|CornerRadius=0.325mm|HoleSize=0mm|Usage=FLASHONLY|Rotation=0.000|XOffset=0mm|YOffset=0mm|HoleType=Round|Shape=RoundedRectangle|*
%AMROUNDEDRECTD23*
21,1,1.30000,1.05000,0,0,0.0*
21,1,0.65000,1.70000,0,0,0.0*
1,1,0.65000,0.32500,-0.52500*
1,1,0.65000,-0.32500,-0.52500*
1,1,0.65000,-0.32500,0.52500*
1,1,0.65000,0.32500,0.52500*
%
%ADD23ROUNDEDRECTD23*%
G04:AMPARAMS|DCode=24|XSize=1mm|YSize=1mm|CornerRadius=0.25mm|HoleSize=0mm|Usage=FLASHONLY|Rotation=90.000|XOffset=0mm|YOffset=0mm|HoleType=Round|Shape=RoundedRectangle|*
%AMROUNDEDRECTD24*
21,1,1.00000,0.50000,0,0,90.0*
21,1,0.50000,1.00000,0,0,90.0*
1,1,0.50000,0.25000,0.25000*
1,1,0.50000,0.25000,-0.25000*
1,1,0.50000,-0.25000,-0.25000*
1,1,0.50000,-0.25000,0.25000*
%
%ADD24ROUNDEDRECTD24*%
%ADD25O,4.50000X1.50000*%
G04:AMPARAMS|DCode=26|XSize=1.4mm|YSize=0.35mm|CornerRadius=0.04375mm|HoleSize=0mm|Usage=FLASHONLY|Rotation=90.000|XOffset=0mm|YOffset=0mm|HoleType=Round|Shape=RoundedRectangle|*
%AMROUNDEDRECTD26*
21,1,1.40000,0.26250,0,0,90.0*
21,1,1.31250,0.35000,0,0,90.0*
1,1,0.08750,0.13125,0.65625*
1,1,0.08750,0.13125,-0.65625*
1,1,0.08750,-0.13125,-0.65625*
1,1,0.08750,-0.13125,0.65625*
%
%ADD26ROUNDEDRECTD26*%
G04:AMPARAMS|DCode=27|XSize=2.2mm|YSize=0.65mm|CornerRadius=0.08125mm|HoleSize=0mm|Usage=FLASHONLY|Rotation=90.000|XOffset=0mm|YOffset=0mm|HoleType=Round|Shape=RoundedRectangle|*
%AMROUNDEDRECTD27*
21,1,2.20000,0.48750,0,0,90.0*
21,1,2.03750,0.65000,0,0,90.0*
1,1,0.16250,0.24375,1.01875*
1,1,0.16250,0.24375,-1.01875*
1,1,0.16250,-0.24375,-1.01875*
1,1,0.16250,-0.24375,1.01875*
%
%ADD27ROUNDEDRECTD27*%
G04:AMPARAMS|DCode=28|XSize=2mm|YSize=2.2mm|CornerRadius=0.5mm|HoleSize=0mm|Usage=FLASHONLY|Rotation=180.000|XOffset=0mm|YOffset=0mm|HoleType=Round|Shape=RoundedRectangle|*
%AMROUNDEDRECTD28*
21,1,2.00000,1.20000,0,0,180.0*
21,1,1.00000,2.20000,0,0,180.0*
1,1,1.00000,-0.50000,0.60000*
1,1,1.00000,0.50000,0.60000*
1,1,1.00000,0.50000,-0.60000*
1,1,1.00000,-0.50000,-0.60000*
%
%ADD28ROUNDEDRECTD28*%
G04:AMPARAMS|DCode=29|XSize=0.5mm|YSize=1.8mm|CornerRadius=0.125mm|HoleSize=0mm|Usage=FLASHONLY|Rotation=0.000|XOffset=0mm|YOffset=0mm|HoleType=Round|Shape=RoundedRectangle|*
%AMROUNDEDRECTD29*
21,1,0.50000,1.55000,0,0,0.0*
21,1,0.25000,1.80000,0,0,0.0*
1,1,0.25000,0.12500,-0.77500*
1,1,0.25000,-0.12500,-0.77500*
1,1,0.25000,-0.12500,0.77500*
1,1,0.25000,0.12500,0.77500*
%
%ADD29ROUNDEDRECTD29*%
G04:AMPARAMS|DCode=30|XSize=0.3mm|YSize=1.5mm|CornerRadius=0.075mm|HoleSize=0mm|Usage=FLASHONLY|Rotation=0.000|XOffset=0mm|YOffset=0mm|HoleType=Round|Shape=RoundedRectangle|*
%AMROUNDEDRECTD30*
21,1,0.30000,1.35000,0,0,0.0*
21,1,0.15000,1.50000,0,0,0.0*
1,1,0.15000,0.07500,-0.67500*
1,1,0.15000,-0.07500,-0.67500*
1,1,0.15000,-0.07500,0.67500*
1,1,0.15000,0.07500,0.67500*
%
%ADD30ROUNDEDRECTD30*%
G04:AMPARAMS|DCode=31|XSize=1.5mm|YSize=1.5mm|CornerRadius=0.375mm|HoleSize=0mm|Usage=FLASHONLY|Rotation=180.000|XOffset=0mm|YOffset=0mm|HoleType=Round|Shape=RoundedRectangle|*
%AMROUNDEDRECTD31*
21,1,1.50000,0.75000,0,0,180.0*
21,1,0.75000,1.50000,0,0,180.0*
1,1,0.75000,-0.37500,0.37500*
1,1,0.75000,0.37500,0.37500*
1,1,0.75000,0.37500,-0.37500*
1,1,0.75000,-0.37500,-0.37500*
%
%ADD31ROUNDEDRECTD31*%
%TA.AperFunction,ComponentPad*%
%ADD36C,1.80000*%
G04:AMPARAMS|DCode=37|XSize=1.8mm|YSize=1.8mm|CornerRadius=0.45mm|HoleSize=0mm|Usage=FLASHONLY|Rotation=90.000|XOffset=0mm|YOffset=0mm|HoleType=Round|Shape=RoundedRectangle|*
%AMROUNDEDRECTD37*
21,1,1.80000,0.90000,0,0,90.0*
21,1,0.90000,1.80000,0,0,90.0*
1,1,0.90000,0.45000,0.45000*
1,1,0.90000,0.45000,-0.45000*
1,1,0.90000,-0.45000,-0.45000*
1,1,0.90000,-0.45000,0.45000*
%
%ADD37ROUNDEDRECTD37*%
G04:AMPARAMS|DCode=38|XSize=1.8mm|YSize=1.8mm|CornerRadius=0.45mm|HoleSize=0mm|Usage=FLASHONLY|Rotation=0.000|XOffset=0mm|YOffset=0mm|HoleType=Round|Shape=RoundedRectangle|*
%AMROUNDEDRECTD38*
21,1,1.80000,0.90000,0,0,0.0*
21,1,0.90000,1.80000,0,0,0.0*
1,1,0.90000,0.45000,-0.45000*
1,1,0.90000,-0.45000,-0.45000*
1,1,0.90000,-0.45000,0.45000*
1,1,0.90000,0.45000,0.45000*
%
%ADD38ROUNDEDRECTD38*%
%ADD39C,7.00000*%
%ADD40O,2.60000X3.30000*%
G04:AMPARAMS|DCode=41|XSize=2.6mm|YSize=3.3mm|CornerRadius=0.325mm|HoleSize=0mm|Usage=FLASHONLY|Rotation=0.000|XOffset=0mm|YOffset=0mm|HoleType=Round|Shape=RoundedRectangle|*
%AMROUNDEDRECTD41*
21,1,2.60000,2.65000,0,0,0.0*
21,1,1.95000,3.30000,0,0,0.0*
1,1,0.65000,0.97500,-1.32500*
1,1,0.65000,-0.97500,-1.32500*
1,1,0.65000,-0.97500,1.32500*
1,1,0.65000,0.97500,1.32500*
%
%ADD41ROUNDEDRECTD41*%
%ADD42O,2.50000X2.00000*%
G04:AMPARAMS|DCode=43|XSize=1.7mm|YSize=2mm|CornerRadius=0.2125mm|HoleSize=0mm|Usage=FLASHONLY|Rotation=270.000|XOffset=0mm|YOffset=0mm|HoleType=Round|Shape=RoundedRectangle|*
%AMROUNDEDRECTD43*
21,1,1.70000,1.57500,0,0,270.0*
21,1,1.27500,2.00000,0,0,270.0*
1,1,0.42500,-0.78750,-0.63750*
1,1,0.42500,-0.78750,0.63750*
1,1,0.42500,0.78750,0.63750*
1,1,0.42500,0.78750,-0.63750*
%
%ADD43ROUNDEDRECTD43*%
%ADD44O,2.00000X1.70000*%
%ADD45C,1.60000*%
%ADD46C,2.00000*%
%ADD47C,3.00000*%
G04:AMPARAMS|DCode=48|XSize=1.8mm|YSize=2.5mm|CornerRadius=0.45mm|HoleSize=0mm|Usage=FLASHONLY|Rotation=180.000|XOffset=0mm|YOffset=0mm|HoleType=Round|Shape=RoundedRectangle|*
%AMROUNDEDRECTD48*
21,1,1.80000,1.60000,0,0,180.0*
21,1,0.90000,2.50000,0,0,180.0*
1,1,0.90000,-0.45000,0.80000*
1,1,0.90000,0.45000,0.80000*
1,1,0.90000,0.45000,-0.80000*
1,1,0.90000,-0.45000,-0.80000*
%
%ADD48ROUNDEDRECTD48*%
%ADD49O,1.80000X2.50000*%
%ADD50O,2.50000X1.80000*%
G04:AMPARAMS|DCode=51|XSize=1.8mm|YSize=2.5mm|CornerRadius=0.45mm|HoleSize=0mm|Usage=FLASHONLY|Rotation=90.000|XOffset=0mm|YOffset=0mm|HoleType=Round|Shape=RoundedRectangle|*
%AMROUNDEDRECTD51*
21,1,1.80000,1.60000,0,0,90.0*
21,1,0.90000,2.50000,0,0,90.0*
1,1,0.90000,0.80000,0.45000*
1,1,0.90000,0.80000,-0.45000*
1,1,0.90000,-0.80000,-0.45000*
1,1,0.90000,-0.80000,0.45000*
%
%ADD51ROUNDEDRECTD51*%
D10*
X7065000Y2190000D02*
D03*
X7192500D02*
D03*
X7320000D02*
D03*
X7447500D02*
D03*
X7575000D02*
D03*
X7702500D02*
D03*
X7830000D02*
D03*
X7957499D02*
D03*
X8084999D02*
D03*
X8212499D02*
D03*
X8339999D02*
D03*
X8467499D02*
D03*
X8594999D02*
D03*
X8722499D02*
D03*
Y1160000D02*
D03*
X8594999D02*
D03*
X8467499D02*
D03*
X8339999D02*
D03*
X8212499D02*
D03*
X7957499D02*
D03*
X7830000D02*
D03*
X7702500D02*
D03*
X7575000D02*
D03*
X7447500D02*
D03*
X7192500D02*
D03*
X7065000D02*
D03*
D11*
X5147500Y5012500D02*
D03*
X5342500D02*
D03*
X3150000Y4782500D02*
D03*
X2955000D02*
D03*
X3150000Y4282500D02*
D03*
X2955000D02*
D03*
X3150000Y3782500D02*
D03*
X2955000D02*
D03*
X3150000Y3132500D02*
D03*
X2955000D02*
D03*
X4970000Y3682500D02*
D03*
X5165000D02*
D03*
X4970000Y3140000D02*
D03*
X5165000D02*
D03*
X4970000Y2897500D02*
D03*
X5165000D02*
D03*
X4970000Y4182500D02*
D03*
X5165000D02*
D03*
X9797500Y1097542D02*
D03*
X9602500D02*
D03*
X9205000D02*
D03*
X9400000D02*
D03*
X9797500Y1797542D02*
D03*
X9602500D02*
D03*
X9205000D02*
D03*
X9400000D02*
D03*
X9780000Y4750000D02*
D03*
X9585000D02*
D03*
X965000Y4919850D02*
D03*
X1160000D02*
D03*
X1515000Y5930000D02*
D03*
X1710000D02*
D03*
X1515000Y5680000D02*
D03*
X1710000D02*
D03*
Y5430000D02*
D03*
X1515000D02*
D03*
X1710000Y5180000D02*
D03*
X1515000D02*
D03*
X1710000Y4660000D02*
D03*
X1515000D02*
D03*
X960000D02*
D03*
X1155000D02*
D03*
X1710000Y3830000D02*
D03*
X1515000D02*
D03*
X1710000Y3580000D02*
D03*
X1515000D02*
D03*
Y4080000D02*
D03*
X1710000D02*
D03*
X1515000Y4330000D02*
D03*
X1710000D02*
D03*
Y3060000D02*
D03*
X1515000D02*
D03*
X965000Y3319850D02*
D03*
X1160000D02*
D03*
X960000Y3060000D02*
D03*
X1155000D02*
D03*
X965000Y1719849D02*
D03*
X1160000D02*
D03*
X1710000Y2230000D02*
D03*
X1515000D02*
D03*
X1710000Y1980000D02*
D03*
X1515000D02*
D03*
X1710000Y1460000D02*
D03*
X1515000D02*
D03*
X960000D02*
D03*
X1155000D02*
D03*
X4235000Y1952500D02*
D03*
X4040000D02*
D03*
X2230000Y1952500D02*
D03*
X2425000D02*
D03*
X2807500D02*
D03*
X2612500D02*
D03*
X2995000Y1952500D02*
D03*
X3190000D02*
D03*
X7317500Y857500D02*
D03*
X7122500D02*
D03*
X7317500Y615000D02*
D03*
X7122500D02*
D03*
X7712500Y857500D02*
D03*
X7517500D02*
D03*
X7712451Y615000D02*
D03*
X7517451D02*
D03*
X7317500Y372500D02*
D03*
X7122500D02*
D03*
Y130000D02*
D03*
X7317500D02*
D03*
X1710000Y2730000D02*
D03*
X1515000D02*
D03*
X1710000Y2480000D02*
D03*
X1515000D02*
D03*
D12*
X4935000Y4817500D02*
D03*
Y5012500D02*
D03*
X4285000Y4817500D02*
D03*
Y5012500D02*
D03*
X3735000Y4817500D02*
D03*
Y5012500D02*
D03*
X3382500Y2997500D02*
D03*
Y2802500D02*
D03*
X3625000Y2997500D02*
D03*
Y2802500D02*
D03*
X4132500Y2997500D02*
D03*
Y2802500D02*
D03*
X4685000D02*
D03*
Y2997500D02*
D03*
X8960000Y952500D02*
D03*
Y1147500D02*
D03*
X7957500Y2687500D02*
D03*
Y2492500D02*
D03*
X8200000Y2492476D02*
D03*
Y2687475D02*
D03*
X8442500Y2687500D02*
D03*
Y2492500D02*
D03*
X8970000Y5545000D02*
D03*
Y5350000D02*
D03*
X8030000Y6485000D02*
D03*
Y6290000D02*
D03*
X8280000Y6485000D02*
D03*
Y6290000D02*
D03*
X8530000D02*
D03*
Y6485000D02*
D03*
X8780000Y6290000D02*
D03*
Y6485000D02*
D03*
X7769850Y6840000D02*
D03*
Y7035000D02*
D03*
X9010000Y5875000D02*
D03*
Y6070000D02*
D03*
X8760000Y5875000D02*
D03*
Y6070000D02*
D03*
X8030000Y5869954D02*
D03*
Y6064954D02*
D03*
X7779498Y5869978D02*
D03*
Y6064978D02*
D03*
X7510301Y5869978D02*
D03*
Y6064978D02*
D03*
X7510000Y6845000D02*
D03*
Y7040000D02*
D03*
Y6485000D02*
D03*
Y6290000D02*
D03*
X7180000Y6485000D02*
D03*
Y6290000D02*
D03*
X6930000Y6485000D02*
D03*
Y6290000D02*
D03*
X6680000D02*
D03*
Y6485000D02*
D03*
X6430000Y6290000D02*
D03*
Y6485000D02*
D03*
X5580000D02*
D03*
Y6290000D02*
D03*
X5330000Y6485000D02*
D03*
Y6290000D02*
D03*
X5080000D02*
D03*
Y6485000D02*
D03*
X4830000Y6290000D02*
D03*
Y6485000D02*
D03*
X5910000Y6290000D02*
D03*
Y6485000D02*
D03*
X6429699Y5869978D02*
D03*
Y6064978D02*
D03*
X6169850Y5869978D02*
D03*
Y6064978D02*
D03*
X5920000Y5872500D02*
D03*
Y6067500D02*
D03*
X6169850Y7035000D02*
D03*
Y6840000D02*
D03*
X5910000Y7040000D02*
D03*
Y6845000D02*
D03*
X4569850Y7035000D02*
D03*
Y6840000D02*
D03*
X4310000Y7040000D02*
D03*
Y6845000D02*
D03*
Y6290000D02*
D03*
Y6485000D02*
D03*
X3230000Y6290000D02*
D03*
Y6485000D02*
D03*
X3480000Y6290000D02*
D03*
Y6485000D02*
D03*
X3730000D02*
D03*
Y6290000D02*
D03*
X3980000Y6485000D02*
D03*
Y6290000D02*
D03*
X2969850Y7035000D02*
D03*
Y6840000D02*
D03*
X2710000Y7040000D02*
D03*
Y6845000D02*
D03*
Y6290000D02*
D03*
Y6485000D02*
D03*
X1880000Y6290000D02*
D03*
Y6485000D02*
D03*
X2130000D02*
D03*
Y6290000D02*
D03*
X2380000Y6485000D02*
D03*
Y6290000D02*
D03*
X1369850Y7035000D02*
D03*
Y6840000D02*
D03*
X1630000Y6290000D02*
D03*
Y6485000D02*
D03*
X1110000Y6290000D02*
D03*
Y6485000D02*
D03*
Y7040000D02*
D03*
Y6845000D02*
D03*
X3509498Y6067524D02*
D03*
Y5872524D02*
D03*
X3260000Y6067549D02*
D03*
Y5872549D02*
D03*
X3009700Y6067549D02*
D03*
Y5872549D02*
D03*
X2759699D02*
D03*
Y6067549D02*
D03*
X2015000Y4090000D02*
D03*
Y4285000D02*
D03*
X1207500Y1147500D02*
D03*
Y952500D02*
D03*
X1450000Y1147500D02*
D03*
Y952500D02*
D03*
X1692500D02*
D03*
Y1147500D02*
D03*
X1935000Y1147524D02*
D03*
Y952524D02*
D03*
X2177500Y1147524D02*
D03*
Y952524D02*
D03*
X2420000Y1147500D02*
D03*
Y952500D02*
D03*
X3012500Y1147524D02*
D03*
Y952524D02*
D03*
X3255000Y1147524D02*
D03*
Y952524D02*
D03*
X3740000Y1147524D02*
D03*
Y952524D02*
D03*
X3497500Y1147500D02*
D03*
Y952500D02*
D03*
X3982500Y1147500D02*
D03*
Y952500D02*
D03*
X4225000Y1147500D02*
D03*
Y952500D02*
D03*
X4472500Y952500D02*
D03*
Y1147500D02*
D03*
X4472650Y1555000D02*
D03*
Y1360000D02*
D03*
X4730150Y1555000D02*
D03*
Y1360000D02*
D03*
X4730000Y1147500D02*
D03*
Y952500D02*
D03*
X4729850Y1997524D02*
D03*
Y1802524D02*
D03*
X5580150Y1997476D02*
D03*
Y1802476D02*
D03*
X5827951Y1997476D02*
D03*
Y1802476D02*
D03*
X6617500Y1360000D02*
D03*
Y1555000D02*
D03*
X6865000Y1360000D02*
D03*
Y1555000D02*
D03*
X6617500Y1802451D02*
D03*
Y1997451D02*
D03*
X6865150Y1802476D02*
D03*
Y1997476D02*
D03*
X6867500Y2412500D02*
D03*
Y2217500D02*
D03*
X6617500Y2217476D02*
D03*
Y2412475D02*
D03*
X6120000Y2830000D02*
D03*
Y2635000D02*
D03*
X5822500Y2412500D02*
D03*
Y2217500D02*
D03*
X5580000Y2412549D02*
D03*
Y2217549D02*
D03*
X5827651Y1555049D02*
D03*
Y1360049D02*
D03*
X5580000Y1360000D02*
D03*
Y1555000D02*
D03*
X5985000Y655000D02*
D03*
Y850000D02*
D03*
X6864850Y952500D02*
D03*
Y1147500D02*
D03*
D13*
X7208500Y5867500D02*
D03*
X6751500Y5867500D02*
D03*
D14*
X6980000Y5192500D02*
D03*
D15*
X7052500Y2801250D02*
D03*
D16*
Y4448750D02*
D03*
D17*
X9080000Y1447542D02*
D03*
X9800000D02*
D03*
X9080000Y2147542D02*
D03*
X9800000D02*
D03*
X2767500Y1552500D02*
D03*
X2047500D02*
D03*
D18*
X8450000Y3890000D02*
D03*
Y3200000D02*
D03*
D19*
X7770000Y6630000D02*
D03*
Y6290000D02*
D03*
X8030000Y7030000D02*
D03*
Y6690000D02*
D03*
X6432500Y6690000D02*
D03*
Y7030000D02*
D03*
X6170000Y6290000D02*
D03*
Y6630000D02*
D03*
X4832500Y6690000D02*
D03*
Y7030000D02*
D03*
X4570000Y6290000D02*
D03*
Y6630000D02*
D03*
X2970000Y6290000D02*
D03*
Y6630000D02*
D03*
X3230000Y6690000D02*
D03*
Y7030000D02*
D03*
X1630000Y6690000D02*
D03*
Y7030000D02*
D03*
X1370000Y6290000D02*
D03*
Y6630000D02*
D03*
D20*
X8460000Y6680000D02*
D03*
X8360000Y6880000D02*
D03*
X8260000Y6680000D02*
D03*
X8830000D02*
D03*
X8730000Y6880000D02*
D03*
X8630000Y6680000D02*
D03*
X7030000D02*
D03*
X7130000Y6880000D02*
D03*
X7230000Y6680000D02*
D03*
X6660000D02*
D03*
X6760000Y6880000D02*
D03*
X6860000Y6680000D02*
D03*
X5430000D02*
D03*
X5530000Y6880000D02*
D03*
X5630000Y6680000D02*
D03*
X5060000D02*
D03*
X5160000Y6880000D02*
D03*
X5260000Y6680000D02*
D03*
X3830000D02*
D03*
X3930000Y6880000D02*
D03*
X4030000Y6680000D02*
D03*
X3460000D02*
D03*
X3560000Y6880000D02*
D03*
X3660000Y6680000D02*
D03*
X2230000D02*
D03*
X2330000Y6880000D02*
D03*
X2430000Y6680000D02*
D03*
X1860000D02*
D03*
X1960000Y6880000D02*
D03*
X2060000Y6680000D02*
D03*
D21*
X8279850Y6070000D02*
D03*
Y5790000D02*
D03*
X5580151Y6070006D02*
D03*
Y5790006D02*
D03*
X5330000Y2212502D02*
D03*
Y2492502D02*
D03*
X5985000Y182500D02*
D03*
Y462500D02*
D03*
D22*
X2490000Y6070000D02*
D03*
Y5943000D02*
D03*
Y5816000D02*
D03*
Y5689000D02*
D03*
X1950000D02*
D03*
Y5816000D02*
D03*
Y5943000D02*
D03*
Y6070000D02*
D03*
D23*
X1310000Y5180000D02*
D03*
X970000D02*
D03*
X1710000Y4920000D02*
D03*
X1370000D02*
D03*
X1710000Y3317500D02*
D03*
X1370000D02*
D03*
X1310000Y3580000D02*
D03*
X970000D02*
D03*
X1310000Y1982500D02*
D03*
X970000D02*
D03*
X1710000Y1720000D02*
D03*
X1370000D02*
D03*
X6390000Y2362500D02*
D03*
X6050000D02*
D03*
D24*
X1320000Y5780000D02*
D03*
X1120000Y5880000D02*
D03*
X1320000Y5980000D02*
D03*
Y5410000D02*
D03*
X1120000Y5510000D02*
D03*
X1320000Y5610000D02*
D03*
Y4180000D02*
D03*
X1120000Y4280000D02*
D03*
X1320000Y4380000D02*
D03*
Y3809999D02*
D03*
X1120000Y3910000D02*
D03*
X1320000Y4010000D02*
D03*
Y2209999D02*
D03*
X1120000Y2310000D02*
D03*
X1320000Y2409999D02*
D03*
Y2579999D02*
D03*
X1120000Y2680000D02*
D03*
X1320000Y2780000D02*
D03*
D25*
X4040000Y1552500D02*
D03*
X3190000D02*
D03*
D26*
X5217500Y1997500D02*
D03*
X5152500D02*
D03*
X4957500D02*
D03*
X5022500D02*
D03*
X5412500D02*
D03*
X5347500D02*
D03*
X5282500D02*
D03*
X5087500D02*
D03*
X5412500Y1350000D02*
D03*
X5347500D02*
D03*
X5282500D02*
D03*
X5217500D02*
D03*
X5152500D02*
D03*
X5087500D02*
D03*
X5022500D02*
D03*
X4957500D02*
D03*
D27*
X6032150Y1299755D02*
D03*
X6159150D02*
D03*
X6286150D02*
D03*
X6413150D02*
D03*
Y2045245D02*
D03*
X6286150D02*
D03*
X6159150D02*
D03*
X6032150D02*
D03*
D28*
X5490000Y465000D02*
D03*
X4510000D02*
D03*
D29*
X4950000Y702900D02*
D03*
X4850000D02*
D03*
X5050000D02*
D03*
X5150000D02*
D03*
D30*
X3300000Y520000D02*
D03*
X3250000D02*
D03*
X3200000D02*
D03*
X3150000D02*
D03*
X3100000D02*
D03*
X3050000D02*
D03*
X3000000D02*
D03*
X2950000D02*
D03*
X2900000D02*
D03*
X2850000D02*
D03*
X2800000D02*
D03*
X2750000D02*
D03*
X2700000D02*
D03*
X2650000D02*
D03*
X2600000D02*
D03*
X2550000D02*
D03*
X2500000D02*
D03*
X2450000D02*
D03*
X2400000D02*
D03*
X2350000D02*
D03*
X2300000D02*
D03*
X2250000D02*
D03*
X2200000D02*
D03*
X2150000D02*
D03*
X2100000D02*
D03*
X2050000D02*
D03*
X2000000D02*
D03*
X1950000D02*
D03*
X1900000D02*
D03*
X1850000D02*
D03*
X1800000D02*
D03*
X1750000D02*
D03*
X1700000D02*
D03*
X1650000D02*
D03*
X1600000D02*
D03*
X1550000D02*
D03*
X1500000D02*
D03*
X1450000D02*
D03*
X1400000D02*
D03*
X1350000D02*
D03*
X3350000D02*
D03*
X3400000D02*
D03*
X3450000D02*
D03*
X3500000D02*
D03*
X3550000D02*
D03*
X3600000D02*
D03*
X3650000D02*
D03*
X3700000D02*
D03*
X3750000D02*
D03*
X3800000D02*
D03*
D31*
X4057500Y227500D02*
D03*
X1092499D02*
D03*
D36*
X6120000Y3594000D02*
D03*
Y3340000D02*
D03*
X4782000Y5990000D02*
D03*
X5036000D02*
D03*
X5290000D02*
D03*
X8092500Y4845000D02*
D03*
X2015000Y3839000D02*
D03*
Y3585000D02*
D03*
D37*
X6120000Y3086000D02*
D03*
X2015000Y3331000D02*
D03*
D38*
X4528000Y5990000D02*
D03*
D39*
X9500000Y500000D02*
D03*
X480000Y470000D02*
D03*
X9500000Y7500000D02*
D03*
X480000Y7470000D02*
D03*
D40*
X9150000Y4040000D02*
D03*
D41*
X9650000D02*
D03*
D42*
X8682500Y5104000D02*
D03*
Y4850000D02*
D03*
Y4596000D02*
D03*
D43*
X9137500Y4803000D02*
D03*
D44*
Y5057000D02*
D03*
D45*
X6460000Y540000D02*
D03*
Y350000D02*
D03*
D46*
X480000Y6870000D02*
D03*
Y6370000D02*
D03*
D47*
X9290000Y2692000D02*
D03*
Y3200000D02*
D03*
D48*
X8567500Y500000D02*
D03*
X7650000Y7500000D02*
D03*
X6050000D02*
D03*
X4450000D02*
D03*
X2850000D02*
D03*
X1250000D02*
D03*
D49*
X8317500Y500000D02*
D03*
X7900000Y7500000D02*
D03*
X8150000D02*
D03*
X8400000D02*
D03*
X8650000D02*
D03*
X7050000D02*
D03*
X6800000D02*
D03*
X6550000D02*
D03*
X6300000D02*
D03*
X5450000D02*
D03*
X5200000D02*
D03*
X4950000D02*
D03*
X4700000D02*
D03*
X3850000D02*
D03*
X3600000D02*
D03*
X3350000D02*
D03*
X3100000D02*
D03*
X2250000D02*
D03*
X2000000D02*
D03*
X1750000D02*
D03*
X1500000D02*
D03*
D50*
X500000Y3450000D02*
D03*
Y3700000D02*
D03*
Y3950000D02*
D03*
Y4200000D02*
D03*
Y5800000D02*
D03*
Y5550000D02*
D03*
Y5300000D02*
D03*
Y5050000D02*
D03*
Y2600000D02*
D03*
Y2350000D02*
D03*
Y2100000D02*
D03*
Y1850000D02*
D03*
X9500000Y6490000D02*
D03*
Y6240000D02*
D03*
Y5990000D02*
D03*
Y5740000D02*
D03*
Y5490000D02*
D03*
D51*
X500000Y3200000D02*
D03*
Y4800000D02*
D03*
Y1600000D02*
D03*
X9500000Y6740000D02*
D03*
%TF.MD5,a5d92fb7065db3b78027982b6b8f74d9*%
M02*
