%TF.GenerationSoftware,Altium Limited,Altium Designer,23.11.1 (41)*%
G04 Layer_Color=8388736*
%FSLAX45Y45*%
%MOMM*%
%TF.SameCoordinates,93787688-83E1-42C5-93B8-12A4BFDEF0D2*%
%TF.FilePolarity,Negative*%
%TF.FileFunction,Soldermask,Top*%
%TF.Part,Single*%
G01*
G75*
%TA.AperFunction,SMDPad,CuDef*%
G04:AMPARAMS|DCode=100|XSize=2.2032mm|YSize=0.8282mm|CornerRadius=0.25785mm|HoleSize=0mm|Usage=FLASHONLY|Rotation=90.000|XOffset=0mm|YOffset=0mm|HoleType=Round|Shape=RoundedRectangle|*
%AMROUNDEDRECTD100*
21,1,2.20320,0.31250,0,0,90.0*
21,1,1.68750,0.82820,0,0,90.0*
1,1,0.51570,0.15625,0.84375*
1,1,0.51570,0.15625,-0.84375*
1,1,0.51570,-0.15625,-0.84375*
1,1,0.51570,-0.15625,0.84375*
%
%ADD100ROUNDEDRECTD100*%
G04:AMPARAMS|DCode=101|XSize=1.2532mm|YSize=1.8032mm|CornerRadius=0.3641mm|HoleSize=0mm|Usage=FLASHONLY|Rotation=180.000|XOffset=0mm|YOffset=0mm|HoleType=Round|Shape=RoundedRectangle|*
%AMROUNDEDRECTD101*
21,1,1.25320,1.07500,0,0,180.0*
21,1,0.52500,1.80320,0,0,180.0*
1,1,0.72820,-0.26250,0.53750*
1,1,0.72820,0.26250,0.53750*
1,1,0.72820,0.26250,-0.53750*
1,1,0.72820,-0.26250,-0.53750*
%
%ADD101ROUNDEDRECTD101*%
G04:AMPARAMS|DCode=102|XSize=1.2532mm|YSize=1.8032mm|CornerRadius=0.3641mm|HoleSize=0mm|Usage=FLASHONLY|Rotation=270.000|XOffset=0mm|YOffset=0mm|HoleType=Round|Shape=RoundedRectangle|*
%AMROUNDEDRECTD102*
21,1,1.25320,1.07500,0,0,270.0*
21,1,0.52500,1.80320,0,0,270.0*
1,1,0.72820,-0.53750,-0.26250*
1,1,0.72820,-0.53750,0.26250*
1,1,0.72820,0.53750,0.26250*
1,1,0.72820,0.53750,-0.26250*
%
%ADD102ROUNDEDRECTD102*%
G04:AMPARAMS|DCode=103|XSize=1.2032mm|YSize=2.3032mm|CornerRadius=0.3516mm|HoleSize=0mm|Usage=FLASHONLY|Rotation=180.000|XOffset=0mm|YOffset=0mm|HoleType=Round|Shape=RoundedRectangle|*
%AMROUNDEDRECTD103*
21,1,1.20320,1.60000,0,0,180.0*
21,1,0.50000,2.30320,0,0,180.0*
1,1,0.70320,-0.25000,0.80000*
1,1,0.70320,0.25000,0.80000*
1,1,0.70320,0.25000,-0.80000*
1,1,0.70320,-0.25000,-0.80000*
%
%ADD103ROUNDEDRECTD103*%
G04:AMPARAMS|DCode=104|XSize=5.6032mm|YSize=6.4032mm|CornerRadius=1.4516mm|HoleSize=0mm|Usage=FLASHONLY|Rotation=180.000|XOffset=0mm|YOffset=0mm|HoleType=Round|Shape=RoundedRectangle|*
%AMROUNDEDRECTD104*
21,1,5.60320,3.50000,0,0,180.0*
21,1,2.70000,6.40320,0,0,180.0*
1,1,2.90320,-1.35000,1.75000*
1,1,2.90320,1.35000,1.75000*
1,1,2.90320,1.35000,-1.75000*
1,1,2.90320,-1.35000,-1.75000*
%
%ADD104ROUNDEDRECTD104*%
%ADD105O,2.70320X5.20320*%
G04:AMPARAMS|DCode=106|XSize=2.7032mm|YSize=5.2032mm|CornerRadius=0.7266mm|HoleSize=0mm|Usage=FLASHONLY|Rotation=180.000|XOffset=0mm|YOffset=0mm|HoleType=Round|Shape=RoundedRectangle|*
%AMROUNDEDRECTD106*
21,1,2.70320,3.75000,0,0,180.0*
21,1,1.25000,5.20320,0,0,180.0*
1,1,1.45320,-0.62500,1.87500*
1,1,1.45320,0.62500,1.87500*
1,1,1.45320,0.62500,-1.87500*
1,1,1.45320,-0.62500,-1.87500*
%
%ADD106ROUNDEDRECTD106*%
G04:AMPARAMS|DCode=107|XSize=2.2032mm|YSize=2.2032mm|CornerRadius=0.6016mm|HoleSize=0mm|Usage=FLASHONLY|Rotation=90.000|XOffset=0mm|YOffset=0mm|HoleType=Round|Shape=RoundedRectangle|*
%AMROUNDEDRECTD107*
21,1,2.20320,1.00000,0,0,90.0*
21,1,1.00000,2.20320,0,0,90.0*
1,1,1.20320,0.50000,0.50000*
1,1,1.20320,0.50000,-0.50000*
1,1,1.20320,-0.50000,-0.50000*
1,1,1.20320,-0.50000,0.50000*
%
%ADD107ROUNDEDRECTD107*%
G04:AMPARAMS|DCode=108|XSize=2.2032mm|YSize=3.4032mm|CornerRadius=0.6016mm|HoleSize=0mm|Usage=FLASHONLY|Rotation=270.000|XOffset=0mm|YOffset=0mm|HoleType=Round|Shape=RoundedRectangle|*
%AMROUNDEDRECTD108*
21,1,2.20320,2.20000,0,0,270.0*
21,1,1.00000,3.40320,0,0,270.0*
1,1,1.20320,-1.10000,-0.50000*
1,1,1.20320,-1.10000,0.50000*
1,1,1.20320,1.10000,0.50000*
1,1,1.20320,1.10000,-0.50000*
%
%ADD108ROUNDEDRECTD108*%
G04:AMPARAMS|DCode=109|XSize=1.5032mm|YSize=1.9032mm|CornerRadius=0.4266mm|HoleSize=0mm|Usage=FLASHONLY|Rotation=270.000|XOffset=0mm|YOffset=0mm|HoleType=Round|Shape=RoundedRectangle|*
%AMROUNDEDRECTD109*
21,1,1.50320,1.05000,0,0,270.0*
21,1,0.65000,1.90320,0,0,270.0*
1,1,0.85320,-0.52500,-0.32500*
1,1,0.85320,-0.52500,0.32500*
1,1,0.85320,0.52500,0.32500*
1,1,0.85320,0.52500,-0.32500*
%
%ADD109ROUNDEDRECTD109*%
G04:AMPARAMS|DCode=110|XSize=1.14mm|YSize=1.14mm|CornerRadius=0.32mm|HoleSize=0mm|Usage=FLASHONLY|Rotation=180.000|XOffset=0mm|YOffset=0mm|HoleType=Round|Shape=RoundedRectangle|*
%AMROUNDEDRECTD110*
21,1,1.14000,0.50000,0,0,180.0*
21,1,0.50000,1.14000,0,0,180.0*
1,1,0.64000,-0.25000,0.25000*
1,1,0.64000,0.25000,0.25000*
1,1,0.64000,0.25000,-0.25000*
1,1,0.64000,-0.25000,-0.25000*
%
%ADD110ROUNDEDRECTD110*%
G04:AMPARAMS|DCode=111|XSize=1.8032mm|YSize=1.2032mm|CornerRadius=0.3516mm|HoleSize=0mm|Usage=FLASHONLY|Rotation=180.000|XOffset=0mm|YOffset=0mm|HoleType=Round|Shape=RoundedRectangle|*
%AMROUNDEDRECTD111*
21,1,1.80320,0.50000,0,0,180.0*
21,1,1.10000,1.20320,0,0,180.0*
1,1,0.70320,-0.55000,0.25000*
1,1,0.70320,0.55000,0.25000*
1,1,0.70320,0.55000,-0.25000*
1,1,0.70320,-0.55000,-0.25000*
%
%ADD111ROUNDEDRECTD111*%
G04:AMPARAMS|DCode=112|XSize=1.8032mm|YSize=0.8532mm|CornerRadius=0.18285mm|HoleSize=0mm|Usage=FLASHONLY|Rotation=0.000|XOffset=0mm|YOffset=0mm|HoleType=Round|Shape=RoundedRectangle|*
%AMROUNDEDRECTD112*
21,1,1.80320,0.48750,0,0,0.0*
21,1,1.43750,0.85320,0,0,0.0*
1,1,0.36570,0.71875,-0.24375*
1,1,0.36570,-0.71875,-0.24375*
1,1,0.36570,-0.71875,0.24375*
1,1,0.36570,0.71875,0.24375*
%
%ADD112ROUNDEDRECTD112*%
G04:AMPARAMS|DCode=113|XSize=1.5032mm|YSize=1.9032mm|CornerRadius=0.4266mm|HoleSize=0mm|Usage=FLASHONLY|Rotation=0.000|XOffset=0mm|YOffset=0mm|HoleType=Round|Shape=RoundedRectangle|*
%AMROUNDEDRECTD113*
21,1,1.50320,1.05000,0,0,0.0*
21,1,0.65000,1.90320,0,0,0.0*
1,1,0.85320,0.32500,-0.52500*
1,1,0.85320,-0.32500,-0.52500*
1,1,0.85320,-0.32500,0.52500*
1,1,0.85320,0.32500,0.52500*
%
%ADD113ROUNDEDRECTD113*%
G04:AMPARAMS|DCode=114|XSize=1.14mm|YSize=1.14mm|CornerRadius=0.32mm|HoleSize=0mm|Usage=FLASHONLY|Rotation=90.000|XOffset=0mm|YOffset=0mm|HoleType=Round|Shape=RoundedRectangle|*
%AMROUNDEDRECTD114*
21,1,1.14000,0.50000,0,0,90.0*
21,1,0.50000,1.14000,0,0,90.0*
1,1,0.64000,0.25000,0.25000*
1,1,0.64000,0.25000,-0.25000*
1,1,0.64000,-0.25000,-0.25000*
1,1,0.64000,-0.25000,0.25000*
%
%ADD114ROUNDEDRECTD114*%
%ADD115O,4.70320X1.70320*%
G04:AMPARAMS|DCode=116|XSize=1.6032mm|YSize=0.5532mm|CornerRadius=0.14535mm|HoleSize=0mm|Usage=FLASHONLY|Rotation=90.000|XOffset=0mm|YOffset=0mm|HoleType=Round|Shape=RoundedRectangle|*
%AMROUNDEDRECTD116*
21,1,1.60320,0.26250,0,0,90.0*
21,1,1.31250,0.55320,0,0,90.0*
1,1,0.29070,0.13125,0.65625*
1,1,0.29070,0.13125,-0.65625*
1,1,0.29070,-0.13125,-0.65625*
1,1,0.29070,-0.13125,0.65625*
%
%ADD116ROUNDEDRECTD116*%
G04:AMPARAMS|DCode=117|XSize=2.4032mm|YSize=0.8532mm|CornerRadius=0.18285mm|HoleSize=0mm|Usage=FLASHONLY|Rotation=90.000|XOffset=0mm|YOffset=0mm|HoleType=Round|Shape=RoundedRectangle|*
%AMROUNDEDRECTD117*
21,1,2.40320,0.48750,0,0,90.0*
21,1,2.03750,0.85320,0,0,90.0*
1,1,0.36570,0.24375,1.01875*
1,1,0.36570,0.24375,-1.01875*
1,1,0.36570,-0.24375,-1.01875*
1,1,0.36570,-0.24375,1.01875*
%
%ADD117ROUNDEDRECTD117*%
G04:AMPARAMS|DCode=118|XSize=2.2032mm|YSize=2.4032mm|CornerRadius=0.6016mm|HoleSize=0mm|Usage=FLASHONLY|Rotation=180.000|XOffset=0mm|YOffset=0mm|HoleType=Round|Shape=RoundedRectangle|*
%AMROUNDEDRECTD118*
21,1,2.20320,1.20000,0,0,180.0*
21,1,1.00000,2.40320,0,0,180.0*
1,1,1.20320,-0.50000,0.60000*
1,1,1.20320,0.50000,0.60000*
1,1,1.20320,0.50000,-0.60000*
1,1,1.20320,-0.50000,-0.60000*
%
%ADD118ROUNDEDRECTD118*%
G04:AMPARAMS|DCode=119|XSize=0.7032mm|YSize=2.0032mm|CornerRadius=0.2266mm|HoleSize=0mm|Usage=FLASHONLY|Rotation=0.000|XOffset=0mm|YOffset=0mm|HoleType=Round|Shape=RoundedRectangle|*
%AMROUNDEDRECTD119*
21,1,0.70320,1.55000,0,0,0.0*
21,1,0.25000,2.00320,0,0,0.0*
1,1,0.45320,0.12500,-0.77500*
1,1,0.45320,-0.12500,-0.77500*
1,1,0.45320,-0.12500,0.77500*
1,1,0.45320,0.12500,0.77500*
%
%ADD119ROUNDEDRECTD119*%
G04:AMPARAMS|DCode=120|XSize=0.5032mm|YSize=1.7032mm|CornerRadius=0.1766mm|HoleSize=0mm|Usage=FLASHONLY|Rotation=0.000|XOffset=0mm|YOffset=0mm|HoleType=Round|Shape=RoundedRectangle|*
%AMROUNDEDRECTD120*
21,1,0.50320,1.35000,0,0,0.0*
21,1,0.15000,1.70320,0,0,0.0*
1,1,0.35320,0.07500,-0.67500*
1,1,0.35320,-0.07500,-0.67500*
1,1,0.35320,-0.07500,0.67500*
1,1,0.35320,0.07500,0.67500*
%
%ADD120ROUNDEDRECTD120*%
G04:AMPARAMS|DCode=121|XSize=1.7032mm|YSize=1.7032mm|CornerRadius=0.4766mm|HoleSize=0mm|Usage=FLASHONLY|Rotation=180.000|XOffset=0mm|YOffset=0mm|HoleType=Round|Shape=RoundedRectangle|*
%AMROUNDEDRECTD121*
21,1,1.70320,0.75000,0,0,180.0*
21,1,0.75000,1.70320,0,0,180.0*
1,1,0.95320,-0.37500,0.37500*
1,1,0.95320,0.37500,0.37500*
1,1,0.95320,0.37500,-0.37500*
1,1,0.95320,-0.37500,-0.37500*
%
%ADD121ROUNDEDRECTD121*%
%TA.AperFunction,ComponentPad*%
%ADD122C,2.00320*%
G04:AMPARAMS|DCode=123|XSize=2.0032mm|YSize=2.0032mm|CornerRadius=0.5516mm|HoleSize=0mm|Usage=FLASHONLY|Rotation=90.000|XOffset=0mm|YOffset=0mm|HoleType=Round|Shape=RoundedRectangle|*
%AMROUNDEDRECTD123*
21,1,2.00320,0.90000,0,0,90.0*
21,1,0.90000,2.00320,0,0,90.0*
1,1,1.10320,0.45000,0.45000*
1,1,1.10320,0.45000,-0.45000*
1,1,1.10320,-0.45000,-0.45000*
1,1,1.10320,-0.45000,0.45000*
%
%ADD123ROUNDEDRECTD123*%
G04:AMPARAMS|DCode=124|XSize=2.0032mm|YSize=2.0032mm|CornerRadius=0.5516mm|HoleSize=0mm|Usage=FLASHONLY|Rotation=0.000|XOffset=0mm|YOffset=0mm|HoleType=Round|Shape=RoundedRectangle|*
%AMROUNDEDRECTD124*
21,1,2.00320,0.90000,0,0,0.0*
21,1,0.90000,2.00320,0,0,0.0*
1,1,1.10320,0.45000,-0.45000*
1,1,1.10320,-0.45000,-0.45000*
1,1,1.10320,-0.45000,0.45000*
1,1,1.10320,0.45000,0.45000*
%
%ADD124ROUNDEDRECTD124*%
%ADD125C,7.20320*%
%ADD126O,2.80320X3.50320*%
G04:AMPARAMS|DCode=127|XSize=2.8032mm|YSize=3.5032mm|CornerRadius=0.4266mm|HoleSize=0mm|Usage=FLASHONLY|Rotation=0.000|XOffset=0mm|YOffset=0mm|HoleType=Round|Shape=RoundedRectangle|*
%AMROUNDEDRECTD127*
21,1,2.80320,2.65000,0,0,0.0*
21,1,1.95000,3.50320,0,0,0.0*
1,1,0.85320,0.97500,-1.32500*
1,1,0.85320,-0.97500,-1.32500*
1,1,0.85320,-0.97500,1.32500*
1,1,0.85320,0.97500,1.32500*
%
%ADD127ROUNDEDRECTD127*%
%ADD128O,2.70320X2.20320*%
G04:AMPARAMS|DCode=129|XSize=1.9032mm|YSize=2.2032mm|CornerRadius=0.3141mm|HoleSize=0mm|Usage=FLASHONLY|Rotation=270.000|XOffset=0mm|YOffset=0mm|HoleType=Round|Shape=RoundedRectangle|*
%AMROUNDEDRECTD129*
21,1,1.90320,1.57500,0,0,270.0*
21,1,1.27500,2.20320,0,0,270.0*
1,1,0.62820,-0.78750,-0.63750*
1,1,0.62820,-0.78750,0.63750*
1,1,0.62820,0.78750,0.63750*
1,1,0.62820,0.78750,-0.63750*
%
%ADD129ROUNDEDRECTD129*%
%ADD130O,2.20320X1.90320*%
%ADD131C,1.80320*%
%ADD132C,2.20320*%
%ADD133C,3.20320*%
G04:AMPARAMS|DCode=134|XSize=2.0032mm|YSize=2.7032mm|CornerRadius=0.5516mm|HoleSize=0mm|Usage=FLASHONLY|Rotation=180.000|XOffset=0mm|YOffset=0mm|HoleType=Round|Shape=RoundedRectangle|*
%AMROUNDEDRECTD134*
21,1,2.00320,1.60000,0,0,180.0*
21,1,0.90000,2.70320,0,0,180.0*
1,1,1.10320,-0.45000,0.80000*
1,1,1.10320,0.45000,0.80000*
1,1,1.10320,0.45000,-0.80000*
1,1,1.10320,-0.45000,-0.80000*
%
%ADD134ROUNDEDRECTD134*%
%ADD135O,2.00320X2.70320*%
%ADD136O,2.70320X2.00320*%
G04:AMPARAMS|DCode=137|XSize=2.0032mm|YSize=2.7032mm|CornerRadius=0.5516mm|HoleSize=0mm|Usage=FLASHONLY|Rotation=90.000|XOffset=0mm|YOffset=0mm|HoleType=Round|Shape=RoundedRectangle|*
%AMROUNDEDRECTD137*
21,1,2.00320,1.60000,0,0,90.0*
21,1,0.90000,2.70320,0,0,90.0*
1,1,1.10320,0.80000,0.45000*
1,1,1.10320,0.80000,-0.45000*
1,1,1.10320,-0.80000,-0.45000*
1,1,1.10320,-0.80000,0.45000*
%
%ADD137ROUNDEDRECTD137*%
%TA.AperFunction,ViaPad*%
%ADD138C,1.20320*%
D100*
X7065000Y2190000D02*
D03*
X7192500D02*
D03*
X7320000D02*
D03*
X7447500D02*
D03*
X7575000D02*
D03*
X7702500D02*
D03*
X7830000D02*
D03*
X7957499D02*
D03*
X8084999D02*
D03*
X8212499D02*
D03*
X8339999D02*
D03*
X8467499D02*
D03*
X8594999D02*
D03*
X8722499D02*
D03*
Y1160000D02*
D03*
X8594999D02*
D03*
X8467499D02*
D03*
X8339999D02*
D03*
X8212499D02*
D03*
X7957499D02*
D03*
X7830000D02*
D03*
X7702500D02*
D03*
X7575000D02*
D03*
X7447500D02*
D03*
X7192500D02*
D03*
X7065000D02*
D03*
D101*
X5147500Y5012500D02*
D03*
X5342500D02*
D03*
X3150000Y4782500D02*
D03*
X2955000D02*
D03*
X3150000Y4282500D02*
D03*
X2955000D02*
D03*
X3150000Y3782500D02*
D03*
X2955000D02*
D03*
X3150000Y3132500D02*
D03*
X2955000D02*
D03*
X4970000Y3682500D02*
D03*
X5165000D02*
D03*
X4970000Y3140000D02*
D03*
X5165000D02*
D03*
X4970000Y2897500D02*
D03*
X5165000D02*
D03*
X4970000Y4182500D02*
D03*
X5165000D02*
D03*
X9797500Y1097542D02*
D03*
X9602500D02*
D03*
X9205000D02*
D03*
X9400000D02*
D03*
X9797500Y1797542D02*
D03*
X9602500D02*
D03*
X9205000D02*
D03*
X9400000D02*
D03*
X9780000Y4750000D02*
D03*
X9585000D02*
D03*
X965000Y4919850D02*
D03*
X1160000D02*
D03*
X1515000Y5930000D02*
D03*
X1710000D02*
D03*
X1515000Y5680000D02*
D03*
X1710000D02*
D03*
Y5430000D02*
D03*
X1515000D02*
D03*
X1710000Y5180000D02*
D03*
X1515000D02*
D03*
X1710000Y4660000D02*
D03*
X1515000D02*
D03*
X960000D02*
D03*
X1155000D02*
D03*
X1710000Y3830000D02*
D03*
X1515000D02*
D03*
X1710000Y3580000D02*
D03*
X1515000D02*
D03*
Y4080000D02*
D03*
X1710000D02*
D03*
X1515000Y4330000D02*
D03*
X1710000D02*
D03*
Y3060000D02*
D03*
X1515000D02*
D03*
X965000Y3319850D02*
D03*
X1160000D02*
D03*
X960000Y3060000D02*
D03*
X1155000D02*
D03*
X965000Y1719849D02*
D03*
X1160000D02*
D03*
X1710000Y2230000D02*
D03*
X1515000D02*
D03*
X1710000Y1980000D02*
D03*
X1515000D02*
D03*
X1710000Y1460000D02*
D03*
X1515000D02*
D03*
X960000D02*
D03*
X1155000D02*
D03*
X4235000Y1952500D02*
D03*
X4040000D02*
D03*
X2230000Y1952500D02*
D03*
X2425000D02*
D03*
X2807500D02*
D03*
X2612500D02*
D03*
X2995000Y1952500D02*
D03*
X3190000D02*
D03*
X7317500Y857500D02*
D03*
X7122500D02*
D03*
X7317500Y615000D02*
D03*
X7122500D02*
D03*
X7712500Y857500D02*
D03*
X7517500D02*
D03*
X7712451Y615000D02*
D03*
X7517451D02*
D03*
X7317500Y372500D02*
D03*
X7122500D02*
D03*
Y130000D02*
D03*
X7317500D02*
D03*
X1710000Y2730000D02*
D03*
X1515000D02*
D03*
X1710000Y2480000D02*
D03*
X1515000D02*
D03*
D102*
X4935000Y4817500D02*
D03*
Y5012500D02*
D03*
X4285000Y4817500D02*
D03*
Y5012500D02*
D03*
X3735000Y4817500D02*
D03*
Y5012500D02*
D03*
X3382500Y2997500D02*
D03*
Y2802500D02*
D03*
X3625000Y2997500D02*
D03*
Y2802500D02*
D03*
X4132500Y2997500D02*
D03*
Y2802500D02*
D03*
X4685000D02*
D03*
Y2997500D02*
D03*
X8960000Y952500D02*
D03*
Y1147500D02*
D03*
X7957500Y2687500D02*
D03*
Y2492500D02*
D03*
X8200000Y2492476D02*
D03*
Y2687475D02*
D03*
X8442500Y2687500D02*
D03*
Y2492500D02*
D03*
X8970000Y5545000D02*
D03*
Y5350000D02*
D03*
X8030000Y6485000D02*
D03*
Y6290000D02*
D03*
X8280000Y6485000D02*
D03*
Y6290000D02*
D03*
X8530000D02*
D03*
Y6485000D02*
D03*
X8780000Y6290000D02*
D03*
Y6485000D02*
D03*
X7769850Y6840000D02*
D03*
Y7035000D02*
D03*
X9010000Y5875000D02*
D03*
Y6070000D02*
D03*
X8760000Y5875000D02*
D03*
Y6070000D02*
D03*
X8030000Y5869954D02*
D03*
Y6064954D02*
D03*
X7779498Y5869978D02*
D03*
Y6064978D02*
D03*
X7510301Y5869978D02*
D03*
Y6064978D02*
D03*
X7510000Y6845000D02*
D03*
Y7040000D02*
D03*
Y6485000D02*
D03*
Y6290000D02*
D03*
X7180000Y6485000D02*
D03*
Y6290000D02*
D03*
X6930000Y6485000D02*
D03*
Y6290000D02*
D03*
X6680000D02*
D03*
Y6485000D02*
D03*
X6430000Y6290000D02*
D03*
Y6485000D02*
D03*
X5580000D02*
D03*
Y6290000D02*
D03*
X5330000Y6485000D02*
D03*
Y6290000D02*
D03*
X5080000D02*
D03*
Y6485000D02*
D03*
X4830000Y6290000D02*
D03*
Y6485000D02*
D03*
X5910000Y6290000D02*
D03*
Y6485000D02*
D03*
X6429699Y5869978D02*
D03*
Y6064978D02*
D03*
X6169850Y5869978D02*
D03*
Y6064978D02*
D03*
X5920000Y5872500D02*
D03*
Y6067500D02*
D03*
X6169850Y7035000D02*
D03*
Y6840000D02*
D03*
X5910000Y7040000D02*
D03*
Y6845000D02*
D03*
X4569850Y7035000D02*
D03*
Y6840000D02*
D03*
X4310000Y7040000D02*
D03*
Y6845000D02*
D03*
Y6290000D02*
D03*
Y6485000D02*
D03*
X3230000Y6290000D02*
D03*
Y6485000D02*
D03*
X3480000Y6290000D02*
D03*
Y6485000D02*
D03*
X3730000D02*
D03*
Y6290000D02*
D03*
X3980000Y6485000D02*
D03*
Y6290000D02*
D03*
X2969850Y7035000D02*
D03*
Y6840000D02*
D03*
X2710000Y7040000D02*
D03*
Y6845000D02*
D03*
Y6290000D02*
D03*
Y6485000D02*
D03*
X1880000Y6290000D02*
D03*
Y6485000D02*
D03*
X2130000D02*
D03*
Y6290000D02*
D03*
X2380000Y6485000D02*
D03*
Y6290000D02*
D03*
X1369850Y7035000D02*
D03*
Y6840000D02*
D03*
X1630000Y6290000D02*
D03*
Y6485000D02*
D03*
X1110000Y6290000D02*
D03*
Y6485000D02*
D03*
Y7040000D02*
D03*
Y6845000D02*
D03*
X3509498Y6067524D02*
D03*
Y5872524D02*
D03*
X3260000Y6067549D02*
D03*
Y5872549D02*
D03*
X3009700Y6067549D02*
D03*
Y5872549D02*
D03*
X2759699D02*
D03*
Y6067549D02*
D03*
X2015000Y4090000D02*
D03*
Y4285000D02*
D03*
X1207500Y1147500D02*
D03*
Y952500D02*
D03*
X1450000Y1147500D02*
D03*
Y952500D02*
D03*
X1692500D02*
D03*
Y1147500D02*
D03*
X1935000Y1147524D02*
D03*
Y952524D02*
D03*
X2177500Y1147524D02*
D03*
Y952524D02*
D03*
X2420000Y1147500D02*
D03*
Y952500D02*
D03*
X3012500Y1147524D02*
D03*
Y952524D02*
D03*
X3255000Y1147524D02*
D03*
Y952524D02*
D03*
X3740000Y1147524D02*
D03*
Y952524D02*
D03*
X3497500Y1147500D02*
D03*
Y952500D02*
D03*
X3982500Y1147500D02*
D03*
Y952500D02*
D03*
X4225000Y1147500D02*
D03*
Y952500D02*
D03*
X4472500Y952500D02*
D03*
Y1147500D02*
D03*
X4472650Y1555000D02*
D03*
Y1360000D02*
D03*
X4730150Y1555000D02*
D03*
Y1360000D02*
D03*
X4730000Y1147500D02*
D03*
Y952500D02*
D03*
X4729850Y1997524D02*
D03*
Y1802524D02*
D03*
X5580150Y1997476D02*
D03*
Y1802476D02*
D03*
X5827951Y1997476D02*
D03*
Y1802476D02*
D03*
X6617500Y1360000D02*
D03*
Y1555000D02*
D03*
X6865000Y1360000D02*
D03*
Y1555000D02*
D03*
X6617500Y1802451D02*
D03*
Y1997451D02*
D03*
X6865150Y1802476D02*
D03*
Y1997476D02*
D03*
X6867500Y2412500D02*
D03*
Y2217500D02*
D03*
X6617500Y2217476D02*
D03*
Y2412475D02*
D03*
X6120000Y2830000D02*
D03*
Y2635000D02*
D03*
X5822500Y2412500D02*
D03*
Y2217500D02*
D03*
X5580000Y2412549D02*
D03*
Y2217549D02*
D03*
X5827651Y1555049D02*
D03*
Y1360049D02*
D03*
X5580000Y1360000D02*
D03*
Y1555000D02*
D03*
X5985000Y655000D02*
D03*
Y850000D02*
D03*
X6864850Y952500D02*
D03*
Y1147500D02*
D03*
D103*
X7208500Y5867500D02*
D03*
X6751500Y5867500D02*
D03*
D104*
X6980000Y5192500D02*
D03*
D105*
X7052500Y2801250D02*
D03*
D106*
Y4448750D02*
D03*
D107*
X9080000Y1447542D02*
D03*
X9800000D02*
D03*
X9080000Y2147542D02*
D03*
X9800000D02*
D03*
X2767500Y1552500D02*
D03*
X2047500D02*
D03*
D108*
X8450000Y3890000D02*
D03*
Y3200000D02*
D03*
D109*
X7770000Y6630000D02*
D03*
Y6290000D02*
D03*
X8030000Y7030000D02*
D03*
Y6690000D02*
D03*
X6432500Y6690000D02*
D03*
Y7030000D02*
D03*
X6170000Y6290000D02*
D03*
Y6630000D02*
D03*
X4832500Y6690000D02*
D03*
Y7030000D02*
D03*
X4570000Y6290000D02*
D03*
Y6630000D02*
D03*
X2970000Y6290000D02*
D03*
Y6630000D02*
D03*
X3230000Y6690000D02*
D03*
Y7030000D02*
D03*
X1630000Y6690000D02*
D03*
Y7030000D02*
D03*
X1370000Y6290000D02*
D03*
Y6630000D02*
D03*
D110*
X8460000Y6680000D02*
D03*
X8360000Y6880000D02*
D03*
X8260000Y6680000D02*
D03*
X8830000D02*
D03*
X8730000Y6880000D02*
D03*
X8630000Y6680000D02*
D03*
X7030000D02*
D03*
X7130000Y6880000D02*
D03*
X7230000Y6680000D02*
D03*
X6660000D02*
D03*
X6760000Y6880000D02*
D03*
X6860000Y6680000D02*
D03*
X5430000D02*
D03*
X5530000Y6880000D02*
D03*
X5630000Y6680000D02*
D03*
X5060000D02*
D03*
X5160000Y6880000D02*
D03*
X5260000Y6680000D02*
D03*
X3830000D02*
D03*
X3930000Y6880000D02*
D03*
X4030000Y6680000D02*
D03*
X3460000D02*
D03*
X3560000Y6880000D02*
D03*
X3660000Y6680000D02*
D03*
X2230000D02*
D03*
X2330000Y6880000D02*
D03*
X2430000Y6680000D02*
D03*
X1860000D02*
D03*
X1960000Y6880000D02*
D03*
X2060000Y6680000D02*
D03*
D111*
X8279850Y6070000D02*
D03*
Y5790000D02*
D03*
X5580151Y6070006D02*
D03*
Y5790006D02*
D03*
X5330000Y2212502D02*
D03*
Y2492502D02*
D03*
X5985000Y182500D02*
D03*
Y462500D02*
D03*
D112*
X2490000Y6070000D02*
D03*
Y5943000D02*
D03*
Y5816000D02*
D03*
Y5689000D02*
D03*
X1950000D02*
D03*
Y5816000D02*
D03*
Y5943000D02*
D03*
Y6070000D02*
D03*
D113*
X1310000Y5180000D02*
D03*
X970000D02*
D03*
X1710000Y4920000D02*
D03*
X1370000D02*
D03*
X1710000Y3317500D02*
D03*
X1370000D02*
D03*
X1310000Y3580000D02*
D03*
X970000D02*
D03*
X1310000Y1982500D02*
D03*
X970000D02*
D03*
X1710000Y1720000D02*
D03*
X1370000D02*
D03*
X6390000Y2362500D02*
D03*
X6050000D02*
D03*
D114*
X1320000Y5780000D02*
D03*
X1120000Y5880000D02*
D03*
X1320000Y5980000D02*
D03*
Y5410000D02*
D03*
X1120000Y5510000D02*
D03*
X1320000Y5610000D02*
D03*
Y4180000D02*
D03*
X1120000Y4280000D02*
D03*
X1320000Y4380000D02*
D03*
Y3809999D02*
D03*
X1120000Y3910000D02*
D03*
X1320000Y4010000D02*
D03*
Y2209999D02*
D03*
X1120000Y2310000D02*
D03*
X1320000Y2409999D02*
D03*
Y2579999D02*
D03*
X1120000Y2680000D02*
D03*
X1320000Y2780000D02*
D03*
D115*
X4040000Y1552500D02*
D03*
X3190000D02*
D03*
D116*
X5217500Y1997500D02*
D03*
X5152500D02*
D03*
X4957500D02*
D03*
X5022500D02*
D03*
X5412500D02*
D03*
X5347500D02*
D03*
X5282500D02*
D03*
X5087500D02*
D03*
X5412500Y1350000D02*
D03*
X5347500D02*
D03*
X5282500D02*
D03*
X5217500D02*
D03*
X5152500D02*
D03*
X5087500D02*
D03*
X5022500D02*
D03*
X4957500D02*
D03*
D117*
X6032150Y1299755D02*
D03*
X6159150D02*
D03*
X6286150D02*
D03*
X6413150D02*
D03*
Y2045245D02*
D03*
X6286150D02*
D03*
X6159150D02*
D03*
X6032150D02*
D03*
D118*
X5490000Y465000D02*
D03*
X4510000D02*
D03*
D119*
X4950000Y702900D02*
D03*
X4850000D02*
D03*
X5050000D02*
D03*
X5150000D02*
D03*
D120*
X3300000Y520000D02*
D03*
X3250000D02*
D03*
X3200000D02*
D03*
X3150000D02*
D03*
X3100000D02*
D03*
X3050000D02*
D03*
X3000000D02*
D03*
X2950000D02*
D03*
X2900000D02*
D03*
X2850000D02*
D03*
X2800000D02*
D03*
X2750000D02*
D03*
X2700000D02*
D03*
X2650000D02*
D03*
X2600000D02*
D03*
X2550000D02*
D03*
X2500000D02*
D03*
X2450000D02*
D03*
X2400000D02*
D03*
X2350000D02*
D03*
X2300000D02*
D03*
X2250000D02*
D03*
X2200000D02*
D03*
X2150000D02*
D03*
X2100000D02*
D03*
X2050000D02*
D03*
X2000000D02*
D03*
X1950000D02*
D03*
X1900000D02*
D03*
X1850000D02*
D03*
X1800000D02*
D03*
X1750000D02*
D03*
X1700000D02*
D03*
X1650000D02*
D03*
X1600000D02*
D03*
X1550000D02*
D03*
X1500000D02*
D03*
X1450000D02*
D03*
X1400000D02*
D03*
X1350000D02*
D03*
X3350000D02*
D03*
X3400000D02*
D03*
X3450000D02*
D03*
X3500000D02*
D03*
X3550000D02*
D03*
X3600000D02*
D03*
X3650000D02*
D03*
X3700000D02*
D03*
X3750000D02*
D03*
X3800000D02*
D03*
D121*
X4057500Y227500D02*
D03*
X1092499D02*
D03*
D122*
X6120000Y3594000D02*
D03*
Y3340000D02*
D03*
X4782000Y5990000D02*
D03*
X5036000D02*
D03*
X5290000D02*
D03*
X8092500Y4845000D02*
D03*
X2015000Y3839000D02*
D03*
Y3585000D02*
D03*
D123*
X6120000Y3086000D02*
D03*
X2015000Y3331000D02*
D03*
D124*
X4528000Y5990000D02*
D03*
D125*
X9500000Y500000D02*
D03*
X480000Y470000D02*
D03*
X9500000Y7500000D02*
D03*
X480000Y7470000D02*
D03*
D126*
X9150000Y4040000D02*
D03*
D127*
X9650000D02*
D03*
D128*
X8682500Y5104000D02*
D03*
Y4850000D02*
D03*
Y4596000D02*
D03*
D129*
X9137500Y4803000D02*
D03*
D130*
Y5057000D02*
D03*
D131*
X6460000Y540000D02*
D03*
Y350000D02*
D03*
D132*
X480000Y6870000D02*
D03*
Y6370000D02*
D03*
D133*
X9290000Y2692000D02*
D03*
Y3200000D02*
D03*
D134*
X8567500Y500000D02*
D03*
X7650000Y7500000D02*
D03*
X6050000D02*
D03*
X4450000D02*
D03*
X2850000D02*
D03*
X1250000D02*
D03*
D135*
X8317500Y500000D02*
D03*
X7900000Y7500000D02*
D03*
X8150000D02*
D03*
X8400000D02*
D03*
X8650000D02*
D03*
X7050000D02*
D03*
X6800000D02*
D03*
X6550000D02*
D03*
X6300000D02*
D03*
X5450000D02*
D03*
X5200000D02*
D03*
X4950000D02*
D03*
X4700000D02*
D03*
X3850000D02*
D03*
X3600000D02*
D03*
X3350000D02*
D03*
X3100000D02*
D03*
X2250000D02*
D03*
X2000000D02*
D03*
X1750000D02*
D03*
X1500000D02*
D03*
D136*
X500000Y3450000D02*
D03*
Y3700000D02*
D03*
Y3950000D02*
D03*
Y4200000D02*
D03*
Y5800000D02*
D03*
Y5550000D02*
D03*
Y5300000D02*
D03*
Y5050000D02*
D03*
Y2600000D02*
D03*
Y2350000D02*
D03*
Y2100000D02*
D03*
Y1850000D02*
D03*
X9500000Y6490000D02*
D03*
Y6240000D02*
D03*
Y5990000D02*
D03*
Y5740000D02*
D03*
Y5490000D02*
D03*
D137*
X500000Y3200000D02*
D03*
Y4800000D02*
D03*
Y1600000D02*
D03*
X9500000Y6740000D02*
D03*
D138*
X7107500Y5400000D02*
D03*
X6852500D02*
D03*
X6980000D02*
D03*
X4622500Y4472500D02*
D03*
Y4097500D02*
D03*
Y3722500D02*
D03*
Y3347500D02*
D03*
X4247500Y4472500D02*
D03*
Y4097500D02*
D03*
Y3722500D02*
D03*
Y3347500D02*
D03*
X3872500Y4472500D02*
D03*
Y4097500D02*
D03*
Y3722500D02*
D03*
Y3347500D02*
D03*
X3497500D02*
D03*
Y3722500D02*
D03*
Y4097500D02*
D03*
Y4472500D02*
D03*
X6797500Y3262500D02*
D03*
X7577500Y3805000D02*
D03*
X7585000Y3685000D02*
D03*
X6660000Y5565000D02*
D03*
X9500000Y3500000D02*
D03*
Y2500000D02*
D03*
X9000000Y6500000D02*
D03*
Y3500000D02*
D03*
X8250000Y5000000D02*
D03*
X7750000D02*
D03*
X4000000Y500000D02*
D03*
X2500000Y7500000D02*
D03*
X1000000Y4500000D02*
D03*
X500000D02*
D03*
X750000Y3000000D02*
D03*
Y1000000D02*
D03*
X5207500Y1580000D02*
D03*
X1485000Y670000D02*
D03*
X7372500Y3600000D02*
D03*
X8340000Y4075000D02*
D03*
X8370000Y3472500D02*
D03*
X8130000Y530000D02*
D03*
X7800000Y2580000D02*
D03*
X3540000Y800000D02*
D03*
X1250000Y380000D02*
D03*
X6190000Y1560000D02*
D03*
X6790000Y2840000D02*
D03*
X6730000Y3730000D02*
D03*
X5080000Y1580000D02*
D03*
X9800000Y920000D02*
D03*
X4460000Y2000000D02*
D03*
X4830000Y2550000D02*
D03*
X8770000Y950000D02*
D03*
X9060000Y2350000D02*
D03*
X8240000Y1680000D02*
D03*
X5050000Y2560000D02*
D03*
X6100000Y5250000D02*
D03*
X5880000D02*
D03*
X4950000Y5600000D02*
D03*
X4750000Y5580000D02*
D03*
X4310000Y5980000D02*
D03*
X3860000Y5920000D02*
D03*
X7410000Y4940000D02*
D03*
X4150000Y5830000D02*
D03*
X4190000Y5950000D02*
D03*
X6558972Y3269475D02*
D03*
X4020000Y5800000D02*
D03*
X6430000Y2650000D02*
D03*
X2860000Y2670000D02*
D03*
X7910000Y5450000D02*
D03*
X7750000D02*
D03*
X7700000Y2470000D02*
D03*
X7680000Y2800000D02*
D03*
X7470000Y2500000D02*
D03*
X3550000Y1680000D02*
D03*
X6670000Y2830000D02*
D03*
X5050000Y5230000D02*
D03*
X7550000Y3390000D02*
D03*
X5380000Y2800000D02*
D03*
X7300000Y3200000D02*
D03*
X6500000Y5060000D02*
D03*
X2370000Y150000D02*
D03*
X2130000D02*
D03*
X2580000Y300000D02*
D03*
X7860000Y1670000D02*
D03*
X990000Y950000D02*
D03*
X5020000Y2250000D02*
D03*
X3800000Y5800000D02*
D03*
X2600000Y2700000D02*
D03*
X2700000Y2850000D02*
D03*
X2720000Y950000D02*
D03*
X2730000Y1300000D02*
D03*
X2600000D02*
D03*
X2250000Y5450000D02*
D03*
X2150000Y4550000D02*
D03*
X2490000Y3800000D02*
D03*
X2480000Y810000D02*
D03*
X3250000D02*
D03*
X3030000Y810000D02*
D03*
X2910000D02*
D03*
X2200000Y780000D02*
D03*
X1900000Y250000D02*
D03*
X1650000D02*
D03*
X5700000Y2800000D02*
D03*
X5500000D02*
D03*
X5920000Y3200000D02*
D03*
X5780000D02*
D03*
X2800000Y1790000D02*
D03*
X2450000Y2800000D02*
D03*
X3050000Y2430000D02*
D03*
Y2300000D02*
D03*
X2230000Y2560000D02*
D03*
X1900000Y2390000D02*
D03*
X4120000Y2470000D02*
D03*
X8900000Y700000D02*
D03*
X7350000Y1550000D02*
D03*
X5800000Y3500000D02*
D03*
X7550000Y1400000D02*
D03*
X5100000Y5650000D02*
D03*
X3650000Y6150000D02*
D03*
X3410000Y6190000D02*
D03*
X2700000Y5500000D02*
D03*
X1850000Y5430000D02*
D03*
X7400000Y4250000D02*
D03*
X7500000Y4150000D02*
D03*
X7400000Y4040000D02*
D03*
X7500000Y3500000D02*
D03*
X7400000Y2400000D02*
D03*
Y2600000D02*
D03*
X7500000Y2700000D02*
D03*
X7400000Y2800000D02*
D03*
X7500000Y2900000D02*
D03*
X7400000Y3000000D02*
D03*
X7500000Y3100000D02*
D03*
X7800000Y2400000D02*
D03*
X7680000Y2660000D02*
D03*
X8450000Y2900000D02*
D03*
X7800000Y2800000D02*
D03*
X7900000Y2900000D02*
D03*
X7800000Y3000000D02*
D03*
X7900000Y3100000D02*
D03*
X7800000Y3200000D02*
D03*
Y3800000D02*
D03*
X7900000Y3700000D02*
D03*
X7800000Y3600000D02*
D03*
X7900000Y3500000D02*
D03*
X7800000Y3390000D02*
D03*
X7900000Y4150000D02*
D03*
X7800000Y4250000D02*
D03*
X7900000Y4350000D02*
D03*
X2980000Y330000D02*
D03*
X2800000Y200000D02*
D03*
X2300000Y300000D02*
D03*
X2790000Y2210000D02*
D03*
X1400000Y282500D02*
D03*
X3850000Y1850000D02*
D03*
X3700000D02*
D03*
X3500000Y5590000D02*
D03*
X3160000D02*
D03*
X2990000D02*
D03*
X3670000D02*
D03*
X2820000D02*
D03*
X2500000Y5350000D02*
D03*
Y5150000D02*
D03*
X2600000Y5050000D02*
D03*
X2500000Y4950000D02*
D03*
X2400000Y5050000D02*
D03*
X2300000Y4950000D02*
D03*
X2200000Y5050000D02*
D03*
X2000000Y4850000D02*
D03*
X2100000Y4740000D02*
D03*
X2200000Y4300000D02*
D03*
X4200000Y5650000D02*
D03*
X5550000Y5250000D02*
D03*
X5900000Y3590000D02*
D03*
X6150000Y4150000D02*
D03*
Y4750000D02*
D03*
Y4550000D02*
D03*
Y3950000D02*
D03*
Y4350000D02*
D03*
X6250000Y3850000D02*
D03*
Y4650000D02*
D03*
Y4040000D02*
D03*
Y4450000D02*
D03*
Y4250000D02*
D03*
X4690000Y2450000D02*
D03*
X4750000Y2250000D02*
D03*
X4650000Y2150000D02*
D03*
X4550000Y2250000D02*
D03*
X4450000Y2150000D02*
D03*
X4350000Y2250000D02*
D03*
X4250000Y2150000D02*
D03*
X3250000Y2250000D02*
D03*
X3380000Y2000000D02*
D03*
X2950000Y2210000D02*
D03*
X3375000Y2125000D02*
D03*
X4060000Y3910000D02*
D03*
X4435000D02*
D03*
X4810000D02*
D03*
X3310000D02*
D03*
X3685000D02*
D03*
X4060000Y4660000D02*
D03*
Y4285000D02*
D03*
Y3160000D02*
D03*
Y3535000D02*
D03*
X3685000Y4285000D02*
D03*
X3310000D02*
D03*
X4810000D02*
D03*
X4435000D02*
D03*
X3685000Y4660000D02*
D03*
X3310000D02*
D03*
X4810000D02*
D03*
X4435000D02*
D03*
X3685000Y3535000D02*
D03*
X3310000D02*
D03*
X4810000D02*
D03*
X4435000D02*
D03*
X3685000Y3160000D02*
D03*
X3310000D02*
D03*
X4810000D02*
D03*
X4435000D02*
D03*
X3100000Y270000D02*
D03*
X3290000Y300000D02*
D03*
X3450000Y340000D02*
D03*
X3610000Y300000D02*
D03*
X3880000Y350000D02*
D03*
X950000Y4390000D02*
D03*
%TF.MD5,1bb1cd9a261fd8f4fd4b63c0f961231e*%
M02*
