M48
;Layer_Color=9474304
;FILE_FORMAT=4:4
METRIC,LZ
;TYPE=PLATED
T01F00S00C0.5000
T02F00S00C0.6000
T03F00S00C0.9000
T04F00S00C1.0000
T05F00S00C1.2000
T06F00S00C1.3000
T07F00S00C1.5000
T08F00S00C3.5000
%
T01
X00075Y001
X00099Y00095
X00147Y00079
X001485Y00067
X0014Y0002825
X00125Y00038
X00165Y00025
X00175Y00016
X0019Y00025
X00213Y00015
X00225
X00237
X00249
X00258Y0003
X0027
X0028Y0002
X00298Y00033
X0031Y00027
X00329Y0003
X00345Y00034
X00361Y0003
X00388Y00035
X004Y0005
X00439Y00075
X00354Y0008
X00325Y00081
X00303Y00081
X00291
X00272Y00095
X00284Y00115
X00273Y0013
X0026
X00232Y00135
X0021Y00131
X00202Y00173
X0021Y00194979
X00263Y00171
X0028Y00179
X00355Y00168
X0037Y00185
X00385
X00337Y00106
X00248Y00081
X00236Y00081
X0022Y00078
X002Y00073
X0023Y0003
X005Y0005
X00508Y00158
X0052075
Y0017
X00543Y00178
X00535Y00187
X00583Y0017
X00597Y001715
Y00157
X00619Y00156
X00638Y00112
X00662Y00122
X00725Y00138
X00735Y00155
X0071Y00156
X00755Y0014
X00783Y00135
X00786Y00167
X00824Y00168
X00791Y00101
X00785Y00074
X00813Y00053
X0089Y00055
Y0007
X00877Y00095
X007Y0005
X00575Y001
X0098Y00092
X0095Y0015
Y0025
X00906Y00235
X009Y0035
X0095
X00975Y003
X00845Y0029
X0079
Y0031
X0078Y003
Y0032
X0078Y00339
X0079Y0035
Y0037
X0078Y0038
Y0036
X007585Y003685
X0075775Y003805
X0075Y0035
X00755Y00339
X0075Y0031
Y0029
Y0027
X0074Y0026
X00747Y0025
X0074Y0024
X0077Y00247
X0078Y0024
Y00258
X00768Y00266
Y0028
X0078
X0074
Y003
X0073Y0032
X0073725Y0036
X0074Y00404
Y00425
X0075Y00415
X0078Y00425
X0079Y00415
Y00435
X00834Y004075
X00837Y0034725
X00825Y005
X00775
X00741Y00494
X0071075Y0054
X00698
X0068525
X00666Y005565
X0065Y00506
X0061Y00525
X00588
X00555
X0054Y00516
X00505Y00523
X0051Y00565
X00495Y0056
X00604Y00587
X00615Y00475
Y00455
Y00435
Y00415
X00625Y00425
Y00445
Y00465
Y00404
X00615Y00395
X00625Y00385
X00673Y00373
X0067975Y0032625
X00655897Y00326948
X00667Y00283
X00679Y00284
X00643Y00265
X00624Y00226
X00594Y00232
X00523Y00231
X00513Y00239
X00505Y00256
X00502Y00225
X00538Y0028
X0055
X0057
X0056Y0027
X00578Y0032
X00592
X0059Y00359
X0058Y0035
X00651337Y00210921
X00674Y0021
X00775Y00545
X00791
X00485Y00567
X00475Y00558
X0047Y00576
X0045Y0058
X00455Y00565
X0042
X00415Y00583
X00402Y0058
X00398Y00592
X00386
X0038Y0058
X00359Y0057
X00367Y00559
X0035
X00342Y00576
X00308Y0057
X00316Y00559
X00299
X00282
X0027Y0055
X0025Y00535
Y00515
X0026Y00505
X0025Y00495
X0024Y00505
X0023Y00495
X0021
X00199Y00503
X002Y00485
Y00465
Y0045
X00215Y00455
X0021Y00474
X0022Y00505
X00225Y00545
X00185Y00543
Y00555
X001335Y00466
X001Y0045
X0022Y0043
Y0041
Y0039
X0023Y004
Y0038
X00249
X0022Y0037
X00205Y0031
X00195Y003
X0019Y00239
X00223Y00256
X00245Y0028
X0026Y0027
X0027Y00285
X00286Y00267
X00305Y00243
Y0023
X00295Y00221
X00279
X00257Y00212
X00325Y002125
Y00225
X003375Y002125
X00338Y002
X00425Y00215
X00445
X00446Y002
X00465Y00215
X00475Y00225
X00455
X00435
X00412Y00247
X00469Y00245
X00488Y00244091
X00483Y00255
X00481Y00316
X0046225Y0033475
Y0037225
Y0040975
Y0044725
X0042475
Y0040975
Y0037225
Y0033475
X0038725
Y0037225
Y0040975
Y0044725
X0034975
Y0040975
Y0037225
Y0033475
X003685Y003535
Y00391
X00406
X004435
X00481
Y004285
X004435
X00406
Y00466
X003685
Y004285
X00331
Y00391
Y003535
Y00316
X003685
X00406
Y003535
X004435
X00481
X004435Y00316
Y00466
X00481
X00331
X001335Y00306
X00075Y003
X00095Y00279
Y00439
X0005Y0045
X00095Y00599
X00111Y006665
X00271
X00244Y00705
X0025Y0075
X00404Y00705
X00431Y006665
X00431Y00598
X00419Y00595
X00365Y00615
X00341Y00619
X00497Y0062
X0052Y00619
X00591Y006665
X00575Y007
X00564Y00705
X00724
X00751Y006665
X00693Y00615
X00668
X00816Y00619
X00841Y0062
X00884Y00705
X009Y0065
T02
X00646Y00035
Y00054
T03
X0083175Y0005
X0085675
X00612Y003086
Y00334
Y003594
X002015Y003585
Y003839
Y003331
X004528Y00599
X004782
X005036
X00529
T04
X0005Y0016
Y00185
X0091375Y004803
Y005057
X0095Y00549
Y00574
X0005Y0058
Y00555
Y0053
Y00505
Y0048
Y0042
Y00395
Y0037
Y00345
Y0032
Y0026
Y00235
Y0021
X00048Y00637
Y00687
X00125Y0075
X0015
X00175
X002
X00225
X00285
X0031
X00335
X0036
X00385
X00445
X0047
X00495
X0052
X00545
X00605
X0063
X00655
X0068
X00705
X00765
X0079
X00815
X0084
X00865
X0095Y00674
Y00649
Y00624
Y00599
T05
X0080925Y004845
X0086825Y00485
Y005104
Y004596
T06
X00915Y00404
X00965
T07
X00929Y002692
Y0032
T08
X00048Y00047
X0095Y0005
X00048Y00747
X0095Y0075
M30
