G04*
G04 #@! TF.GenerationSoftware,Altium Limited,Altium Designer,23.11.1 (41)*
G04*
G04 Layer_Physical_Order=2*
G04 Layer_Color=16711680*
%FSLAX44Y44*%
%MOMM*%
G71*
G04*
G04 #@! TF.SameCoordinates,B5B466BD-8AFB-453C-92D9-5A85533A3B07*
G04*
G04*
G04 #@! TF.FilePolarity,Positive*
G04*
G01*
G75*
%ADD14C,0.5000*%
%ADD98C,0.3000*%
%ADD100C,2.0000*%
%ADD101C,7.0000*%
%ADD102C,1.8000*%
%ADD103O,2.5000X2.0000*%
G04:AMPARAMS|DCode=104|XSize=1.7mm|YSize=2mm|CornerRadius=0.2125mm|HoleSize=0mm|Usage=FLASHONLY|Rotation=90.000|XOffset=0mm|YOffset=0mm|HoleType=Round|Shape=RoundedRectangle|*
%AMROUNDEDRECTD104*
21,1,1.7000,1.5750,0,0,90.0*
21,1,1.2750,2.0000,0,0,90.0*
1,1,0.4250,0.7875,0.6375*
1,1,0.4250,0.7875,-0.6375*
1,1,0.4250,-0.7875,-0.6375*
1,1,0.4250,-0.7875,0.6375*
%
%ADD104ROUNDEDRECTD104*%
%ADD105O,2.0000X1.7000*%
G04:AMPARAMS|DCode=106|XSize=2.6mm|YSize=3.3mm|CornerRadius=0.325mm|HoleSize=0mm|Usage=FLASHONLY|Rotation=90.000|XOffset=0mm|YOffset=0mm|HoleType=Round|Shape=RoundedRectangle|*
%AMROUNDEDRECTD106*
21,1,2.6000,2.6500,0,0,90.0*
21,1,1.9500,3.3000,0,0,90.0*
1,1,0.6500,1.3250,0.9750*
1,1,0.6500,1.3250,-0.9750*
1,1,0.6500,-1.3250,-0.9750*
1,1,0.6500,-1.3250,0.9750*
%
%ADD106ROUNDEDRECTD106*%
%ADD107O,3.3000X2.6000*%
%ADD108C,3.0000*%
%ADD109C,2.0000*%
%ADD110C,1.6000*%
G04:AMPARAMS|DCode=111|XSize=1.8mm|YSize=1.8mm|CornerRadius=0.45mm|HoleSize=0mm|Usage=FLASHONLY|Rotation=90.000|XOffset=0mm|YOffset=0mm|HoleType=Round|Shape=RoundedRectangle|*
%AMROUNDEDRECTD111*
21,1,1.8000,0.9000,0,0,90.0*
21,1,0.9000,1.8000,0,0,90.0*
1,1,0.9000,0.4500,0.4500*
1,1,0.9000,0.4500,-0.4500*
1,1,0.9000,-0.4500,-0.4500*
1,1,0.9000,-0.4500,0.4500*
%
%ADD111ROUNDEDRECTD111*%
G04:AMPARAMS|DCode=112|XSize=1.8mm|YSize=1.8mm|CornerRadius=0.45mm|HoleSize=0mm|Usage=FLASHONLY|Rotation=180.000|XOffset=0mm|YOffset=0mm|HoleType=Round|Shape=RoundedRectangle|*
%AMROUNDEDRECTD112*
21,1,1.8000,0.9000,0,0,180.0*
21,1,0.9000,1.8000,0,0,180.0*
1,1,0.9000,-0.4500,0.4500*
1,1,0.9000,0.4500,0.4500*
1,1,0.9000,0.4500,-0.4500*
1,1,0.9000,-0.4500,-0.4500*
%
%ADD112ROUNDEDRECTD112*%
%ADD113C,1.5000*%
%ADD114O,2.5000X1.8000*%
G04:AMPARAMS|DCode=115|XSize=1.8mm|YSize=2.5mm|CornerRadius=0.45mm|HoleSize=0mm|Usage=FLASHONLY|Rotation=270.000|XOffset=0mm|YOffset=0mm|HoleType=Round|Shape=RoundedRectangle|*
%AMROUNDEDRECTD115*
21,1,1.8000,1.6000,0,0,270.0*
21,1,0.9000,2.5000,0,0,270.0*
1,1,0.9000,-0.8000,-0.4500*
1,1,0.9000,-0.8000,0.4500*
1,1,0.9000,0.8000,0.4500*
1,1,0.9000,0.8000,-0.4500*
%
%ADD115ROUNDEDRECTD115*%
%ADD116O,1.8000X2.5000*%
G04:AMPARAMS|DCode=117|XSize=1.8mm|YSize=2.5mm|CornerRadius=0.45mm|HoleSize=0mm|Usage=FLASHONLY|Rotation=180.000|XOffset=0mm|YOffset=0mm|HoleType=Round|Shape=RoundedRectangle|*
%AMROUNDEDRECTD117*
21,1,1.8000,1.6000,0,0,180.0*
21,1,0.9000,2.5000,0,0,180.0*
1,1,0.9000,-0.4500,0.8000*
1,1,0.9000,0.4500,0.8000*
1,1,0.9000,0.4500,-0.8000*
1,1,0.9000,-0.4500,-0.8000*
%
%ADD117ROUNDEDRECTD117*%
%ADD118C,1.0000*%
G36*
X995000Y675000D02*
X945000D01*
X911000Y709000D01*
X911000Y795000D01*
X995000D01*
Y675000D01*
D02*
G37*
G36*
X350399Y274202D02*
X351702Y272899D01*
X353298Y271977D01*
X355078Y271500D01*
X356922D01*
X359130Y270212D01*
X359702Y268766D01*
Y266848D01*
X355835Y263000D01*
X355078D01*
X353298Y262523D01*
X351702Y261601D01*
X350399Y260298D01*
X349977Y259569D01*
X150686D01*
X148615Y264569D01*
X158978Y274931D01*
X349977D01*
X350399Y274202D01*
D02*
G37*
G36*
X377389Y224367D02*
X379232D01*
X379412Y224415D01*
X383354Y222219D01*
X384412Y221033D01*
Y215000D01*
X384761Y213244D01*
X385756Y211756D01*
X399756Y197756D01*
X401244Y196761D01*
X403000Y196412D01*
X428100D01*
X442412Y182099D01*
Y58500D01*
X442761Y56744D01*
X443756Y55256D01*
X490953Y8059D01*
X488881Y3059D01*
X3059D01*
Y96683D01*
X5365Y98003D01*
X8059Y98506D01*
X9167Y97398D01*
X11333Y96147D01*
X13749Y95500D01*
X16251D01*
X18667Y96147D01*
X20833Y97398D01*
X22602Y99167D01*
X23853Y101333D01*
X24500Y103749D01*
Y106251D01*
X23853Y108667D01*
X22602Y110833D01*
X20833Y112602D01*
X18667Y113853D01*
X18569Y113879D01*
Y123735D01*
X30812Y135978D01*
X35431Y134065D01*
Y113879D01*
X35333Y113853D01*
X33167Y112602D01*
X31398Y110833D01*
X30147Y108667D01*
X29500Y106251D01*
Y103749D01*
X30147Y101333D01*
X31398Y99167D01*
X33167Y97398D01*
X35333Y96147D01*
X37749Y95500D01*
X40251D01*
X42667Y96147D01*
X44833Y97398D01*
X46602Y99167D01*
X47853Y101333D01*
X48500Y103749D01*
Y106251D01*
X47853Y108667D01*
X46602Y110833D01*
X44833Y112602D01*
X42667Y113853D01*
X42569Y113879D01*
Y140664D01*
X54812Y152907D01*
X59431Y150994D01*
Y113879D01*
X59333Y113853D01*
X57167Y112602D01*
X55398Y110833D01*
X54147Y108667D01*
X53500Y106251D01*
Y103749D01*
X54147Y101333D01*
X55398Y99167D01*
X57167Y97398D01*
X59333Y96147D01*
X61749Y95500D01*
X64251D01*
X66667Y96147D01*
X68833Y97398D01*
X70602Y99167D01*
X71853Y101333D01*
X72500Y103749D01*
Y106251D01*
X71853Y108667D01*
X70602Y110833D01*
X68833Y112602D01*
X66667Y113853D01*
X66569Y113879D01*
Y157593D01*
X78812Y169836D01*
X83431Y167923D01*
Y113879D01*
X83333Y113853D01*
X81167Y112602D01*
X79398Y110833D01*
X78147Y108667D01*
X77500Y106251D01*
Y103749D01*
X78147Y101333D01*
X79398Y99167D01*
X81167Y97398D01*
X83333Y96147D01*
X83431Y96121D01*
Y83979D01*
X83703Y82614D01*
X84477Y81456D01*
X132116Y33816D01*
X133274Y33043D01*
X133278Y33042D01*
X133477Y32298D01*
X134399Y30702D01*
X135702Y29399D01*
X137298Y28477D01*
X139078Y28000D01*
X140922D01*
X142702Y28477D01*
X144298Y29399D01*
X145601Y30702D01*
X146523Y32298D01*
X147000Y34078D01*
Y35922D01*
X146523Y37702D01*
X145601Y39298D01*
X144298Y40601D01*
X142702Y41523D01*
X140922Y42000D01*
X139078D01*
X137298Y41523D01*
X135702Y40601D01*
X135563Y40463D01*
X111594Y64431D01*
X113666Y69431D01*
X247977D01*
X248399Y68702D01*
X249702Y67399D01*
X251298Y66477D01*
X253078Y66000D01*
X254922D01*
X256702Y66477D01*
X258298Y67399D01*
X259601Y68702D01*
X260523Y70298D01*
X261000Y72078D01*
Y73922D01*
X260523Y75702D01*
X259601Y77298D01*
X258298Y78601D01*
X256702Y79523D01*
X254922Y80000D01*
X253078D01*
X251298Y79523D01*
X249702Y78601D01*
X248399Y77298D01*
X247977Y76569D01*
X196569D01*
Y87977D01*
X197298Y88399D01*
X198601Y89702D01*
X199523Y91298D01*
X200000Y93078D01*
Y94922D01*
X199523Y96702D01*
X198601Y98298D01*
X197298Y99601D01*
X195702Y100523D01*
X193922Y101000D01*
X192078D01*
X190298Y100523D01*
X188702Y99601D01*
X187399Y98298D01*
X186477Y96702D01*
X186000Y94922D01*
Y93078D01*
X186477Y91298D01*
X187399Y89702D01*
X188702Y88399D01*
X189431Y87977D01*
Y76569D01*
X111478D01*
X104782Y83265D01*
X105000Y84078D01*
Y85922D01*
X104523Y87702D01*
X103601Y89298D01*
X102298Y90601D01*
X100702Y91523D01*
X98922Y92000D01*
X97272D01*
X96191Y92940D01*
X93537Y95750D01*
X93480Y95867D01*
X93589Y98154D01*
X94602Y99167D01*
X95853Y101333D01*
X96500Y103749D01*
Y106251D01*
X95853Y108667D01*
X94602Y110833D01*
X92833Y112602D01*
X90667Y113853D01*
X90569Y113879D01*
Y174522D01*
X135978Y219931D01*
X370444D01*
X371809Y220203D01*
X372967Y220977D01*
X376575Y224585D01*
X377389Y224367D01*
D02*
G37*
G36*
X904998Y796663D02*
X908961Y791941D01*
X908961Y709000D01*
X908961Y709000D01*
X909116Y708220D01*
X909558Y707558D01*
X909558Y707558D01*
X943558Y673558D01*
X944220Y673116D01*
X945000Y672961D01*
X995000D01*
X996941Y668336D01*
X996941Y3059D01*
X720619D01*
X718547Y8059D01*
X731244Y20756D01*
X732239Y22244D01*
X732588Y24000D01*
Y57099D01*
X753489Y78000D01*
X754922D01*
X756702Y78477D01*
X758298Y79399D01*
X759601Y80702D01*
X760523Y82298D01*
X761000Y84078D01*
Y85922D01*
X760523Y87702D01*
X759601Y89298D01*
X758588Y90311D01*
Y91689D01*
X759601Y92702D01*
X760523Y94298D01*
X761000Y96078D01*
Y97922D01*
X760523Y99702D01*
X759601Y101298D01*
X758298Y102601D01*
X756702Y103523D01*
X754922Y104000D01*
X753079D01*
X749132Y106813D01*
X748543Y107706D01*
Y140025D01*
X748272Y141391D01*
X747498Y142549D01*
X731782Y158265D01*
X732000Y159078D01*
Y160921D01*
X734694Y163894D01*
X740107Y164089D01*
X778931Y125265D01*
Y63928D01*
X776953Y63109D01*
X774655Y61345D01*
X773030Y59228D01*
X772112Y59085D01*
X767586Y59305D01*
X767580Y59320D01*
X765730Y61730D01*
X763320Y63580D01*
X760512Y64743D01*
X760000Y64811D01*
Y50000D01*
Y35189D01*
X760512Y35257D01*
X763320Y36420D01*
X765730Y38270D01*
X767580Y40680D01*
X767586Y40695D01*
X772112Y40915D01*
X773030Y40772D01*
X774655Y38655D01*
X776953Y36892D01*
X779628Y35783D01*
X782500Y35405D01*
X785372Y35783D01*
X788047Y36892D01*
X790345Y38655D01*
X792108Y40953D01*
X792294Y41400D01*
X797706D01*
X797891Y40953D01*
X799655Y38655D01*
X801953Y36892D01*
X804628Y35783D01*
X807500Y35405D01*
X810372Y35783D01*
X813047Y36892D01*
X815345Y38655D01*
X817108Y40953D01*
X817294Y41400D01*
X822706D01*
X822891Y40953D01*
X824655Y38655D01*
X826953Y36892D01*
X829628Y35783D01*
X832500Y35405D01*
X835372Y35783D01*
X838047Y36892D01*
X840345Y38655D01*
X842109Y40953D01*
X842294Y41400D01*
X847706D01*
X847891Y40953D01*
X849655Y38655D01*
X851953Y36892D01*
X854628Y35783D01*
X857500Y35405D01*
X860372Y35783D01*
X863047Y36892D01*
X865345Y38655D01*
X866622Y40319D01*
X869409Y40310D01*
X871959Y39598D01*
X872322Y38722D01*
X873364Y37364D01*
X874722Y36322D01*
X876303Y35667D01*
X878000Y35444D01*
X887000D01*
X888697Y35667D01*
X890278Y36322D01*
X891636Y37364D01*
X892678Y38722D01*
X893333Y40303D01*
X893556Y42000D01*
Y58000D01*
X893333Y59697D01*
X892678Y61278D01*
X891636Y62636D01*
X890278Y63678D01*
X888697Y64333D01*
X887000Y64556D01*
X878000D01*
X876303Y64333D01*
X874722Y63678D01*
X873364Y62636D01*
X872322Y61278D01*
X871959Y60402D01*
X869409Y59690D01*
X866622Y59681D01*
X865345Y61345D01*
X863047Y63109D01*
X860372Y64217D01*
X857500Y64595D01*
X854628Y64217D01*
X851953Y63109D01*
X849655Y61345D01*
X847891Y59047D01*
X847706Y58600D01*
X842294D01*
X842109Y59047D01*
X840345Y61345D01*
X838047Y63109D01*
X835372Y64217D01*
X832500Y64595D01*
X829628Y64217D01*
X826953Y63109D01*
X824655Y61345D01*
X822891Y59047D01*
X822706Y58600D01*
X817294D01*
X817108Y59047D01*
X815345Y61345D01*
X813047Y63109D01*
X811069Y63928D01*
Y110571D01*
X810797Y111937D01*
X810023Y113094D01*
X747094Y176023D01*
X745937Y176797D01*
X744571Y177069D01*
X627999D01*
X625322Y182069D01*
X626630Y184031D01*
X638600D01*
X639966Y184303D01*
X641123Y185077D01*
X732523Y276477D01*
X733297Y277634D01*
X733569Y279000D01*
Y355977D01*
X734298Y356399D01*
X735601Y357702D01*
X736523Y359298D01*
X737000Y361078D01*
Y362922D01*
X736523Y364702D01*
X735601Y366298D01*
X734298Y367601D01*
X732702Y368523D01*
X730922Y369000D01*
X729078D01*
X727298Y368523D01*
X725702Y367601D01*
X724399Y366298D01*
X723477Y364702D01*
X723000Y362922D01*
Y361078D01*
X723477Y359298D01*
X724399Y357702D01*
X725702Y356399D01*
X726431Y355977D01*
Y280478D01*
X637122Y191169D01*
X623032D01*
X622850Y191846D01*
X621402Y194354D01*
X619354Y196402D01*
X617174Y197661D01*
X616846Y199401D01*
Y201199D01*
X617174Y202939D01*
X619354Y204198D01*
X621402Y206246D01*
X622850Y208754D01*
X623600Y211552D01*
Y214448D01*
X622850Y217246D01*
X621402Y219754D01*
X619354Y221802D01*
X617835Y222679D01*
X617368Y225649D01*
X617911Y228141D01*
X619686Y229166D01*
X621834Y231314D01*
X623354Y233946D01*
X623877Y235900D01*
X612600D01*
Y240900D01*
X623877D01*
X623354Y242854D01*
X621834Y245486D01*
X619686Y247634D01*
X617911Y248659D01*
X617368Y251151D01*
X617835Y254121D01*
X619354Y254998D01*
X621402Y257046D01*
X622850Y259554D01*
X623600Y262352D01*
Y265248D01*
X622850Y268046D01*
X621402Y270554D01*
X619354Y272602D01*
X617174Y273861D01*
X616846Y275601D01*
Y277399D01*
X617174Y279139D01*
X619354Y280398D01*
X621402Y282446D01*
X622850Y284954D01*
X623600Y287752D01*
Y290648D01*
X622850Y293446D01*
X621402Y295954D01*
X619354Y298002D01*
X617174Y299261D01*
X616846Y301001D01*
Y302799D01*
X617174Y304539D01*
X619354Y305798D01*
X621402Y307846D01*
X622850Y310354D01*
X623600Y313152D01*
Y316048D01*
X622850Y318846D01*
X621402Y321354D01*
X619354Y323402D01*
X617835Y324279D01*
X617368Y327249D01*
X617911Y329741D01*
X619686Y330766D01*
X621834Y332914D01*
X623354Y335546D01*
X623877Y337500D01*
X601323D01*
X601846Y335546D01*
X603366Y332914D01*
X605514Y330766D01*
X607289Y329741D01*
X607832Y327249D01*
X607365Y324279D01*
X605846Y323402D01*
X603798Y321354D01*
X602350Y318846D01*
X601600Y316048D01*
Y313152D01*
X602350Y310354D01*
X603798Y307846D01*
X605846Y305798D01*
X608026Y304539D01*
X608354Y302799D01*
Y301001D01*
X608026Y299261D01*
X605846Y298002D01*
X603798Y295954D01*
X598415Y296631D01*
X577782Y317265D01*
X578000Y318078D01*
Y319922D01*
X577523Y321702D01*
X576601Y323298D01*
X575298Y324601D01*
X573702Y325523D01*
X571922Y326000D01*
X570079D01*
X566143Y328837D01*
X565569Y329720D01*
Y355522D01*
X569008Y358961D01*
X603616D01*
X603798Y358646D01*
X605846Y356598D01*
X607365Y355721D01*
X607832Y352751D01*
X607289Y350259D01*
X605514Y349234D01*
X603366Y347086D01*
X601846Y344454D01*
X601323Y342500D01*
X623877D01*
X623354Y344454D01*
X621834Y347086D01*
X619686Y349234D01*
X617911Y350259D01*
X617368Y352751D01*
X617835Y355721D01*
X619354Y356598D01*
X621402Y358646D01*
X622850Y361154D01*
X623600Y363952D01*
Y366848D01*
X622850Y369646D01*
X621402Y372154D01*
X619354Y374202D01*
X617174Y375461D01*
X616846Y377201D01*
Y378999D01*
X617174Y380739D01*
X619354Y381998D01*
X621402Y384046D01*
X622850Y386554D01*
X623600Y389352D01*
Y392248D01*
X622850Y395046D01*
X621402Y397554D01*
X619354Y399602D01*
X617174Y400861D01*
X616846Y402601D01*
Y404399D01*
X617174Y406139D01*
X619354Y407398D01*
X621402Y409446D01*
X622850Y411954D01*
X623600Y414752D01*
Y417648D01*
X622850Y420446D01*
X621402Y422954D01*
X619354Y425002D01*
X617174Y426261D01*
X616846Y428001D01*
Y429799D01*
X617174Y431539D01*
X619354Y432798D01*
X621402Y434846D01*
X622850Y437354D01*
X623600Y440152D01*
Y443048D01*
X622850Y445846D01*
X621402Y448354D01*
X619354Y450402D01*
X617174Y451661D01*
X616846Y453401D01*
Y455199D01*
X617174Y456939D01*
X619354Y458198D01*
X621402Y460246D01*
X622850Y462754D01*
X623600Y465552D01*
Y468448D01*
X622850Y471246D01*
X621402Y473754D01*
X619354Y475802D01*
X617174Y477061D01*
X616846Y478801D01*
Y480599D01*
X617174Y482339D01*
X619354Y483598D01*
X621402Y485646D01*
X622850Y488154D01*
X623600Y490952D01*
Y493848D01*
X622850Y496646D01*
X621402Y499154D01*
X619354Y501202D01*
X618232Y501850D01*
X618732Y506377D01*
X618953Y507032D01*
X620378Y507622D01*
X621736Y508664D01*
X622778Y510022D01*
X623433Y511603D01*
X623656Y513300D01*
Y522300D01*
X623433Y523997D01*
X622778Y525578D01*
X621736Y526936D01*
X620378Y527978D01*
X618797Y528633D01*
X617100Y528856D01*
X608100D01*
X606403Y528633D01*
X604822Y527978D01*
X603464Y526936D01*
X602422Y525578D01*
X601767Y523997D01*
X601544Y522300D01*
Y513300D01*
X601767Y511603D01*
X602422Y510022D01*
X603464Y508664D01*
X604822Y507622D01*
X606247Y507032D01*
X606468Y506377D01*
X606968Y501850D01*
X605846Y501202D01*
X603798Y499154D01*
X602350Y496646D01*
X601600Y493848D01*
Y490952D01*
X602350Y488154D01*
X603798Y485646D01*
X605846Y483598D01*
X608026Y482339D01*
X608354Y480599D01*
Y478801D01*
X608026Y477061D01*
X605846Y475802D01*
X603798Y473754D01*
X602350Y471246D01*
X601600Y468448D01*
Y465552D01*
X602350Y462754D01*
X603798Y460246D01*
X605846Y458198D01*
X608026Y456939D01*
X608354Y455199D01*
Y453401D01*
X608026Y451661D01*
X605846Y450402D01*
X603798Y448354D01*
X602350Y445846D01*
X601600Y443048D01*
Y440152D01*
X602350Y437354D01*
X602700Y436747D01*
X544477Y378523D01*
X543703Y377366D01*
X543432Y376000D01*
Y273000D01*
X543703Y271634D01*
X544477Y270477D01*
X568218Y246735D01*
X568000Y245922D01*
Y244078D01*
X568477Y242298D01*
X570358Y238750D01*
X568477Y235202D01*
X568000Y233422D01*
Y231578D01*
X568477Y229798D01*
X570358Y226250D01*
X568477Y222702D01*
X568000Y220922D01*
Y219078D01*
X568477Y217298D01*
X569399Y215702D01*
X570702Y214399D01*
X572298Y213477D01*
X574078Y213000D01*
X575922D01*
X577702Y213477D01*
X579298Y214399D01*
X580601Y215702D01*
X581523Y217298D01*
X582000Y219078D01*
Y220922D01*
X581782Y221735D01*
X586812Y226765D01*
X591431Y224852D01*
Y172929D01*
X591703Y171563D01*
X592477Y170406D01*
X594013Y168869D01*
X591942Y163869D01*
X575898D01*
X575303Y164900D01*
X574000Y166203D01*
X572404Y167124D01*
X570624Y167601D01*
X568780D01*
X567000Y167124D01*
X565404Y166203D01*
X564100Y164900D01*
X563179Y163303D01*
X562702Y161523D01*
Y159680D01*
X563179Y157900D01*
X564100Y156303D01*
X565307Y154560D01*
X564773Y152145D01*
X563852Y150549D01*
X563374Y148768D01*
Y146925D01*
X563852Y145145D01*
X564773Y143549D01*
X565501Y141239D01*
X563594Y137905D01*
X563477Y137702D01*
X563000Y135922D01*
Y134078D01*
X563477Y132298D01*
X564399Y130702D01*
X565702Y129399D01*
X567298Y128477D01*
X569078Y128000D01*
X570922D01*
X572702Y128477D01*
X574298Y129399D01*
X575601Y130702D01*
X576023Y131431D01*
X706022D01*
X713218Y124235D01*
X713000Y123422D01*
Y121578D01*
X713477Y119798D01*
X714230Y118377D01*
X713917Y117287D01*
X711961Y113569D01*
X549491D01*
X546000Y117079D01*
Y118922D01*
X545523Y120702D01*
X544601Y122298D01*
X543298Y123601D01*
X541702Y124523D01*
X539922Y125000D01*
X538078D01*
X536298Y124523D01*
X534702Y123601D01*
X533399Y122298D01*
X532477Y120702D01*
X532000Y118922D01*
Y117078D01*
X532477Y115298D01*
X533399Y113702D01*
X534702Y112399D01*
X536298Y111477D01*
X538078Y111000D01*
X539922D01*
X540825Y111242D01*
X544590Y107477D01*
X545748Y106703D01*
X547114Y106431D01*
X713977D01*
X714399Y105702D01*
X715702Y104399D01*
X717298Y103477D01*
X717741Y103358D01*
X719321Y99771D01*
X719453Y98000D01*
X684850Y63397D01*
X682872Y64217D01*
X680000Y64595D01*
X677128Y64217D01*
X674453Y63109D01*
X672155Y61345D01*
X670391Y59047D01*
X669283Y56372D01*
X668905Y53500D01*
Y46500D01*
X669283Y43628D01*
X670391Y40953D01*
X672155Y38655D01*
X674453Y36892D01*
X677128Y35783D01*
X680000Y35405D01*
X682872Y35783D01*
X685547Y36892D01*
X687845Y38655D01*
X689122Y40319D01*
X691909Y40310D01*
X694459Y39598D01*
X694822Y38722D01*
X695864Y37364D01*
X697222Y36322D01*
X698803Y35667D01*
X700500Y35444D01*
X709500D01*
X711197Y35667D01*
X712778Y36322D01*
X714136Y37364D01*
X715178Y38722D01*
X715833Y40303D01*
X716056Y42000D01*
Y58000D01*
X715881Y59334D01*
X719485Y62939D01*
X721784Y61765D01*
X723609Y59991D01*
X723412Y59000D01*
Y25900D01*
X710099Y12588D01*
X499400D01*
X451588Y60401D01*
Y184000D01*
X451239Y185756D01*
X450244Y187244D01*
X435263Y202226D01*
X437334Y207226D01*
X481728D01*
X521059Y167894D01*
X521000Y167672D01*
Y165828D01*
X521477Y164048D01*
X522399Y162452D01*
X523702Y161149D01*
X525298Y160227D01*
X527078Y159750D01*
X528922D01*
X530702Y160227D01*
X532298Y161149D01*
X533601Y162452D01*
X534523Y164048D01*
X535000Y165828D01*
Y167672D01*
X534523Y169452D01*
X533601Y171048D01*
X532298Y172351D01*
X530702Y173273D01*
X528922Y173750D01*
X527078D01*
X525673Y173374D01*
X485729Y213318D01*
X484571Y214091D01*
X483206Y214363D01*
X417023D01*
X416601Y215092D01*
X415298Y216396D01*
X413702Y217317D01*
X411922Y217794D01*
X410078D01*
X408298Y217317D01*
X406702Y216396D01*
X405399Y215092D01*
X404477Y213496D01*
X404390Y213170D01*
X400603Y211562D01*
X399000Y211489D01*
X393588Y216901D01*
Y235000D01*
X393239Y236756D01*
X392244Y238244D01*
X375269Y255220D01*
X376538Y259107D01*
X377247Y260313D01*
X378682Y260697D01*
X380278Y261619D01*
X381581Y262922D01*
X382503Y264518D01*
X382980Y266299D01*
Y268142D01*
X382503Y269922D01*
X381581Y271518D01*
X380278Y272822D01*
X379549Y273243D01*
Y347002D01*
X393265Y360718D01*
X394078Y360500D01*
X395922D01*
X397702Y360977D01*
X399298Y361899D01*
X400601Y363202D01*
X401167Y364181D01*
X521122D01*
X521399Y363702D01*
X522702Y362399D01*
X524298Y361477D01*
X526078Y361000D01*
X527922D01*
X529702Y361477D01*
X531298Y362399D01*
X532601Y363702D01*
X533523Y365298D01*
X534000Y367078D01*
Y368922D01*
X533523Y370702D01*
X532601Y372298D01*
X531298Y373601D01*
X529702Y374523D01*
X527922Y375000D01*
X526078D01*
X524298Y374523D01*
X522702Y373601D01*
X521399Y372298D01*
X520833Y371319D01*
X457969D01*
X456056Y375938D01*
X478523Y398406D01*
X479297Y399563D01*
X479569Y400929D01*
Y416977D01*
X480298Y417399D01*
X481601Y418702D01*
X482523Y420298D01*
X483000Y422078D01*
Y423330D01*
X483010Y423943D01*
X484439Y426975D01*
X486695Y428475D01*
X486702Y428477D01*
X488298Y429399D01*
X489601Y430702D01*
X490523Y432298D01*
X491000Y434078D01*
Y435922D01*
X490523Y437702D01*
X489601Y439298D01*
X488298Y440601D01*
X486702Y441523D01*
X484922Y442000D01*
X483078D01*
X481298Y441523D01*
X479702Y440601D01*
X478399Y439298D01*
X477977Y438569D01*
X470500D01*
X469134Y438297D01*
X467977Y437523D01*
X453648Y423195D01*
X452875Y422037D01*
X452603Y420672D01*
Y402280D01*
X451751Y401522D01*
X451706Y401517D01*
X447460Y402488D01*
X446264Y403151D01*
X445601Y404298D01*
X444298Y405601D01*
X442702Y406523D01*
X440922Y407000D01*
X439078D01*
X438265Y406782D01*
X399899Y445148D01*
Y459741D01*
X399627Y461106D01*
X398854Y462264D01*
X357000Y504118D01*
Y505922D01*
X356523Y507702D01*
X355601Y509298D01*
X354298Y510601D01*
X352702Y511523D01*
X350922Y512000D01*
X349078D01*
X347298Y511523D01*
X345702Y510601D01*
X344399Y509298D01*
X343477Y507702D01*
X343000Y505922D01*
Y504078D01*
X343477Y502298D01*
X344399Y500702D01*
X345455Y499000D01*
X344399Y497298D01*
X343477Y495702D01*
X343000Y493922D01*
Y492078D01*
X343477Y490298D01*
X344399Y488702D01*
X345702Y487399D01*
X347298Y486477D01*
X349078Y486000D01*
X350922D01*
X352702Y486477D01*
X354298Y487399D01*
X355426Y488527D01*
X373777Y470176D01*
X373941Y469671D01*
X373691Y464591D01*
X372388Y463288D01*
X371467Y461692D01*
X370990Y459911D01*
Y458068D01*
X371208Y457254D01*
X361522Y447569D01*
X345023D01*
X344601Y448298D01*
X343298Y449601D01*
X341702Y450523D01*
X339922Y451000D01*
X338078D01*
X336298Y450523D01*
X334702Y449601D01*
X333399Y448298D01*
X332477Y446702D01*
X332000Y444922D01*
Y443078D01*
X332477Y441298D01*
X333399Y439702D01*
X334702Y438399D01*
X336298Y437477D01*
X338078Y437000D01*
X339922D01*
X341702Y437477D01*
X343298Y438399D01*
X344601Y439702D01*
X345023Y440431D01*
X363000D01*
X364366Y440703D01*
X365523Y441477D01*
X376254Y452208D01*
X377068Y451990D01*
X378911D01*
X380691Y452467D01*
X381431Y452894D01*
X384421Y451881D01*
X386431Y450461D01*
Y423188D01*
X384071Y418569D01*
X278000D01*
X276634Y418297D01*
X275477Y417523D01*
X262524Y404571D01*
X260922Y405000D01*
X259078D01*
X257298Y404523D01*
X255702Y403601D01*
X254399Y402298D01*
X253477Y400702D01*
X253000Y398922D01*
Y397078D01*
X253477Y395298D01*
X253567Y395142D01*
X255279Y391500D01*
X253567Y387858D01*
X253477Y387702D01*
X253000Y385922D01*
Y384078D01*
X253477Y382298D01*
X254399Y380702D01*
X255702Y379399D01*
X257298Y378477D01*
X259078Y378000D01*
X260922D01*
X262702Y378477D01*
X264298Y379399D01*
X265601Y380702D01*
X266523Y382298D01*
X267000Y384078D01*
Y385922D01*
X266782Y386735D01*
X286478Y406431D01*
X371818D01*
X371924Y406291D01*
X373532Y401431D01*
X373399Y401298D01*
X372477Y399702D01*
X372000Y397922D01*
Y396078D01*
X372218Y395265D01*
X351477Y374523D01*
X350703Y373366D01*
X350431Y372000D01*
Y308114D01*
X349919Y307819D01*
X348616Y306516D01*
X343899Y305555D01*
X342740Y305748D01*
X333244Y315244D01*
X331756Y316239D01*
X330000Y316588D01*
X269900D01*
X207000Y379489D01*
Y380922D01*
X206523Y382702D01*
X205601Y384298D01*
X204298Y385601D01*
X202702Y386523D01*
X200922Y387000D01*
X199078D01*
X197298Y386523D01*
X195702Y385601D01*
X195000Y384899D01*
X194298Y385601D01*
X192702Y386523D01*
X190922Y387000D01*
X189078D01*
X187298Y386523D01*
X185702Y385601D01*
X184399Y384298D01*
X183477Y382702D01*
X183000Y380922D01*
Y379078D01*
X183477Y377298D01*
X184399Y375702D01*
X185702Y374399D01*
X187298Y373477D01*
X189078Y373000D01*
X190922D01*
X192702Y373477D01*
X194298Y374399D01*
X195000Y375101D01*
X195702Y374399D01*
X197298Y373477D01*
X199078Y373000D01*
X200511D01*
X262943Y310569D01*
X260872Y305569D01*
X115536D01*
X112000Y309079D01*
Y310922D01*
X111523Y312702D01*
X110601Y314298D01*
X109298Y315601D01*
X107702Y316523D01*
X105922Y317000D01*
X104078D01*
X102298Y316523D01*
X100702Y315601D01*
X99399Y314298D01*
X98477Y312702D01*
X98000Y310922D01*
Y309078D01*
X98477Y307298D01*
X99399Y305702D01*
X100702Y304399D01*
X102298Y303477D01*
X104078Y303000D01*
X105922D01*
X106735Y303218D01*
X110477Y299477D01*
X111634Y298703D01*
X113000Y298431D01*
X142952D01*
X143680Y297502D01*
X145977Y293023D01*
X111735Y258782D01*
X110922Y259000D01*
X109078D01*
X107298Y258523D01*
X105702Y257601D01*
X104399Y256298D01*
X103477Y254702D01*
X103000Y252922D01*
Y251078D01*
X103477Y249298D01*
X104399Y247702D01*
X105702Y246399D01*
X107298Y245477D01*
X109078Y245000D01*
X110921D01*
X113780Y240716D01*
X113966Y240013D01*
X64522Y190569D01*
X52023D01*
X51601Y191298D01*
X50298Y192601D01*
X48702Y193523D01*
X46922Y194000D01*
X45078D01*
X43298Y193523D01*
X41702Y192601D01*
X40399Y191298D01*
X39477Y189702D01*
X39000Y187922D01*
Y186078D01*
X39477Y184298D01*
X40399Y182702D01*
X41702Y181399D01*
X43298Y180477D01*
X45078Y180000D01*
X46922D01*
X48702Y180477D01*
X50298Y181399D01*
X51601Y182702D01*
X52023Y183431D01*
X61101D01*
X63172Y178431D01*
X12477Y127736D01*
X11703Y126579D01*
X11431Y125213D01*
Y114810D01*
X7366Y111623D01*
X5365Y111997D01*
X3059Y113317D01*
Y796941D01*
X904336D01*
X904998Y796663D01*
D02*
G37*
%LPC*%
G36*
X378922Y207000D02*
X377078D01*
X375298Y206523D01*
X373702Y205601D01*
X371500Y204676D01*
X369298Y205601D01*
X367702Y206523D01*
X365922Y207000D01*
X364078D01*
X362298Y206523D01*
X360702Y205601D01*
X359399Y204298D01*
X358977Y203569D01*
X145000D01*
X143634Y203297D01*
X142477Y202523D01*
X133755Y193802D01*
X133667Y193853D01*
X131251Y194500D01*
X128749D01*
X126333Y193853D01*
X124167Y192602D01*
X122398Y190833D01*
X121147Y188667D01*
X120500Y186251D01*
Y183749D01*
X121147Y181333D01*
X122398Y179167D01*
X124167Y177398D01*
X126333Y176147D01*
X128749Y175500D01*
X131251D01*
X133667Y176147D01*
X135833Y177398D01*
X137602Y179167D01*
X138853Y181333D01*
X139500Y183749D01*
Y186251D01*
X138853Y188667D01*
X138802Y188755D01*
X146478Y196431D01*
X179198D01*
X181269Y191431D01*
X158640Y168802D01*
X158552Y168853D01*
X156135Y169500D01*
X153634D01*
X151218Y168853D01*
X149052Y167602D01*
X147283Y165833D01*
X146032Y163667D01*
X145385Y161251D01*
Y158749D01*
X146032Y156333D01*
X147283Y154167D01*
X149052Y152398D01*
X151218Y151147D01*
X153634Y150500D01*
X156135D01*
X158552Y151147D01*
X160718Y152398D01*
X162486Y154167D01*
X163737Y156333D01*
X164385Y158749D01*
Y161251D01*
X163737Y163667D01*
X163686Y163755D01*
X187863Y187931D01*
X221352D01*
X223265Y183312D01*
X183755Y143802D01*
X183667Y143853D01*
X181251Y144500D01*
X178749D01*
X176333Y143853D01*
X174167Y142602D01*
X172398Y140833D01*
X171147Y138667D01*
X170500Y136251D01*
Y133749D01*
X170958Y132039D01*
X168692Y127306D01*
X168552Y127077D01*
X167500Y126841D01*
X166448Y127077D01*
X166308Y127306D01*
X164042Y132039D01*
X164500Y133749D01*
Y136251D01*
X163853Y138667D01*
X162602Y140833D01*
X160833Y142602D01*
X158667Y143853D01*
X156251Y144500D01*
X153749D01*
X151333Y143853D01*
X149167Y142602D01*
X147398Y140833D01*
X146147Y138667D01*
X145500Y136251D01*
Y133749D01*
X146147Y131333D01*
X146589Y130569D01*
X144938Y126617D01*
X143925Y125569D01*
X125303D01*
X121000Y128078D01*
Y129922D01*
X120523Y131702D01*
X119601Y133298D01*
X118298Y134601D01*
X116702Y135523D01*
X114922Y136000D01*
X113078D01*
X111298Y135523D01*
X109702Y134601D01*
X108399Y133298D01*
X107477Y131702D01*
X107000Y129922D01*
Y128078D01*
X107477Y126298D01*
X108399Y124702D01*
X109702Y123399D01*
X111298Y122477D01*
X113078Y122000D01*
X114922D01*
X115735Y122218D01*
X118477Y119477D01*
X119634Y118703D01*
X121000Y118431D01*
X241000D01*
X242366Y118703D01*
X243523Y119477D01*
X250245Y126198D01*
X250333Y126147D01*
X252749Y125500D01*
X255251D01*
X257667Y126147D01*
X259833Y127398D01*
X261602Y129167D01*
X262853Y131333D01*
X263132Y132377D01*
X268309Y132377D01*
X268644Y131125D01*
X269966Y128835D01*
X271835Y126966D01*
X274125Y125644D01*
X275500Y125276D01*
Y135000D01*
Y144724D01*
X274125Y144356D01*
X271835Y143034D01*
X269966Y141165D01*
X268644Y138875D01*
X268309Y137623D01*
X263132Y137623D01*
X262853Y138667D01*
X261602Y140833D01*
X259833Y142602D01*
X257667Y143853D01*
X255251Y144500D01*
X252749D01*
X250333Y143853D01*
X248167Y142602D01*
X246398Y140833D01*
X245147Y138667D01*
X244500Y136251D01*
Y134219D01*
X244500Y134219D01*
X241407Y134912D01*
X239891Y135976D01*
X239382Y136690D01*
X238853Y138667D01*
X237602Y140833D01*
X235833Y142602D01*
X233667Y143853D01*
X231251Y144500D01*
X228749D01*
X226333Y143853D01*
X225475Y143357D01*
X222405Y147358D01*
X249478Y174431D01*
X377393D01*
X379667Y170197D01*
X378567Y167858D01*
X378477Y167702D01*
X378000Y165922D01*
Y164078D01*
X378477Y162298D01*
X379399Y160702D01*
X380702Y159399D01*
X382298Y158477D01*
X384078Y158000D01*
X385922D01*
X387702Y158477D01*
X389298Y159399D01*
X390601Y160702D01*
X391523Y162298D01*
X392000Y164078D01*
Y165922D01*
X391796Y166684D01*
X396023Y170912D01*
X396797Y172069D01*
X397069Y173435D01*
Y182521D01*
X396797Y183886D01*
X396023Y185044D01*
X392044Y189023D01*
X390886Y189797D01*
X389521Y190069D01*
X384798D01*
X383484Y192344D01*
X382968Y195069D01*
X383601Y195702D01*
X384523Y197298D01*
X385000Y199078D01*
Y200922D01*
X384523Y202702D01*
X383601Y204298D01*
X382298Y205601D01*
X380702Y206523D01*
X378922Y207000D01*
D02*
G37*
G36*
X280500Y144724D02*
Y137500D01*
X287724D01*
X287356Y138875D01*
X286034Y141165D01*
X284165Y143034D01*
X281875Y144356D01*
X280500Y144724D01*
D02*
G37*
G36*
X287724Y132500D02*
X280500D01*
Y125276D01*
X281875Y125644D01*
X284165Y126966D01*
X286034Y128835D01*
X287356Y131125D01*
X287724Y132500D01*
D02*
G37*
G36*
X349251Y135500D02*
X346749D01*
X344333Y134853D01*
X342167Y133602D01*
X340398Y131833D01*
X339147Y129667D01*
X338500Y127251D01*
Y124749D01*
X339147Y122333D01*
X340398Y120167D01*
X342167Y118398D01*
X344333Y117147D01*
X346749Y116500D01*
X349251D01*
X351667Y117147D01*
X353833Y118398D01*
X355602Y120167D01*
X356853Y122333D01*
X357500Y124749D01*
Y127251D01*
X356853Y129667D01*
X355602Y131833D01*
X353833Y133602D01*
X351667Y134853D01*
X349251Y135500D01*
D02*
G37*
G36*
X52425Y87000D02*
X47575D01*
X42766Y86367D01*
X38081Y85112D01*
X33600Y83256D01*
X29400Y80830D01*
X25552Y77878D01*
X22122Y74448D01*
X19170Y70600D01*
X16745Y66400D01*
X14888Y61919D01*
X13633Y57234D01*
X13000Y52425D01*
Y47575D01*
X13633Y42766D01*
X14888Y38081D01*
X16745Y33600D01*
X19170Y29400D01*
X22122Y25552D01*
X25552Y22122D01*
X29400Y19170D01*
X33600Y16745D01*
X38081Y14888D01*
X42766Y13633D01*
X47575Y13000D01*
X52425D01*
X57234Y13633D01*
X61919Y14888D01*
X66400Y16745D01*
X70600Y19170D01*
X74448Y22122D01*
X77878Y25552D01*
X80830Y29400D01*
X83256Y33600D01*
X85112Y38081D01*
X86367Y42766D01*
X87000Y47575D01*
Y52425D01*
X86367Y57234D01*
X85112Y61919D01*
X83256Y66400D01*
X80830Y70600D01*
X77878Y74448D01*
X74448Y77878D01*
X70600Y80830D01*
X66400Y83256D01*
X61919Y85112D01*
X57234Y86367D01*
X52425Y87000D01*
D02*
G37*
G36*
X762500Y765101D02*
X760500D01*
X758662Y764859D01*
X756950Y764149D01*
X755479Y763021D01*
X754351Y761550D01*
X753641Y759838D01*
X753399Y758000D01*
Y752500D01*
X762500D01*
Y765101D01*
D02*
G37*
G36*
X602500D02*
X600500D01*
X598662Y764859D01*
X596950Y764149D01*
X595479Y763021D01*
X594351Y761550D01*
X593641Y759838D01*
X593399Y758000D01*
Y752500D01*
X602500D01*
Y765101D01*
D02*
G37*
G36*
X442500D02*
X440500D01*
X438662Y764859D01*
X436950Y764149D01*
X435479Y763021D01*
X434351Y761550D01*
X433641Y759838D01*
X433399Y758000D01*
Y752500D01*
X442500D01*
Y765101D01*
D02*
G37*
G36*
X282500D02*
X280500D01*
X278662Y764859D01*
X276950Y764149D01*
X275479Y763021D01*
X274351Y761550D01*
X273641Y759838D01*
X273399Y758000D01*
Y752500D01*
X282500D01*
Y765101D01*
D02*
G37*
G36*
X122500D02*
X120500D01*
X118662Y764859D01*
X116950Y764149D01*
X115479Y763021D01*
X114351Y761550D01*
X113641Y759838D01*
X113399Y758000D01*
Y752500D01*
X122500D01*
Y765101D01*
D02*
G37*
G36*
X769500D02*
X767500D01*
Y750000D01*
Y734899D01*
X769500D01*
X771338Y735141D01*
X773050Y735851D01*
X774521Y736979D01*
X775649Y738450D01*
X775858Y738953D01*
X777276Y739578D01*
X779242Y739902D01*
X781343Y739713D01*
X782155Y738655D01*
X784453Y736891D01*
X787128Y735783D01*
X790000Y735405D01*
X792872Y735783D01*
X795547Y736891D01*
X797845Y738655D01*
X799609Y740953D01*
X799794Y741401D01*
X805206D01*
X805392Y740953D01*
X807155Y738655D01*
X809453Y736891D01*
X812128Y735783D01*
X815000Y735405D01*
X817872Y735783D01*
X820547Y736891D01*
X822845Y738655D01*
X824609Y740953D01*
X824794Y741401D01*
X830206D01*
X830392Y740953D01*
X832155Y738655D01*
X834453Y736891D01*
X837129Y735783D01*
X840000Y735405D01*
X842872Y735783D01*
X845547Y736891D01*
X847845Y738655D01*
X849609Y740953D01*
X849794Y741401D01*
X855206D01*
X855392Y740953D01*
X857155Y738655D01*
X859453Y736891D01*
X862129Y735783D01*
X865000Y735405D01*
X867872Y735783D01*
X870547Y736891D01*
X872845Y738655D01*
X874609Y740953D01*
X875717Y743628D01*
X876095Y746500D01*
Y753500D01*
X875717Y756372D01*
X874609Y759047D01*
X872845Y761345D01*
X870547Y763109D01*
X867872Y764217D01*
X865000Y764595D01*
X862129Y764217D01*
X859453Y763109D01*
X857155Y761345D01*
X855392Y759047D01*
X855206Y758599D01*
X849794D01*
X849609Y759047D01*
X847845Y761345D01*
X845547Y763109D01*
X842872Y764217D01*
X840000Y764595D01*
X837129Y764217D01*
X834453Y763109D01*
X832155Y761345D01*
X830392Y759047D01*
X830206Y758599D01*
X824794D01*
X824609Y759047D01*
X822845Y761345D01*
X820547Y763109D01*
X817872Y764217D01*
X815000Y764595D01*
X812128Y764217D01*
X809453Y763109D01*
X807155Y761345D01*
X805392Y759047D01*
X805206Y758599D01*
X799794D01*
X799609Y759047D01*
X797845Y761345D01*
X795547Y763109D01*
X792872Y764217D01*
X790000Y764595D01*
X787128Y764217D01*
X784453Y763109D01*
X782155Y761345D01*
X781343Y760287D01*
X779242Y760098D01*
X777276Y760422D01*
X775858Y761047D01*
X775649Y761550D01*
X774521Y763021D01*
X773050Y764149D01*
X771338Y764859D01*
X769500Y765101D01*
D02*
G37*
G36*
X609500D02*
X607500D01*
Y750000D01*
Y734899D01*
X609500D01*
X611338Y735141D01*
X613050Y735851D01*
X614521Y736979D01*
X615649Y738450D01*
X615858Y738953D01*
X617276Y739578D01*
X619242Y739902D01*
X621343Y739713D01*
X622155Y738655D01*
X624453Y736891D01*
X627128Y735783D01*
X630000Y735405D01*
X632872Y735783D01*
X635547Y736891D01*
X637845Y738655D01*
X639608Y740953D01*
X639794Y741401D01*
X645206D01*
X645391Y740953D01*
X647155Y738655D01*
X649453Y736891D01*
X652128Y735783D01*
X655000Y735405D01*
X657872Y735783D01*
X660547Y736891D01*
X662845Y738655D01*
X664609Y740953D01*
X664794Y741401D01*
X670206D01*
X670391Y740953D01*
X672155Y738655D01*
X674453Y736891D01*
X677128Y735783D01*
X680000Y735405D01*
X682872Y735783D01*
X685547Y736891D01*
X687845Y738655D01*
X689609Y740953D01*
X689794Y741401D01*
X695206D01*
X695391Y740953D01*
X697155Y738655D01*
X699453Y736891D01*
X702128Y735783D01*
X705000Y735405D01*
X707872Y735783D01*
X710547Y736891D01*
X712845Y738655D01*
X714609Y740953D01*
X715717Y743628D01*
X716095Y746500D01*
Y753500D01*
X715717Y756372D01*
X714609Y759047D01*
X712845Y761345D01*
X710547Y763109D01*
X707872Y764217D01*
X705000Y764595D01*
X702128Y764217D01*
X699453Y763109D01*
X697155Y761345D01*
X695391Y759047D01*
X695206Y758599D01*
X689794D01*
X689609Y759047D01*
X687845Y761345D01*
X685547Y763109D01*
X682872Y764217D01*
X680000Y764595D01*
X677128Y764217D01*
X674453Y763109D01*
X672155Y761345D01*
X670391Y759047D01*
X670206Y758599D01*
X664794D01*
X664609Y759047D01*
X662845Y761345D01*
X660547Y763109D01*
X657872Y764217D01*
X655000Y764595D01*
X652128Y764217D01*
X649453Y763109D01*
X647155Y761345D01*
X645391Y759047D01*
X645206Y758599D01*
X639794D01*
X639608Y759047D01*
X637845Y761345D01*
X635547Y763109D01*
X632872Y764217D01*
X630000Y764595D01*
X627128Y764217D01*
X624453Y763109D01*
X622155Y761345D01*
X621343Y760287D01*
X619242Y760098D01*
X617276Y760422D01*
X615858Y761047D01*
X615649Y761550D01*
X614521Y763021D01*
X613050Y764149D01*
X611338Y764859D01*
X609500Y765101D01*
D02*
G37*
G36*
X449500D02*
X447500D01*
Y750000D01*
Y734899D01*
X449500D01*
X451338Y735141D01*
X453050Y735851D01*
X454521Y736979D01*
X455649Y738450D01*
X455858Y738953D01*
X457276Y739578D01*
X459242Y739902D01*
X461343Y739713D01*
X462155Y738655D01*
X464453Y736891D01*
X467128Y735783D01*
X470000Y735405D01*
X472872Y735783D01*
X475547Y736891D01*
X477845Y738655D01*
X479608Y740953D01*
X479794Y741401D01*
X485206D01*
X485392Y740953D01*
X487155Y738655D01*
X489453Y736891D01*
X492128Y735783D01*
X495000Y735405D01*
X497872Y735783D01*
X500547Y736891D01*
X502845Y738655D01*
X504608Y740953D01*
X504794Y741401D01*
X510206D01*
X510392Y740953D01*
X512155Y738655D01*
X514453Y736891D01*
X517128Y735783D01*
X520000Y735405D01*
X522872Y735783D01*
X525547Y736891D01*
X527845Y738655D01*
X529608Y740953D01*
X529794Y741401D01*
X535206D01*
X535392Y740953D01*
X537155Y738655D01*
X539453Y736891D01*
X542128Y735783D01*
X545000Y735405D01*
X547872Y735783D01*
X550547Y736891D01*
X552845Y738655D01*
X554608Y740953D01*
X555717Y743628D01*
X556095Y746500D01*
Y753500D01*
X555717Y756372D01*
X554608Y759047D01*
X552845Y761345D01*
X550547Y763109D01*
X547872Y764217D01*
X545000Y764595D01*
X542128Y764217D01*
X539453Y763109D01*
X537155Y761345D01*
X535392Y759047D01*
X535206Y758599D01*
X529794D01*
X529608Y759047D01*
X527845Y761345D01*
X525547Y763109D01*
X522872Y764217D01*
X520000Y764595D01*
X517128Y764217D01*
X514453Y763109D01*
X512155Y761345D01*
X510392Y759047D01*
X510206Y758599D01*
X504794D01*
X504608Y759047D01*
X502845Y761345D01*
X500547Y763109D01*
X497872Y764217D01*
X495000Y764595D01*
X492128Y764217D01*
X489453Y763109D01*
X487155Y761345D01*
X485392Y759047D01*
X485206Y758599D01*
X479794D01*
X479608Y759047D01*
X477845Y761345D01*
X475547Y763109D01*
X472872Y764217D01*
X470000Y764595D01*
X467128Y764217D01*
X464453Y763109D01*
X462155Y761345D01*
X461343Y760287D01*
X459242Y760098D01*
X457276Y760422D01*
X455858Y761047D01*
X455649Y761550D01*
X454521Y763021D01*
X453050Y764149D01*
X451338Y764859D01*
X449500Y765101D01*
D02*
G37*
G36*
X289500D02*
X287500D01*
Y750000D01*
Y734899D01*
X289500D01*
X291338Y735141D01*
X293050Y735851D01*
X294521Y736979D01*
X295649Y738450D01*
X295858Y738953D01*
X297276Y739578D01*
X299242Y739902D01*
X301343Y739713D01*
X302155Y738655D01*
X304452Y736891D01*
X307128Y735783D01*
X310000Y735405D01*
X312872Y735783D01*
X315548Y736891D01*
X317845Y738655D01*
X319608Y740953D01*
X319794Y741401D01*
X325206D01*
X325392Y740953D01*
X327155Y738655D01*
X329453Y736891D01*
X332128Y735783D01*
X335000Y735405D01*
X337872Y735783D01*
X340547Y736891D01*
X342845Y738655D01*
X344608Y740953D01*
X344794Y741401D01*
X350206D01*
X350392Y740953D01*
X352155Y738655D01*
X354453Y736891D01*
X357128Y735783D01*
X360000Y735405D01*
X362872Y735783D01*
X365547Y736891D01*
X367845Y738655D01*
X369608Y740953D01*
X369794Y741401D01*
X375206D01*
X375392Y740953D01*
X377155Y738655D01*
X379453Y736891D01*
X382128Y735783D01*
X385000Y735405D01*
X387872Y735783D01*
X390547Y736891D01*
X392845Y738655D01*
X394608Y740953D01*
X395717Y743628D01*
X396095Y746500D01*
Y753500D01*
X395717Y756372D01*
X394608Y759047D01*
X392845Y761345D01*
X390547Y763109D01*
X387872Y764217D01*
X385000Y764595D01*
X382128Y764217D01*
X379453Y763109D01*
X377155Y761345D01*
X375392Y759047D01*
X375206Y758599D01*
X369794D01*
X369608Y759047D01*
X367845Y761345D01*
X365547Y763109D01*
X362872Y764217D01*
X360000Y764595D01*
X357128Y764217D01*
X354453Y763109D01*
X352155Y761345D01*
X350392Y759047D01*
X350206Y758599D01*
X344794D01*
X344608Y759047D01*
X342845Y761345D01*
X340547Y763109D01*
X337872Y764217D01*
X335000Y764595D01*
X332128Y764217D01*
X329453Y763109D01*
X327155Y761345D01*
X325392Y759047D01*
X325206Y758599D01*
X319794D01*
X319608Y759047D01*
X317845Y761345D01*
X315548Y763109D01*
X312872Y764217D01*
X310000Y764595D01*
X307128Y764217D01*
X304452Y763109D01*
X302155Y761345D01*
X301343Y760287D01*
X299242Y760098D01*
X297276Y760422D01*
X295858Y761047D01*
X295649Y761550D01*
X294521Y763021D01*
X293050Y764149D01*
X291338Y764859D01*
X289500Y765101D01*
D02*
G37*
G36*
X129500D02*
X127500D01*
Y750000D01*
Y734899D01*
X129500D01*
X131338Y735141D01*
X133050Y735851D01*
X134521Y736979D01*
X135649Y738450D01*
X135858Y738953D01*
X137276Y739578D01*
X139242Y739902D01*
X141343Y739713D01*
X142155Y738655D01*
X144452Y736891D01*
X147128Y735783D01*
X150000Y735405D01*
X152872Y735783D01*
X155548Y736891D01*
X157845Y738655D01*
X157942Y738781D01*
X162942Y737083D01*
Y557495D01*
X152510Y547063D01*
X150096Y547939D01*
X148009Y549632D01*
X148090Y550250D01*
Y557500D01*
X131500D01*
Y544410D01*
X142250D01*
X142868Y544491D01*
X144561Y542404D01*
X145437Y539990D01*
X130520Y525073D01*
X125500D01*
X122559Y524783D01*
X119732Y523925D01*
X117126Y522532D01*
X114842Y520658D01*
X112968Y518374D01*
X111575Y515768D01*
X110717Y512940D01*
X110427Y510000D01*
X110717Y507060D01*
X111575Y504232D01*
X112968Y501626D01*
X114842Y499342D01*
X117126Y497468D01*
X119732Y496075D01*
X122559Y495217D01*
X125500Y494927D01*
X132500D01*
X135441Y495217D01*
X138268Y496075D01*
X140874Y497468D01*
X143158Y499342D01*
X145032Y501626D01*
X146425Y504232D01*
X147283Y507060D01*
X147356Y507803D01*
X183526Y543974D01*
X183526Y543974D01*
X185026Y545801D01*
X186140Y547886D01*
X186826Y550148D01*
X187058Y552500D01*
X187058Y552500D01*
Y737083D01*
X192058Y738781D01*
X192155Y738655D01*
X194452Y736891D01*
X197128Y735783D01*
X200000Y735405D01*
X202872Y735783D01*
X205548Y736891D01*
X207845Y738655D01*
X209608Y740953D01*
X209794Y741401D01*
X215206D01*
X215392Y740953D01*
X217155Y738655D01*
X219452Y736891D01*
X222128Y735783D01*
X225000Y735405D01*
X227872Y735783D01*
X230548Y736891D01*
X232845Y738655D01*
X234608Y740953D01*
X235717Y743628D01*
X236095Y746500D01*
Y753500D01*
X235717Y756372D01*
X234608Y759047D01*
X232845Y761345D01*
X230548Y763109D01*
X227872Y764217D01*
X225000Y764595D01*
X222128Y764217D01*
X219452Y763109D01*
X217155Y761345D01*
X215392Y759047D01*
X215206Y758599D01*
X209794D01*
X209608Y759047D01*
X207845Y761345D01*
X205548Y763109D01*
X202872Y764217D01*
X200000Y764595D01*
X197128Y764217D01*
X194452Y763109D01*
X192155Y761345D01*
X190392Y759047D01*
X190206Y758599D01*
X184794D01*
X184608Y759047D01*
X182845Y761345D01*
X180548Y763109D01*
X177872Y764217D01*
X175000Y764595D01*
X172128Y764217D01*
X169452Y763109D01*
X167155Y761345D01*
X165392Y759047D01*
X165206Y758599D01*
X159794D01*
X159608Y759047D01*
X157845Y761345D01*
X155548Y763109D01*
X152872Y764217D01*
X150000Y764595D01*
X147128Y764217D01*
X144452Y763109D01*
X142155Y761345D01*
X141343Y760287D01*
X139242Y760098D01*
X137276Y760422D01*
X135858Y761047D01*
X135649Y761550D01*
X134521Y763021D01*
X133050Y764149D01*
X131338Y764859D01*
X129500Y765101D01*
D02*
G37*
G36*
X762500Y747500D02*
X753399D01*
Y742000D01*
X753641Y740162D01*
X754351Y738450D01*
X755479Y736979D01*
X756950Y735851D01*
X758662Y735141D01*
X760500Y734899D01*
X762500D01*
Y747500D01*
D02*
G37*
G36*
X602500D02*
X593399D01*
Y742000D01*
X593641Y740162D01*
X594351Y738450D01*
X595479Y736979D01*
X596950Y735851D01*
X598662Y735141D01*
X600500Y734899D01*
X602500D01*
Y747500D01*
D02*
G37*
G36*
X442500D02*
X433399D01*
Y742000D01*
X433641Y740162D01*
X434351Y738450D01*
X435479Y736979D01*
X436950Y735851D01*
X438662Y735141D01*
X440500Y734899D01*
X442500D01*
Y747500D01*
D02*
G37*
G36*
X282500D02*
X273399D01*
Y742000D01*
X273641Y740162D01*
X274351Y738450D01*
X275479Y736979D01*
X276950Y735851D01*
X278662Y735141D01*
X280500Y734899D01*
X282500D01*
Y747500D01*
D02*
G37*
G36*
X122500D02*
X113399D01*
Y742000D01*
X113641Y740162D01*
X114351Y738450D01*
X115479Y736979D01*
X116950Y735851D01*
X118662Y735141D01*
X120500Y734899D01*
X122500D01*
Y747500D01*
D02*
G37*
G36*
X52425Y787000D02*
X47575D01*
X42766Y786367D01*
X38081Y785112D01*
X33600Y783255D01*
X29400Y780830D01*
X25552Y777878D01*
X22122Y774448D01*
X19170Y770600D01*
X16745Y766400D01*
X14888Y761919D01*
X13633Y757234D01*
X13000Y752425D01*
Y747575D01*
X13633Y742766D01*
X14888Y738081D01*
X16745Y733600D01*
X19170Y729400D01*
X22122Y725552D01*
X25552Y722122D01*
X29400Y719170D01*
X33600Y716745D01*
X38081Y714888D01*
X42766Y713633D01*
X47575Y713000D01*
X52425D01*
X57234Y713633D01*
X61919Y714888D01*
X66400Y716745D01*
X70600Y719170D01*
X74448Y722122D01*
X77878Y725552D01*
X80830Y729400D01*
X83256Y733600D01*
X85112Y738081D01*
X86367Y742766D01*
X87000Y747575D01*
Y752425D01*
X86367Y757234D01*
X85112Y761919D01*
X83256Y766400D01*
X80830Y770600D01*
X77878Y774448D01*
X74448Y777878D01*
X70600Y780830D01*
X66400Y783255D01*
X61919Y785112D01*
X57234Y786367D01*
X52425Y787000D01*
D02*
G37*
G36*
X52500Y692786D02*
Y677900D01*
X67386D01*
X66866Y680516D01*
X65544Y683708D01*
X63624Y686581D01*
X61181Y689024D01*
X58308Y690944D01*
X55116Y692266D01*
X52500Y692786D01*
D02*
G37*
G36*
X47500Y692786D02*
X44884Y692266D01*
X41692Y690944D01*
X38819Y689024D01*
X36376Y686581D01*
X34456Y683708D01*
X33134Y680516D01*
X32614Y677900D01*
X47500D01*
Y692786D01*
D02*
G37*
G36*
Y672900D02*
X32614D01*
X33134Y670284D01*
X34456Y667092D01*
X36376Y664219D01*
X38819Y661776D01*
X41692Y659856D01*
X44884Y658534D01*
X47500Y658014D01*
Y672900D01*
D02*
G37*
G36*
X67386D02*
X52500D01*
Y658014D01*
X55116Y658534D01*
X58308Y659856D01*
X61181Y661776D01*
X63624Y664219D01*
X65544Y667092D01*
X66866Y670284D01*
X67386Y672900D01*
D02*
G37*
G36*
X952500Y650288D02*
Y640500D01*
X962288D01*
X962058Y641658D01*
X961113Y643940D01*
X959741Y645994D01*
X957994Y647740D01*
X955940Y649113D01*
X953658Y650058D01*
X952500Y650288D01*
D02*
G37*
G36*
X947500Y650288D02*
X946342Y650058D01*
X944060Y649113D01*
X942006Y647740D01*
X940259Y645994D01*
X938887Y643940D01*
X937942Y641658D01*
X937712Y640500D01*
X947500D01*
Y650288D01*
D02*
G37*
G36*
X962288Y635500D02*
X952500D01*
Y625712D01*
X953658Y625942D01*
X955940Y626887D01*
X957994Y628260D01*
X959741Y630006D01*
X961113Y632060D01*
X962058Y634342D01*
X962288Y635500D01*
D02*
G37*
G36*
X947500D02*
X937712D01*
X937942Y634342D01*
X938887Y632060D01*
X940259Y630006D01*
X942006Y628260D01*
X944060Y626887D01*
X946342Y625942D01*
X947500Y625712D01*
Y635500D01*
D02*
G37*
G36*
X51674Y641600D02*
X48326D01*
X45041Y640947D01*
X41947Y639665D01*
X39163Y637805D01*
X36795Y635437D01*
X34935Y632653D01*
X33653Y629559D01*
X33000Y626274D01*
Y622926D01*
X33653Y619641D01*
X34935Y616548D01*
X36795Y613763D01*
X39163Y611395D01*
X41947Y609535D01*
X45041Y608253D01*
X48326Y607600D01*
X51674D01*
X54959Y608253D01*
X58053Y609535D01*
X60837Y611395D01*
X63205Y613763D01*
X65065Y616548D01*
X66347Y619641D01*
X67000Y622926D01*
Y626274D01*
X66347Y629559D01*
X65065Y632653D01*
X63205Y635437D01*
X60837Y637805D01*
X58053Y639665D01*
X54959Y640947D01*
X51674Y641600D01*
D02*
G37*
G36*
X958000Y594101D02*
X952500D01*
Y585000D01*
X965101D01*
Y587000D01*
X964859Y588838D01*
X964149Y590550D01*
X963021Y592021D01*
X961550Y593149D01*
X959838Y593859D01*
X958000Y594101D01*
D02*
G37*
G36*
X947500D02*
X942000D01*
X940162Y593859D01*
X938450Y593149D01*
X936979Y592021D01*
X935851Y590550D01*
X935141Y588838D01*
X934899Y587000D01*
Y585000D01*
X947500D01*
Y594101D01*
D02*
G37*
G36*
X142250Y575590D02*
X131500D01*
Y562500D01*
X148090D01*
Y569750D01*
X147891Y571261D01*
X147308Y572670D01*
X146379Y573880D01*
X145170Y574808D01*
X143762Y575391D01*
X142250Y575590D01*
D02*
G37*
G36*
X126500D02*
X115750D01*
X114239Y575391D01*
X112830Y574808D01*
X111621Y573880D01*
X110692Y572670D01*
X110109Y571261D01*
X109910Y569750D01*
Y562500D01*
X126500D01*
Y575590D01*
D02*
G37*
G36*
Y557500D02*
X109910D01*
Y550250D01*
X110109Y548739D01*
X110692Y547330D01*
X111621Y546120D01*
X112830Y545192D01*
X114239Y544609D01*
X115750Y544410D01*
X126500D01*
Y557500D01*
D02*
G37*
G36*
X558500Y551677D02*
Y542900D01*
X567277D01*
X566754Y544854D01*
X565234Y547486D01*
X563086Y549634D01*
X560454Y551153D01*
X558500Y551677D01*
D02*
G37*
G36*
X553500D02*
X551546Y551153D01*
X548914Y549634D01*
X546766Y547486D01*
X545247Y544854D01*
X544723Y542900D01*
X553500D01*
Y551677D01*
D02*
G37*
G36*
X767500Y529077D02*
Y520300D01*
X776277D01*
X775753Y522254D01*
X774234Y524886D01*
X772086Y527034D01*
X769454Y528554D01*
X767500Y529077D01*
D02*
G37*
G36*
X762500D02*
X760546Y528554D01*
X757914Y527034D01*
X755766Y524886D01*
X754246Y522254D01*
X753723Y520300D01*
X762500D01*
Y529077D01*
D02*
G37*
G36*
X965101Y580000D02*
X950000D01*
X934899D01*
Y578000D01*
X935141Y576162D01*
X935851Y574450D01*
X936979Y572979D01*
X938450Y571851D01*
X938953Y571642D01*
X939578Y570224D01*
X939902Y568258D01*
X939713Y566157D01*
X938655Y565345D01*
X936891Y563047D01*
X935783Y560372D01*
X935405Y557500D01*
X935783Y554628D01*
X936891Y551953D01*
X938655Y549655D01*
X940953Y547892D01*
X941401Y547706D01*
Y542294D01*
X940953Y542108D01*
X938655Y540345D01*
X936891Y538047D01*
X935783Y535372D01*
X935405Y532500D01*
X935783Y529628D01*
X936891Y526953D01*
X938655Y524655D01*
X940953Y522892D01*
X941401Y522706D01*
Y517294D01*
X940953Y517108D01*
X938655Y515345D01*
X936891Y513047D01*
X935783Y510372D01*
X935405Y507500D01*
X935783Y504628D01*
X936891Y501953D01*
X938655Y499655D01*
X940953Y497892D01*
X941401Y497706D01*
Y492294D01*
X940953Y492108D01*
X938655Y490345D01*
X936891Y488047D01*
X935783Y485372D01*
X935405Y482500D01*
X935783Y479628D01*
X936891Y476953D01*
X938655Y474655D01*
X940953Y472892D01*
X943628Y471783D01*
X946500Y471405D01*
X953500D01*
X956372Y471783D01*
X959047Y472892D01*
X961345Y474655D01*
X963109Y476953D01*
X964217Y479628D01*
X964595Y482500D01*
X964217Y485372D01*
X963109Y488047D01*
X961345Y490345D01*
X959047Y492108D01*
X958599Y492294D01*
Y497706D01*
X959047Y497892D01*
X961345Y499655D01*
X963109Y501953D01*
X964217Y504628D01*
X964595Y507500D01*
X964217Y510372D01*
X963109Y513047D01*
X961345Y515345D01*
X959047Y517108D01*
X958599Y517294D01*
Y522706D01*
X959047Y522892D01*
X961345Y524655D01*
X963109Y526953D01*
X964217Y529628D01*
X964595Y532500D01*
X964217Y535372D01*
X963109Y538047D01*
X961345Y540345D01*
X959047Y542108D01*
X958599Y542294D01*
Y547706D01*
X959047Y547892D01*
X961345Y549655D01*
X963109Y551953D01*
X964217Y554628D01*
X964595Y557500D01*
X964217Y560372D01*
X963109Y563047D01*
X961345Y565345D01*
X960287Y566157D01*
X960098Y568258D01*
X960422Y570224D01*
X961047Y571642D01*
X961550Y571851D01*
X963021Y572979D01*
X964149Y574450D01*
X964859Y576162D01*
X965101Y578000D01*
Y580000D01*
D02*
G37*
G36*
X426500Y472277D02*
X424546Y471754D01*
X421914Y470234D01*
X419766Y468086D01*
X418246Y465454D01*
X417723Y463500D01*
X426500D01*
Y472277D01*
D02*
G37*
G36*
X155875Y467131D02*
X150500D01*
Y458500D01*
X160631D01*
Y462375D01*
X160269Y464195D01*
X159238Y465738D01*
X157695Y466769D01*
X155875Y467131D01*
D02*
G37*
G36*
X145500D02*
X140125D01*
X138305Y466769D01*
X136762Y465738D01*
X135731Y464195D01*
X135369Y462375D01*
Y458500D01*
X145500D01*
Y467131D01*
D02*
G37*
G36*
X567277Y537900D02*
X556000D01*
X544723D01*
X545247Y535946D01*
X546766Y533314D01*
X548914Y531166D01*
X550689Y530141D01*
X551232Y527649D01*
X550765Y524679D01*
X549246Y523802D01*
X547198Y521754D01*
X545750Y519246D01*
X545000Y516448D01*
Y513552D01*
X545750Y510754D01*
X547198Y508246D01*
X549246Y506198D01*
X551426Y504939D01*
X551754Y503199D01*
Y501401D01*
X551426Y499661D01*
X549246Y498402D01*
X547198Y496354D01*
X545750Y493846D01*
X545000Y491048D01*
Y488152D01*
X545750Y485354D01*
X547198Y482846D01*
X549246Y480798D01*
X550368Y480150D01*
X549868Y475623D01*
X549647Y474968D01*
X548222Y474378D01*
X546864Y473336D01*
X545822Y471978D01*
X545167Y470397D01*
X544944Y468700D01*
Y459700D01*
X545167Y458003D01*
X545822Y456422D01*
X546864Y455064D01*
X548222Y454022D01*
X549803Y453367D01*
X551500Y453144D01*
X560500D01*
X562197Y453367D01*
X563778Y454022D01*
X565136Y455064D01*
X566178Y456422D01*
X566833Y458003D01*
X567056Y459700D01*
Y468700D01*
X566833Y470397D01*
X566178Y471978D01*
X565136Y473336D01*
X563778Y474378D01*
X562353Y474968D01*
X562132Y475623D01*
X561632Y480150D01*
X562754Y480798D01*
X564802Y482846D01*
X566250Y485354D01*
X567000Y488152D01*
Y491048D01*
X566250Y493846D01*
X564802Y496354D01*
X562754Y498402D01*
X560574Y499661D01*
X560246Y501401D01*
Y503199D01*
X560574Y504939D01*
X562754Y506198D01*
X564802Y508246D01*
X566250Y510754D01*
X567000Y513552D01*
Y516448D01*
X566250Y519246D01*
X564802Y521754D01*
X562754Y523802D01*
X561235Y524679D01*
X560768Y527649D01*
X561311Y530141D01*
X563086Y531166D01*
X565234Y533314D01*
X566754Y535946D01*
X567277Y537900D01*
D02*
G37*
G36*
X431500Y472277D02*
Y461000D01*
Y449723D01*
X433454Y450246D01*
X436086Y451766D01*
X438234Y453914D01*
X439259Y455689D01*
X441751Y456232D01*
X444721Y455765D01*
X445598Y454246D01*
X447646Y452198D01*
X450154Y450750D01*
X452952Y450000D01*
X455848D01*
X458646Y450750D01*
X461154Y452198D01*
X463202Y454246D01*
X463850Y455368D01*
X468377Y454868D01*
X469032Y454647D01*
X469622Y453222D01*
X470664Y451864D01*
X472022Y450822D01*
X473603Y450167D01*
X475300Y449944D01*
X484300D01*
X485997Y450167D01*
X487578Y450822D01*
X488936Y451864D01*
X489978Y453222D01*
X490633Y454803D01*
X490856Y456500D01*
Y465500D01*
X490633Y467197D01*
X489978Y468778D01*
X488936Y470136D01*
X487578Y471178D01*
X485997Y471833D01*
X484300Y472056D01*
X475300D01*
X473603Y471833D01*
X472022Y471178D01*
X470664Y470136D01*
X469622Y468778D01*
X469032Y467353D01*
X468377Y467132D01*
X463850Y466632D01*
X463202Y467754D01*
X461154Y469802D01*
X458646Y471250D01*
X455848Y472000D01*
X452952D01*
X450154Y471250D01*
X447646Y469802D01*
X445598Y467754D01*
X444721Y466235D01*
X441751Y465768D01*
X439259Y466311D01*
X438234Y468086D01*
X436086Y470234D01*
X433454Y471754D01*
X431500Y472277D01*
D02*
G37*
G36*
X426500Y458500D02*
X417723D01*
X418246Y456546D01*
X419766Y453914D01*
X421914Y451766D01*
X424546Y450246D01*
X426500Y449723D01*
Y458500D01*
D02*
G37*
G36*
X958000Y434101D02*
X952500D01*
Y425000D01*
X965101D01*
Y427000D01*
X964859Y428838D01*
X964149Y430550D01*
X963021Y432021D01*
X961550Y433149D01*
X959838Y433859D01*
X958000Y434101D01*
D02*
G37*
G36*
X947500D02*
X942000D01*
X940162Y433859D01*
X938450Y433149D01*
X936979Y432021D01*
X935851Y430550D01*
X935141Y428838D01*
X934899Y427000D01*
Y425000D01*
X947500D01*
Y434101D01*
D02*
G37*
G36*
X160631Y453500D02*
X148000D01*
X135369D01*
Y449625D01*
X135731Y447805D01*
X136762Y446262D01*
X138305Y445231D01*
X140125Y444869D01*
X140444D01*
X141439Y439869D01*
X141205Y439772D01*
X139011Y438089D01*
X137328Y435895D01*
X136270Y433341D01*
X135909Y430600D01*
X136270Y427859D01*
X137328Y425305D01*
X139011Y423111D01*
X141205Y421428D01*
X143759Y420370D01*
X146500Y420009D01*
X149500D01*
X152241Y420370D01*
X154795Y421428D01*
X156989Y423111D01*
X158672Y425305D01*
X159730Y427859D01*
X160091Y430600D01*
X159730Y433341D01*
X158672Y435895D01*
X156989Y438089D01*
X154795Y439772D01*
X154561Y439869D01*
X155556Y444869D01*
X155875D01*
X157695Y445231D01*
X159238Y446262D01*
X160269Y447805D01*
X160631Y449625D01*
Y453500D01*
D02*
G37*
G36*
X85500Y406377D02*
Y397600D01*
X94277D01*
X93754Y399554D01*
X92234Y402186D01*
X90086Y404334D01*
X87454Y405854D01*
X85500Y406377D01*
D02*
G37*
G36*
X80500D02*
X78546Y405854D01*
X75914Y404334D01*
X73766Y402186D01*
X72246Y399554D01*
X71723Y397600D01*
X80500D01*
Y406377D01*
D02*
G37*
G36*
X26500Y432058D02*
X21500D01*
X19148Y431826D01*
X16886Y431140D01*
X14801Y430026D01*
X12974Y428526D01*
X11474Y426699D01*
X10360Y424614D01*
X9674Y422352D01*
X9442Y420000D01*
X9674Y417648D01*
X10360Y415386D01*
X11474Y413301D01*
X12974Y411474D01*
X14112Y410539D01*
X14444Y407474D01*
X14048Y404707D01*
X12590Y403510D01*
X11023Y401601D01*
X9858Y399422D01*
X9154Y397100D01*
X24000D01*
X38846D01*
X38142Y399422D01*
X36977Y401601D01*
X35410Y403510D01*
X33952Y404707D01*
X33556Y407474D01*
X33888Y410539D01*
X35026Y411474D01*
X36526Y413301D01*
X37640Y415386D01*
X38326Y417648D01*
X38558Y420000D01*
X38326Y422352D01*
X37640Y424614D01*
X36526Y426699D01*
X35026Y428526D01*
X33199Y430026D01*
X31114Y431140D01*
X28852Y431826D01*
X26500Y432058D01*
D02*
G37*
G36*
X94277Y392600D02*
X85500D01*
Y383823D01*
X87454Y384347D01*
X90086Y385866D01*
X92234Y388014D01*
X93754Y390646D01*
X94277Y392600D01*
D02*
G37*
G36*
X80500D02*
X71723D01*
X72246Y390646D01*
X73766Y388014D01*
X75914Y385866D01*
X78546Y384347D01*
X80500Y383823D01*
Y392600D01*
D02*
G37*
G36*
X38846Y392100D02*
X24000D01*
X9154D01*
X9858Y389778D01*
X11023Y387599D01*
X12590Y385690D01*
X14048Y384493D01*
X14444Y381726D01*
X14112Y378661D01*
X12974Y377726D01*
X11474Y375899D01*
X10360Y373814D01*
X9674Y371552D01*
X9442Y369200D01*
X9674Y366848D01*
X10360Y364586D01*
X11474Y362501D01*
X12974Y360674D01*
X14801Y359174D01*
X16886Y358060D01*
X19148Y357374D01*
X21500Y357142D01*
X26500D01*
X28852Y357374D01*
X31114Y358060D01*
X33199Y359174D01*
X35026Y360674D01*
X36526Y362501D01*
X37640Y364586D01*
X38326Y366848D01*
X38558Y369200D01*
X38326Y371552D01*
X37640Y373814D01*
X36526Y375899D01*
X35026Y377726D01*
X33888Y378661D01*
X33556Y381726D01*
X33952Y384493D01*
X35410Y385690D01*
X36977Y387599D01*
X38142Y389778D01*
X38846Y392100D01*
D02*
G37*
G36*
X965101Y420000D02*
X950000D01*
X934899D01*
Y418000D01*
X935141Y416162D01*
X935851Y414450D01*
X936979Y412979D01*
X938450Y411851D01*
X938953Y411642D01*
X939578Y410224D01*
X939902Y408258D01*
X939713Y406157D01*
X938655Y405345D01*
X936891Y403047D01*
X935783Y400372D01*
X935405Y397500D01*
X935783Y394628D01*
X936891Y391953D01*
X938655Y389655D01*
X940953Y387892D01*
X941401Y387706D01*
Y382294D01*
X940953Y382108D01*
X938655Y380345D01*
X936891Y378047D01*
X935783Y375372D01*
X935405Y372500D01*
X935783Y369628D01*
X936891Y366953D01*
X938655Y364655D01*
X940953Y362892D01*
X941401Y362706D01*
Y357294D01*
X940953Y357108D01*
X938655Y355345D01*
X936891Y353047D01*
X935783Y350372D01*
X935405Y347500D01*
X935783Y344628D01*
X936891Y341953D01*
X938655Y339655D01*
X940953Y337892D01*
X941401Y337706D01*
Y332294D01*
X940953Y332108D01*
X938655Y330345D01*
X936891Y328047D01*
X935783Y325372D01*
X935405Y322500D01*
X935783Y319628D01*
X936891Y316953D01*
X938655Y314655D01*
X940953Y312892D01*
X943628Y311783D01*
X946500Y311405D01*
X953500D01*
X956372Y311783D01*
X959047Y312892D01*
X961345Y314655D01*
X963109Y316953D01*
X964217Y319628D01*
X964595Y322500D01*
X964217Y325372D01*
X963109Y328047D01*
X961345Y330345D01*
X959047Y332108D01*
X958599Y332294D01*
Y337706D01*
X959047Y337892D01*
X961345Y339655D01*
X963109Y341953D01*
X964217Y344628D01*
X964595Y347500D01*
X964217Y350372D01*
X963109Y353047D01*
X961345Y355345D01*
X959047Y357108D01*
X958599Y357294D01*
Y362706D01*
X959047Y362892D01*
X961345Y364655D01*
X963109Y366953D01*
X964217Y369628D01*
X964595Y372500D01*
X964217Y375372D01*
X963109Y378047D01*
X961345Y380345D01*
X959047Y382108D01*
X958599Y382294D01*
Y387706D01*
X959047Y387892D01*
X961345Y389655D01*
X963109Y391953D01*
X964217Y394628D01*
X964595Y397500D01*
X964217Y400372D01*
X963109Y403047D01*
X961345Y405345D01*
X960287Y406157D01*
X960098Y408258D01*
X960422Y410224D01*
X961047Y411642D01*
X961550Y411851D01*
X963021Y412979D01*
X964149Y414450D01*
X964859Y416162D01*
X965101Y418000D01*
Y420000D01*
D02*
G37*
G36*
X958000Y274101D02*
X952500D01*
Y265000D01*
X965101D01*
Y267000D01*
X964859Y268838D01*
X964149Y270550D01*
X963021Y272021D01*
X961550Y273149D01*
X959838Y273859D01*
X958000Y274101D01*
D02*
G37*
G36*
X947500D02*
X942000D01*
X940162Y273859D01*
X938450Y273149D01*
X936979Y272021D01*
X935851Y270550D01*
X935141Y268838D01*
X934899Y267000D01*
Y265000D01*
X947500D01*
Y274101D01*
D02*
G37*
G36*
X776277Y515300D02*
X753723D01*
X754246Y513346D01*
X755766Y510714D01*
X757914Y508566D01*
X759689Y507541D01*
X760232Y505049D01*
X759765Y502079D01*
X758246Y501202D01*
X756198Y499154D01*
X754750Y496646D01*
X754000Y493848D01*
Y490952D01*
X754750Y488154D01*
X756198Y485646D01*
X758246Y483598D01*
X760426Y482339D01*
X760754Y480599D01*
Y478801D01*
X760426Y477061D01*
X758246Y475802D01*
X756198Y473754D01*
X754750Y471246D01*
X754000Y468448D01*
Y465552D01*
X754750Y462754D01*
X756198Y460246D01*
X758246Y458198D01*
X760426Y456939D01*
X760754Y455199D01*
Y453401D01*
X760426Y451661D01*
X758246Y450402D01*
X756198Y448354D01*
X754750Y445846D01*
X754000Y443048D01*
Y440152D01*
X754750Y437354D01*
X756198Y434846D01*
X758246Y432798D01*
X760426Y431539D01*
X760754Y429799D01*
Y428001D01*
X760426Y426261D01*
X758246Y425002D01*
X756198Y422954D01*
X754750Y420446D01*
X754000Y417648D01*
Y414752D01*
X754750Y411954D01*
X756198Y409446D01*
X758246Y407398D01*
X760426Y406139D01*
X760754Y404399D01*
Y402601D01*
X760426Y400861D01*
X758246Y399602D01*
X756198Y397554D01*
X754750Y395046D01*
X754000Y392248D01*
Y389352D01*
X754750Y386554D01*
X756198Y384046D01*
X758246Y381998D01*
X760426Y380739D01*
X760754Y378999D01*
Y377201D01*
X760426Y375461D01*
X758246Y374202D01*
X756198Y372154D01*
X754750Y369646D01*
X754000Y366848D01*
Y363952D01*
X754750Y361154D01*
X756198Y358646D01*
X758246Y356598D01*
X760426Y355339D01*
X760754Y353599D01*
Y351801D01*
X760426Y350061D01*
X758246Y348802D01*
X756198Y346754D01*
X754750Y344246D01*
X754000Y341448D01*
Y338552D01*
X754750Y335754D01*
X756198Y333246D01*
X758246Y331198D01*
X760426Y329939D01*
X760754Y328199D01*
Y326401D01*
X760426Y324661D01*
X758246Y323402D01*
X756198Y321354D01*
X754750Y318846D01*
X754000Y316048D01*
Y313152D01*
X754750Y310354D01*
X756198Y307846D01*
X758246Y305798D01*
X760426Y304539D01*
X760754Y302799D01*
Y301001D01*
X760426Y299261D01*
X758246Y298002D01*
X756198Y295954D01*
X754750Y293446D01*
X754000Y290648D01*
Y287752D01*
X754750Y284954D01*
X756198Y282446D01*
X758246Y280398D01*
X760426Y279139D01*
X760754Y277399D01*
Y275601D01*
X760426Y273861D01*
X758246Y272602D01*
X756198Y270554D01*
X754750Y268046D01*
X754000Y265248D01*
Y262352D01*
X754750Y259554D01*
X756198Y257046D01*
X758246Y254998D01*
X760426Y253739D01*
X760754Y251999D01*
Y250201D01*
X760426Y248461D01*
X758246Y247202D01*
X756198Y245154D01*
X754750Y242646D01*
X754000Y239848D01*
Y236952D01*
X754750Y234154D01*
X756198Y231646D01*
X758246Y229598D01*
X759765Y228721D01*
X760232Y225751D01*
X759689Y223259D01*
X757914Y222234D01*
X755766Y220086D01*
X754246Y217454D01*
X753723Y215500D01*
X776277D01*
X775753Y217454D01*
X774234Y220086D01*
X772086Y222234D01*
X770311Y223259D01*
X769768Y225751D01*
X770235Y228721D01*
X771754Y229598D01*
X773802Y231646D01*
X775250Y234154D01*
X776000Y236952D01*
Y239848D01*
X775250Y242646D01*
X773802Y245154D01*
X771754Y247202D01*
X769574Y248461D01*
X769246Y250201D01*
Y251999D01*
X769574Y253739D01*
X771754Y254998D01*
X773802Y257046D01*
X775250Y259554D01*
X776000Y262352D01*
Y265248D01*
X775250Y268046D01*
X773802Y270554D01*
X771754Y272602D01*
X769574Y273861D01*
X769246Y275601D01*
Y277399D01*
X769574Y279139D01*
X771754Y280398D01*
X773802Y282446D01*
X775250Y284954D01*
X776000Y287752D01*
Y290648D01*
X775250Y293446D01*
X773802Y295954D01*
X771754Y298002D01*
X769574Y299261D01*
X769246Y301001D01*
Y302799D01*
X769574Y304539D01*
X771754Y305798D01*
X773802Y307846D01*
X775250Y310354D01*
X776000Y313152D01*
Y316048D01*
X775250Y318846D01*
X773802Y321354D01*
X771754Y323402D01*
X769574Y324661D01*
X769246Y326401D01*
Y328199D01*
X769574Y329939D01*
X771754Y331198D01*
X773802Y333246D01*
X775250Y335754D01*
X776000Y338552D01*
Y341448D01*
X775250Y344246D01*
X773802Y346754D01*
X771754Y348802D01*
X769574Y350061D01*
X769246Y351801D01*
Y353599D01*
X769574Y355339D01*
X771754Y356598D01*
X773802Y358646D01*
X775250Y361154D01*
X776000Y363952D01*
Y366848D01*
X775250Y369646D01*
X773802Y372154D01*
X771754Y374202D01*
X769574Y375461D01*
X769246Y377201D01*
Y378999D01*
X769574Y380739D01*
X771754Y381998D01*
X773802Y384046D01*
X775250Y386554D01*
X776000Y389352D01*
Y392248D01*
X775250Y395046D01*
X773802Y397554D01*
X771754Y399602D01*
X769574Y400861D01*
X769246Y402601D01*
Y404399D01*
X769574Y406139D01*
X771754Y407398D01*
X773802Y409446D01*
X775250Y411954D01*
X776000Y414752D01*
Y417648D01*
X775250Y420446D01*
X773802Y422954D01*
X771754Y425002D01*
X769574Y426261D01*
X769246Y428001D01*
Y429799D01*
X769574Y431539D01*
X771754Y432798D01*
X773802Y434846D01*
X775250Y437354D01*
X776000Y440152D01*
Y443048D01*
X775250Y445846D01*
X773802Y448354D01*
X771754Y450402D01*
X769574Y451661D01*
X769246Y453401D01*
Y455199D01*
X769574Y456939D01*
X771754Y458198D01*
X773802Y460246D01*
X775250Y462754D01*
X776000Y465552D01*
Y468448D01*
X775250Y471246D01*
X773802Y473754D01*
X771754Y475802D01*
X769574Y477061D01*
X769246Y478801D01*
Y480599D01*
X769574Y482339D01*
X771754Y483598D01*
X773802Y485646D01*
X775250Y488154D01*
X776000Y490952D01*
Y493848D01*
X775250Y496646D01*
X773802Y499154D01*
X771754Y501202D01*
X770235Y502079D01*
X769768Y505049D01*
X770311Y507541D01*
X772086Y508566D01*
X774234Y510714D01*
X775753Y513346D01*
X776277Y515300D01*
D02*
G37*
G36*
Y210500D02*
X753723D01*
X754246Y208546D01*
X755766Y205914D01*
X757914Y203766D01*
X759689Y202741D01*
X760232Y200249D01*
X759765Y197279D01*
X758246Y196402D01*
X756198Y194354D01*
X754750Y191846D01*
X754000Y189048D01*
Y186152D01*
X754750Y183354D01*
X756198Y180846D01*
X758246Y178798D01*
X760754Y177350D01*
X763552Y176600D01*
X766448D01*
X769246Y177350D01*
X771754Y178798D01*
X773802Y180846D01*
X775250Y183354D01*
X776000Y186152D01*
Y189048D01*
X775250Y191846D01*
X773802Y194354D01*
X771754Y196402D01*
X770235Y197279D01*
X769768Y200249D01*
X770311Y202741D01*
X772086Y203766D01*
X774234Y205914D01*
X775753Y208546D01*
X776277Y210500D01*
D02*
G37*
G36*
X965101Y260000D02*
X950000D01*
X934899D01*
Y258000D01*
X935141Y256162D01*
X935851Y254450D01*
X936979Y252979D01*
X938450Y251851D01*
X938953Y251642D01*
X939578Y250224D01*
X939902Y248258D01*
X939713Y246157D01*
X938655Y245345D01*
X936891Y243047D01*
X935783Y240372D01*
X935405Y237500D01*
X935783Y234628D01*
X936891Y231952D01*
X938655Y229655D01*
X940953Y227892D01*
X941401Y227706D01*
Y222294D01*
X940953Y222108D01*
X938655Y220345D01*
X936891Y218047D01*
X935783Y215372D01*
X935405Y212500D01*
X935783Y209628D01*
X936891Y206952D01*
X938655Y204655D01*
X940953Y202892D01*
X941401Y202706D01*
Y197294D01*
X940953Y197108D01*
X938655Y195345D01*
X936891Y193047D01*
X935783Y190372D01*
X935405Y187500D01*
X935783Y184628D01*
X936891Y181952D01*
X938655Y179655D01*
X940953Y177892D01*
X941401Y177706D01*
Y172294D01*
X940953Y172108D01*
X938655Y170345D01*
X936891Y168047D01*
X935783Y165372D01*
X935405Y162500D01*
X935783Y159628D01*
X936891Y156952D01*
X938655Y154655D01*
X940953Y152892D01*
X943628Y151783D01*
X946500Y151405D01*
X953500D01*
X956372Y151783D01*
X959047Y152892D01*
X961345Y154655D01*
X963109Y156952D01*
X964217Y159628D01*
X964595Y162500D01*
X964217Y165372D01*
X963109Y168047D01*
X961345Y170345D01*
X959047Y172108D01*
X958599Y172294D01*
Y177706D01*
X959047Y177892D01*
X961345Y179655D01*
X963109Y181952D01*
X964217Y184628D01*
X964595Y187500D01*
X964217Y190372D01*
X963109Y193047D01*
X961345Y195345D01*
X959047Y197108D01*
X958599Y197294D01*
Y202706D01*
X959047Y202892D01*
X961345Y204655D01*
X963109Y206952D01*
X964217Y209628D01*
X964595Y212500D01*
X964217Y215372D01*
X963109Y218047D01*
X961345Y220345D01*
X959047Y222108D01*
X958599Y222294D01*
Y227706D01*
X959047Y227892D01*
X961345Y229655D01*
X963109Y231952D01*
X964217Y234628D01*
X964595Y237500D01*
X964217Y240372D01*
X963109Y243047D01*
X961345Y245345D01*
X960287Y246157D01*
X960098Y248258D01*
X960422Y250224D01*
X961047Y251642D01*
X961550Y251851D01*
X963021Y252979D01*
X964149Y254450D01*
X964859Y256162D01*
X965101Y258000D01*
Y260000D01*
D02*
G37*
G36*
X620816Y70000D02*
X618184D01*
X615640Y69318D01*
X613360Y68002D01*
X613259Y67901D01*
X610000Y66695D01*
X606741Y67901D01*
X606640Y68002D01*
X604360Y69318D01*
X601816Y70000D01*
X599184D01*
X596640Y69318D01*
X594360Y68002D01*
X592498Y66140D01*
X591181Y63860D01*
X590500Y61316D01*
Y58684D01*
X591181Y56140D01*
X592498Y53860D01*
X594360Y51998D01*
X596640Y50682D01*
X599184Y50000D01*
X601816D01*
X604360Y50682D01*
X606640Y51998D01*
X606741Y52099D01*
X610000Y53305D01*
X613259Y52099D01*
X613360Y51998D01*
X615640Y50682D01*
X618184Y50000D01*
X620816D01*
X623360Y50682D01*
X625640Y51998D01*
X627502Y53860D01*
X628819Y56140D01*
X629500Y58684D01*
Y61316D01*
X628819Y63860D01*
X627502Y66140D01*
X625640Y68002D01*
X623360Y69318D01*
X620816Y70000D01*
D02*
G37*
G36*
X755000Y64810D02*
X754487Y64743D01*
X751680Y63580D01*
X749270Y61730D01*
X747420Y59320D01*
X746257Y56513D01*
X745860Y53500D01*
Y52500D01*
X755000D01*
Y64810D01*
D02*
G37*
G36*
Y47500D02*
X745860D01*
Y46500D01*
X746257Y43487D01*
X747420Y40680D01*
X749270Y38270D01*
X751680Y36420D01*
X754487Y35257D01*
X755000Y35190D01*
Y47500D01*
D02*
G37*
G36*
X952425Y87000D02*
X947575D01*
X942766Y86367D01*
X938081Y85112D01*
X933600Y83256D01*
X929400Y80830D01*
X925552Y77878D01*
X922122Y74448D01*
X919170Y70600D01*
X916745Y66400D01*
X914888Y61919D01*
X913633Y57234D01*
X913000Y52425D01*
Y47575D01*
X913633Y42766D01*
X914888Y38081D01*
X916745Y33600D01*
X919170Y29400D01*
X922122Y25552D01*
X925552Y22122D01*
X929400Y19170D01*
X933600Y16745D01*
X938081Y14888D01*
X942766Y13633D01*
X947575Y13000D01*
X952425D01*
X957234Y13633D01*
X961919Y14888D01*
X966400Y16745D01*
X970600Y19170D01*
X974448Y22122D01*
X977878Y25552D01*
X980830Y29400D01*
X983255Y33600D01*
X985112Y38081D01*
X986367Y42766D01*
X987000Y47575D01*
Y52425D01*
X986367Y57234D01*
X985112Y61919D01*
X983255Y66400D01*
X980830Y70600D01*
X977878Y74448D01*
X974448Y77878D01*
X970600Y80830D01*
X966400Y83256D01*
X961919Y85112D01*
X957234Y86367D01*
X952425Y87000D01*
D02*
G37*
%LPD*%
D14*
X200000Y380000D02*
X268000Y312000D01*
X330000D01*
X190000Y380000D02*
X200000D01*
X351000Y291000D02*
X360000D01*
X330000Y312000D02*
X351000Y291000D01*
X360000D02*
X366480Y284520D01*
Y257520D02*
Y284520D01*
X389000Y215000D02*
Y235000D01*
X366480Y257520D02*
X389000Y235000D01*
Y215000D02*
X403000Y201000D01*
X430000D01*
X447000Y184000D01*
Y58500D02*
Y184000D01*
Y58500D02*
X497500Y8000D01*
X712000D01*
X728000Y24000D01*
Y59000D01*
X754000Y85000D01*
Y97000D01*
D98*
X375980Y267220D02*
Y348480D01*
X395250Y367750D01*
X456172Y420672D02*
X470500Y435000D01*
X484000D01*
X456172Y396706D02*
Y420672D01*
X744571Y173500D02*
X807500Y110571D01*
Y50000D02*
Y110571D01*
X411000Y210794D02*
X483206D01*
X524144Y169856D01*
X260000Y385000D02*
X285000Y410000D01*
X110000Y73000D02*
X193000D01*
X254000D01*
X193000D02*
Y94000D01*
X121000Y122000D02*
X241000D01*
X114000Y129000D02*
X121000Y122000D01*
X241000D02*
X254000Y135000D01*
X113000Y302000D02*
X324500D01*
X148500Y290500D02*
X325000D01*
X324500Y302000D02*
X325000Y302500D01*
X15000Y125213D02*
X145787Y256000D01*
X15000Y105000D02*
Y125213D01*
X205000Y135000D02*
X248000Y178000D01*
X385000D01*
X145000Y200000D02*
X365000D01*
X130000Y185000D02*
X145000Y200000D01*
X134500Y223500D02*
X370444D01*
X378310Y231367D01*
X63000Y159071D02*
X135929Y232000D01*
X356000D01*
X140858Y244000D02*
X356000D01*
X39000Y142142D02*
X140858Y244000D01*
X145787Y256000D02*
X356000D01*
X157500Y278500D02*
X356000D01*
X66000Y187000D02*
X157500Y278500D01*
X110000Y252000D02*
X148500Y290500D01*
X105000Y310000D02*
X113000Y302000D01*
X437703Y378237D02*
X456172Y396706D01*
X384071Y415000D02*
X420834Y378237D01*
X437703D01*
X448071Y373000D02*
X476000Y400929D01*
Y423000D01*
X395250Y367750D02*
X526750D01*
X527000Y368000D01*
X571000Y319000D02*
X600000Y290000D01*
Y175257D02*
Y290000D01*
X595000Y172929D02*
Y282000D01*
X571000Y306000D02*
X595000Y282000D01*
X552000Y280500D02*
X575000Y257500D01*
Y232500D02*
X585000Y242500D01*
X547000Y273000D02*
X575000Y245000D01*
X260000Y398000D02*
X261000D01*
X278000Y415000D01*
X285000Y410000D02*
X382000D01*
X419000Y373000D01*
X278000Y415000D02*
X384071D01*
X390000Y416142D02*
X420142Y386000D01*
X390000Y416142D02*
Y459000D01*
X356717Y492282D02*
X390000Y459000D01*
X396330Y443670D02*
X440000Y400000D01*
X396330Y443670D02*
Y459741D01*
X351071Y505000D02*
X396330Y459741D01*
X350000Y493000D02*
X350718Y492282D01*
X356717D01*
X339000Y444000D02*
X363000D01*
X377990Y458990D01*
X350000Y505000D02*
X351071D01*
X354000Y302435D02*
Y372000D01*
Y302435D02*
X354217Y302218D01*
X87000Y176000D02*
X134500Y223500D01*
X377021Y200000D02*
X378000D01*
X368521Y191500D02*
X377021Y200000D01*
X186385Y191500D02*
X368521D01*
X180000Y135000D02*
X231500Y186500D01*
X389521D02*
X393500Y182521D01*
X231500Y186500D02*
X389521D01*
X154885Y160000D02*
X186385Y191500D01*
X385065Y165000D02*
X393500Y173435D01*
X385000Y165000D02*
X385065D01*
X393500Y173435D02*
Y182521D01*
X420142Y386000D02*
X433445D01*
X434183Y386737D01*
X598700Y416200D02*
X612600D01*
X552000Y280500D02*
Y369500D01*
X598700Y416200D01*
X557000Y359071D02*
X588729Y390800D01*
X612600D01*
X562000Y357000D02*
X567530Y362530D01*
X609730D01*
X547000Y273000D02*
Y376000D01*
X562000Y290500D02*
Y357000D01*
X557000Y288429D02*
Y359071D01*
X547000Y376000D02*
X612600Y441600D01*
X557000Y288429D02*
X585000Y260429D01*
X562000Y290500D02*
X590000Y262500D01*
X585000Y242500D02*
Y260429D01*
X590000Y235000D02*
Y262500D01*
X595000Y172929D02*
X599429Y168500D01*
X575000Y220000D02*
X590000Y235000D01*
X600000Y175257D02*
X601757Y173500D01*
X744571D01*
X570000Y135000D02*
X707500D01*
X720000Y122500D01*
X570374Y147847D02*
X707112D01*
X719979Y134979D01*
X744975Y93475D02*
Y140025D01*
X740743Y168500D02*
X782500Y126743D01*
X733500Y107000D02*
Y139000D01*
X712500Y160000D02*
X733500Y139000D01*
X599429Y168500D02*
X740743D01*
X725000Y160000D02*
X744975Y140025D01*
X569702Y160601D02*
X570003Y160301D01*
X699699D01*
X700000Y160000D01*
X782500Y50000D02*
Y126743D01*
X547114Y110000D02*
X720000D01*
X539000Y118000D02*
X539114D01*
X547114Y110000D01*
X680000Y53500D02*
X733500Y107000D01*
X419000Y373000D02*
X448071D01*
X354000Y372000D02*
X379000Y397000D01*
X730000Y279000D02*
Y362000D01*
X638600Y187600D02*
X730000Y279000D01*
X612600Y187600D02*
X638600D01*
X134640Y36339D02*
X138661D01*
X140000Y35000D01*
X87000Y83979D02*
X134640Y36339D01*
X87000Y83979D02*
Y105000D01*
X98000Y85000D02*
X110000Y73000D01*
X680000Y50000D02*
Y53500D01*
X705000D02*
X744975Y93475D01*
X705000Y50000D02*
Y53500D01*
X609730Y362530D02*
X612600Y365400D01*
X46000Y187000D02*
X66000D01*
X39000Y105000D02*
Y142142D01*
X63000Y105000D02*
Y159071D01*
X87000Y105000D02*
Y176000D01*
D100*
X129000Y510000D02*
X132500D01*
X175000Y552500D01*
Y750000D01*
D101*
X50000Y50000D02*
D03*
X950000D02*
D03*
X50000Y750000D02*
D03*
X950000D02*
D03*
D102*
X83000Y395100D02*
D03*
X556000Y540400D02*
D03*
Y515000D02*
D03*
Y489600D02*
D03*
X454400Y461000D02*
D03*
X429000D02*
D03*
X612600Y492400D02*
D03*
Y467000D02*
D03*
Y441600D02*
D03*
Y416200D02*
D03*
Y390800D02*
D03*
Y365400D02*
D03*
Y340000D02*
D03*
Y314600D02*
D03*
Y289200D02*
D03*
Y263800D02*
D03*
Y238400D02*
D03*
Y213000D02*
D03*
Y187600D02*
D03*
X765000Y517800D02*
D03*
Y492400D02*
D03*
Y467000D02*
D03*
Y441600D02*
D03*
Y416200D02*
D03*
Y390800D02*
D03*
Y365400D02*
D03*
Y340000D02*
D03*
Y314600D02*
D03*
Y289200D02*
D03*
Y263800D02*
D03*
Y238400D02*
D03*
Y213000D02*
D03*
Y187600D02*
D03*
D103*
X24000Y420000D02*
D03*
Y394600D02*
D03*
Y369200D02*
D03*
D104*
X148000Y456000D02*
D03*
D105*
Y430600D02*
D03*
D106*
X129000Y560000D02*
D03*
D107*
Y510000D02*
D03*
D108*
X50000Y675400D02*
D03*
Y624600D02*
D03*
D109*
X950000Y638000D02*
D03*
Y688000D02*
D03*
D110*
X619500Y60000D02*
D03*
X600500D02*
D03*
D111*
X556000Y464200D02*
D03*
D112*
X479800Y461000D02*
D03*
X612600Y517800D02*
D03*
D113*
X130000Y185000D02*
D03*
X87000Y105000D02*
D03*
X180000Y135000D02*
D03*
X205000D02*
D03*
X254000D02*
D03*
X63000Y105000D02*
D03*
X154885Y160000D02*
D03*
X155000Y135000D02*
D03*
X278000D02*
D03*
X230000D02*
D03*
X348000Y126000D02*
D03*
X15000Y105000D02*
D03*
X39000D02*
D03*
D114*
X950000Y557500D02*
D03*
Y532500D02*
D03*
Y507500D02*
D03*
Y482500D02*
D03*
Y397500D02*
D03*
Y372500D02*
D03*
Y347500D02*
D03*
Y322500D02*
D03*
Y237500D02*
D03*
Y212500D02*
D03*
Y187500D02*
D03*
Y162500D02*
D03*
D115*
Y582500D02*
D03*
Y422500D02*
D03*
Y262500D02*
D03*
D116*
X857500Y50000D02*
D03*
X832500D02*
D03*
X807500D02*
D03*
X782500D02*
D03*
X757500D02*
D03*
X225000Y750000D02*
D03*
X200000D02*
D03*
X175000D02*
D03*
X150000D02*
D03*
X385000D02*
D03*
X360000D02*
D03*
X335000D02*
D03*
X310000D02*
D03*
X545000D02*
D03*
X520000D02*
D03*
X495000D02*
D03*
X470000D02*
D03*
X705000D02*
D03*
X680000D02*
D03*
X655000D02*
D03*
X630000D02*
D03*
X865000D02*
D03*
X840000D02*
D03*
X815000D02*
D03*
X790000D02*
D03*
X680000Y50000D02*
D03*
D117*
X882500D02*
D03*
X125000Y750000D02*
D03*
X285000D02*
D03*
X445000D02*
D03*
X605000D02*
D03*
X765000D02*
D03*
X705000Y50000D02*
D03*
D118*
X416000Y189000D02*
D03*
X260000Y385000D02*
D03*
X193000Y94000D02*
D03*
X220000Y267000D02*
D03*
X281000D02*
D03*
X199000Y363000D02*
D03*
X160000Y190000D02*
D03*
X232000Y212000D02*
D03*
X192500Y113500D02*
D03*
X130000Y10000D02*
D03*
X160000Y20000D02*
D03*
X210000D02*
D03*
X260000D02*
D03*
X310000D02*
D03*
X925000Y100000D02*
D03*
X900000Y50000D02*
D03*
X100000Y450000D02*
D03*
X750000Y350000D02*
D03*
Y450000D02*
D03*
X75000Y700000D02*
D03*
X200000Y450000D02*
D03*
X100000Y550000D02*
D03*
X525000Y200000D02*
D03*
X875000Y100000D02*
D03*
X650000Y350000D02*
D03*
X325000Y600000D02*
D03*
X550000Y50000D02*
D03*
X925000Y300000D02*
D03*
X725000Y500000D02*
D03*
X475000Y100000D02*
D03*
X750000Y550000D02*
D03*
X575000Y200000D02*
D03*
X950000Y450000D02*
D03*
X100000Y750000D02*
D03*
X800000Y350000D02*
D03*
X50000D02*
D03*
X625000Y200000D02*
D03*
X675000Y400000D02*
D03*
X750000Y250000D02*
D03*
X625000Y300000D02*
D03*
X650000Y250000D02*
D03*
X275000Y500000D02*
D03*
X250000Y550000D02*
D03*
X175000Y500000D02*
D03*
X500000Y50000D02*
D03*
X800000Y150000D02*
D03*
X250000Y750000D02*
D03*
X375000Y700000D02*
D03*
X975000Y100000D02*
D03*
X225000Y500000D02*
D03*
X650000Y50000D02*
D03*
X725000Y700000D02*
D03*
X675000Y300000D02*
D03*
X400000Y350000D02*
D03*
X50000Y250000D02*
D03*
X275000Y600000D02*
D03*
X725000Y200000D02*
D03*
X700000Y550000D02*
D03*
Y450000D02*
D03*
X75000Y600000D02*
D03*
X100000Y350000D02*
D03*
X475000Y600000D02*
D03*
X525000Y100000D02*
D03*
X50000Y550000D02*
D03*
X725000Y400000D02*
D03*
X50000Y650000D02*
D03*
X527000Y147000D02*
D03*
X325000Y290500D02*
D03*
Y302500D02*
D03*
X476000Y423000D02*
D03*
X527000Y368000D02*
D03*
X528000Y166750D02*
D03*
X571000Y319000D02*
D03*
Y306000D02*
D03*
X575000Y257500D02*
D03*
Y245000D02*
D03*
Y232500D02*
D03*
X260000Y398000D02*
D03*
X339000Y444000D02*
D03*
X350000Y505000D02*
D03*
X377990Y458990D02*
D03*
X350000Y493000D02*
D03*
X354217Y302218D02*
D03*
X356000Y278500D02*
D03*
X375980Y267220D02*
D03*
X378310Y231367D02*
D03*
X356000Y256000D02*
D03*
Y244000D02*
D03*
Y232000D02*
D03*
X378000Y200000D02*
D03*
X385000Y178000D02*
D03*
X365000Y200000D02*
D03*
X385000Y165000D02*
D03*
X395000Y367500D02*
D03*
X434183Y386737D02*
D03*
X420000Y400000D02*
D03*
X440000D02*
D03*
X575000Y220000D02*
D03*
X570000Y135000D02*
D03*
X725000Y160000D02*
D03*
X570374Y147847D02*
D03*
X569702Y160601D02*
D03*
X700000Y160000D02*
D03*
X712500D02*
D03*
X719979Y134979D02*
D03*
X720000Y122500D02*
D03*
Y110000D02*
D03*
X114000Y129000D02*
D03*
X549000Y402000D02*
D03*
X484000Y435000D02*
D03*
X436500Y321500D02*
D03*
Y261500D02*
D03*
X496500D02*
D03*
Y321500D02*
D03*
Y291500D02*
D03*
X466500Y261500D02*
D03*
X436500Y291500D02*
D03*
X466500Y321500D02*
D03*
Y291500D02*
D03*
X481500Y306500D02*
D03*
Y276500D02*
D03*
X451500Y306500D02*
D03*
Y276500D02*
D03*
X379000Y397000D02*
D03*
X411000Y210794D02*
D03*
X372000Y610000D02*
D03*
X730000Y362000D02*
D03*
X140000Y35000D02*
D03*
X98000Y85000D02*
D03*
X190000Y380000D02*
D03*
X200000D02*
D03*
X754000Y85000D02*
D03*
Y97000D02*
D03*
X105000Y310000D02*
D03*
X110000Y252000D02*
D03*
X46000Y187000D02*
D03*
X539000Y118000D02*
D03*
X861000Y182500D02*
D03*
Y145500D02*
D03*
X841000Y251750D02*
D03*
X861000Y342500D02*
D03*
Y305500D02*
D03*
X841000Y411750D02*
D03*
X861000Y502500D02*
D03*
Y465500D02*
D03*
X841000Y571750D02*
D03*
X845000Y661000D02*
D03*
X882000D02*
D03*
X776000Y641000D02*
D03*
X685000Y661000D02*
D03*
X722000D02*
D03*
X616000Y641000D02*
D03*
X525000Y661000D02*
D03*
X562000D02*
D03*
X456000Y641000D02*
D03*
X365000Y661000D02*
D03*
X402000D02*
D03*
X296000Y641000D02*
D03*
X254000Y73000D02*
D03*
X205000Y661000D02*
D03*
X242000D02*
D03*
X136000Y641000D02*
D03*
M02*
