G04*
G04 #@! TF.GenerationSoftware,Altium Limited,Altium Designer,23.11.1 (41)*
G04*
G04 Layer_Color=16711935*
%FSLAX44Y44*%
%MOMM*%
G71*
G04*
G04 #@! TF.SameCoordinates,B5B466BD-8AFB-453C-92D9-5A85533A3B07*
G04*
G04*
G04 #@! TF.FilePolarity,Negative*
G04*
G01*
G75*
%ADD80C,7.2032*%
%ADD81C,2.0032*%
%ADD82O,2.7032X2.2032*%
G04:AMPARAMS|DCode=83|XSize=1.9032mm|YSize=2.2032mm|CornerRadius=0.3141mm|HoleSize=0mm|Usage=FLASHONLY|Rotation=90.000|XOffset=0mm|YOffset=0mm|HoleType=Round|Shape=RoundedRectangle|*
%AMROUNDEDRECTD83*
21,1,1.9032,1.5750,0,0,90.0*
21,1,1.2750,2.2032,0,0,90.0*
1,1,0.6282,0.7875,0.6375*
1,1,0.6282,0.7875,-0.6375*
1,1,0.6282,-0.7875,-0.6375*
1,1,0.6282,-0.7875,0.6375*
%
%ADD83ROUNDEDRECTD83*%
%ADD84O,2.2032X1.9032*%
G04:AMPARAMS|DCode=85|XSize=2.8032mm|YSize=3.5032mm|CornerRadius=0.4266mm|HoleSize=0mm|Usage=FLASHONLY|Rotation=90.000|XOffset=0mm|YOffset=0mm|HoleType=Round|Shape=RoundedRectangle|*
%AMROUNDEDRECTD85*
21,1,2.8032,2.6500,0,0,90.0*
21,1,1.9500,3.5032,0,0,90.0*
1,1,0.8532,1.3250,0.9750*
1,1,0.8532,1.3250,-0.9750*
1,1,0.8532,-1.3250,-0.9750*
1,1,0.8532,-1.3250,0.9750*
%
%ADD85ROUNDEDRECTD85*%
%ADD86O,3.5032X2.8032*%
%ADD87C,3.2032*%
%ADD88C,2.2032*%
%ADD89C,1.8032*%
G04:AMPARAMS|DCode=90|XSize=2.0032mm|YSize=2.0032mm|CornerRadius=0.5516mm|HoleSize=0mm|Usage=FLASHONLY|Rotation=90.000|XOffset=0mm|YOffset=0mm|HoleType=Round|Shape=RoundedRectangle|*
%AMROUNDEDRECTD90*
21,1,2.0032,0.9000,0,0,90.0*
21,1,0.9000,2.0032,0,0,90.0*
1,1,1.1032,0.4500,0.4500*
1,1,1.1032,0.4500,-0.4500*
1,1,1.1032,-0.4500,-0.4500*
1,1,1.1032,-0.4500,0.4500*
%
%ADD90ROUNDEDRECTD90*%
G04:AMPARAMS|DCode=91|XSize=2.0032mm|YSize=2.0032mm|CornerRadius=0.5516mm|HoleSize=0mm|Usage=FLASHONLY|Rotation=180.000|XOffset=0mm|YOffset=0mm|HoleType=Round|Shape=RoundedRectangle|*
%AMROUNDEDRECTD91*
21,1,2.0032,0.9000,0,0,180.0*
21,1,0.9000,2.0032,0,0,180.0*
1,1,1.1032,-0.4500,0.4500*
1,1,1.1032,0.4500,0.4500*
1,1,1.1032,0.4500,-0.4500*
1,1,1.1032,-0.4500,-0.4500*
%
%ADD91ROUNDEDRECTD91*%
%ADD92C,1.7032*%
%ADD93O,2.7032X2.0032*%
G04:AMPARAMS|DCode=94|XSize=2.0032mm|YSize=2.7032mm|CornerRadius=0.5516mm|HoleSize=0mm|Usage=FLASHONLY|Rotation=270.000|XOffset=0mm|YOffset=0mm|HoleType=Round|Shape=RoundedRectangle|*
%AMROUNDEDRECTD94*
21,1,2.0032,1.6000,0,0,270.0*
21,1,0.9000,2.7032,0,0,270.0*
1,1,1.1032,-0.8000,-0.4500*
1,1,1.1032,-0.8000,0.4500*
1,1,1.1032,0.8000,0.4500*
1,1,1.1032,0.8000,-0.4500*
%
%ADD94ROUNDEDRECTD94*%
%ADD95O,2.0032X2.7032*%
G04:AMPARAMS|DCode=96|XSize=2.0032mm|YSize=2.7032mm|CornerRadius=0.5516mm|HoleSize=0mm|Usage=FLASHONLY|Rotation=180.000|XOffset=0mm|YOffset=0mm|HoleType=Round|Shape=RoundedRectangle|*
%AMROUNDEDRECTD96*
21,1,2.0032,1.6000,0,0,180.0*
21,1,0.9000,2.7032,0,0,180.0*
1,1,1.1032,-0.4500,0.8000*
1,1,1.1032,0.4500,0.8000*
1,1,1.1032,0.4500,-0.8000*
1,1,1.1032,-0.4500,-0.8000*
%
%ADD96ROUNDEDRECTD96*%
%ADD97C,1.2032*%
D80*
X50000Y50000D02*
D03*
X950000D02*
D03*
X50000Y750000D02*
D03*
X950000D02*
D03*
D81*
X83000Y395100D02*
D03*
X556000Y540400D02*
D03*
Y515000D02*
D03*
Y489600D02*
D03*
X454400Y461000D02*
D03*
X429000D02*
D03*
X612600Y492400D02*
D03*
Y467000D02*
D03*
Y441600D02*
D03*
Y416200D02*
D03*
Y390800D02*
D03*
Y365400D02*
D03*
Y340000D02*
D03*
Y314600D02*
D03*
Y289200D02*
D03*
Y263800D02*
D03*
Y238400D02*
D03*
Y213000D02*
D03*
Y187600D02*
D03*
X765000Y517800D02*
D03*
Y492400D02*
D03*
Y467000D02*
D03*
Y441600D02*
D03*
Y416200D02*
D03*
Y390800D02*
D03*
Y365400D02*
D03*
Y340000D02*
D03*
Y314600D02*
D03*
Y289200D02*
D03*
Y263800D02*
D03*
Y238400D02*
D03*
Y213000D02*
D03*
Y187600D02*
D03*
D82*
X24000Y420000D02*
D03*
Y394600D02*
D03*
Y369200D02*
D03*
D83*
X148000Y456000D02*
D03*
D84*
Y430600D02*
D03*
D85*
X129000Y560000D02*
D03*
D86*
Y510000D02*
D03*
D87*
X50000Y675400D02*
D03*
Y624600D02*
D03*
D88*
X950000Y638000D02*
D03*
Y688000D02*
D03*
D89*
X619500Y60000D02*
D03*
X600500D02*
D03*
D90*
X556000Y464200D02*
D03*
D91*
X479800Y461000D02*
D03*
X612600Y517800D02*
D03*
D92*
X130000Y185000D02*
D03*
X87000Y105000D02*
D03*
X180000Y135000D02*
D03*
X205000D02*
D03*
X254000D02*
D03*
X63000Y105000D02*
D03*
X154885Y160000D02*
D03*
X155000Y135000D02*
D03*
X278000D02*
D03*
X230000D02*
D03*
X348000Y126000D02*
D03*
X15000Y105000D02*
D03*
X39000D02*
D03*
D93*
X950000Y557500D02*
D03*
Y532500D02*
D03*
Y507500D02*
D03*
Y482500D02*
D03*
Y397500D02*
D03*
Y372500D02*
D03*
Y347500D02*
D03*
Y322500D02*
D03*
Y237500D02*
D03*
Y212500D02*
D03*
Y187500D02*
D03*
Y162500D02*
D03*
D94*
Y582500D02*
D03*
Y422500D02*
D03*
Y262500D02*
D03*
D95*
X857500Y50000D02*
D03*
X832500D02*
D03*
X807500D02*
D03*
X782500D02*
D03*
X757500D02*
D03*
X225000Y750000D02*
D03*
X200000D02*
D03*
X175000D02*
D03*
X150000D02*
D03*
X385000D02*
D03*
X360000D02*
D03*
X335000D02*
D03*
X310000D02*
D03*
X545000D02*
D03*
X520000D02*
D03*
X495000D02*
D03*
X470000D02*
D03*
X705000D02*
D03*
X680000D02*
D03*
X655000D02*
D03*
X630000D02*
D03*
X865000D02*
D03*
X840000D02*
D03*
X815000D02*
D03*
X790000D02*
D03*
X680000Y50000D02*
D03*
D96*
X882500D02*
D03*
X125000Y750000D02*
D03*
X285000D02*
D03*
X445000D02*
D03*
X605000D02*
D03*
X765000D02*
D03*
X705000Y50000D02*
D03*
D97*
X416000Y189000D02*
D03*
X260000Y385000D02*
D03*
X193000Y94000D02*
D03*
X220000Y267000D02*
D03*
X281000D02*
D03*
X199000Y363000D02*
D03*
X160000Y190000D02*
D03*
X232000Y212000D02*
D03*
X192500Y113500D02*
D03*
X130000Y10000D02*
D03*
X160000Y20000D02*
D03*
X210000D02*
D03*
X260000D02*
D03*
X310000D02*
D03*
X925000Y100000D02*
D03*
X900000Y50000D02*
D03*
X100000Y450000D02*
D03*
X750000Y350000D02*
D03*
Y450000D02*
D03*
X75000Y700000D02*
D03*
X200000Y450000D02*
D03*
X100000Y550000D02*
D03*
X525000Y200000D02*
D03*
X875000Y100000D02*
D03*
X650000Y350000D02*
D03*
X325000Y600000D02*
D03*
X550000Y50000D02*
D03*
X925000Y300000D02*
D03*
X725000Y500000D02*
D03*
X475000Y100000D02*
D03*
X750000Y550000D02*
D03*
X575000Y200000D02*
D03*
X950000Y450000D02*
D03*
X100000Y750000D02*
D03*
X800000Y350000D02*
D03*
X50000D02*
D03*
X625000Y200000D02*
D03*
X675000Y400000D02*
D03*
X750000Y250000D02*
D03*
X625000Y300000D02*
D03*
X650000Y250000D02*
D03*
X275000Y500000D02*
D03*
X250000Y550000D02*
D03*
X175000Y500000D02*
D03*
X500000Y50000D02*
D03*
X800000Y150000D02*
D03*
X250000Y750000D02*
D03*
X375000Y700000D02*
D03*
X975000Y100000D02*
D03*
X225000Y500000D02*
D03*
X650000Y50000D02*
D03*
X725000Y700000D02*
D03*
X675000Y300000D02*
D03*
X400000Y350000D02*
D03*
X50000Y250000D02*
D03*
X275000Y600000D02*
D03*
X725000Y200000D02*
D03*
X700000Y550000D02*
D03*
Y450000D02*
D03*
X75000Y600000D02*
D03*
X100000Y350000D02*
D03*
X475000Y600000D02*
D03*
X525000Y100000D02*
D03*
X50000Y550000D02*
D03*
X725000Y400000D02*
D03*
X50000Y650000D02*
D03*
X527000Y147000D02*
D03*
X325000Y290500D02*
D03*
Y302500D02*
D03*
X476000Y423000D02*
D03*
X527000Y368000D02*
D03*
X528000Y166750D02*
D03*
X571000Y319000D02*
D03*
Y306000D02*
D03*
X575000Y257500D02*
D03*
Y245000D02*
D03*
Y232500D02*
D03*
X260000Y398000D02*
D03*
X339000Y444000D02*
D03*
X350000Y505000D02*
D03*
X377990Y458990D02*
D03*
X350000Y493000D02*
D03*
X354217Y302218D02*
D03*
X356000Y278500D02*
D03*
X375980Y267220D02*
D03*
X378310Y231367D02*
D03*
X356000Y256000D02*
D03*
Y244000D02*
D03*
Y232000D02*
D03*
X378000Y200000D02*
D03*
X385000Y178000D02*
D03*
X365000Y200000D02*
D03*
X385000Y165000D02*
D03*
X395000Y367500D02*
D03*
X434183Y386737D02*
D03*
X420000Y400000D02*
D03*
X440000D02*
D03*
X575000Y220000D02*
D03*
X570000Y135000D02*
D03*
X725000Y160000D02*
D03*
X570374Y147847D02*
D03*
X569702Y160601D02*
D03*
X700000Y160000D02*
D03*
X712500D02*
D03*
X719979Y134979D02*
D03*
X720000Y122500D02*
D03*
Y110000D02*
D03*
X114000Y129000D02*
D03*
X549000Y402000D02*
D03*
X484000Y435000D02*
D03*
X436500Y321500D02*
D03*
Y261500D02*
D03*
X496500D02*
D03*
Y321500D02*
D03*
Y291500D02*
D03*
X466500Y261500D02*
D03*
X436500Y291500D02*
D03*
X466500Y321500D02*
D03*
Y291500D02*
D03*
X481500Y306500D02*
D03*
Y276500D02*
D03*
X451500Y306500D02*
D03*
Y276500D02*
D03*
X379000Y397000D02*
D03*
X411000Y210794D02*
D03*
X372000Y610000D02*
D03*
X730000Y362000D02*
D03*
X140000Y35000D02*
D03*
X98000Y85000D02*
D03*
X190000Y380000D02*
D03*
X200000D02*
D03*
X754000Y85000D02*
D03*
Y97000D02*
D03*
X105000Y310000D02*
D03*
X110000Y252000D02*
D03*
X46000Y187000D02*
D03*
X539000Y118000D02*
D03*
X861000Y182500D02*
D03*
Y145500D02*
D03*
X841000Y251750D02*
D03*
X861000Y342500D02*
D03*
Y305500D02*
D03*
X841000Y411750D02*
D03*
X861000Y502500D02*
D03*
Y465500D02*
D03*
X841000Y571750D02*
D03*
X845000Y661000D02*
D03*
X882000D02*
D03*
X776000Y641000D02*
D03*
X685000Y661000D02*
D03*
X722000D02*
D03*
X616000Y641000D02*
D03*
X525000Y661000D02*
D03*
X562000D02*
D03*
X456000Y641000D02*
D03*
X365000Y661000D02*
D03*
X402000D02*
D03*
X296000Y641000D02*
D03*
X254000Y73000D02*
D03*
X205000Y661000D02*
D03*
X242000D02*
D03*
X136000Y641000D02*
D03*
M02*
