G04*
G04 #@! TF.GenerationSoftware,Altium Limited,Altium Designer,23.11.1 (41)*
G04*
G04 Layer_Color=8421504*
%FSLAX44Y44*%
%MOMM*%
G71*
G04*
G04 #@! TF.SameCoordinates,B5B466BD-8AFB-453C-92D9-5A85533A3B07*
G04*
G04*
G04 #@! TF.FilePolarity,Positive*
G04*
G01*
G75*
G04:AMPARAMS|DCode=39|XSize=0.3mm|YSize=1.5mm|CornerRadius=0.075mm|HoleSize=0mm|Usage=FLASHONLY|Rotation=0.000|XOffset=0mm|YOffset=0mm|HoleType=Round|Shape=RoundedRectangle|*
%AMROUNDEDRECTD39*
21,1,0.3000,1.3500,0,0,0.0*
21,1,0.1500,1.5000,0,0,0.0*
1,1,0.1500,0.0750,-0.6750*
1,1,0.1500,-0.0750,-0.6750*
1,1,0.1500,-0.0750,0.6750*
1,1,0.1500,0.0750,0.6750*
%
%ADD39ROUNDEDRECTD39*%
G04:AMPARAMS|DCode=40|XSize=2mm|YSize=2mm|CornerRadius=0.5mm|HoleSize=0mm|Usage=FLASHONLY|Rotation=180.000|XOffset=0mm|YOffset=0mm|HoleType=Round|Shape=RoundedRectangle|*
%AMROUNDEDRECTD40*
21,1,2.0000,1.0000,0,0,180.0*
21,1,1.0000,2.0000,0,0,180.0*
1,1,1.0000,-0.5000,0.5000*
1,1,1.0000,0.5000,0.5000*
1,1,1.0000,0.5000,-0.5000*
1,1,1.0000,-0.5000,-0.5000*
%
%ADD40ROUNDEDRECTD40*%
G04:AMPARAMS|DCode=41|XSize=1.05mm|YSize=1.6mm|CornerRadius=0.2625mm|HoleSize=0mm|Usage=FLASHONLY|Rotation=90.000|XOffset=0mm|YOffset=0mm|HoleType=Round|Shape=RoundedRectangle|*
%AMROUNDEDRECTD41*
21,1,1.0500,1.0750,0,0,90.0*
21,1,0.5250,1.6000,0,0,90.0*
1,1,0.5250,0.5375,0.2625*
1,1,0.5250,0.5375,-0.2625*
1,1,0.5250,-0.5375,-0.2625*
1,1,0.5250,-0.5375,0.2625*
%
%ADD41ROUNDEDRECTD41*%
G04:AMPARAMS|DCode=42|XSize=1mm|YSize=1mm|CornerRadius=0.25mm|HoleSize=0mm|Usage=FLASHONLY|Rotation=180.000|XOffset=0mm|YOffset=0mm|HoleType=Round|Shape=RoundedRectangle|*
%AMROUNDEDRECTD42*
21,1,1.0000,0.5000,0,0,180.0*
21,1,0.5000,1.0000,0,0,180.0*
1,1,0.5000,-0.2500,0.2500*
1,1,0.5000,0.2500,0.2500*
1,1,0.5000,0.2500,-0.2500*
1,1,0.5000,-0.2500,-0.2500*
%
%ADD42ROUNDEDRECTD42*%
G04:AMPARAMS|DCode=43|XSize=1.05mm|YSize=1.6mm|CornerRadius=0.2625mm|HoleSize=0mm|Usage=FLASHONLY|Rotation=0.000|XOffset=0mm|YOffset=0mm|HoleType=Round|Shape=RoundedRectangle|*
%AMROUNDEDRECTD43*
21,1,1.0500,1.0750,0,0,0.0*
21,1,0.5250,1.6000,0,0,0.0*
1,1,0.5250,0.2625,-0.5375*
1,1,0.5250,-0.2625,-0.5375*
1,1,0.5250,-0.2625,0.5375*
1,1,0.5250,0.2625,0.5375*
%
%ADD43ROUNDEDRECTD43*%
G04:AMPARAMS|DCode=44|XSize=1.6mm|YSize=0.65mm|CornerRadius=0.0813mm|HoleSize=0mm|Usage=FLASHONLY|Rotation=0.000|XOffset=0mm|YOffset=0mm|HoleType=Round|Shape=RoundedRectangle|*
%AMROUNDEDRECTD44*
21,1,1.6000,0.4875,0,0,0.0*
21,1,1.4375,0.6500,0,0,0.0*
1,1,0.1625,0.7188,-0.2438*
1,1,0.1625,-0.7188,-0.2438*
1,1,0.1625,-0.7188,0.2438*
1,1,0.1625,0.7188,0.2438*
%
%ADD44ROUNDEDRECTD44*%
%ADD45O,1.5000X4.5000*%
G04:AMPARAMS|DCode=46|XSize=0.95mm|YSize=2mm|CornerRadius=0.2375mm|HoleSize=0mm|Usage=FLASHONLY|Rotation=180.000|XOffset=0mm|YOffset=0mm|HoleType=Round|Shape=RoundedRectangle|*
%AMROUNDEDRECTD46*
21,1,0.9500,1.5250,0,0,180.0*
21,1,0.4750,2.0000,0,0,180.0*
1,1,0.4750,-0.2375,0.7625*
1,1,0.4750,0.2375,0.7625*
1,1,0.4750,0.2375,-0.7625*
1,1,0.4750,-0.2375,-0.7625*
%
%ADD46ROUNDEDRECTD46*%
G04:AMPARAMS|DCode=47|XSize=3.5mm|YSize=1.8mm|CornerRadius=0.45mm|HoleSize=0mm|Usage=FLASHONLY|Rotation=180.000|XOffset=0mm|YOffset=0mm|HoleType=Round|Shape=RoundedRectangle|*
%AMROUNDEDRECTD47*
21,1,3.5000,0.9000,0,0,180.0*
21,1,2.6000,1.8000,0,0,180.0*
1,1,0.9000,-1.3000,0.4500*
1,1,0.9000,1.3000,0.4500*
1,1,0.9000,1.3000,-0.4500*
1,1,0.9000,-1.3000,-0.4500*
%
%ADD47ROUNDEDRECTD47*%
G04:AMPARAMS|DCode=48|XSize=2mm|YSize=2mm|CornerRadius=0.5mm|HoleSize=0mm|Usage=FLASHONLY|Rotation=90.000|XOffset=0mm|YOffset=0mm|HoleType=Round|Shape=RoundedRectangle|*
%AMROUNDEDRECTD48*
21,1,2.0000,1.0000,0,0,90.0*
21,1,1.0000,2.0000,0,0,90.0*
1,1,1.0000,0.5000,0.5000*
1,1,1.0000,0.5000,-0.5000*
1,1,1.0000,-0.5000,-0.5000*
1,1,1.0000,-0.5000,0.5000*
%
%ADD48ROUNDEDRECTD48*%
G04:AMPARAMS|DCode=49|XSize=1.6mm|YSize=1mm|CornerRadius=0.25mm|HoleSize=0mm|Usage=FLASHONLY|Rotation=270.000|XOffset=0mm|YOffset=0mm|HoleType=Round|Shape=RoundedRectangle|*
%AMROUNDEDRECTD49*
21,1,1.6000,0.5000,0,0,270.0*
21,1,1.1000,1.0000,0,0,270.0*
1,1,0.5000,-0.2500,-0.5500*
1,1,0.5000,-0.2500,0.5500*
1,1,0.5000,0.2500,0.5500*
1,1,0.5000,0.2500,-0.5500*
%
%ADD49ROUNDEDRECTD49*%
G04:AMPARAMS|DCode=50|XSize=1.6mm|YSize=1mm|CornerRadius=0.25mm|HoleSize=0mm|Usage=FLASHONLY|Rotation=180.000|XOffset=0mm|YOffset=0mm|HoleType=Round|Shape=RoundedRectangle|*
%AMROUNDEDRECTD50*
21,1,1.6000,0.5000,0,0,180.0*
21,1,1.1000,1.0000,0,0,180.0*
1,1,0.5000,-0.5500,0.2500*
1,1,0.5000,0.5500,0.2500*
1,1,0.5000,0.5500,-0.2500*
1,1,0.5000,-0.5500,-0.2500*
%
%ADD50ROUNDEDRECTD50*%
G04:AMPARAMS|DCode=51|XSize=2mm|YSize=3.2mm|CornerRadius=0.5mm|HoleSize=0mm|Usage=FLASHONLY|Rotation=90.000|XOffset=0mm|YOffset=0mm|HoleType=Round|Shape=RoundedRectangle|*
%AMROUNDEDRECTD51*
21,1,2.0000,2.2000,0,0,90.0*
21,1,1.0000,3.2000,0,0,90.0*
1,1,1.0000,1.1000,0.5000*
1,1,1.0000,1.1000,-0.5000*
1,1,1.0000,-1.1000,-0.5000*
1,1,1.0000,-1.1000,0.5000*
%
%ADD51ROUNDEDRECTD51*%
G04:AMPARAMS|DCode=52|XSize=1.3mm|YSize=1.7mm|CornerRadius=0.325mm|HoleSize=0mm|Usage=FLASHONLY|Rotation=270.000|XOffset=0mm|YOffset=0mm|HoleType=Round|Shape=RoundedRectangle|*
%AMROUNDEDRECTD52*
21,1,1.3000,1.0500,0,0,270.0*
21,1,0.6500,1.7000,0,0,270.0*
1,1,0.6500,-0.5250,-0.3250*
1,1,0.6500,-0.5250,0.3250*
1,1,0.6500,0.5250,0.3250*
1,1,0.6500,0.5250,-0.3250*
%
%ADD52ROUNDEDRECTD52*%
G04:AMPARAMS|DCode=53|XSize=1.3mm|YSize=1.7mm|CornerRadius=0.325mm|HoleSize=0mm|Usage=FLASHONLY|Rotation=180.000|XOffset=0mm|YOffset=0mm|HoleType=Round|Shape=RoundedRectangle|*
%AMROUNDEDRECTD53*
21,1,1.3000,1.0500,0,0,180.0*
21,1,0.6500,1.7000,0,0,180.0*
1,1,0.6500,-0.3250,0.5250*
1,1,0.6500,0.3250,0.5250*
1,1,0.6500,0.3250,-0.5250*
1,1,0.6500,-0.3250,-0.5250*
%
%ADD53ROUNDEDRECTD53*%
G04:AMPARAMS|DCode=54|XSize=1mm|YSize=1mm|CornerRadius=0.25mm|HoleSize=0mm|Usage=FLASHONLY|Rotation=90.000|XOffset=0mm|YOffset=0mm|HoleType=Round|Shape=RoundedRectangle|*
%AMROUNDEDRECTD54*
21,1,1.0000,0.5000,0,0,90.0*
21,1,0.5000,1.0000,0,0,90.0*
1,1,0.5000,0.2500,0.2500*
1,1,0.5000,0.2500,-0.2500*
1,1,0.5000,-0.2500,-0.2500*
1,1,0.5000,-0.2500,0.2500*
%
%ADD54ROUNDEDRECTD54*%
G04:AMPARAMS|DCode=55|XSize=2.5mm|YSize=5mm|CornerRadius=0.625mm|HoleSize=0mm|Usage=FLASHONLY|Rotation=270.000|XOffset=0mm|YOffset=0mm|HoleType=Round|Shape=RoundedRectangle|*
%AMROUNDEDRECTD55*
21,1,2.5000,3.7500,0,0,270.0*
21,1,1.2500,5.0000,0,0,270.0*
1,1,1.2500,-1.8750,-0.6250*
1,1,1.2500,-1.8750,0.6250*
1,1,1.2500,1.8750,0.6250*
1,1,1.2500,1.8750,-0.6250*
%
%ADD55ROUNDEDRECTD55*%
%ADD56O,5.0000X2.5000*%
%ADD57O,0.3000X2.8000*%
%ADD58O,2.8000X0.3000*%
D39*
X291000Y52650D02*
D03*
X326000D02*
D03*
X321000D02*
D03*
X316000D02*
D03*
X311000D02*
D03*
X306000D02*
D03*
X301000D02*
D03*
X296000D02*
D03*
X286000D02*
D03*
X281000D02*
D03*
X276000D02*
D03*
X271000D02*
D03*
X266000D02*
D03*
X261000D02*
D03*
X256000D02*
D03*
X251000D02*
D03*
X246000D02*
D03*
X241000D02*
D03*
X236000D02*
D03*
X231000D02*
D03*
X226000D02*
D03*
X221000D02*
D03*
X216000D02*
D03*
X211000D02*
D03*
X206000D02*
D03*
X201000D02*
D03*
X196000D02*
D03*
X191000D02*
D03*
X186000D02*
D03*
X181000D02*
D03*
X176000D02*
D03*
X171000D02*
D03*
X166000D02*
D03*
X161000D02*
D03*
X156000D02*
D03*
X151000D02*
D03*
X146000D02*
D03*
X141000D02*
D03*
X136000D02*
D03*
X131000D02*
D03*
D40*
X347000Y27500D02*
D03*
X110000D02*
D03*
D41*
X857000Y116500D02*
D03*
Y97000D02*
D03*
X832000Y116750D02*
D03*
Y97250D02*
D03*
X416000Y12000D02*
D03*
Y31500D02*
D03*
X441000Y12500D02*
D03*
Y32000D02*
D03*
X391000Y50500D02*
D03*
Y70000D02*
D03*
X416000Y50500D02*
D03*
Y70000D02*
D03*
X441000Y51000D02*
D03*
Y70500D02*
D03*
X348000Y147500D02*
D03*
Y167000D02*
D03*
X338000Y397500D02*
D03*
Y417000D02*
D03*
X313000Y397500D02*
D03*
Y417000D02*
D03*
X300000Y242000D02*
D03*
Y222500D02*
D03*
X331000Y212500D02*
D03*
Y193000D02*
D03*
X300000Y280500D02*
D03*
Y261000D02*
D03*
Y343000D02*
D03*
Y323500D02*
D03*
X366000Y104500D02*
D03*
Y85000D02*
D03*
X341000Y104500D02*
D03*
Y85000D02*
D03*
X316000Y104500D02*
D03*
Y85000D02*
D03*
X291000Y84998D02*
D03*
Y104498D02*
D03*
X266000Y84998D02*
D03*
Y104498D02*
D03*
X241000Y84998D02*
D03*
Y104498D02*
D03*
X205000Y84998D02*
D03*
Y104498D02*
D03*
X180000Y84998D02*
D03*
Y104498D02*
D03*
X139000Y84998D02*
D03*
Y104498D02*
D03*
X114000Y84998D02*
D03*
Y104498D02*
D03*
X114000Y143500D02*
D03*
Y163000D02*
D03*
Y209500D02*
D03*
Y229000D02*
D03*
Y275500D02*
D03*
Y295000D02*
D03*
X122000Y388500D02*
D03*
Y369000D02*
D03*
X173000Y377500D02*
D03*
Y397000D02*
D03*
X776000Y680500D02*
D03*
Y700000D02*
D03*
X616000Y680500D02*
D03*
Y700000D02*
D03*
X456000Y680500D02*
D03*
Y700000D02*
D03*
X296000Y680500D02*
D03*
Y700000D02*
D03*
X136000Y680500D02*
D03*
Y700000D02*
D03*
X750000Y680500D02*
D03*
Y700000D02*
D03*
X590000Y680500D02*
D03*
Y700000D02*
D03*
X430000Y680500D02*
D03*
Y700000D02*
D03*
X270000Y680500D02*
D03*
Y700000D02*
D03*
X110000Y680500D02*
D03*
Y700000D02*
D03*
Y626000D02*
D03*
Y645500D02*
D03*
X162015Y645498D02*
D03*
Y625998D02*
D03*
X187010Y645498D02*
D03*
Y625998D02*
D03*
X211975Y626002D02*
D03*
Y645502D02*
D03*
X236970Y626002D02*
D03*
Y645502D02*
D03*
X270000Y626000D02*
D03*
Y645500D02*
D03*
X322015Y645498D02*
D03*
Y625998D02*
D03*
X347010Y645498D02*
D03*
Y625998D02*
D03*
X371975Y626002D02*
D03*
Y645502D02*
D03*
X396970Y626002D02*
D03*
Y645502D02*
D03*
X430000Y626000D02*
D03*
Y645500D02*
D03*
X482015Y645498D02*
D03*
Y625998D02*
D03*
X507010Y645498D02*
D03*
Y625998D02*
D03*
X531975Y626002D02*
D03*
Y645502D02*
D03*
X556970Y626002D02*
D03*
Y645502D02*
D03*
X590000Y626000D02*
D03*
Y645500D02*
D03*
X642015Y645498D02*
D03*
Y625998D02*
D03*
X667010Y645498D02*
D03*
Y625998D02*
D03*
X691975Y626002D02*
D03*
Y645502D02*
D03*
X716970Y626002D02*
D03*
Y645502D02*
D03*
X750000Y626000D02*
D03*
Y645500D02*
D03*
X802015Y645498D02*
D03*
Y625998D02*
D03*
X827010Y645498D02*
D03*
Y625998D02*
D03*
X851975Y626002D02*
D03*
Y645502D02*
D03*
X876970Y626002D02*
D03*
Y645502D02*
D03*
X573000Y118500D02*
D03*
Y99000D02*
D03*
X598006Y118495D02*
D03*
Y98995D02*
D03*
X623012Y118495D02*
D03*
Y98995D02*
D03*
X647988Y99000D02*
D03*
Y118500D02*
D03*
X672994Y98995D02*
D03*
Y118495D02*
D03*
X698000Y99000D02*
D03*
Y118500D02*
D03*
X553500Y438000D02*
D03*
Y418500D02*
D03*
X434000Y538000D02*
D03*
Y557500D02*
D03*
X459000Y538000D02*
D03*
Y557500D02*
D03*
X454000Y415495D02*
D03*
Y434995D02*
D03*
X429000Y434998D02*
D03*
Y415498D02*
D03*
X404000D02*
D03*
Y434998D02*
D03*
X508000Y147000D02*
D03*
Y166500D02*
D03*
X428000Y147000D02*
D03*
Y166500D02*
D03*
D42*
X326000Y141000D02*
D03*
X316000Y121000D02*
D03*
X306000Y141000D02*
D03*
X195000Y693000D02*
D03*
X205000Y673000D02*
D03*
X185000D02*
D03*
X232000Y693000D02*
D03*
X242000Y673000D02*
D03*
X222000D02*
D03*
X355000Y693000D02*
D03*
X365000Y673000D02*
D03*
X345000D02*
D03*
X392000Y693000D02*
D03*
X402000Y673000D02*
D03*
X382000D02*
D03*
X515000Y693000D02*
D03*
X525000Y673000D02*
D03*
X505000D02*
D03*
X552000Y693000D02*
D03*
X562000Y673000D02*
D03*
X542000D02*
D03*
X675000Y693000D02*
D03*
X685000Y673000D02*
D03*
X665000D02*
D03*
X712000Y693000D02*
D03*
X722000Y673000D02*
D03*
X702000D02*
D03*
X835000Y693000D02*
D03*
X845000Y673000D02*
D03*
X825000D02*
D03*
X872000Y693000D02*
D03*
X882000Y673000D02*
D03*
X862000D02*
D03*
D43*
X306500Y160000D02*
D03*
X326000D02*
D03*
X323500Y444000D02*
D03*
X304000D02*
D03*
X262500D02*
D03*
X282000D02*
D03*
X342000Y244000D02*
D03*
X322500D02*
D03*
Y269000D02*
D03*
X342000D02*
D03*
X142000Y209000D02*
D03*
X161500D02*
D03*
X68500Y262000D02*
D03*
X88000D02*
D03*
X68500Y196000D02*
D03*
X88000D02*
D03*
X68500Y130000D02*
D03*
X88000D02*
D03*
X147750Y347000D02*
D03*
X128250D02*
D03*
X148000Y322000D02*
D03*
X128500D02*
D03*
X171250Y347000D02*
D03*
X190750D02*
D03*
X171000Y322000D02*
D03*
X190500D02*
D03*
X37250Y484000D02*
D03*
X56750D02*
D03*
X880500Y251500D02*
D03*
X900000D02*
D03*
X880500Y277500D02*
D03*
X900000D02*
D03*
X880500Y411500D02*
D03*
X900000D02*
D03*
X880500Y437500D02*
D03*
X900000D02*
D03*
X880500Y571500D02*
D03*
X900000D02*
D03*
X880500Y597500D02*
D03*
X900000D02*
D03*
X826002Y150530D02*
D03*
X845502D02*
D03*
X826002Y175525D02*
D03*
X845502D02*
D03*
X845498Y200490D02*
D03*
X825998D02*
D03*
X845498Y225485D02*
D03*
X825998D02*
D03*
X845500Y277500D02*
D03*
X826000D02*
D03*
X826002Y310530D02*
D03*
X845502D02*
D03*
X826002Y335525D02*
D03*
X845502D02*
D03*
X845498Y360490D02*
D03*
X825998D02*
D03*
X845498Y385485D02*
D03*
X825998D02*
D03*
X845500Y437500D02*
D03*
X826000D02*
D03*
X826002Y470530D02*
D03*
X845502D02*
D03*
X826002Y495525D02*
D03*
X845502D02*
D03*
X845498Y520490D02*
D03*
X825998D02*
D03*
X845498Y545485D02*
D03*
X825998D02*
D03*
X845500Y597500D02*
D03*
X826000D02*
D03*
X647250Y154000D02*
D03*
X666750D02*
D03*
Y188000D02*
D03*
X647250D02*
D03*
X711245Y264000D02*
D03*
X730745D02*
D03*
X731000Y315000D02*
D03*
X711500D02*
D03*
X711245Y340000D02*
D03*
X730745D02*
D03*
X666500Y492000D02*
D03*
X647000D02*
D03*
X666750Y518000D02*
D03*
X647250D02*
D03*
X444500Y489000D02*
D03*
X425000D02*
D03*
X462250D02*
D03*
X481750D02*
D03*
D44*
X282000Y423000D02*
D03*
Y410300D02*
D03*
Y397600D02*
D03*
Y384900D02*
D03*
X228000D02*
D03*
Y397600D02*
D03*
Y410300D02*
D03*
Y423000D02*
D03*
D45*
X260000Y260500D02*
D03*
Y345500D02*
D03*
D46*
X171000Y296000D02*
D03*
X148000D02*
D03*
X194000D02*
D03*
D47*
X171000Y233480D02*
D03*
D48*
X305000Y192750D02*
D03*
X233000D02*
D03*
X16000Y163000D02*
D03*
X88000D02*
D03*
X16000Y229000D02*
D03*
X88000D02*
D03*
X16000Y295000D02*
D03*
X88000D02*
D03*
D49*
X209000Y209000D02*
D03*
X181000D02*
D03*
X647000Y555000D02*
D03*
X675000D02*
D03*
D50*
X148000Y397000D02*
D03*
Y369000D02*
D03*
X379000Y416000D02*
D03*
Y444000D02*
D03*
D51*
X37000Y513000D02*
D03*
Y582000D02*
D03*
D52*
X162000Y700000D02*
D03*
Y666000D02*
D03*
X322000Y700000D02*
D03*
Y666000D02*
D03*
X482000Y700000D02*
D03*
Y666000D02*
D03*
X642000Y700000D02*
D03*
Y666000D02*
D03*
X802000Y700000D02*
D03*
Y666000D02*
D03*
X136000Y626000D02*
D03*
Y660000D02*
D03*
X296000Y626000D02*
D03*
Y660000D02*
D03*
X456000Y626000D02*
D03*
Y660000D02*
D03*
X616000Y626000D02*
D03*
Y660000D02*
D03*
X776000Y626000D02*
D03*
Y660000D02*
D03*
D53*
X900000Y385500D02*
D03*
X866000D02*
D03*
X900000Y225500D02*
D03*
X866000D02*
D03*
X900000Y545500D02*
D03*
X866000D02*
D03*
X860000Y251750D02*
D03*
X826000D02*
D03*
X860000Y411750D02*
D03*
X826000D02*
D03*
X860000Y571750D02*
D03*
X826000D02*
D03*
X459000Y515000D02*
D03*
X425000D02*
D03*
D54*
X873000Y145500D02*
D03*
X893000Y155500D02*
D03*
X873000Y165500D02*
D03*
Y182500D02*
D03*
X893000Y192500D02*
D03*
X873000Y202500D02*
D03*
Y305500D02*
D03*
X893000Y315500D02*
D03*
X873000Y325500D02*
D03*
Y342500D02*
D03*
X893000Y352500D02*
D03*
X873000Y362500D02*
D03*
Y465500D02*
D03*
X893000Y475500D02*
D03*
X873000Y485500D02*
D03*
Y502500D02*
D03*
X893000Y512500D02*
D03*
X873000Y522500D02*
D03*
D55*
X212625Y538000D02*
D03*
D56*
X377375D02*
D03*
D57*
X429000Y352000D02*
D03*
X434000D02*
D03*
X449000D02*
D03*
X454000D02*
D03*
X459000D02*
D03*
X504000D02*
D03*
Y231000D02*
D03*
X499000D02*
D03*
X474000D02*
D03*
X469000D02*
D03*
X464000D02*
D03*
X459000D02*
D03*
X454000D02*
D03*
X449000D02*
D03*
X444000D02*
D03*
X439000D02*
D03*
X434000D02*
D03*
X429000D02*
D03*
X439000Y352000D02*
D03*
X444000D02*
D03*
X464000D02*
D03*
X469000D02*
D03*
X474000D02*
D03*
X479000D02*
D03*
X484000D02*
D03*
X489000D02*
D03*
X494000D02*
D03*
X499000D02*
D03*
X494000Y231000D02*
D03*
X489000D02*
D03*
X484000D02*
D03*
X479000D02*
D03*
D58*
X527000Y329000D02*
D03*
Y324000D02*
D03*
Y319000D02*
D03*
Y304000D02*
D03*
Y299000D02*
D03*
Y269000D02*
D03*
Y264000D02*
D03*
Y259000D02*
D03*
Y254000D02*
D03*
X406000D02*
D03*
Y259000D02*
D03*
Y264000D02*
D03*
Y269000D02*
D03*
Y274000D02*
D03*
Y299000D02*
D03*
Y304000D02*
D03*
Y309000D02*
D03*
Y329000D02*
D03*
Y294000D02*
D03*
X527000Y314000D02*
D03*
Y309000D02*
D03*
Y294000D02*
D03*
Y289000D02*
D03*
Y284000D02*
D03*
Y279000D02*
D03*
Y274000D02*
D03*
X406000Y279000D02*
D03*
Y284000D02*
D03*
Y289000D02*
D03*
Y314000D02*
D03*
Y319000D02*
D03*
Y324000D02*
D03*
M02*
